<svg width="39" height="480" viewBox="0 0 39 480" fill="none" xmlns="http://www.w3.org/2000/svg">
<rect width="427" height="480" rx="14" fill="black" fill-opacity="0.01"/>
<path d="M33.544 158V143.768H28.24V141.032H41.824V143.768H36.52V158H33.544ZM43.4785 158V141.032H46.4065V146.984C46.7425 146.552 47.1345 146.2 47.5825 145.928C48.0305 145.656 48.5025 145.464 48.9985 145.352C49.4945 145.224 49.9665 145.16 50.4145 145.16C51.6145 145.16 52.5585 145.424 53.2465 145.952C53.9345 146.48 54.4145 147.184 54.6865 148.064C54.9745 148.944 55.1185 149.936 55.1185 151.04V158H52.1905V151.544C52.1905 151.112 52.1585 150.672 52.0945 150.224C52.0305 149.776 51.9025 149.376 51.7105 149.024C51.5345 148.656 51.2625 148.36 50.8945 148.136C50.5425 147.912 50.0705 147.8 49.4785 147.8C48.9185 147.8 48.4385 147.92 48.0385 148.16C47.6385 148.384 47.3185 148.696 47.0785 149.096C46.8545 149.496 46.6865 149.936 46.5745 150.416C46.4625 150.896 46.4065 151.376 46.4065 151.856V158H43.4785ZM57.8691 158V145.352H60.7971V158H57.8691ZM59.3331 143.888C58.7731 143.888 58.3251 143.72 57.9891 143.384C57.6531 143.048 57.4851 142.608 57.4851 142.064C57.4851 141.536 57.6611 141.104 58.0131 140.768C58.3651 140.416 58.8051 140.24 59.3331 140.24C59.8451 140.24 60.2851 140.408 60.6531 140.744C61.0211 141.08 61.2051 141.52 61.2051 142.064C61.2051 142.608 61.0291 143.048 60.6771 143.384C60.3251 143.72 59.8771 143.888 59.3331 143.888ZM68.4828 158.168C67.8748 158.168 67.2668 158.104 66.6588 157.976C66.0668 157.848 65.5068 157.64 64.9788 157.352C64.4508 157.048 64.0108 156.64 63.6588 156.128C63.3068 155.616 63.0748 154.976 62.9628 154.208H65.9148C66.0428 154.56 66.2428 154.848 66.5148 155.072C66.8028 155.28 67.1308 155.44 67.4988 155.552C67.8828 155.648 68.2588 155.696 68.6268 155.696C68.8508 155.696 69.0908 155.68 69.3468 155.648C69.6188 155.616 69.8668 155.552 70.0908 155.456C70.3308 155.36 70.5228 155.224 70.6668 155.048C70.8108 154.856 70.8828 154.608 70.8828 154.304C70.8828 154.016 70.8028 153.792 70.6428 153.632C70.4828 153.456 70.2668 153.32 69.9948 153.224C69.7228 153.112 69.3948 153.024 69.0108 152.96C68.3228 152.816 67.5868 152.664 66.8028 152.504C66.0188 152.328 65.3388 152.056 64.7628 151.688C64.5228 151.544 64.3148 151.376 64.1388 151.184C63.9628 150.992 63.8108 150.784 63.6828 150.56C63.5708 150.32 63.4828 150.064 63.4188 149.792C63.3708 149.52 63.3468 149.224 63.3468 148.904C63.3468 148.232 63.4828 147.664 63.7548 147.2C64.0428 146.72 64.4188 146.336 64.8828 146.048C65.3628 145.744 65.9068 145.52 66.5148 145.376C67.1228 145.232 67.7468 145.16 68.3867 145.16C69.2508 145.16 70.0348 145.296 70.7388 145.568C71.4428 145.84 72.0268 146.256 72.4908 146.816C72.9708 147.376 73.2588 148.088 73.3548 148.952H70.5708C70.4908 148.552 70.2428 148.232 69.8268 147.992C69.4268 147.752 68.9148 147.632 68.2908 147.632C68.0668 147.632 67.8348 147.656 67.5948 147.704C67.3548 147.736 67.1228 147.8 66.8988 147.896C66.6908 147.976 66.5148 148.104 66.3708 148.28C66.2428 148.456 66.1788 148.672 66.1788 148.928C66.1788 149.168 66.2348 149.376 66.3468 149.552C66.4748 149.728 66.6588 149.88 66.8988 150.008C67.1548 150.12 67.4508 150.216 67.7868 150.296C68.3308 150.408 68.8988 150.52 69.4908 150.632C70.0828 150.744 70.5948 150.856 71.0268 150.968C71.5388 151.112 72.0028 151.32 72.4188 151.592C72.8348 151.848 73.1548 152.192 73.3788 152.624C73.6188 153.04 73.7388 153.576 73.7388 154.232C73.7388 155 73.5788 155.64 73.2588 156.152C72.9548 156.664 72.5468 157.064 72.0348 157.352C71.5228 157.64 70.9548 157.848 70.3308 157.976C69.7068 158.104 69.0908 158.168 68.4828 158.168ZM87.4203 158.168C86.8123 158.168 86.2043 158.104 85.5963 157.976C85.0043 157.848 84.4443 157.64 83.9163 157.352C83.3883 157.048 82.9483 156.64 82.5963 156.128C82.2443 155.616 82.0123 154.976 81.9003 154.208H84.8523C84.9803 154.56 85.1803 154.848 85.4523 155.072C85.7403 155.28 86.0683 155.44 86.4363 155.552C86.8203 155.648 87.1963 155.696 87.5643 155.696C87.7883 155.696 88.0283 155.68 88.2843 155.648C88.5563 155.616 88.8043 155.552 89.0283 155.456C89.2683 155.36 89.4603 155.224 89.6043 155.048C89.7483 154.856 89.8203 154.608 89.8203 154.304C89.8203 154.016 89.7403 153.792 89.5803 153.632C89.4203 153.456 89.2043 153.32 88.9323 153.224C88.6603 153.112 88.3323 153.024 87.9483 152.96C87.2603 152.816 86.5243 152.664 85.7403 152.504C84.9563 152.328 84.2763 152.056 83.7003 151.688C83.4603 151.544 83.2523 151.376 83.0763 151.184C82.9003 150.992 82.7483 150.784 82.6203 150.56C82.5083 150.32 82.4203 150.064 82.3563 149.792C82.3083 149.52 82.2843 149.224 82.2843 148.904C82.2843 148.232 82.4203 147.664 82.6923 147.2C82.9803 146.72 83.3563 146.336 83.8203 146.048C84.3003 145.744 84.8443 145.52 85.4523 145.376C86.0603 145.232 86.6843 145.16 87.3242 145.16C88.1883 145.16 88.9723 145.296 89.6763 145.568C90.3803 145.84 90.9643 146.256 91.4283 146.816C91.9083 147.376 92.1963 148.088 92.2923 148.952H89.5083C89.4283 148.552 89.1803 148.232 88.7643 147.992C88.3643 147.752 87.8523 147.632 87.2283 147.632C87.0043 147.632 86.7723 147.656 86.5323 147.704C86.2923 147.736 86.0603 147.8 85.8363 147.896C85.6283 147.976 85.4523 148.104 85.3083 148.28C85.1803 148.456 85.1163 148.672 85.1163 148.928C85.1163 149.168 85.1723 149.376 85.2843 149.552C85.4123 149.728 85.5963 149.88 85.8363 150.008C86.0923 150.12 86.3883 150.216 86.7243 150.296C87.2683 150.408 87.8363 150.52 88.4283 150.632C89.0203 150.744 89.5323 150.856 89.9643 150.968C90.4763 151.112 90.9403 151.32 91.3563 151.592C91.7723 151.848 92.0923 152.192 92.3163 152.624C92.5563 153.04 92.6763 153.576 92.6763 154.232C92.6763 155 92.5163 155.64 92.1963 156.152C91.8923 156.664 91.4843 157.064 90.9723 157.352C90.4603 157.64 89.8923 157.848 89.2683 157.976C88.6443 158.104 88.0283 158.168 87.4203 158.168ZM100.494 158.168C99.1821 158.168 98.0621 157.896 97.1341 157.352C96.2221 156.808 95.5261 156.056 95.0461 155.096C94.5821 154.12 94.3501 152.992 94.3501 151.712C94.3501 150.432 94.5901 149.304 95.0701 148.328C95.5661 147.336 96.2701 146.56 97.1821 146C98.1101 145.44 99.2221 145.16 100.518 145.16C101.478 145.16 102.318 145.336 103.038 145.688C103.758 146.024 104.358 146.488 104.838 147.08C105.334 147.672 105.702 148.344 105.942 149.096C106.182 149.848 106.294 150.64 106.278 151.472C106.262 151.664 106.246 151.856 106.23 152.048C106.214 152.224 106.19 152.416 106.158 152.624H97.2781C97.3261 153.184 97.4701 153.696 97.7101 154.16C97.9661 154.624 98.3181 154.992 98.7661 155.264C99.2301 155.536 99.8061 155.672 100.494 155.672C100.894 155.672 101.278 155.624 101.646 155.528C102.014 155.416 102.334 155.256 102.606 155.048C102.894 154.84 103.086 154.576 103.182 154.256H106.11C105.902 155.168 105.518 155.912 104.958 156.488C104.398 157.064 103.726 157.488 102.942 157.76C102.174 158.032 101.358 158.168 100.494 158.168ZM97.3261 150.44H103.422C103.422 149.912 103.302 149.432 103.062 149C102.822 148.568 102.478 148.232 102.03 147.992C101.598 147.736 101.07 147.608 100.446 147.608C99.7741 147.608 99.2141 147.744 98.7661 148.016C98.3181 148.288 97.9741 148.64 97.7341 149.072C97.4941 149.504 97.3581 149.96 97.3261 150.44ZM108.611 158V145.352H111.275L111.443 147.008C111.763 146.528 112.123 146.16 112.523 145.904C112.939 145.632 113.379 145.44 113.843 145.328C114.323 145.216 114.803 145.16 115.283 145.16C115.459 145.16 115.619 145.16 115.763 145.16C115.923 145.16 116.051 145.168 116.147 145.184V147.968H115.379C114.547 147.968 113.843 148.128 113.267 148.448C112.691 148.768 112.259 149.224 111.971 149.816C111.683 150.408 111.539 151.136 111.539 152V158H108.611ZM121.085 158L116.501 145.352H119.741L123.077 155.504L126.389 145.352H129.605L125.021 158H121.085ZM131.064 158V145.352H133.992V158H131.064ZM132.528 143.888C131.968 143.888 131.52 143.72 131.184 143.384C130.848 143.048 130.68 142.608 130.68 142.064C130.68 141.536 130.856 141.104 131.208 140.768C131.56 140.416 132 140.24 132.528 140.24C133.04 140.24 133.48 140.408 133.848 140.744C134.216 141.08 134.4 141.52 134.4 142.064C134.4 142.608 134.224 143.048 133.872 143.384C133.52 143.72 133.072 143.888 132.528 143.888ZM142.398 158.168C141.086 158.168 139.982 157.904 139.086 157.376C138.19 156.832 137.51 156.072 137.046 155.096C136.582 154.12 136.35 152.992 136.35 151.712C136.35 150.432 136.59 149.304 137.07 148.328C137.55 147.336 138.254 146.56 139.182 146C140.11 145.44 141.238 145.16 142.566 145.16C143.542 145.16 144.406 145.328 145.158 145.664C145.926 146 146.542 146.496 147.006 147.152C147.486 147.792 147.79 148.592 147.918 149.552H145.038C144.846 148.944 144.526 148.504 144.078 148.232C143.646 147.944 143.126 147.8 142.518 147.8C141.702 147.8 141.054 148 140.574 148.4C140.11 148.784 139.774 149.272 139.566 149.864C139.358 150.456 139.254 151.072 139.254 151.712C139.254 152.384 139.366 153.016 139.59 153.608C139.814 154.184 140.158 154.648 140.622 155C141.102 155.352 141.718 155.528 142.47 155.528C143.078 155.528 143.622 155.392 144.102 155.12C144.598 154.848 144.918 154.408 145.062 153.8H148.038C147.926 154.776 147.598 155.592 147.054 156.248C146.526 156.888 145.854 157.368 145.038 157.688C144.222 158.008 143.342 158.168 142.398 158.168ZM155.9 158.168C154.588 158.168 153.468 157.896 152.54 157.352C151.628 156.808 150.932 156.056 150.452 155.096C149.988 154.12 149.756 152.992 149.756 151.712C149.756 150.432 149.996 149.304 150.476 148.328C150.972 147.336 151.676 146.56 152.588 146C153.516 145.44 154.628 145.16 155.924 145.16C156.884 145.16 157.724 145.336 158.444 145.688C159.164 146.024 159.764 146.488 160.244 147.08C160.74 147.672 161.108 148.344 161.348 149.096C161.588 149.848 161.7 150.64 161.684 151.472C161.668 151.664 161.652 151.856 161.636 152.048C161.62 152.224 161.596 152.416 161.564 152.624H152.684C152.732 153.184 152.876 153.696 153.116 154.16C153.372 154.624 153.724 154.992 154.172 155.264C154.636 155.536 155.212 155.672 155.9 155.672C156.3 155.672 156.684 155.624 157.052 155.528C157.42 155.416 157.74 155.256 158.012 155.048C158.3 154.84 158.492 154.576 158.588 154.256H161.516C161.308 155.168 160.924 155.912 160.364 156.488C159.804 157.064 159.132 157.488 158.348 157.76C157.58 158.032 156.764 158.168 155.9 158.168ZM152.732 150.44H158.828C158.828 149.912 158.708 149.432 158.468 149C158.228 148.568 157.884 148.232 157.436 147.992C157.004 147.736 156.476 147.608 155.852 147.608C155.18 147.608 154.62 147.744 154.172 148.016C153.724 148.288 153.38 148.64 153.14 149.072C152.9 149.504 152.764 149.96 152.732 150.44ZM168.866 158.168C168.258 158.168 167.65 158.104 167.042 157.976C166.45 157.848 165.89 157.64 165.362 157.352C164.834 157.048 164.394 156.64 164.042 156.128C163.69 155.616 163.458 154.976 163.346 154.208H166.298C166.426 154.56 166.626 154.848 166.898 155.072C167.186 155.28 167.514 155.44 167.882 155.552C168.266 155.648 168.642 155.696 169.01 155.696C169.234 155.696 169.474 155.68 169.73 155.648C170.002 155.616 170.25 155.552 170.474 155.456C170.714 155.36 170.906 155.224 171.05 155.048C171.194 154.856 171.266 154.608 171.266 154.304C171.266 154.016 171.186 153.792 171.026 153.632C170.866 153.456 170.65 153.32 170.378 153.224C170.106 153.112 169.778 153.024 169.394 152.96C168.706 152.816 167.97 152.664 167.186 152.504C166.402 152.328 165.722 152.056 165.146 151.688C164.906 151.544 164.698 151.376 164.522 151.184C164.346 150.992 164.194 150.784 164.066 150.56C163.954 150.32 163.866 150.064 163.802 149.792C163.754 149.52 163.73 149.224 163.73 148.904C163.73 148.232 163.866 147.664 164.138 147.2C164.426 146.72 164.802 146.336 165.266 146.048C165.746 145.744 166.29 145.52 166.898 145.376C167.506 145.232 168.13 145.16 168.77 145.16C169.634 145.16 170.418 145.296 171.122 145.568C171.826 145.84 172.41 146.256 172.874 146.816C173.354 147.376 173.642 148.088 173.738 148.952H170.954C170.874 148.552 170.626 148.232 170.21 147.992C169.81 147.752 169.298 147.632 168.674 147.632C168.45 147.632 168.218 147.656 167.978 147.704C167.738 147.736 167.506 147.8 167.282 147.896C167.074 147.976 166.898 148.104 166.754 148.28C166.626 148.456 166.562 148.672 166.562 148.928C166.562 149.168 166.618 149.376 166.73 149.552C166.858 149.728 167.042 149.88 167.282 150.008C167.538 150.12 167.834 150.216 168.17 150.296C168.714 150.408 169.282 150.52 169.874 150.632C170.466 150.744 170.978 150.856 171.41 150.968C171.922 151.112 172.386 151.32 172.802 151.592C173.218 151.848 173.538 152.192 173.762 152.624C174.002 153.04 174.122 153.576 174.122 154.232C174.122 155 173.962 155.64 173.642 156.152C173.338 156.664 172.93 157.064 172.418 157.352C171.906 157.64 171.338 157.848 170.714 157.976C170.09 158.104 169.474 158.168 168.866 158.168ZM182.955 158V145.352H185.883V158H182.955ZM184.419 143.888C183.859 143.888 183.411 143.72 183.075 143.384C182.739 143.048 182.571 142.608 182.571 142.064C182.571 141.536 182.747 141.104 183.099 140.768C183.451 140.416 183.891 140.24 184.419 140.24C184.931 140.24 185.371 140.408 185.739 140.744C186.107 141.08 186.291 141.52 186.291 142.064C186.291 142.608 186.115 143.048 185.763 143.384C185.411 143.72 184.963 143.888 184.419 143.888ZM193.569 158.168C192.961 158.168 192.353 158.104 191.745 157.976C191.153 157.848 190.593 157.64 190.065 157.352C189.537 157.048 189.097 156.64 188.745 156.128C188.393 155.616 188.161 154.976 188.049 154.208H191.001C191.129 154.56 191.329 154.848 191.601 155.072C191.889 155.28 192.217 155.44 192.585 155.552C192.969 155.648 193.345 155.696 193.713 155.696C193.937 155.696 194.177 155.68 194.433 155.648C194.705 155.616 194.953 155.552 195.177 155.456C195.417 155.36 195.609 155.224 195.753 155.048C195.897 154.856 195.969 154.608 195.969 154.304C195.969 154.016 195.889 153.792 195.729 153.632C195.569 153.456 195.353 153.32 195.081 153.224C194.809 153.112 194.481 153.024 194.097 152.96C193.409 152.816 192.673 152.664 191.889 152.504C191.105 152.328 190.425 152.056 189.849 151.688C189.609 151.544 189.401 151.376 189.225 151.184C189.049 150.992 188.897 150.784 188.769 150.56C188.657 150.32 188.569 150.064 188.505 149.792C188.457 149.52 188.433 149.224 188.433 148.904C188.433 148.232 188.569 147.664 188.841 147.2C189.129 146.72 189.505 146.336 189.969 146.048C190.449 145.744 190.993 145.52 191.601 145.376C192.209 145.232 192.833 145.16 193.473 145.16C194.337 145.16 195.121 145.296 195.825 145.568C196.529 145.84 197.113 146.256 197.577 146.816C198.057 147.376 198.345 148.088 198.441 148.952H195.657C195.577 148.552 195.329 148.232 194.913 147.992C194.513 147.752 194.001 147.632 193.377 147.632C193.153 147.632 192.921 147.656 192.681 147.704C192.441 147.736 192.209 147.8 191.985 147.896C191.777 147.976 191.601 148.104 191.457 148.28C191.329 148.456 191.265 148.672 191.265 148.928C191.265 149.168 191.321 149.376 191.433 149.552C191.561 149.728 191.745 149.88 191.985 150.008C192.241 150.12 192.537 150.216 192.873 150.296C193.417 150.408 193.985 150.52 194.577 150.632C195.169 150.744 195.681 150.856 196.113 150.968C196.625 151.112 197.089 151.32 197.505 151.592C197.921 151.848 198.241 152.192 198.465 152.624C198.705 153.04 198.825 153.576 198.825 154.232C198.825 155 198.665 155.64 198.345 156.152C198.041 156.664 197.633 157.064 197.121 157.352C196.609 157.64 196.041 157.848 195.417 157.976C194.793 158.104 194.177 158.168 193.569 158.168ZM211.69 158.168C211.098 158.168 210.538 158.088 210.01 157.928C209.482 157.768 209.01 157.536 208.594 157.232C208.178 156.912 207.842 156.52 207.586 156.056C207.346 155.576 207.226 155.016 207.226 154.376C207.226 153.56 207.386 152.896 207.706 152.384C208.026 151.856 208.458 151.456 209.002 151.184C209.562 150.912 210.194 150.728 210.898 150.632C211.602 150.52 212.338 150.464 213.106 150.464H215.578C215.578 149.904 215.49 149.424 215.314 149.024C215.138 148.608 214.858 148.28 214.474 148.04C214.106 147.8 213.626 147.68 213.034 147.68C212.65 147.68 212.29 147.728 211.954 147.824C211.634 147.904 211.354 148.04 211.114 148.232C210.89 148.408 210.73 148.64 210.634 148.928H207.634C207.746 148.272 207.97 147.712 208.306 147.248C208.658 146.768 209.082 146.376 209.578 146.072C210.09 145.768 210.65 145.544 211.258 145.4C211.866 145.24 212.482 145.16 213.106 145.16C214.946 145.16 216.282 145.688 217.114 146.744C217.962 147.8 218.386 149.28 218.386 151.184V158H215.794L215.722 156.368C215.354 156.912 214.914 157.312 214.402 157.568C213.89 157.824 213.394 157.984 212.914 158.048C212.434 158.128 212.026 158.168 211.69 158.168ZM212.266 155.792C212.906 155.792 213.474 155.672 213.97 155.432C214.466 155.192 214.858 154.856 215.146 154.424C215.45 153.992 215.602 153.496 215.602 152.936V152.528H213.298C212.914 152.528 212.53 152.544 212.146 152.576C211.778 152.592 211.442 152.656 211.138 152.768C210.834 152.864 210.586 153.016 210.394 153.224C210.218 153.432 210.13 153.728 210.13 154.112C210.13 154.496 210.226 154.808 210.418 155.048C210.626 155.288 210.89 155.472 211.21 155.6C211.546 155.728 211.898 155.792 212.266 155.792ZM223.846 158L219.886 145.352H223.126L225.67 154.784L228.382 145.352H231.838L234.55 154.784L237.07 145.352H240.262L236.302 158H232.798L230.062 148.88L227.35 158H223.846ZM247.471 158.168C246.159 158.168 245.039 157.896 244.111 157.352C243.199 156.808 242.503 156.056 242.023 155.096C241.559 154.12 241.327 152.992 241.327 151.712C241.327 150.432 241.567 149.304 242.047 148.328C242.543 147.336 243.247 146.56 244.159 146C245.087 145.44 246.199 145.16 247.495 145.16C248.455 145.16 249.295 145.336 250.015 145.688C250.735 146.024 251.335 146.488 251.815 147.08C252.311 147.672 252.679 148.344 252.919 149.096C253.159 149.848 253.271 150.64 253.255 151.472C253.239 151.664 253.223 151.856 253.207 152.048C253.191 152.224 253.167 152.416 253.135 152.624H244.255C244.303 153.184 244.447 153.696 244.687 154.16C244.943 154.624 245.295 154.992 245.743 155.264C246.207 155.536 246.783 155.672 247.471 155.672C247.871 155.672 248.255 155.624 248.623 155.528C248.991 155.416 249.311 155.256 249.583 155.048C249.871 154.84 250.063 154.576 250.159 154.256H253.087C252.879 155.168 252.495 155.912 251.935 156.488C251.375 157.064 250.703 157.488 249.919 157.76C249.151 158.032 248.335 158.168 247.471 158.168ZM244.303 150.44H250.399C250.399 149.912 250.279 149.432 250.039 149C249.799 148.568 249.455 148.232 249.007 147.992C248.575 147.736 248.047 147.608 247.423 147.608C246.751 147.608 246.191 147.744 245.743 148.016C245.295 148.288 244.951 148.64 244.711 149.072C244.471 149.504 244.335 149.96 244.303 150.44ZM260.436 158.168C259.828 158.168 259.22 158.104 258.612 157.976C258.02 157.848 257.46 157.64 256.932 157.352C256.404 157.048 255.964 156.64 255.612 156.128C255.26 155.616 255.028 154.976 254.916 154.208H257.868C257.996 154.56 258.196 154.848 258.468 155.072C258.756 155.28 259.084 155.44 259.452 155.552C259.836 155.648 260.212 155.696 260.58 155.696C260.804 155.696 261.044 155.68 261.3 155.648C261.572 155.616 261.82 155.552 262.044 155.456C262.284 155.36 262.476 155.224 262.62 155.048C262.764 154.856 262.836 154.608 262.836 154.304C262.836 154.016 262.756 153.792 262.596 153.632C262.436 153.456 262.22 153.32 261.948 153.224C261.676 153.112 261.348 153.024 260.964 152.96C260.276 152.816 259.54 152.664 258.756 152.504C257.972 152.328 257.292 152.056 256.716 151.688C256.476 151.544 256.268 151.376 256.092 151.184C255.916 150.992 255.764 150.784 255.636 150.56C255.524 150.32 255.436 150.064 255.372 149.792C255.324 149.52 255.3 149.224 255.3 148.904C255.3 148.232 255.436 147.664 255.708 147.2C255.996 146.72 256.372 146.336 256.836 146.048C257.316 145.744 257.86 145.52 258.468 145.376C259.076 145.232 259.7 145.16 260.34 145.16C261.204 145.16 261.988 145.296 262.692 145.568C263.396 145.84 263.98 146.256 264.444 146.816C264.924 147.376 265.212 148.088 265.308 148.952H262.524C262.444 148.552 262.196 148.232 261.78 147.992C261.38 147.752 260.868 147.632 260.244 147.632C260.02 147.632 259.788 147.656 259.548 147.704C259.308 147.736 259.076 147.8 258.852 147.896C258.644 147.976 258.468 148.104 258.324 148.28C258.196 148.456 258.132 148.672 258.132 148.928C258.132 149.168 258.188 149.376 258.3 149.552C258.428 149.728 258.612 149.88 258.852 150.008C259.108 150.12 259.404 150.216 259.74 150.296C260.284 150.408 260.852 150.52 261.444 150.632C262.036 150.744 262.548 150.856 262.98 150.968C263.492 151.112 263.956 151.32 264.372 151.592C264.788 151.848 265.108 152.192 265.332 152.624C265.572 153.04 265.692 153.576 265.692 154.232C265.692 155 265.532 155.64 265.212 156.152C264.908 156.664 264.5 157.064 263.988 157.352C263.476 157.64 262.908 157.848 262.284 157.976C261.66 158.104 261.044 158.168 260.436 158.168ZM273.63 158.168C272.334 158.168 271.214 157.904 270.27 157.376C269.342 156.848 268.622 156.096 268.11 155.12C267.614 154.144 267.366 153 267.366 151.688C267.366 150.36 267.622 149.216 268.134 148.256C268.646 147.28 269.366 146.52 270.294 145.976C271.222 145.432 272.334 145.16 273.63 145.16C274.91 145.16 276.014 145.432 276.942 145.976C277.87 146.52 278.582 147.288 279.078 148.28C279.574 149.256 279.822 150.408 279.822 151.736C279.822 153.032 279.574 154.168 279.078 155.144C278.598 156.104 277.894 156.848 276.966 157.376C276.038 157.904 274.926 158.168 273.63 158.168ZM273.606 155.504C274.406 155.504 275.046 155.328 275.526 154.976C276.022 154.624 276.382 154.16 276.606 153.584C276.83 153.008 276.942 152.384 276.942 151.712C276.942 151.04 276.83 150.408 276.606 149.816C276.382 149.224 276.022 148.752 275.526 148.4C275.046 148.032 274.406 147.848 273.606 147.848C272.806 147.848 272.158 148.032 271.662 148.4C271.166 148.752 270.806 149.224 270.582 149.816C270.358 150.392 270.246 151.024 270.246 151.712C270.246 152.384 270.358 153.016 270.582 153.608C270.822 154.184 271.182 154.648 271.662 155C272.158 155.336 272.806 155.504 273.606 155.504ZM282.166 158V145.352H284.854L285.046 146.792C285.366 146.36 285.71 146.032 286.078 145.808C286.462 145.568 286.854 145.4 287.254 145.304C287.67 145.208 288.062 145.16 288.43 145.16C289.23 145.16 289.91 145.32 290.47 145.64C291.046 145.96 291.494 146.44 291.814 147.08C292.134 146.632 292.494 146.272 292.894 146C293.294 145.712 293.718 145.504 294.166 145.376C294.614 145.232 295.086 145.16 295.582 145.16C296.558 145.16 297.342 145.368 297.934 145.784C298.526 146.184 298.958 146.744 299.23 147.464C299.502 148.168 299.638 148.976 299.638 149.888V158H296.71V150.824C296.71 150.504 296.694 150.168 296.662 149.816C296.63 149.464 296.542 149.136 296.398 148.832C296.27 148.528 296.078 148.28 295.822 148.088C295.566 147.896 295.206 147.8 294.742 147.8C294.278 147.8 293.894 147.904 293.59 148.112C293.302 148.304 293.062 148.568 292.87 148.904C292.694 149.224 292.566 149.584 292.486 149.984C292.422 150.368 292.39 150.752 292.39 151.136V158H289.462V150.8C289.462 150.496 289.438 150.176 289.39 149.84C289.358 149.488 289.278 149.16 289.15 148.856C289.038 148.536 288.846 148.28 288.574 148.088C288.318 147.896 287.958 147.8 287.494 147.8C286.822 147.8 286.31 147.984 285.958 148.352C285.622 148.72 285.39 149.168 285.262 149.696C285.15 150.224 285.094 150.728 285.094 151.208V158H282.166ZM308.01 158.168C306.698 158.168 305.578 157.896 304.65 157.352C303.738 156.808 303.042 156.056 302.562 155.096C302.098 154.12 301.866 152.992 301.866 151.712C301.866 150.432 302.106 149.304 302.586 148.328C303.082 147.336 303.786 146.56 304.698 146C305.626 145.44 306.738 145.16 308.034 145.16C308.994 145.16 309.834 145.336 310.554 145.688C311.274 146.024 311.874 146.488 312.354 147.08C312.85 147.672 313.218 148.344 313.458 149.096C313.698 149.848 313.81 150.64 313.794 151.472C313.778 151.664 313.762 151.856 313.746 152.048C313.73 152.224 313.706 152.416 313.674 152.624H304.794C304.842 153.184 304.986 153.696 305.226 154.16C305.482 154.624 305.834 154.992 306.282 155.264C306.746 155.536 307.322 155.672 308.01 155.672C308.41 155.672 308.794 155.624 309.162 155.528C309.53 155.416 309.85 155.256 310.122 155.048C310.41 154.84 310.602 154.576 310.698 154.256H313.626C313.418 155.168 313.034 155.912 312.474 156.488C311.914 157.064 311.242 157.488 310.458 157.76C309.69 158.032 308.874 158.168 308.01 158.168ZM304.842 150.44H310.938C310.938 149.912 310.818 149.432 310.578 149C310.338 148.568 309.994 148.232 309.546 147.992C309.114 147.736 308.586 147.608 307.962 147.608C307.29 147.608 306.73 147.744 306.282 148.016C305.834 148.288 305.49 148.64 305.25 149.072C305.01 149.504 304.874 149.96 304.842 150.44ZM322.807 158V145.352H325.735V158H322.807ZM324.271 143.888C323.711 143.888 323.263 143.72 322.927 143.384C322.591 143.048 322.423 142.608 322.423 142.064C322.423 141.536 322.599 141.104 322.951 140.768C323.303 140.416 323.743 140.24 324.271 140.24C324.783 140.24 325.223 140.408 325.591 140.744C325.959 141.08 326.143 141.52 326.143 142.064C326.143 142.608 325.967 143.048 325.615 143.384C325.263 143.72 324.815 143.888 324.271 143.888ZM337.916 158L333.956 145.352H337.196L339.74 154.784L342.452 145.352H345.908L348.62 154.784L351.14 145.352H354.332L350.372 158H346.868L344.132 148.88L341.42 158H337.916ZM355.877 158V145.352H358.805V158H355.877ZM357.341 143.888C356.781 143.888 356.333 143.72 355.997 143.384C355.661 143.048 355.493 142.608 355.493 142.064C355.493 141.536 355.669 141.104 356.021 140.768C356.373 140.416 356.813 140.24 357.341 140.24C357.853 140.24 358.293 140.408 358.661 140.744C359.029 141.08 359.213 141.52 359.213 142.064C359.213 142.608 359.037 143.048 358.685 143.384C358.333 143.72 357.885 143.888 357.341 143.888ZM366.491 158.168C365.883 158.168 365.275 158.104 364.667 157.976C364.075 157.848 363.515 157.64 362.987 157.352C362.459 157.048 362.019 156.64 361.667 156.128C361.315 155.616 361.083 154.976 360.971 154.208H363.923C364.051 154.56 364.251 154.848 364.523 155.072C364.811 155.28 365.139 155.44 365.507 155.552C365.891 155.648 366.267 155.696 366.635 155.696C366.859 155.696 367.099 155.68 367.355 155.648C367.627 155.616 367.875 155.552 368.099 155.456C368.339 155.36 368.531 155.224 368.675 155.048C368.819 154.856 368.891 154.608 368.891 154.304C368.891 154.016 368.811 153.792 368.651 153.632C368.491 153.456 368.275 153.32 368.003 153.224C367.731 153.112 367.403 153.024 367.019 152.96C366.331 152.816 365.595 152.664 364.811 152.504C364.027 152.328 363.347 152.056 362.771 151.688C362.531 151.544 362.323 151.376 362.147 151.184C361.971 150.992 361.819 150.784 361.691 150.56C361.579 150.32 361.491 150.064 361.427 149.792C361.379 149.52 361.355 149.224 361.355 148.904C361.355 148.232 361.491 147.664 361.763 147.2C362.051 146.72 362.427 146.336 362.891 146.048C363.371 145.744 363.915 145.52 364.523 145.376C365.131 145.232 365.755 145.16 366.395 145.16C367.259 145.16 368.043 145.296 368.747 145.568C369.451 145.84 370.035 146.256 370.499 146.816C370.979 147.376 371.267 148.088 371.363 148.952H368.579C368.499 148.552 368.251 148.232 367.835 147.992C367.435 147.752 366.923 147.632 366.299 147.632C366.075 147.632 365.843 147.656 365.603 147.704C365.363 147.736 365.131 147.8 364.907 147.896C364.699 147.976 364.523 148.104 364.379 148.28C364.251 148.456 364.187 148.672 364.187 148.928C364.187 149.168 364.243 149.376 364.355 149.552C364.483 149.728 364.667 149.88 364.907 150.008C365.163 150.12 365.459 150.216 365.795 150.296C366.339 150.408 366.907 150.52 367.499 150.632C368.091 150.744 368.603 150.856 369.035 150.968C369.547 151.112 370.011 151.32 370.427 151.592C370.843 151.848 371.163 152.192 371.387 152.624C371.627 153.04 371.747 153.576 371.747 154.232C371.747 155 371.587 155.64 371.267 156.152C370.963 156.664 370.555 157.064 370.043 157.352C369.531 157.64 368.963 157.848 368.339 157.976C367.715 158.104 367.099 158.168 366.491 158.168ZM373.9 158V141.032H376.828V146.984C377.164 146.552 377.556 146.2 378.004 145.928C378.452 145.656 378.924 145.464 379.42 145.352C379.916 145.224 380.388 145.16 380.836 145.16C382.036 145.16 382.98 145.424 383.668 145.952C384.356 146.48 384.836 147.184 385.108 148.064C385.396 148.944 385.54 149.936 385.54 151.04V158H382.612V151.544C382.612 151.112 382.58 150.672 382.516 150.224C382.452 149.776 382.324 149.376 382.132 149.024C381.956 148.656 381.684 148.36 381.316 148.136C380.964 147.912 380.492 147.8 379.9 147.8C379.34 147.8 378.86 147.92 378.46 148.16C378.06 148.384 377.74 148.696 377.5 149.096C377.276 149.496 377.108 149.936 376.996 150.416C376.884 150.896 376.828 151.376 376.828 151.856V158H373.9ZM394.971 158V145.352H397.899V158H394.971ZM396.435 143.888C395.875 143.888 395.427 143.72 395.091 143.384C394.755 143.048 394.587 142.608 394.587 142.064C394.587 141.536 394.763 141.104 395.115 140.768C395.467 140.416 395.907 140.24 396.435 140.24C396.947 140.24 397.387 140.408 397.755 140.744C398.123 141.08 398.307 141.52 398.307 142.064C398.307 142.608 398.131 143.048 397.779 143.384C397.427 143.72 396.979 143.888 396.435 143.888ZM29.416 194V177.032H32.344V186.416H34.168L37.504 181.352H40.792L36.688 187.376L41.128 194H37.72L34.336 188.984H32.344V194H29.416ZM42.5176 194V181.352H45.2536L45.4216 182.96C45.7576 182.512 46.1496 182.16 46.5976 181.904C47.0456 181.648 47.5176 181.464 48.0136 181.352C48.5096 181.224 48.9736 181.16 49.4056 181.16C50.6056 181.16 51.5496 181.424 52.2376 181.952C52.9416 182.48 53.4376 183.184 53.7256 184.064C54.0136 184.944 54.1576 185.928 54.1576 187.016V194H51.2296V187.496C51.2296 187.032 51.1976 186.584 51.1336 186.152C51.0696 185.704 50.9416 185.304 50.7496 184.952C50.5736 184.6 50.3176 184.32 49.9816 184.112C49.6456 183.904 49.1976 183.8 48.6376 183.8C47.9496 183.8 47.3656 183.984 46.8856 184.352C46.4056 184.72 46.0456 185.216 45.8056 185.84C45.5656 186.448 45.4456 187.144 45.4456 187.928V194H42.5176ZM62.5722 194.168C61.2602 194.168 60.1402 193.896 59.2122 193.352C58.3002 192.808 57.6042 192.056 57.1242 191.096C56.6602 190.12 56.4282 188.992 56.4282 187.712C56.4282 186.432 56.6682 185.304 57.1482 184.328C57.6442 183.336 58.3482 182.56 59.2602 182C60.1882 181.44 61.3002 181.16 62.5962 181.16C63.5562 181.16 64.3962 181.336 65.1162 181.688C65.8362 182.024 66.4362 182.488 66.9162 183.08C67.4122 183.672 67.7802 184.344 68.0202 185.096C68.2602 185.848 68.3722 186.64 68.3562 187.472C68.3402 187.664 68.3242 187.856 68.3082 188.048C68.2922 188.224 68.2682 188.416 68.2362 188.624H59.3562C59.4042 189.184 59.5482 189.696 59.7882 190.16C60.0442 190.624 60.3962 190.992 60.8442 191.264C61.3082 191.536 61.8842 191.672 62.5722 191.672C62.9722 191.672 63.3562 191.624 63.7242 191.528C64.0922 191.416 64.4122 191.256 64.6842 191.048C64.9722 190.84 65.1642 190.576 65.2602 190.256H68.1882C67.9802 191.168 67.5962 191.912 67.0362 192.488C66.4762 193.064 65.8042 193.488 65.0202 193.76C64.2522 194.032 63.4362 194.168 62.5722 194.168ZM59.4042 186.44H65.5002C65.5002 185.912 65.3802 185.432 65.1402 185C64.9002 184.568 64.5562 184.232 64.1082 183.992C63.6762 183.736 63.1482 183.608 62.5242 183.608C61.8522 183.608 61.2922 183.744 60.8442 184.016C60.3962 184.288 60.0522 184.64 59.8122 185.072C59.5722 185.504 59.4362 185.96 59.4042 186.44ZM73.3534 194L69.3934 181.352H72.6334L75.1774 190.784L77.8894 181.352H81.3454L84.0574 190.784L86.5774 181.352H89.7694L85.8094 194H82.3054L79.5694 184.88L76.8574 194H73.3534ZM99.1221 194V183.944H97.1541V181.352H99.1221V180.152C99.1221 179.192 99.2661 178.408 99.5541 177.8C99.8421 177.176 100.298 176.72 100.922 176.432C101.562 176.144 102.378 176 103.37 176H105.242V178.592H103.706C103.274 178.592 102.938 178.664 102.698 178.808C102.458 178.952 102.282 179.168 102.17 179.456C102.074 179.728 102.026 180.064 102.026 180.464V181.352H105.242V183.944H102.026V194H99.1221ZM112.614 194.168C111.318 194.168 110.198 193.904 109.254 193.376C108.326 192.848 107.606 192.096 107.094 191.12C106.598 190.144 106.35 189 106.35 187.688C106.35 186.36 106.606 185.216 107.118 184.256C107.63 183.28 108.35 182.52 109.278 181.976C110.206 181.432 111.318 181.16 112.614 181.16C113.894 181.16 114.998 181.432 115.926 181.976C116.854 182.52 117.566 183.288 118.062 184.28C118.558 185.256 118.806 186.408 118.806 187.736C118.806 189.032 118.558 190.168 118.062 191.144C117.582 192.104 116.878 192.848 115.95 193.376C115.022 193.904 113.91 194.168 112.614 194.168ZM112.59 191.504C113.39 191.504 114.03 191.328 114.51 190.976C115.006 190.624 115.366 190.16 115.59 189.584C115.814 189.008 115.926 188.384 115.926 187.712C115.926 187.04 115.814 186.408 115.59 185.816C115.366 185.224 115.006 184.752 114.51 184.4C114.03 184.032 113.39 183.848 112.59 183.848C111.79 183.848 111.142 184.032 110.646 184.4C110.15 184.752 109.79 185.224 109.566 185.816C109.342 186.392 109.23 187.024 109.23 187.712C109.23 188.384 109.342 189.016 109.566 189.608C109.806 190.184 110.166 190.648 110.646 191C111.142 191.336 111.79 191.504 112.59 191.504ZM121.15 194V181.352H123.814L123.982 183.008C124.302 182.528 124.662 182.16 125.062 181.904C125.478 181.632 125.918 181.44 126.382 181.328C126.862 181.216 127.342 181.16 127.822 181.16C127.998 181.16 128.158 181.16 128.302 181.16C128.462 181.16 128.59 181.168 128.686 181.184V183.968H127.918C127.086 183.968 126.382 184.128 125.806 184.448C125.23 184.768 124.798 185.224 124.51 185.816C124.222 186.408 124.078 187.136 124.078 188V194H121.15ZM142.608 194C141.584 194 140.736 193.864 140.064 193.592C139.408 193.32 138.912 192.88 138.576 192.272C138.256 191.664 138.096 190.848 138.096 189.824V183.944H136.152V181.352H138.096V177.824H141.024V181.352H143.976V183.944H141.024V189.44C141.024 190.08 141.136 190.568 141.36 190.904C141.584 191.24 142.088 191.408 142.872 191.408H143.88V194H142.608ZM145.924 194V177.032H148.852V182.984C149.188 182.552 149.58 182.2 150.028 181.928C150.476 181.656 150.948 181.464 151.444 181.352C151.94 181.224 152.412 181.16 152.86 181.16C154.06 181.16 155.004 181.424 155.692 181.952C156.38 182.48 156.86 183.184 157.132 184.064C157.42 184.944 157.564 185.936 157.564 187.04V194H154.636V187.544C154.636 187.112 154.604 186.672 154.54 186.224C154.476 185.776 154.348 185.376 154.156 185.024C153.98 184.656 153.708 184.36 153.34 184.136C152.988 183.912 152.516 183.8 151.924 183.8C151.364 183.8 150.884 183.92 150.484 184.16C150.084 184.384 149.764 184.696 149.524 185.096C149.3 185.496 149.132 185.936 149.02 186.416C148.908 186.896 148.852 187.376 148.852 187.856V194H145.924ZM160.314 194V181.352H163.242V194H160.314ZM161.778 179.888C161.218 179.888 160.77 179.72 160.434 179.384C160.098 179.048 159.93 178.608 159.93 178.064C159.93 177.536 160.106 177.104 160.458 176.768C160.81 176.416 161.25 176.24 161.778 176.24C162.29 176.24 162.73 176.408 163.098 176.744C163.466 177.08 163.65 177.52 163.65 178.064C163.65 178.608 163.474 179.048 163.122 179.384C162.77 179.72 162.322 179.888 161.778 179.888ZM170.928 194.168C170.32 194.168 169.712 194.104 169.104 193.976C168.512 193.848 167.952 193.64 167.424 193.352C166.896 193.048 166.456 192.64 166.104 192.128C165.752 191.616 165.52 190.976 165.408 190.208H168.36C168.488 190.56 168.688 190.848 168.96 191.072C169.248 191.28 169.576 191.44 169.944 191.552C170.328 191.648 170.704 191.696 171.072 191.696C171.296 191.696 171.536 191.68 171.792 191.648C172.064 191.616 172.312 191.552 172.536 191.456C172.776 191.36 172.968 191.224 173.112 191.048C173.256 190.856 173.328 190.608 173.328 190.304C173.328 190.016 173.248 189.792 173.088 189.632C172.928 189.456 172.712 189.32 172.44 189.224C172.168 189.112 171.84 189.024 171.456 188.96C170.768 188.816 170.032 188.664 169.248 188.504C168.464 188.328 167.784 188.056 167.208 187.688C166.968 187.544 166.76 187.376 166.584 187.184C166.408 186.992 166.256 186.784 166.128 186.56C166.016 186.32 165.928 186.064 165.864 185.792C165.816 185.52 165.792 185.224 165.792 184.904C165.792 184.232 165.928 183.664 166.2 183.2C166.488 182.72 166.864 182.336 167.328 182.048C167.808 181.744 168.352 181.52 168.96 181.376C169.568 181.232 170.192 181.16 170.832 181.16C171.696 181.16 172.48 181.296 173.184 181.568C173.888 181.84 174.472 182.256 174.936 182.816C175.416 183.376 175.704 184.088 175.8 184.952H173.016C172.936 184.552 172.688 184.232 172.272 183.992C171.872 183.752 171.36 183.632 170.736 183.632C170.512 183.632 170.28 183.656 170.04 183.704C169.8 183.736 169.568 183.8 169.344 183.896C169.136 183.976 168.96 184.104 168.816 184.28C168.688 184.456 168.624 184.672 168.624 184.928C168.624 185.168 168.68 185.376 168.792 185.552C168.92 185.728 169.104 185.88 169.344 186.008C169.6 186.12 169.896 186.216 170.232 186.296C170.776 186.408 171.344 186.52 171.936 186.632C172.528 186.744 173.04 186.856 173.472 186.968C173.984 187.112 174.448 187.32 174.864 187.592C175.28 187.848 175.6 188.192 175.824 188.624C176.064 189.04 176.184 189.576 176.184 190.232C176.184 191 176.024 191.64 175.704 192.152C175.4 192.664 174.992 193.064 174.48 193.352C173.968 193.64 173.4 193.848 172.776 193.976C172.152 194.104 171.536 194.168 170.928 194.168ZM190.682 194.168C189.37 194.168 188.25 193.896 187.322 193.352C186.41 192.808 185.714 192.056 185.234 191.096C184.77 190.12 184.538 188.992 184.538 187.712C184.538 186.432 184.778 185.304 185.258 184.328C185.754 183.336 186.458 182.56 187.37 182C188.298 181.44 189.41 181.16 190.706 181.16C191.666 181.16 192.506 181.336 193.226 181.688C193.946 182.024 194.546 182.488 195.026 183.08C195.522 183.672 195.89 184.344 196.13 185.096C196.37 185.848 196.482 186.64 196.466 187.472C196.45 187.664 196.434 187.856 196.418 188.048C196.402 188.224 196.378 188.416 196.346 188.624H187.466C187.514 189.184 187.658 189.696 187.898 190.16C188.154 190.624 188.506 190.992 188.954 191.264C189.418 191.536 189.994 191.672 190.682 191.672C191.082 191.672 191.466 191.624 191.834 191.528C192.202 191.416 192.522 191.256 192.794 191.048C193.082 190.84 193.274 190.576 193.37 190.256H196.298C196.09 191.168 195.706 191.912 195.146 192.488C194.586 193.064 193.914 193.488 193.13 193.76C192.362 194.032 191.546 194.168 190.682 194.168ZM187.514 186.44H193.61C193.61 185.912 193.49 185.432 193.25 185C193.01 184.568 192.666 184.232 192.218 183.992C191.786 183.736 191.258 183.608 190.634 183.608C189.962 183.608 189.402 183.744 188.954 184.016C188.506 184.288 188.162 184.64 187.922 185.072C187.682 185.504 187.546 185.96 187.514 186.44ZM202.831 194.168C202.239 194.168 201.679 194.088 201.151 193.928C200.623 193.768 200.151 193.536 199.735 193.232C199.319 192.912 198.983 192.52 198.727 192.056C198.487 191.576 198.367 191.016 198.367 190.376C198.367 189.56 198.527 188.896 198.847 188.384C199.167 187.856 199.599 187.456 200.143 187.184C200.703 186.912 201.335 186.728 202.039 186.632C202.743 186.52 203.479 186.464 204.247 186.464H206.719C206.719 185.904 206.631 185.424 206.455 185.024C206.279 184.608 205.999 184.28 205.615 184.04C205.247 183.8 204.767 183.68 204.175 183.68C203.791 183.68 203.431 183.728 203.095 183.824C202.775 183.904 202.495 184.04 202.255 184.232C202.031 184.408 201.871 184.64 201.775 184.928H198.775C198.887 184.272 199.111 183.712 199.447 183.248C199.799 182.768 200.223 182.376 200.719 182.072C201.231 181.768 201.791 181.544 202.399 181.4C203.007 181.24 203.623 181.16 204.247 181.16C206.087 181.16 207.423 181.688 208.255 182.744C209.103 183.8 209.527 185.28 209.527 187.184V194H206.935L206.863 192.368C206.495 192.912 206.055 193.312 205.543 193.568C205.031 193.824 204.535 193.984 204.055 194.048C203.575 194.128 203.167 194.168 202.831 194.168ZM203.407 191.792C204.047 191.792 204.615 191.672 205.111 191.432C205.607 191.192 205.999 190.856 206.287 190.424C206.591 189.992 206.743 189.496 206.743 188.936V188.528H204.439C204.055 188.528 203.671 188.544 203.287 188.576C202.919 188.592 202.583 188.656 202.279 188.768C201.975 188.864 201.727 189.016 201.535 189.224C201.359 189.432 201.271 189.728 201.271 190.112C201.271 190.496 201.367 190.808 201.559 191.048C201.767 191.288 202.031 191.472 202.351 191.6C202.687 191.728 203.039 191.792 203.407 191.792ZM212.322 194V181.352H214.986L215.154 183.008C215.474 182.528 215.834 182.16 216.234 181.904C216.65 181.632 217.09 181.44 217.554 181.328C218.034 181.216 218.514 181.16 218.994 181.16C219.17 181.16 219.33 181.16 219.474 181.16C219.634 181.16 219.762 181.168 219.858 181.184V183.968H219.09C218.258 183.968 217.554 184.128 216.978 184.448C216.402 184.768 215.97 185.224 215.682 185.816C215.394 186.408 215.25 187.136 215.25 188V194H212.322ZM221.58 194V177.032H224.508V194H221.58ZM227.346 194V181.352H230.274V194H227.346ZM228.81 179.888C228.25 179.888 227.802 179.72 227.466 179.384C227.13 179.048 226.962 178.608 226.962 178.064C226.962 177.536 227.138 177.104 227.49 176.768C227.842 176.416 228.282 176.24 228.81 176.24C229.322 176.24 229.762 176.408 230.13 176.744C230.498 177.08 230.682 177.52 230.682 178.064C230.682 178.608 230.506 179.048 230.154 179.384C229.802 179.72 229.354 179.888 228.81 179.888ZM238.775 194.168C237.463 194.168 236.343 193.896 235.415 193.352C234.503 192.808 233.807 192.056 233.327 191.096C232.863 190.12 232.631 188.992 232.631 187.712C232.631 186.432 232.871 185.304 233.351 184.328C233.847 183.336 234.551 182.56 235.463 182C236.391 181.44 237.503 181.16 238.799 181.16C239.759 181.16 240.599 181.336 241.319 181.688C242.039 182.024 242.639 182.488 243.119 183.08C243.615 183.672 243.983 184.344 244.223 185.096C244.463 185.848 244.575 186.64 244.559 187.472C244.543 187.664 244.527 187.856 244.511 188.048C244.495 188.224 244.471 188.416 244.439 188.624H235.559C235.607 189.184 235.751 189.696 235.991 190.16C236.247 190.624 236.599 190.992 237.047 191.264C237.511 191.536 238.087 191.672 238.775 191.672C239.175 191.672 239.559 191.624 239.927 191.528C240.295 191.416 240.615 191.256 240.887 191.048C241.175 190.84 241.367 190.576 241.463 190.256H244.391C244.183 191.168 243.799 191.912 243.239 192.488C242.679 193.064 242.007 193.488 241.223 193.76C240.455 194.032 239.639 194.168 238.775 194.168ZM235.607 186.44H241.703C241.703 185.912 241.583 185.432 241.343 185C241.103 184.568 240.759 184.232 240.311 183.992C239.879 183.736 239.351 183.608 238.727 183.608C238.055 183.608 237.495 183.744 237.047 184.016C236.599 184.288 236.255 184.64 236.015 185.072C235.775 185.504 235.639 185.96 235.607 186.44ZM246.893 194V181.352H249.557L249.725 183.008C250.045 182.528 250.405 182.16 250.805 181.904C251.221 181.632 251.661 181.44 252.125 181.328C252.605 181.216 253.085 181.16 253.565 181.16C253.741 181.16 253.901 181.16 254.045 181.16C254.205 181.16 254.333 181.168 254.429 181.184V183.968H253.661C252.829 183.968 252.125 184.128 251.549 184.448C250.973 184.768 250.541 185.224 250.253 185.816C249.965 186.408 249.821 187.136 249.821 188V194H246.893ZM256.918 188.384L256.63 177.032H259.87L259.582 188.384H256.918ZM258.262 194.192C257.942 194.192 257.638 194.128 257.35 194C257.062 193.856 256.83 193.648 256.654 193.376C256.478 193.088 256.39 192.744 256.39 192.344C256.39 191.944 256.478 191.608 256.654 191.336C256.83 191.064 257.062 190.856 257.35 190.712C257.638 190.568 257.942 190.496 258.262 190.496C258.758 190.496 259.19 190.656 259.558 190.976C259.942 191.296 260.134 191.752 260.134 192.344C260.134 192.744 260.038 193.088 259.846 193.376C259.67 193.648 259.438 193.856 259.15 194C258.878 194.128 258.582 194.192 258.262 194.192ZM29.896 230V213.032H36.592C37.456 213.032 38.272 213.12 39.04 213.296C39.808 213.456 40.488 213.744 41.08 214.16C41.672 214.56 42.136 215.112 42.472 215.816C42.808 216.52 42.976 217.392 42.976 218.432C42.976 219.296 42.824 220.056 42.52 220.712C42.216 221.368 41.792 221.92 41.248 222.368C40.72 222.816 40.088 223.16 39.352 223.4L43.072 230H39.712L36.376 223.88H32.896V230H29.896ZM32.896 221.216H36.184C36.728 221.216 37.224 221.176 37.672 221.096C38.136 221 38.536 220.848 38.872 220.64C39.224 220.432 39.488 220.152 39.664 219.8C39.856 219.432 39.96 218.968 39.976 218.408C39.976 217.736 39.832 217.208 39.544 216.824C39.272 216.44 38.872 216.168 38.344 216.008C37.832 215.848 37.216 215.768 36.496 215.768H32.896V221.216ZM51.1347 230.168C49.8227 230.168 48.7027 229.896 47.7747 229.352C46.8627 228.808 46.1667 228.056 45.6867 227.096C45.2227 226.12 44.9907 224.992 44.9907 223.712C44.9907 222.432 45.2307 221.304 45.7107 220.328C46.2067 219.336 46.9107 218.56 47.8227 218C48.7507 217.44 49.8627 217.16 51.1587 217.16C52.1187 217.16 52.9587 217.336 53.6787 217.688C54.3987 218.024 54.9987 218.488 55.4787 219.08C55.9747 219.672 56.3427 220.344 56.5827 221.096C56.8227 221.848 56.9347 222.64 56.9187 223.472C56.9027 223.664 56.8867 223.856 56.8707 224.048C56.8547 224.224 56.8307 224.416 56.7987 224.624H47.9187C47.9667 225.184 48.1107 225.696 48.3507 226.16C48.6067 226.624 48.9587 226.992 49.4067 227.264C49.8707 227.536 50.4467 227.672 51.1347 227.672C51.5347 227.672 51.9187 227.624 52.2867 227.528C52.6547 227.416 52.9747 227.256 53.2467 227.048C53.5347 226.84 53.7267 226.576 53.8227 226.256H56.7507C56.5427 227.168 56.1587 227.912 55.5987 228.488C55.0387 229.064 54.3667 229.488 53.5827 229.76C52.8147 230.032 51.9987 230.168 51.1347 230.168ZM47.9667 222.44H54.0627C54.0627 221.912 53.9427 221.432 53.7027 221C53.4627 220.568 53.1187 220.232 52.6707 219.992C52.2387 219.736 51.7107 219.608 51.0867 219.608C50.4147 219.608 49.8547 219.744 49.4067 220.016C48.9587 220.288 48.6147 220.64 48.3747 221.072C48.1347 221.504 47.9987 221.96 47.9667 222.44ZM65.0543 230.168C63.7423 230.168 62.6383 229.904 61.7423 229.376C60.8463 228.832 60.1663 228.072 59.7023 227.096C59.2383 226.12 59.0063 224.992 59.0063 223.712C59.0063 222.432 59.2463 221.304 59.7263 220.328C60.2063 219.336 60.9103 218.56 61.8383 218C62.7663 217.44 63.8943 217.16 65.2223 217.16C66.1983 217.16 67.0623 217.328 67.8143 217.664C68.5823 218 69.1983 218.496 69.6623 219.152C70.1423 219.792 70.4463 220.592 70.5743 221.552H67.6943C67.5023 220.944 67.1823 220.504 66.7343 220.232C66.3023 219.944 65.7823 219.8 65.1743 219.8C64.3583 219.8 63.7103 220 63.2303 220.4C62.7663 220.784 62.4303 221.272 62.2223 221.864C62.0143 222.456 61.9103 223.072 61.9103 223.712C61.9103 224.384 62.0223 225.016 62.2463 225.608C62.4703 226.184 62.8143 226.648 63.2783 227C63.7583 227.352 64.3743 227.528 65.1263 227.528C65.7343 227.528 66.2783 227.392 66.7583 227.12C67.2543 226.848 67.5743 226.408 67.7183 225.8H70.6943C70.5823 226.776 70.2543 227.592 69.7103 228.248C69.1823 228.888 68.5103 229.368 67.6943 229.688C66.8783 230.008 65.9983 230.168 65.0543 230.168ZM78.6766 230.168C77.3806 230.168 76.2606 229.904 75.3166 229.376C74.3886 228.848 73.6686 228.096 73.1566 227.12C72.6606 226.144 72.4126 225 72.4126 223.688C72.4126 222.36 72.6686 221.216 73.1806 220.256C73.6926 219.28 74.4126 218.52 75.3406 217.976C76.2686 217.432 77.3806 217.16 78.6766 217.16C79.9566 217.16 81.0606 217.432 81.9886 217.976C82.9166 218.52 83.6286 219.288 84.1246 220.28C84.6206 221.256 84.8686 222.408 84.8686 223.736C84.8686 225.032 84.6206 226.168 84.1246 227.144C83.6446 228.104 82.9406 228.848 82.0126 229.376C81.0846 229.904 79.9726 230.168 78.6766 230.168ZM78.6526 227.504C79.4526 227.504 80.0926 227.328 80.5726 226.976C81.0686 226.624 81.4286 226.16 81.6526 225.584C81.8766 225.008 81.9886 224.384 81.9886 223.712C81.9886 223.04 81.8766 222.408 81.6526 221.816C81.4286 221.224 81.0686 220.752 80.5726 220.4C80.0926 220.032 79.4526 219.848 78.6526 219.848C77.8526 219.848 77.2046 220.032 76.7086 220.4C76.2126 220.752 75.8526 221.224 75.6286 221.816C75.4046 222.392 75.2926 223.024 75.2926 223.712C75.2926 224.384 75.4046 225.016 75.6286 225.608C75.8686 226.184 76.2286 226.648 76.7086 227C77.2046 227.336 77.8526 227.504 78.6526 227.504ZM87.2129 230V217.352H89.9009L90.0929 218.792C90.4129 218.36 90.7569 218.032 91.1249 217.808C91.5089 217.568 91.9009 217.4 92.3009 217.304C92.7169 217.208 93.1089 217.16 93.4769 217.16C94.2769 217.16 94.9569 217.32 95.5169 217.64C96.0929 217.96 96.5409 218.44 96.8609 219.08C97.1809 218.632 97.5409 218.272 97.9409 218C98.3409 217.712 98.7649 217.504 99.2129 217.376C99.6609 217.232 100.133 217.16 100.629 217.16C101.605 217.16 102.389 217.368 102.981 217.784C103.573 218.184 104.005 218.744 104.277 219.464C104.549 220.168 104.685 220.976 104.685 221.888V230H101.757V222.824C101.757 222.504 101.741 222.168 101.709 221.816C101.677 221.464 101.589 221.136 101.445 220.832C101.317 220.528 101.125 220.28 100.869 220.088C100.613 219.896 100.253 219.8 99.7889 219.8C99.3249 219.8 98.9409 219.904 98.6369 220.112C98.3489 220.304 98.1089 220.568 97.9169 220.904C97.7409 221.224 97.6129 221.584 97.5329 221.984C97.4689 222.368 97.4369 222.752 97.4369 223.136V230H94.5089V222.8C94.5089 222.496 94.4849 222.176 94.4369 221.84C94.4049 221.488 94.3249 221.16 94.1969 220.856C94.0849 220.536 93.8929 220.28 93.6209 220.088C93.3649 219.896 93.0049 219.8 92.5409 219.8C91.8689 219.8 91.3569 219.984 91.0049 220.352C90.6689 220.72 90.4369 221.168 90.3089 221.696C90.1969 222.224 90.1409 222.728 90.1409 223.208V230H87.2129ZM107.393 230V217.352H110.081L110.273 218.792C110.593 218.36 110.937 218.032 111.305 217.808C111.689 217.568 112.081 217.4 112.481 217.304C112.897 217.208 113.289 217.16 113.657 217.16C114.457 217.16 115.137 217.32 115.697 217.64C116.273 217.96 116.721 218.44 117.041 219.08C117.361 218.632 117.721 218.272 118.121 218C118.521 217.712 118.945 217.504 119.393 217.376C119.841 217.232 120.313 217.16 120.809 217.16C121.785 217.16 122.569 217.368 123.161 217.784C123.753 218.184 124.185 218.744 124.457 219.464C124.729 220.168 124.865 220.976 124.865 221.888V230H121.937V222.824C121.937 222.504 121.921 222.168 121.889 221.816C121.857 221.464 121.769 221.136 121.625 220.832C121.497 220.528 121.305 220.28 121.049 220.088C120.793 219.896 120.433 219.8 119.969 219.8C119.505 219.8 119.121 219.904 118.817 220.112C118.529 220.304 118.289 220.568 118.097 220.904C117.921 221.224 117.793 221.584 117.713 221.984C117.649 222.368 117.617 222.752 117.617 223.136V230H114.689V222.8C114.689 222.496 114.665 222.176 114.617 221.84C114.585 221.488 114.505 221.16 114.377 220.856C114.265 220.536 114.073 220.28 113.801 220.088C113.545 219.896 113.185 219.8 112.721 219.8C112.049 219.8 111.537 219.984 111.185 220.352C110.849 220.72 110.617 221.168 110.489 221.696C110.377 222.224 110.321 222.728 110.321 223.208V230H107.393ZM133.236 230.168C131.924 230.168 130.804 229.896 129.876 229.352C128.964 228.808 128.268 228.056 127.788 227.096C127.324 226.12 127.092 224.992 127.092 223.712C127.092 222.432 127.332 221.304 127.812 220.328C128.308 219.336 129.012 218.56 129.924 218C130.852 217.44 131.964 217.16 133.26 217.16C134.22 217.16 135.06 217.336 135.78 217.688C136.5 218.024 137.1 218.488 137.58 219.08C138.076 219.672 138.444 220.344 138.684 221.096C138.924 221.848 139.036 222.64 139.02 223.472C139.004 223.664 138.988 223.856 138.972 224.048C138.956 224.224 138.932 224.416 138.9 224.624H130.02C130.068 225.184 130.212 225.696 130.452 226.16C130.708 226.624 131.06 226.992 131.508 227.264C131.972 227.536 132.548 227.672 133.236 227.672C133.636 227.672 134.02 227.624 134.388 227.528C134.756 227.416 135.076 227.256 135.348 227.048C135.636 226.84 135.828 226.576 135.924 226.256H138.852C138.644 227.168 138.26 227.912 137.7 228.488C137.14 229.064 136.468 229.488 135.684 229.76C134.916 230.032 134.1 230.168 133.236 230.168ZM130.068 222.44H136.164C136.164 221.912 136.044 221.432 135.804 221C135.564 220.568 135.22 220.232 134.772 219.992C134.34 219.736 133.812 219.608 133.188 219.608C132.516 219.608 131.956 219.744 131.508 220.016C131.06 220.288 130.716 220.64 130.476 221.072C130.236 221.504 130.1 221.96 130.068 222.44ZM141.354 230V217.352H144.09L144.258 218.96C144.594 218.512 144.986 218.16 145.434 217.904C145.882 217.648 146.354 217.464 146.85 217.352C147.346 217.224 147.81 217.16 148.242 217.16C149.442 217.16 150.386 217.424 151.074 217.952C151.778 218.48 152.274 219.184 152.562 220.064C152.85 220.944 152.994 221.928 152.994 223.016V230H150.066V223.496C150.066 223.032 150.034 222.584 149.97 222.152C149.906 221.704 149.778 221.304 149.586 220.952C149.41 220.6 149.154 220.32 148.818 220.112C148.482 219.904 148.034 219.8 147.474 219.8C146.786 219.8 146.202 219.984 145.722 220.352C145.242 220.72 144.882 221.216 144.642 221.84C144.402 222.448 144.282 223.144 144.282 223.928V230H141.354ZM160.904 230.168C159.624 230.168 158.568 229.88 157.736 229.304C156.904 228.712 156.28 227.928 155.864 226.952C155.464 225.976 155.264 224.888 155.264 223.688C155.264 222.44 155.48 221.328 155.912 220.352C156.344 219.36 156.992 218.584 157.856 218.024C158.72 217.448 159.8 217.16 161.096 217.16C161.576 217.16 162.04 217.216 162.488 217.328C162.952 217.424 163.384 217.584 163.784 217.808C164.2 218.016 164.544 218.296 164.816 218.648V213.032H167.744V230H164.912L164.864 228.416C164.56 228.816 164.2 229.144 163.784 229.4C163.384 229.656 162.936 229.848 162.44 229.976C161.944 230.104 161.432 230.168 160.904 230.168ZM161.456 227.528C162.224 227.528 162.856 227.352 163.352 227C163.848 226.632 164.216 226.152 164.456 225.56C164.712 224.952 164.84 224.312 164.84 223.64C164.84 222.936 164.712 222.296 164.456 221.72C164.216 221.144 163.848 220.68 163.352 220.328C162.856 219.976 162.224 219.8 161.456 219.8C160.64 219.8 159.992 219.984 159.512 220.352C159.048 220.72 158.704 221.208 158.48 221.816C158.272 222.408 158.168 223.048 158.168 223.736C158.168 224.248 158.224 224.736 158.336 225.2C158.464 225.648 158.656 226.048 158.912 226.4C159.168 226.752 159.504 227.032 159.92 227.24C160.336 227.432 160.848 227.528 161.456 227.528ZM176.244 230.168C174.932 230.168 173.812 229.896 172.884 229.352C171.972 228.808 171.276 228.056 170.796 227.096C170.332 226.12 170.1 224.992 170.1 223.712C170.1 222.432 170.34 221.304 170.82 220.328C171.316 219.336 172.02 218.56 172.932 218C173.86 217.44 174.972 217.16 176.268 217.16C177.228 217.16 178.068 217.336 178.788 217.688C179.508 218.024 180.108 218.488 180.588 219.08C181.084 219.672 181.452 220.344 181.692 221.096C181.932 221.848 182.044 222.64 182.028 223.472C182.012 223.664 181.996 223.856 181.98 224.048C181.964 224.224 181.94 224.416 181.908 224.624H173.028C173.076 225.184 173.22 225.696 173.46 226.16C173.716 226.624 174.068 226.992 174.516 227.264C174.98 227.536 175.556 227.672 176.244 227.672C176.644 227.672 177.028 227.624 177.396 227.528C177.764 227.416 178.084 227.256 178.356 227.048C178.644 226.84 178.836 226.576 178.932 226.256H181.86C181.652 227.168 181.268 227.912 180.708 228.488C180.148 229.064 179.476 229.488 178.692 229.76C177.924 230.032 177.108 230.168 176.244 230.168ZM173.076 222.44H179.172C179.172 221.912 179.052 221.432 178.812 221C178.572 220.568 178.228 220.232 177.78 219.992C177.348 219.736 176.82 219.608 176.196 219.608C175.524 219.608 174.964 219.744 174.516 220.016C174.068 220.288 173.724 220.64 173.484 221.072C173.244 221.504 173.108 221.96 173.076 222.44ZM189.521 230.168C188.241 230.168 187.185 229.88 186.353 229.304C185.521 228.712 184.897 227.928 184.481 226.952C184.081 225.976 183.881 224.888 183.881 223.688C183.881 222.44 184.097 221.328 184.529 220.352C184.961 219.36 185.609 218.584 186.473 218.024C187.337 217.448 188.417 217.16 189.713 217.16C190.193 217.16 190.657 217.216 191.105 217.328C191.569 217.424 192.001 217.584 192.401 217.808C192.817 218.016 193.161 218.296 193.433 218.648V213.032H196.361V230H193.529L193.481 228.416C193.177 228.816 192.817 229.144 192.401 229.4C192.001 229.656 191.553 229.848 191.057 229.976C190.561 230.104 190.049 230.168 189.521 230.168ZM190.073 227.528C190.841 227.528 191.473 227.352 191.969 227C192.465 226.632 192.833 226.152 193.073 225.56C193.329 224.952 193.457 224.312 193.457 223.64C193.457 222.936 193.329 222.296 193.073 221.72C192.833 221.144 192.465 220.68 191.969 220.328C191.473 219.976 190.841 219.8 190.073 219.8C189.257 219.8 188.609 219.984 188.129 220.352C187.665 220.72 187.321 221.208 187.097 221.816C186.889 222.408 186.785 223.048 186.785 223.736C186.785 224.248 186.841 224.736 186.953 225.2C187.081 225.648 187.273 226.048 187.529 226.4C187.785 226.752 188.121 227.032 188.537 227.24C188.953 227.432 189.465 227.528 190.073 227.528ZM207.005 230V219.944H205.037V217.352H207.005V216.152C207.005 215.192 207.149 214.408 207.437 213.8C207.725 213.176 208.181 212.72 208.805 212.432C209.445 212.144 210.261 212 211.253 212H213.125V214.592H211.589C211.157 214.592 210.821 214.664 210.581 214.808C210.341 214.952 210.165 215.168 210.053 215.456C209.957 215.728 209.909 216.064 209.909 216.464V217.352H213.125V219.944H209.909V230H207.005ZM220.497 230.168C219.201 230.168 218.081 229.904 217.137 229.376C216.209 228.848 215.489 228.096 214.977 227.12C214.481 226.144 214.233 225 214.233 223.688C214.233 222.36 214.489 221.216 215.001 220.256C215.513 219.28 216.233 218.52 217.161 217.976C218.089 217.432 219.201 217.16 220.497 217.16C221.777 217.16 222.881 217.432 223.809 217.976C224.737 218.52 225.449 219.288 225.945 220.28C226.441 221.256 226.689 222.408 226.689 223.736C226.689 225.032 226.441 226.168 225.945 227.144C225.465 228.104 224.761 228.848 223.833 229.376C222.905 229.904 221.793 230.168 220.497 230.168ZM220.473 227.504C221.273 227.504 221.913 227.328 222.393 226.976C222.889 226.624 223.249 226.16 223.473 225.584C223.697 225.008 223.809 224.384 223.809 223.712C223.809 223.04 223.697 222.408 223.473 221.816C223.249 221.224 222.889 220.752 222.393 220.4C221.913 220.032 221.273 219.848 220.473 219.848C219.673 219.848 219.025 220.032 218.529 220.4C218.033 220.752 217.673 221.224 217.449 221.816C217.225 222.392 217.113 223.024 217.113 223.712C217.113 224.384 217.225 225.016 217.449 225.608C217.689 226.184 218.049 226.648 218.529 227C219.025 227.336 219.673 227.504 220.473 227.504ZM229.033 230V217.352H231.697L231.865 219.008C232.185 218.528 232.545 218.16 232.945 217.904C233.361 217.632 233.801 217.44 234.265 217.328C234.745 217.216 235.225 217.16 235.705 217.16C235.881 217.16 236.041 217.16 236.185 217.16C236.345 217.16 236.473 217.168 236.569 217.184V219.968H235.801C234.969 219.968 234.265 220.128 233.689 220.448C233.113 220.768 232.681 221.224 232.393 221.816C232.105 222.408 231.961 223.136 231.961 224V230H229.033ZM249.003 230.168C248.411 230.168 247.851 230.088 247.323 229.928C246.795 229.768 246.323 229.536 245.907 229.232C245.491 228.912 245.155 228.52 244.899 228.056C244.659 227.576 244.539 227.016 244.539 226.376C244.539 225.56 244.699 224.896 245.019 224.384C245.339 223.856 245.771 223.456 246.315 223.184C246.875 222.912 247.507 222.728 248.211 222.632C248.915 222.52 249.651 222.464 250.419 222.464H252.891C252.891 221.904 252.803 221.424 252.627 221.024C252.451 220.608 252.171 220.28 251.787 220.04C251.419 219.8 250.939 219.68 250.347 219.68C249.963 219.68 249.603 219.728 249.267 219.824C248.947 219.904 248.667 220.04 248.427 220.232C248.203 220.408 248.043 220.64 247.947 220.928H244.947C245.059 220.272 245.283 219.712 245.619 219.248C245.971 218.768 246.395 218.376 246.891 218.072C247.403 217.768 247.963 217.544 248.571 217.4C249.179 217.24 249.795 217.16 250.419 217.16C252.259 217.16 253.595 217.688 254.427 218.744C255.275 219.8 255.699 221.28 255.699 223.184V230H253.107L253.035 228.368C252.667 228.912 252.227 229.312 251.715 229.568C251.203 229.824 250.707 229.984 250.227 230.048C249.747 230.128 249.339 230.168 249.003 230.168ZM249.579 227.792C250.219 227.792 250.787 227.672 251.283 227.432C251.779 227.192 252.171 226.856 252.459 226.424C252.763 225.992 252.915 225.496 252.915 224.936V224.528H250.611C250.227 224.528 249.843 224.544 249.459 224.576C249.091 224.592 248.755 224.656 248.451 224.768C248.147 224.864 247.899 225.016 247.707 225.224C247.531 225.432 247.443 225.728 247.443 226.112C247.443 226.496 247.539 226.808 247.731 227.048C247.939 227.288 248.203 227.472 248.523 227.6C248.859 227.728 249.211 227.792 249.579 227.792ZM258.494 230V217.352H261.23L261.398 218.96C261.734 218.512 262.126 218.16 262.574 217.904C263.022 217.648 263.494 217.464 263.99 217.352C264.486 217.224 264.95 217.16 265.382 217.16C266.582 217.16 267.526 217.424 268.214 217.952C268.918 218.48 269.414 219.184 269.702 220.064C269.99 220.944 270.134 221.928 270.134 223.016V230H267.206V223.496C267.206 223.032 267.174 222.584 267.11 222.152C267.046 221.704 266.918 221.304 266.726 220.952C266.55 220.6 266.294 220.32 265.958 220.112C265.622 219.904 265.174 219.8 264.614 219.8C263.926 219.8 263.342 219.984 262.862 220.352C262.382 220.72 262.022 221.216 261.782 221.84C261.542 222.448 261.422 223.144 261.422 223.928V230H258.494ZM278.477 235.784C277.501 235.784 276.549 235.648 275.621 235.376C274.709 235.12 273.861 234.68 273.077 234.056L274.133 231.704C274.677 232.136 275.285 232.472 275.957 232.712C276.629 232.968 277.365 233.096 278.165 233.096C279.429 233.096 280.349 232.776 280.925 232.136C281.517 231.496 281.813 230.624 281.813 229.52V228.584C281.525 228.952 281.173 229.256 280.757 229.496C280.341 229.736 279.893 229.912 279.413 230.024C278.933 230.136 278.445 230.192 277.949 230.192C276.717 230.192 275.733 229.944 274.997 229.448C274.277 228.936 273.757 228.24 273.437 227.36C273.117 226.464 272.957 225.448 272.957 224.312V217.352H275.861V223.664C275.861 224.112 275.893 224.568 275.957 225.032C276.021 225.496 276.149 225.92 276.341 226.304C276.533 226.688 276.813 227 277.181 227.24C277.565 227.464 278.069 227.576 278.693 227.576C279.509 227.576 280.141 227.376 280.589 226.976C281.037 226.576 281.341 226.056 281.501 225.416C281.677 224.776 281.765 224.096 281.765 223.376V217.352H284.693V228.8C284.693 229.872 284.581 230.832 284.357 231.68C284.133 232.544 283.773 233.28 283.277 233.888C282.781 234.496 282.141 234.96 281.357 235.28C280.573 235.616 279.613 235.784 278.477 235.784ZM293.317 230.168C292.021 230.168 290.901 229.904 289.957 229.376C289.029 228.848 288.309 228.096 287.797 227.12C287.301 226.144 287.053 225 287.053 223.688C287.053 222.36 287.309 221.216 287.821 220.256C288.333 219.28 289.053 218.52 289.981 217.976C290.909 217.432 292.021 217.16 293.317 217.16C294.597 217.16 295.701 217.432 296.629 217.976C297.557 218.52 298.269 219.288 298.765 220.28C299.261 221.256 299.509 222.408 299.509 223.736C299.509 225.032 299.261 226.168 298.765 227.144C298.285 228.104 297.581 228.848 296.653 229.376C295.725 229.904 294.613 230.168 293.317 230.168ZM293.293 227.504C294.093 227.504 294.733 227.328 295.213 226.976C295.709 226.624 296.069 226.16 296.293 225.584C296.517 225.008 296.629 224.384 296.629 223.712C296.629 223.04 296.517 222.408 296.293 221.816C296.069 221.224 295.709 220.752 295.213 220.4C294.733 220.032 294.093 219.848 293.293 219.848C292.493 219.848 291.845 220.032 291.349 220.4C290.853 220.752 290.493 221.224 290.269 221.816C290.045 222.392 289.933 223.024 289.933 223.712C289.933 224.384 290.045 225.016 290.269 225.608C290.509 226.184 290.869 226.648 291.349 227C291.845 227.336 292.493 227.504 293.293 227.504ZM301.854 230V217.352H304.59L304.758 218.96C305.094 218.512 305.486 218.16 305.934 217.904C306.382 217.648 306.854 217.464 307.35 217.352C307.846 217.224 308.31 217.16 308.742 217.16C309.942 217.16 310.886 217.424 311.574 217.952C312.278 218.48 312.774 219.184 313.062 220.064C313.35 220.944 313.494 221.928 313.494 223.016V230H310.566V223.496C310.566 223.032 310.534 222.584 310.47 222.152C310.406 221.704 310.278 221.304 310.086 220.952C309.91 220.6 309.654 220.32 309.318 220.112C308.982 219.904 308.534 219.8 307.974 219.8C307.286 219.8 306.702 219.984 306.222 220.352C305.742 220.72 305.382 221.216 305.142 221.84C304.902 222.448 304.782 223.144 304.782 223.928V230H301.854ZM321.908 230.168C320.596 230.168 319.476 229.896 318.548 229.352C317.636 228.808 316.94 228.056 316.46 227.096C315.996 226.12 315.764 224.992 315.764 223.712C315.764 222.432 316.004 221.304 316.484 220.328C316.98 219.336 317.684 218.56 318.596 218C319.524 217.44 320.636 217.16 321.932 217.16C322.892 217.16 323.732 217.336 324.452 217.688C325.172 218.024 325.772 218.488 326.252 219.08C326.748 219.672 327.116 220.344 327.356 221.096C327.596 221.848 327.708 222.64 327.692 223.472C327.676 223.664 327.66 223.856 327.644 224.048C327.628 224.224 327.604 224.416 327.572 224.624H318.692C318.74 225.184 318.884 225.696 319.124 226.16C319.38 226.624 319.732 226.992 320.18 227.264C320.644 227.536 321.22 227.672 321.908 227.672C322.308 227.672 322.692 227.624 323.06 227.528C323.428 227.416 323.748 227.256 324.02 227.048C324.308 226.84 324.5 226.576 324.596 226.256H327.524C327.316 227.168 326.932 227.912 326.372 228.488C325.812 229.064 325.14 229.488 324.356 229.76C323.588 230.032 322.772 230.168 321.908 230.168ZM318.74 222.44H324.836C324.836 221.912 324.716 221.432 324.476 221C324.236 220.568 323.892 220.232 323.444 219.992C323.012 219.736 322.484 219.608 321.86 219.608C321.188 219.608 320.628 219.744 320.18 220.016C319.732 220.288 319.388 220.64 319.148 221.072C318.908 221.504 318.772 221.96 318.74 222.44Z" fill="white"/>
<line x1="28" y1="88.5" x2="408" y2="88.5" stroke="white" stroke-opacity="0.1"/>
<path d="M31.008 398L28.128 386.688H30.368L32.544 395.92L34.688 386.688H37.408L39.552 395.92L41.696 386.688H43.824L40.96 398H38.144L36.016 388.944L33.872 398H31.008ZM48.7531 398.112C47.8891 398.112 47.1425 397.936 46.5131 397.584C45.8945 397.232 45.4145 396.731 45.0731 396.08C44.7425 395.429 44.5771 394.667 44.5771 393.792C44.5771 392.907 44.7478 392.144 45.0891 391.504C45.4305 390.853 45.9105 390.347 46.5291 389.984C47.1478 389.621 47.8891 389.44 48.7531 389.44C49.6065 389.44 50.3425 389.621 50.9611 389.984C51.5798 390.347 52.0545 390.859 52.3851 391.52C52.7158 392.171 52.8811 392.939 52.8811 393.824C52.8811 394.688 52.7158 395.445 52.3851 396.096C52.0651 396.736 51.5958 397.232 50.9771 397.584C50.3585 397.936 49.6171 398.112 48.7531 398.112ZM48.7371 396.336C49.2705 396.336 49.6971 396.219 50.0171 395.984C50.3478 395.749 50.5878 395.44 50.7371 395.056C50.8865 394.672 50.9611 394.256 50.9611 393.808C50.9611 393.36 50.8865 392.939 50.7371 392.544C50.5878 392.149 50.3478 391.835 50.0171 391.6C49.6971 391.355 49.2705 391.232 48.7371 391.232C48.2038 391.232 47.7718 391.355 47.4411 391.6C47.1105 391.835 46.8705 392.149 46.7211 392.544C46.5718 392.928 46.4971 393.349 46.4971 393.808C46.4971 394.256 46.5718 394.677 46.7211 395.072C46.8811 395.456 47.1211 395.765 47.4411 396C47.7718 396.224 48.2038 396.336 48.7371 396.336ZM54.444 398V389.568H56.22L56.332 390.672C56.5453 390.352 56.7853 390.107 57.052 389.936C57.3293 389.755 57.6227 389.627 57.932 389.552C58.252 389.477 58.572 389.44 58.892 389.44C59.0093 389.44 59.116 389.44 59.212 389.44C59.3187 389.44 59.404 389.445 59.468 389.456V391.312H58.956C58.4013 391.312 57.932 391.419 57.548 391.632C57.164 391.845 56.876 392.149 56.684 392.544C56.492 392.939 56.396 393.424 56.396 394V398H54.444ZM60.6159 398V386.688H62.5679V398H60.6159ZM67.8996 398.112C67.0463 398.112 66.3423 397.92 65.7876 397.536C65.233 397.141 64.817 396.619 64.5396 395.968C64.273 395.317 64.1396 394.592 64.1396 393.792C64.1396 392.96 64.2836 392.219 64.5716 391.568C64.8596 390.907 65.2916 390.389 65.8676 390.016C66.4436 389.632 67.1636 389.44 68.0276 389.44C68.3476 389.44 68.657 389.477 68.9556 389.552C69.265 389.616 69.553 389.723 69.8196 389.872C70.097 390.011 70.3263 390.197 70.5076 390.432V386.688H72.4596V398H70.5716L70.5396 396.944C70.337 397.211 70.097 397.429 69.8196 397.6C69.553 397.771 69.2543 397.899 68.9236 397.984C68.593 398.069 68.2516 398.112 67.8996 398.112ZM68.2676 396.352C68.7796 396.352 69.201 396.235 69.5316 396C69.8623 395.755 70.1076 395.435 70.2676 395.04C70.4383 394.635 70.5236 394.208 70.5236 393.76C70.5236 393.291 70.4383 392.864 70.2676 392.48C70.1076 392.096 69.8623 391.787 69.5316 391.552C69.201 391.317 68.7796 391.2 68.2676 391.2C67.7236 391.2 67.2916 391.323 66.9716 391.568C66.6623 391.813 66.433 392.139 66.2836 392.544C66.145 392.939 66.0756 393.365 66.0756 393.824C66.0756 394.165 66.113 394.491 66.1876 394.8C66.273 395.099 66.401 395.365 66.5716 395.6C66.7423 395.835 66.9663 396.021 67.2436 396.16C67.521 396.288 67.8623 396.352 68.2676 396.352ZM82.6594 398.112C81.7954 398.112 81.0487 397.936 80.4194 397.584C79.8007 397.232 79.3207 396.731 78.9794 396.08C78.6487 395.429 78.4834 394.667 78.4834 393.792C78.4834 392.907 78.654 392.144 78.9954 391.504C79.3367 390.853 79.8167 390.347 80.4354 389.984C81.054 389.621 81.7954 389.44 82.6594 389.44C83.5127 389.44 84.2487 389.621 84.8674 389.984C85.486 390.347 85.9607 390.859 86.2914 391.52C86.622 392.171 86.7874 392.939 86.7874 393.824C86.7874 394.688 86.622 395.445 86.2914 396.096C85.9714 396.736 85.502 397.232 84.8834 397.584C84.2647 397.936 83.5234 398.112 82.6594 398.112ZM82.6434 396.336C83.1767 396.336 83.6034 396.219 83.9234 395.984C84.254 395.749 84.494 395.44 84.6434 395.056C84.7927 394.672 84.8674 394.256 84.8674 393.808C84.8674 393.36 84.7927 392.939 84.6434 392.544C84.494 392.149 84.254 391.835 83.9234 391.6C83.6034 391.355 83.1767 391.232 82.6434 391.232C82.11 391.232 81.678 391.355 81.3474 391.6C81.0167 391.835 80.7767 392.149 80.6274 392.544C80.478 392.928 80.4034 393.349 80.4034 393.808C80.4034 394.256 80.478 394.677 80.6274 395.072C80.7874 395.456 81.0274 395.765 81.3474 396C81.678 396.224 82.11 396.336 82.6434 396.336ZM88.946 398V391.296H87.634V389.568H88.946V388.768C88.946 388.128 89.042 387.605 89.234 387.2C89.426 386.784 89.73 386.48 90.146 386.288C90.5727 386.096 91.1167 386 91.778 386H93.026V387.728H92.002C91.714 387.728 91.49 387.776 91.33 387.872C91.17 387.968 91.0527 388.112 90.978 388.304C90.914 388.485 90.882 388.709 90.882 388.976V389.568H93.026V391.296H90.882V398H88.946ZM99.8049 398L96.9249 386.688H99.1649L101.341 395.92L103.485 386.688H106.205L108.349 395.92L110.493 386.688H112.621L109.757 398H106.941L104.813 388.944L102.669 398H99.8049ZM115.82 398.112C115.425 398.112 115.052 398.059 114.7 397.952C114.348 397.845 114.033 397.691 113.756 397.488C113.478 397.275 113.254 397.013 113.084 396.704C112.924 396.384 112.844 396.011 112.844 395.584C112.844 395.04 112.95 394.597 113.164 394.256C113.377 393.904 113.665 393.637 114.028 393.456C114.401 393.275 114.822 393.152 115.292 393.088C115.761 393.013 116.252 392.976 116.764 392.976H118.412C118.412 392.603 118.353 392.283 118.236 392.016C118.118 391.739 117.932 391.52 117.676 391.36C117.43 391.2 117.11 391.12 116.716 391.12C116.46 391.12 116.22 391.152 115.996 391.216C115.782 391.269 115.596 391.36 115.436 391.488C115.286 391.605 115.18 391.76 115.116 391.952H113.116C113.19 391.515 113.34 391.141 113.564 390.832C113.798 390.512 114.081 390.251 114.412 390.048C114.753 389.845 115.126 389.696 115.532 389.6C115.937 389.493 116.348 389.44 116.764 389.44C117.99 389.44 118.881 389.792 119.436 390.496C120.001 391.2 120.284 392.187 120.284 393.456V398H118.556L118.508 396.912C118.262 397.275 117.969 397.541 117.628 397.712C117.286 397.883 116.956 397.989 116.636 398.032C116.316 398.085 116.044 398.112 115.82 398.112ZM116.204 396.528C116.63 396.528 117.009 396.448 117.34 396.288C117.67 396.128 117.932 395.904 118.124 395.616C118.326 395.328 118.428 394.997 118.428 394.624V394.352H116.891C116.636 394.352 116.38 394.363 116.124 394.384C115.878 394.395 115.654 394.437 115.452 394.512C115.249 394.576 115.084 394.677 114.956 394.816C114.838 394.955 114.78 395.152 114.78 395.408C114.78 395.664 114.844 395.872 114.972 396.032C115.11 396.192 115.286 396.315 115.5 396.4C115.724 396.485 115.958 396.528 116.204 396.528ZM122.147 398V389.568H123.923L124.035 390.672C124.248 390.352 124.488 390.107 124.755 389.936C125.032 389.755 125.326 389.627 125.635 389.552C125.955 389.477 126.275 389.44 126.595 389.44C126.712 389.44 126.819 389.44 126.915 389.44C127.022 389.44 127.107 389.445 127.171 389.456V391.312H126.659C126.104 391.312 125.635 391.419 125.251 391.632C124.867 391.845 124.579 392.149 124.387 392.544C124.195 392.939 124.099 393.424 124.099 394V398H122.147ZM131.875 398.112C131 398.112 130.264 397.936 129.667 397.584C129.069 397.221 128.616 396.715 128.307 396.064C127.997 395.413 127.843 394.661 127.843 393.808C127.843 392.955 128.003 392.203 128.323 391.552C128.643 390.891 129.112 390.373 129.731 390C130.349 389.627 131.101 389.44 131.987 389.44C132.637 389.44 133.213 389.552 133.715 389.776C134.227 390 134.637 390.331 134.947 390.768C135.267 391.195 135.469 391.728 135.555 392.368H133.635C133.507 391.963 133.293 391.669 132.995 391.488C132.707 391.296 132.36 391.2 131.955 391.2C131.411 391.2 130.979 391.333 130.659 391.6C130.349 391.856 130.125 392.181 129.987 392.576C129.848 392.971 129.779 393.381 129.779 393.808C129.779 394.256 129.853 394.677 130.003 395.072C130.152 395.456 130.381 395.765 130.691 396C131.011 396.235 131.421 396.352 131.923 396.352C132.328 396.352 132.691 396.261 133.011 396.08C133.341 395.899 133.555 395.605 133.651 395.2H135.635C135.56 395.851 135.341 396.395 134.979 396.832C134.627 397.259 134.179 397.579 133.635 397.792C133.091 398.005 132.504 398.112 131.875 398.112ZM137.1 398V389.568H138.876L138.988 390.672C139.202 390.352 139.442 390.107 139.708 389.936C139.986 389.755 140.279 389.627 140.588 389.552C140.908 389.477 141.228 389.44 141.548 389.44C141.666 389.44 141.772 389.44 141.868 389.44C141.975 389.44 142.06 389.445 142.124 389.456V391.312H141.612C141.058 391.312 140.588 391.419 140.204 391.632C139.82 391.845 139.532 392.149 139.34 392.544C139.148 392.939 139.052 393.424 139.052 394V398H137.1ZM145.96 398.112C145.565 398.112 145.192 398.059 144.84 397.952C144.488 397.845 144.173 397.691 143.896 397.488C143.619 397.275 143.395 397.013 143.224 396.704C143.064 396.384 142.984 396.011 142.984 395.584C142.984 395.04 143.091 394.597 143.304 394.256C143.517 393.904 143.805 393.637 144.168 393.456C144.541 393.275 144.963 393.152 145.432 393.088C145.901 393.013 146.392 392.976 146.904 392.976H148.552C148.552 392.603 148.493 392.283 148.376 392.016C148.259 391.739 148.072 391.52 147.816 391.36C147.571 391.2 147.251 391.12 146.856 391.12C146.6 391.12 146.36 391.152 146.136 391.216C145.923 391.269 145.736 391.36 145.576 391.488C145.427 391.605 145.32 391.76 145.256 391.952H143.256C143.331 391.515 143.48 391.141 143.704 390.832C143.939 390.512 144.221 390.251 144.552 390.048C144.893 389.845 145.267 389.696 145.672 389.6C146.077 389.493 146.488 389.44 146.904 389.44C148.131 389.44 149.021 389.792 149.576 390.496C150.141 391.2 150.424 392.187 150.424 393.456V398H148.696L148.648 396.912C148.403 397.275 148.109 397.541 147.768 397.712C147.427 397.883 147.096 397.989 146.776 398.032C146.456 398.085 146.184 398.112 145.96 398.112ZM146.344 396.528C146.771 396.528 147.149 396.448 147.48 396.288C147.811 396.128 148.072 395.904 148.264 395.616C148.467 395.328 148.568 394.997 148.568 394.624V394.352H147.032C146.776 394.352 146.52 394.363 146.264 394.384C146.019 394.395 145.795 394.437 145.592 394.512C145.389 394.576 145.224 394.677 145.096 394.816C144.979 394.955 144.92 395.152 144.92 395.408C144.92 395.664 144.984 395.872 145.112 396.032C145.251 396.192 145.427 396.315 145.64 396.4C145.864 396.485 146.099 396.528 146.344 396.528ZM153.04 398V391.296H151.728V389.568H153.04V388.768C153.04 388.128 153.136 387.605 153.328 387.2C153.52 386.784 153.824 386.48 154.24 386.288C154.666 386.096 155.21 386 155.872 386H157.12V387.728H156.096C155.808 387.728 155.584 387.776 155.424 387.872C155.264 387.968 155.146 388.112 155.072 388.304C155.008 388.485 154.976 388.709 154.976 388.976V389.568H157.12V391.296H154.976V398H153.04ZM161.695 398.096C160.767 398.096 160.089 397.84 159.663 397.328C159.236 396.816 159.023 396.107 159.023 395.2V391.296H157.727V389.568H159.023V387.2H160.975V389.568H163.535V391.296H160.975V394.832C160.975 395.109 161.007 395.36 161.071 395.584C161.135 395.808 161.252 395.984 161.423 396.112C161.593 396.24 161.828 396.309 162.127 396.32C162.383 396.32 162.601 396.277 162.783 396.192C162.964 396.107 163.113 396.011 163.231 395.904L163.887 397.392C163.684 397.563 163.455 397.701 163.199 397.808C162.953 397.915 162.703 397.989 162.447 398.032C162.191 398.075 161.94 398.096 161.695 398.096ZM174.469 398.128C173.296 398.128 172.309 397.888 171.509 397.408C170.709 396.917 170.106 396.24 169.701 395.376C169.296 394.512 169.093 393.509 169.093 392.368C169.093 391.227 169.301 390.219 169.717 389.344C170.133 388.469 170.741 387.787 171.541 387.296C172.341 386.795 173.317 386.544 174.469 386.544C175.322 386.544 176.074 386.688 176.725 386.976C177.376 387.264 177.904 387.675 178.309 388.208C178.725 388.731 178.992 389.376 179.109 390.144H177.173C177.024 389.6 176.72 389.173 176.261 388.864C175.802 388.555 175.205 388.4 174.469 388.4C173.669 388.4 173.024 388.587 172.533 388.96C172.042 389.333 171.685 389.813 171.461 390.4C171.248 390.987 171.141 391.616 171.141 392.288C171.141 392.981 171.253 393.632 171.477 394.24C171.712 394.848 172.08 395.339 172.581 395.712C173.082 396.085 173.728 396.272 174.517 396.272C175.008 396.272 175.434 396.203 175.797 396.064C176.17 395.925 176.48 395.728 176.725 395.472C176.981 395.205 177.157 394.896 177.253 394.544H179.285C179.157 395.301 178.869 395.947 178.421 396.48C177.984 397.013 177.424 397.424 176.741 397.712C176.069 397.989 175.312 398.128 174.469 398.128ZM180.772 398V386.688H182.724V398H180.772ZM187.304 398.112C186.909 398.112 186.536 398.059 186.184 397.952C185.832 397.845 185.517 397.691 185.24 397.488C184.963 397.275 184.739 397.013 184.568 396.704C184.408 396.384 184.328 396.011 184.328 395.584C184.328 395.04 184.435 394.597 184.648 394.256C184.861 393.904 185.149 393.637 185.512 393.456C185.885 393.275 186.307 393.152 186.776 393.088C187.245 393.013 187.736 392.976 188.248 392.976H189.896C189.896 392.603 189.837 392.283 189.72 392.016C189.603 391.739 189.416 391.52 189.16 391.36C188.915 391.2 188.595 391.12 188.2 391.12C187.944 391.12 187.704 391.152 187.48 391.216C187.267 391.269 187.08 391.36 186.92 391.488C186.771 391.605 186.664 391.76 186.6 391.952H184.6C184.675 391.515 184.824 391.141 185.048 390.832C185.283 390.512 185.565 390.251 185.896 390.048C186.237 389.845 186.611 389.696 187.016 389.6C187.421 389.493 187.832 389.44 188.248 389.44C189.475 389.44 190.365 389.792 190.92 390.496C191.485 391.2 191.768 392.187 191.768 393.456V398H190.04L189.992 396.912C189.747 397.275 189.453 397.541 189.112 397.712C188.771 397.883 188.44 397.989 188.12 398.032C187.8 398.085 187.528 398.112 187.304 398.112ZM187.688 396.528C188.115 396.528 188.493 396.448 188.824 396.288C189.155 396.128 189.416 395.904 189.608 395.616C189.811 395.328 189.912 394.997 189.912 394.624V394.352H188.376C188.12 394.352 187.864 394.363 187.608 394.384C187.363 394.395 187.139 394.437 186.936 394.512C186.733 394.576 186.568 394.677 186.44 394.816C186.323 394.955 186.264 395.152 186.264 395.408C186.264 395.664 186.328 395.872 186.456 396.032C186.595 396.192 186.771 396.315 186.984 396.4C187.208 396.485 187.443 396.528 187.688 396.528ZM196.864 398.112C196.458 398.112 196.053 398.069 195.648 397.984C195.253 397.899 194.88 397.76 194.528 397.568C194.176 397.365 193.882 397.093 193.648 396.752C193.413 396.411 193.258 395.984 193.184 395.472H195.152C195.237 395.707 195.37 395.899 195.552 396.048C195.744 396.187 195.962 396.293 196.208 396.368C196.464 396.432 196.714 396.464 196.96 396.464C197.109 396.464 197.269 396.453 197.44 396.432C197.621 396.411 197.786 396.368 197.936 396.304C198.096 396.24 198.224 396.149 198.32 396.032C198.416 395.904 198.464 395.739 198.464 395.536C198.464 395.344 198.41 395.195 198.304 395.088C198.197 394.971 198.053 394.88 197.872 394.816C197.69 394.741 197.472 394.683 197.216 394.64C196.757 394.544 196.266 394.443 195.744 394.336C195.221 394.219 194.768 394.037 194.384 393.792C194.224 393.696 194.085 393.584 193.968 393.456C193.85 393.328 193.749 393.189 193.664 393.04C193.589 392.88 193.53 392.709 193.488 392.528C193.456 392.347 193.44 392.149 193.44 391.936C193.44 391.488 193.53 391.109 193.712 390.8C193.904 390.48 194.154 390.224 194.464 390.032C194.784 389.829 195.146 389.68 195.552 389.584C195.957 389.488 196.373 389.44 196.799 389.44C197.376 389.44 197.898 389.531 198.368 389.712C198.837 389.893 199.226 390.171 199.536 390.544C199.856 390.917 200.048 391.392 200.112 391.968H198.256C198.202 391.701 198.037 391.488 197.76 391.328C197.493 391.168 197.152 391.088 196.736 391.088C196.586 391.088 196.432 391.104 196.272 391.136C196.112 391.157 195.957 391.2 195.808 391.264C195.669 391.317 195.552 391.403 195.456 391.52C195.37 391.637 195.328 391.781 195.328 391.952C195.328 392.112 195.365 392.251 195.44 392.368C195.525 392.485 195.648 392.587 195.808 392.672C195.978 392.747 196.176 392.811 196.4 392.864C196.762 392.939 197.141 393.013 197.536 393.088C197.93 393.163 198.272 393.237 198.56 393.312C198.901 393.408 199.21 393.547 199.488 393.728C199.765 393.899 199.978 394.128 200.128 394.416C200.288 394.693 200.368 395.051 200.368 395.488C200.368 396 200.261 396.427 200.048 396.768C199.845 397.109 199.573 397.376 199.232 397.568C198.89 397.76 198.512 397.899 198.096 397.984C197.68 398.069 197.269 398.112 196.864 398.112ZM205.035 398.112C204.63 398.112 204.225 398.069 203.819 397.984C203.425 397.899 203.051 397.76 202.699 397.568C202.347 397.365 202.054 397.093 201.819 396.752C201.585 396.411 201.43 395.984 201.355 395.472H203.323C203.409 395.707 203.542 395.899 203.723 396.048C203.915 396.187 204.134 396.293 204.379 396.368C204.635 396.432 204.886 396.464 205.131 396.464C205.281 396.464 205.441 396.453 205.611 396.432C205.793 396.411 205.958 396.368 206.107 396.304C206.267 396.24 206.395 396.149 206.491 396.032C206.587 395.904 206.635 395.739 206.635 395.536C206.635 395.344 206.582 395.195 206.475 395.088C206.369 394.971 206.225 394.88 206.043 394.816C205.862 394.741 205.643 394.683 205.387 394.64C204.929 394.544 204.438 394.443 203.915 394.336C203.393 394.219 202.939 394.037 202.555 393.792C202.395 393.696 202.257 393.584 202.139 393.456C202.022 393.328 201.921 393.189 201.835 393.04C201.761 392.88 201.702 392.709 201.659 392.528C201.627 392.347 201.611 392.149 201.611 391.936C201.611 391.488 201.702 391.109 201.883 390.8C202.075 390.48 202.326 390.224 202.635 390.032C202.955 389.829 203.318 389.68 203.723 389.584C204.129 389.488 204.545 389.44 204.971 389.44C205.547 389.44 206.07 389.531 206.539 389.712C207.009 389.893 207.398 390.171 207.707 390.544C208.027 390.917 208.219 391.392 208.283 391.968H206.427C206.374 391.701 206.209 391.488 205.931 391.328C205.665 391.168 205.323 391.088 204.907 391.088C204.758 391.088 204.603 391.104 204.443 391.136C204.283 391.157 204.129 391.2 203.979 391.264C203.841 391.317 203.723 391.403 203.627 391.52C203.542 391.637 203.499 391.781 203.499 391.952C203.499 392.112 203.537 392.251 203.611 392.368C203.697 392.485 203.819 392.587 203.979 392.672C204.15 392.747 204.347 392.811 204.571 392.864C204.934 392.939 205.313 393.013 205.707 393.088C206.102 393.163 206.443 393.237 206.731 393.312C207.073 393.408 207.382 393.547 207.659 393.728C207.937 393.899 208.15 394.128 208.299 394.416C208.459 394.693 208.539 395.051 208.539 395.488C208.539 396 208.433 396.427 208.219 396.768C208.017 397.109 207.745 397.376 207.403 397.568C207.062 397.76 206.683 397.899 206.267 397.984C205.851 398.069 205.441 398.112 205.035 398.112ZM209.975 398V389.568H211.927V398H209.975ZM210.951 388.592C210.578 388.592 210.279 388.48 210.055 388.256C209.831 388.032 209.719 387.739 209.719 387.376C209.719 387.024 209.837 386.736 210.071 386.512C210.306 386.277 210.599 386.16 210.951 386.16C211.293 386.16 211.586 386.272 211.831 386.496C212.077 386.72 212.199 387.013 212.199 387.376C212.199 387.739 212.082 388.032 211.847 388.256C211.613 388.48 211.314 388.592 210.951 388.592ZM217.531 398.112C216.656 398.112 215.92 397.936 215.323 397.584C214.726 397.221 214.272 396.715 213.963 396.064C213.654 395.413 213.499 394.661 213.499 393.808C213.499 392.955 213.659 392.203 213.979 391.552C214.299 390.891 214.768 390.373 215.387 390C216.006 389.627 216.758 389.44 217.643 389.44C218.294 389.44 218.87 389.552 219.371 389.776C219.883 390 220.294 390.331 220.603 390.768C220.923 391.195 221.126 391.728 221.211 392.368H219.291C219.163 391.963 218.95 391.669 218.651 391.488C218.363 391.296 218.016 391.2 217.611 391.2C217.067 391.2 216.635 391.333 216.315 391.6C216.006 391.856 215.782 392.181 215.643 392.576C215.504 392.971 215.435 393.381 215.435 393.808C215.435 394.256 215.51 394.677 215.659 395.072C215.808 395.456 216.038 395.765 216.347 396C216.667 396.235 217.078 396.352 217.579 396.352C217.984 396.352 218.347 396.261 218.667 396.08C218.998 395.899 219.211 395.605 219.307 395.2H221.291C221.216 395.851 220.998 396.395 220.635 396.832C220.283 397.259 219.835 397.579 219.291 397.792C218.747 398.005 218.16 398.112 217.531 398.112Z" fill="white"/>
<path d="M108.105 53.5417C108.335 52.8194 109.335 52.8194 109.565 53.5417L110.73 57.2056C110.833 57.5286 111.127 57.7473 111.46 57.7473H115.231C115.975 57.7473 116.284 58.7191 115.682 59.1654L112.631 61.4299C112.362 61.6295 112.25 61.9833 112.352 62.3063L113.518 65.9703C113.748 66.6925 112.938 67.2931 112.337 66.8467L109.286 64.5823C109.017 64.3827 108.653 64.3827 108.384 64.5823L105.333 66.8467C104.731 67.2931 103.922 66.6925 104.152 65.9703L105.317 62.3063C105.42 61.9833 105.308 61.6295 105.039 61.4299L101.988 59.1654C101.386 58.7191 101.695 57.7473 102.439 57.7473H106.21C106.542 57.7473 106.837 57.5286 106.94 57.2056L108.105 53.5417Z" fill="url(#paint0_linear_1001_2264)"/>
<path d="M89.6876 53.5417C89.9173 52.8194 90.9176 52.8194 91.1473 53.5417L92.3127 57.2056C92.4154 57.5286 92.71 57.7473 93.0425 57.7473H96.8137C97.5571 57.7473 97.8662 58.7191 97.2647 59.1654L94.2138 61.4299C93.9448 61.6295 93.8323 61.9833 93.935 62.3063L95.1004 65.9703C95.3301 66.6925 94.5209 67.2931 93.9195 66.8467L90.8685 64.5823C90.5996 64.3827 90.2354 64.3827 89.9664 64.5823L86.9154 66.8467C86.314 67.2931 85.5048 66.6925 85.7345 65.9703L86.8999 62.3063C87.0026 61.9833 86.8901 61.6295 86.6211 61.4299L83.5702 59.1654C82.9688 58.7191 83.2778 57.7473 84.0212 57.7473H87.7924C88.1249 57.7473 88.4195 57.5286 88.5223 57.2056L89.6876 53.5417Z" fill="url(#paint1_linear_1001_2264)"/>
<path d="M71.2702 53.5417C71.4999 52.8194 72.5001 52.8194 72.7298 53.5417L73.8952 57.2056C73.9979 57.5286 74.2926 57.7473 74.625 57.7473H78.3962C79.1396 57.7473 79.4487 58.7191 78.8473 59.1654L75.7963 61.4299C75.5274 61.6295 75.4148 61.9833 75.5176 62.3063L76.6829 65.9703C76.9126 66.6925 76.1034 67.2931 75.502 66.8467L72.4511 64.5823C72.1821 64.3827 71.8179 64.3827 71.5489 64.5823L68.498 66.8467C67.8966 67.2931 67.0874 66.6925 67.3171 65.9703L68.4824 62.3063C68.5852 61.9833 68.4726 61.6295 68.2037 61.4299L65.1527 59.1654C64.5513 58.7191 64.8604 57.7473 65.6038 57.7473H69.375C69.7074 57.7473 70.0021 57.5286 70.1048 57.2056L71.2702 53.5417Z" fill="url(#paint2_linear_1001_2264)"/>
<path d="M52.8527 53.5417C53.0824 52.8194 54.0827 52.8194 54.3124 53.5417L55.4777 57.2056C55.5805 57.5286 55.8751 57.7473 56.2076 57.7473H59.9788C60.7222 57.7473 61.0312 58.7191 60.4298 59.1654L57.3789 61.4299C57.1099 61.6295 56.9974 61.9833 57.1001 62.3063L58.2655 65.9703C58.4952 66.6925 57.686 67.2931 57.0846 66.8467L54.0336 64.5823C53.7646 64.3827 53.4004 64.3827 53.1315 64.5823L50.0805 66.8467C49.4791 67.2931 48.6699 66.6925 48.8996 65.9703L50.065 62.3063C50.1677 61.9833 50.0552 61.6295 49.7862 61.4299L46.7353 59.1654C46.1338 58.7191 46.4429 57.7473 47.1863 57.7473H50.9575C51.29 57.7473 51.5846 57.5286 51.6873 57.2056L52.8527 53.5417Z" fill="url(#paint3_linear_1001_2264)"/>
<path d="M34.4353 53.5417C34.665 52.8194 35.6652 52.8194 35.8949 53.5417L37.0603 57.2056C37.163 57.5286 37.4577 57.7473 37.7901 57.7473H41.5613C42.3047 57.7473 42.6138 58.7191 42.0124 59.1654L38.9614 61.4299C38.6925 61.6295 38.5799 61.9833 38.6826 62.3063L39.848 65.9703C40.0777 66.6925 39.2685 67.2931 38.6671 66.8467L35.6162 64.5823C35.3472 64.3827 34.983 64.3827 34.714 64.5823L31.6631 66.8467C31.0617 67.2931 30.2524 66.6925 30.4822 65.9703L31.6475 62.3063C31.7503 61.9833 31.6377 61.6295 31.3688 61.4299L28.3178 59.1654C27.7164 58.7191 28.0255 57.7473 28.7689 57.7473H32.5401C32.8725 57.7473 33.1672 57.5286 33.2699 57.2056L34.4353 53.5417Z" fill="url(#paint4_linear_1001_2264)"/>
<path d="M32.416 43.128C31.8507 43.128 31.3333 43.064 30.864 42.936C30.3947 42.7973 29.9893 42.584 29.648 42.296C29.3173 41.9973 29.056 41.6133 28.864 41.144C28.672 40.664 28.5653 40.0827 28.544 39.4H30.544C30.5653 39.7413 30.6347 40.056 30.752 40.344C30.8693 40.632 31.056 40.8613 31.312 41.032C31.5787 41.2027 31.936 41.288 32.384 41.288C32.8107 41.288 33.1413 41.1973 33.376 41.016C33.6107 40.8347 33.776 40.5947 33.872 40.296C33.9787 39.9973 34.032 39.6613 34.032 39.288V31.688H36.016V39.032C36.016 39.6613 35.9467 40.232 35.808 40.744C35.68 41.2453 35.4667 41.6773 35.168 42.04C34.88 42.392 34.5067 42.664 34.048 42.856C33.6 43.0373 33.056 43.128 32.416 43.128ZM42.0188 43.112C41.1548 43.112 40.4081 42.936 39.7788 42.584C39.1601 42.232 38.6801 41.7307 38.3388 41.08C38.0081 40.4293 37.8428 39.6667 37.8428 38.792C37.8428 37.9067 38.0134 37.144 38.3548 36.504C38.6961 35.8533 39.1761 35.3467 39.7948 34.984C40.4134 34.6213 41.1548 34.44 42.0188 34.44C42.8721 34.44 43.6081 34.6213 44.2268 34.984C44.8454 35.3467 45.3201 35.8587 45.6508 36.52C45.9814 37.1707 46.1468 37.9387 46.1468 38.824C46.1468 39.688 45.9814 40.4453 45.6508 41.096C45.3308 41.736 44.8614 42.232 44.2428 42.584C43.6241 42.936 42.8828 43.112 42.0188 43.112ZM42.0028 41.336C42.5361 41.336 42.9628 41.2187 43.2828 40.984C43.6134 40.7493 43.8534 40.44 44.0028 40.056C44.1521 39.672 44.2268 39.256 44.2268 38.808C44.2268 38.36 44.1521 37.9387 44.0028 37.544C43.8534 37.1493 43.6134 36.8347 43.2828 36.6C42.9628 36.3547 42.5361 36.232 42.0028 36.232C41.4694 36.232 41.0374 36.3547 40.7068 36.6C40.3761 36.8347 40.1361 37.1493 39.9868 37.544C39.8374 37.928 39.7628 38.3493 39.7628 38.808C39.7628 39.256 39.8374 39.6773 39.9868 40.072C40.1468 40.456 40.3868 40.7653 40.7068 41C41.0374 41.224 41.4694 41.336 42.0028 41.336ZM50.9416 43.112C50.5363 43.112 50.131 43.0693 49.7256 42.984C49.331 42.8987 48.9576 42.76 48.6056 42.568C48.2536 42.3653 47.9603 42.0933 47.7256 41.752C47.491 41.4107 47.3363 40.984 47.2616 40.472H49.2296C49.315 40.7067 49.4483 40.8987 49.6296 41.048C49.8216 41.1867 50.0403 41.2933 50.2856 41.368C50.5416 41.432 50.7923 41.464 51.0376 41.464C51.187 41.464 51.347 41.4533 51.5176 41.432C51.699 41.4107 51.8643 41.368 52.0136 41.304C52.1736 41.24 52.3016 41.1493 52.3976 41.032C52.4936 40.904 52.5416 40.7387 52.5416 40.536C52.5416 40.344 52.4883 40.1947 52.3816 40.088C52.275 39.9707 52.131 39.88 51.9496 39.816C51.7683 39.7413 51.5496 39.6827 51.2936 39.64C50.835 39.544 50.3443 39.4427 49.8216 39.336C49.299 39.2187 48.8456 39.0373 48.4616 38.792C48.3016 38.696 48.163 38.584 48.0456 38.456C47.9283 38.328 47.827 38.1893 47.7416 38.04C47.667 37.88 47.6083 37.7093 47.5656 37.528C47.5336 37.3467 47.5176 37.1493 47.5176 36.936C47.5176 36.488 47.6083 36.1093 47.7896 35.8C47.9816 35.48 48.2323 35.224 48.5416 35.032C48.8616 34.8293 49.2243 34.68 49.6296 34.584C50.035 34.488 50.451 34.44 50.8776 34.44C51.4536 34.44 51.9763 34.5307 52.4456 34.712C52.915 34.8933 53.3043 35.1707 53.6136 35.544C53.9336 35.9173 54.1256 36.392 54.1896 36.968H52.3336C52.2803 36.7013 52.115 36.488 51.8376 36.328C51.571 36.168 51.2296 36.088 50.8136 36.088C50.6643 36.088 50.5096 36.104 50.3496 36.136C50.1896 36.1573 50.035 36.2 49.8856 36.264C49.747 36.3173 49.6296 36.4027 49.5336 36.52C49.4483 36.6373 49.4056 36.7813 49.4056 36.952C49.4056 37.112 49.443 37.2507 49.5176 37.368C49.603 37.4853 49.7256 37.5867 49.8856 37.672C50.0563 37.7467 50.2536 37.8107 50.4776 37.864C50.8403 37.9387 51.219 38.0133 51.6136 38.088C52.0083 38.1627 52.3496 38.2373 52.6376 38.312C52.979 38.408 53.2883 38.5467 53.5656 38.728C53.843 38.8987 54.0563 39.128 54.2056 39.416C54.3656 39.6933 54.4456 40.0507 54.4456 40.488C54.4456 41 54.339 41.4267 54.1256 41.768C53.923 42.1093 53.651 42.376 53.3096 42.568C52.9683 42.76 52.5896 42.8987 52.1736 42.984C51.7576 43.0693 51.347 43.112 50.9416 43.112ZM55.8815 43V31.688H57.8335V35.656C58.0575 35.368 58.3188 35.1333 58.6175 34.952C58.9162 34.7707 59.2308 34.6427 59.5615 34.568C59.8922 34.4827 60.2068 34.44 60.5055 34.44C61.3055 34.44 61.9348 34.616 62.3935 34.968C62.8522 35.32 63.1722 35.7893 63.3535 36.376C63.5455 36.9627 63.6415 37.624 63.6415 38.36V43H61.6895V38.696C61.6895 38.408 61.6682 38.1147 61.6255 37.816C61.5828 37.5173 61.4975 37.2507 61.3695 37.016C61.2522 36.7707 61.0708 36.5733 60.8255 36.424C60.5908 36.2747 60.2762 36.2 59.8815 36.2C59.5082 36.2 59.1882 36.28 58.9215 36.44C58.6548 36.5893 58.4415 36.7973 58.2815 37.064C58.1322 37.3307 58.0202 37.624 57.9455 37.944C57.8708 38.264 57.8335 38.584 57.8335 38.904V43H55.8815ZM69.1713 43.128C68.5633 43.128 67.9873 43.0267 67.4433 42.824C66.9099 42.6107 66.4566 42.2907 66.0833 41.864C65.7099 41.4373 65.4646 40.904 65.3473 40.264H67.3473C67.4966 40.6053 67.7526 40.8667 68.1153 41.048C68.4886 41.2187 68.8779 41.304 69.2833 41.304C69.7739 41.304 70.1793 41.208 70.4993 41.016C70.8299 40.8133 71.0913 40.5467 71.2833 40.216C71.4859 39.8747 71.6299 39.5013 71.7153 39.096C71.8006 38.68 71.8433 38.2587 71.8433 37.832C71.8433 37.7787 71.8433 37.7253 71.8433 37.672C71.8433 37.6187 71.8433 37.5707 71.8433 37.528C71.6193 37.9013 71.3419 38.1947 71.0113 38.408C70.6806 38.6107 70.3286 38.76 69.9553 38.856C69.5819 38.9413 69.2193 38.984 68.8673 38.984C68.1953 38.984 67.5873 38.8453 67.0433 38.568C66.4993 38.2907 66.0673 37.8853 65.7473 37.352C65.4273 36.808 65.2673 36.1573 65.2673 35.4C65.2673 34.5893 65.4486 33.896 65.8113 33.32C66.1739 32.744 66.6646 32.3067 67.2833 32.008C67.9126 31.6987 68.6113 31.544 69.3793 31.544C70.2113 31.544 70.9046 31.7147 71.4593 32.056C72.0139 32.3973 72.4566 32.856 72.7873 33.432C73.1179 33.9973 73.3526 34.6267 73.4913 35.32C73.6299 36.0133 73.6993 36.7173 73.6993 37.432C73.6993 38.2213 73.6139 38.9627 73.4433 39.656C73.2833 40.3387 73.0219 40.9413 72.6593 41.464C72.3073 41.9867 71.8433 42.3973 71.2673 42.696C70.6913 42.984 69.9926 43.128 69.1713 43.128ZM69.2833 37.272C69.6993 37.272 70.0619 37.1867 70.3713 37.016C70.6913 36.8347 70.9366 36.6 71.1073 36.312C71.2779 36.0133 71.3579 35.6933 71.3473 35.352C71.3473 34.9467 71.2566 34.6 71.0753 34.312C70.9046 34.0133 70.6646 33.7787 70.3553 33.608C70.0459 33.4373 69.6993 33.352 69.3153 33.352C68.8993 33.352 68.5366 33.4427 68.2273 33.624C67.9286 33.8053 67.6939 34.0453 67.5233 34.344C67.3526 34.6427 67.2673 34.9627 67.2673 35.304C67.2673 35.8907 67.4433 36.3653 67.7953 36.728C68.1473 37.0907 68.6433 37.272 69.2833 37.272ZM80.9008 43V40.856H75.0128V39.352L80.3568 31.688H82.8688V39.048H84.1648V40.856H82.8688V43H80.9008ZM77.3168 39.048H80.9008V33.784L77.3168 39.048ZM85.009 43V41.352L88.161 38.696C88.417 38.4827 88.6997 38.248 89.009 37.992C89.3183 37.736 89.6117 37.4587 89.889 37.16C90.177 36.8507 90.417 36.5307 90.609 36.2C90.801 35.8693 90.897 35.5227 90.897 35.16C90.897 34.616 90.7317 34.1893 90.401 33.88C90.081 33.5707 89.6223 33.416 89.025 33.416C88.5023 33.416 88.0757 33.528 87.745 33.752C87.4143 33.976 87.2063 34.28 87.121 34.664H85.153C85.2277 33.9493 85.457 33.368 85.841 32.92C86.2357 32.4613 86.721 32.12 87.297 31.896C87.873 31.6613 88.4757 31.544 89.105 31.544C89.8197 31.544 90.4597 31.6773 91.025 31.944C91.5903 32.2 92.0383 32.584 92.369 33.096C92.7103 33.5973 92.881 34.2107 92.881 34.936C92.881 35.5867 92.753 36.1733 92.497 36.696C92.2517 37.2187 91.9157 37.6987 91.489 38.136C91.073 38.5627 90.6143 38.984 90.113 39.4L87.953 41.176H92.913V43H85.009Z" fill="white"/>
<rect x="28" y="415" width="88" height="34" rx="8" fill="#0D0C1D"/>
<defs>
<linearGradient id="paint0_linear_1001_2264" x1="72" y1="53" x2="72" y2="67" gradientUnits="userSpaceOnUse">
<stop stop-color="#FFAE00"/>
<stop offset="1" stop-color="#FF8800"/>
</linearGradient>
<linearGradient id="paint1_linear_1001_2264" x1="72" y1="53" x2="72" y2="67" gradientUnits="userSpaceOnUse">
<stop stop-color="#FFAE00"/>
<stop offset="1" stop-color="#FF8800"/>
</linearGradient>
<linearGradient id="paint2_linear_1001_2264" x1="72" y1="53" x2="72" y2="67" gradientUnits="userSpaceOnUse">
<stop stop-color="#FFAE00"/>
<stop offset="1" stop-color="#FF8800"/>
</linearGradient>
<linearGradient id="paint3_linear_1001_2264" x1="72" y1="53" x2="72" y2="67" gradientUnits="userSpaceOnUse">
<stop stop-color="#FFAE00"/>
<stop offset="1" stop-color="#FF8800"/>
</linearGradient>
<linearGradient id="paint4_linear_1001_2264" x1="72" y1="53" x2="72" y2="67" gradientUnits="userSpaceOnUse">
<stop stop-color="#FFAE00"/>
<stop offset="1" stop-color="#FF8800"/>
</linearGradient>
</defs>
</svg>
