<svg width="218" height="45" viewBox="0 0 218 45" fill="none" xmlns="http://www.w3.org/2000/svg">
<rect width="95" height="45" rx="22.5" fill="#0D0C1D"/>
<path d="M57 24C57.5523 24 58 23.5523 58 23C58 22.4477 57.5523 22 57 22V23V24ZM37.2929 22.2929C36.9024 22.6834 36.9024 23.3166 37.2929 23.7071L43.6569 30.0711C44.0474 30.4616 44.6805 30.4616 45.0711 30.0711C45.4616 29.6805 45.4616 29.0474 45.0711 28.6569L39.4142 23L45.0711 17.3431C45.4616 16.9526 45.4616 16.3195 45.0711 15.9289C44.6805 15.5384 44.0474 15.5384 43.6569 15.9289L37.2929 22.2929ZM57 23V22L38 22V23V24L57 24V23Z" fill="white"/>
<rect width="95" height="45" rx="22.5" transform="matrix(-1 0 0 1 218 0)" fill="#0D0C1D"/>
<path d="M161 24C160.448 24 160 23.5523 160 23C160 22.4477 160.448 22 161 22V23V24ZM180.707 22.2929C181.098 22.6834 181.098 23.3166 180.707 23.7071L174.343 30.0711C173.953 30.4616 173.319 30.4616 172.929 30.0711C172.538 29.6805 172.538 29.0474 172.929 28.6569L178.586 23L172.929 17.3431C172.538 16.9526 172.538 16.3195 172.929 15.9289C173.319 15.5384 173.953 15.5384 174.343 15.9289L180.707 22.2929ZM161 23V22L180 22V23V24L161 24V23Z" fill="white"/>
</svg>
