<svg width="40" height="480" viewBox="0 0 40 480" fill="none" xmlns="http://www.w3.org/2000/svg">
<rect x="-387" width="427" height="480" rx="14" fill="black" fill-opacity="0.01"/>
<path d="M-353.456 158V143.768H-358.76V141.032H-345.176V143.768H-350.48V158H-353.456ZM-343.521 158V141.032H-340.593V146.984C-340.257 146.552 -339.865 146.2 -339.417 145.928C-338.969 145.656 -338.497 145.464 -338.001 145.352C-337.505 145.224 -337.033 145.16 -336.585 145.16C-335.385 145.16 -334.441 145.424 -333.753 145.952C-333.065 146.48 -332.585 147.184 -332.313 148.064C-332.025 148.944 -331.881 149.936 -331.881 151.04V158H-334.809V151.544C-334.809 151.112 -334.841 150.672 -334.905 150.224C-334.969 149.776 -335.097 149.376 -335.289 149.024C-335.465 148.656 -335.737 148.36 -336.105 148.136C-336.457 147.912 -336.929 147.8 -337.521 147.8C-338.081 147.8 -338.561 147.92 -338.961 148.16C-339.361 148.384 -339.681 148.696 -339.921 149.096C-340.145 149.496 -340.313 149.936 -340.425 150.416C-340.537 150.896 -340.593 151.376 -340.593 151.856V158H-343.521ZM-329.131 158V145.352H-326.203V158H-329.131ZM-327.667 143.888C-328.227 143.888 -328.675 143.72 -329.011 143.384C-329.347 143.048 -329.515 142.608 -329.515 142.064C-329.515 141.536 -329.339 141.104 -328.987 140.768C-328.635 140.416 -328.195 140.24 -327.667 140.24C-327.155 140.24 -326.715 140.408 -326.347 140.744C-325.979 141.08 -325.795 141.52 -325.795 142.064C-325.795 142.608 -325.971 143.048 -326.323 143.384C-326.675 143.72 -327.123 143.888 -327.667 143.888ZM-318.517 158.168C-319.125 158.168 -319.733 158.104 -320.341 157.976C-320.933 157.848 -321.493 157.64 -322.021 157.352C-322.549 157.048 -322.989 156.64 -323.341 156.128C-323.693 155.616 -323.925 154.976 -324.037 154.208H-321.085C-320.957 154.56 -320.757 154.848 -320.485 155.072C-320.197 155.28 -319.869 155.44 -319.501 155.552C-319.117 155.648 -318.741 155.696 -318.373 155.696C-318.149 155.696 -317.909 155.68 -317.653 155.648C-317.381 155.616 -317.133 155.552 -316.909 155.456C-316.669 155.36 -316.477 155.224 -316.333 155.048C-316.189 154.856 -316.117 154.608 -316.117 154.304C-316.117 154.016 -316.197 153.792 -316.357 153.632C-316.517 153.456 -316.733 153.32 -317.005 153.224C-317.277 153.112 -317.605 153.024 -317.989 152.96C-318.677 152.816 -319.413 152.664 -320.197 152.504C-320.981 152.328 -321.661 152.056 -322.237 151.688C-322.477 151.544 -322.685 151.376 -322.861 151.184C-323.037 150.992 -323.189 150.784 -323.317 150.56C-323.429 150.32 -323.517 150.064 -323.581 149.792C-323.629 149.52 -323.653 149.224 -323.653 148.904C-323.653 148.232 -323.517 147.664 -323.245 147.2C-322.957 146.72 -322.581 146.336 -322.117 146.048C-321.637 145.744 -321.093 145.52 -320.485 145.376C-319.877 145.232 -319.253 145.16 -318.613 145.16C-317.749 145.16 -316.965 145.296 -316.261 145.568C-315.557 145.84 -314.973 146.256 -314.509 146.816C-314.029 147.376 -313.741 148.088 -313.645 148.952H-316.429C-316.509 148.552 -316.757 148.232 -317.173 147.992C-317.573 147.752 -318.085 147.632 -318.709 147.632C-318.933 147.632 -319.165 147.656 -319.405 147.704C-319.645 147.736 -319.877 147.8 -320.101 147.896C-320.309 147.976 -320.485 148.104 -320.629 148.28C-320.757 148.456 -320.821 148.672 -320.821 148.928C-320.821 149.168 -320.765 149.376 -320.653 149.552C-320.525 149.728 -320.341 149.88 -320.101 150.008C-319.845 150.12 -319.549 150.216 -319.213 150.296C-318.669 150.408 -318.101 150.52 -317.509 150.632C-316.917 150.744 -316.405 150.856 -315.973 150.968C-315.461 151.112 -314.997 151.32 -314.581 151.592C-314.165 151.848 -313.845 152.192 -313.621 152.624C-313.381 153.04 -313.261 153.576 -313.261 154.232C-313.261 155 -313.421 155.64 -313.741 156.152C-314.045 156.664 -314.453 157.064 -314.965 157.352C-315.477 157.64 -316.045 157.848 -316.669 157.976C-317.293 158.104 -317.909 158.168 -318.517 158.168ZM-299.58 158.168C-300.188 158.168 -300.796 158.104 -301.404 157.976C-301.996 157.848 -302.556 157.64 -303.084 157.352C-303.612 157.048 -304.052 156.64 -304.404 156.128C-304.756 155.616 -304.988 154.976 -305.1 154.208H-302.148C-302.02 154.56 -301.82 154.848 -301.548 155.072C-301.26 155.28 -300.932 155.44 -300.564 155.552C-300.18 155.648 -299.804 155.696 -299.436 155.696C-299.212 155.696 -298.972 155.68 -298.716 155.648C-298.444 155.616 -298.196 155.552 -297.972 155.456C-297.732 155.36 -297.54 155.224 -297.396 155.048C-297.252 154.856 -297.18 154.608 -297.18 154.304C-297.18 154.016 -297.26 153.792 -297.42 153.632C-297.58 153.456 -297.796 153.32 -298.068 153.224C-298.34 153.112 -298.668 153.024 -299.052 152.96C-299.74 152.816 -300.476 152.664 -301.26 152.504C-302.044 152.328 -302.724 152.056 -303.3 151.688C-303.54 151.544 -303.748 151.376 -303.924 151.184C-304.1 150.992 -304.252 150.784 -304.38 150.56C-304.492 150.32 -304.58 150.064 -304.644 149.792C-304.692 149.52 -304.716 149.224 -304.716 148.904C-304.716 148.232 -304.58 147.664 -304.308 147.2C-304.02 146.72 -303.644 146.336 -303.18 146.048C-302.7 145.744 -302.156 145.52 -301.548 145.376C-300.94 145.232 -300.316 145.16 -299.676 145.16C-298.812 145.16 -298.028 145.296 -297.324 145.568C-296.62 145.84 -296.036 146.256 -295.572 146.816C-295.092 147.376 -294.804 148.088 -294.708 148.952H-297.492C-297.572 148.552 -297.82 148.232 -298.236 147.992C-298.636 147.752 -299.148 147.632 -299.772 147.632C-299.996 147.632 -300.228 147.656 -300.468 147.704C-300.708 147.736 -300.94 147.8 -301.164 147.896C-301.372 147.976 -301.548 148.104 -301.692 148.28C-301.82 148.456 -301.884 148.672 -301.884 148.928C-301.884 149.168 -301.828 149.376 -301.716 149.552C-301.588 149.728 -301.404 149.88 -301.164 150.008C-300.908 150.12 -300.612 150.216 -300.276 150.296C-299.732 150.408 -299.164 150.52 -298.572 150.632C-297.98 150.744 -297.468 150.856 -297.036 150.968C-296.524 151.112 -296.06 151.32 -295.644 151.592C-295.228 151.848 -294.908 152.192 -294.684 152.624C-294.444 153.04 -294.324 153.576 -294.324 154.232C-294.324 155 -294.484 155.64 -294.804 156.152C-295.108 156.664 -295.516 157.064 -296.028 157.352C-296.54 157.64 -297.108 157.848 -297.732 157.976C-298.356 158.104 -298.972 158.168 -299.58 158.168ZM-286.506 158.168C-287.818 158.168 -288.938 157.896 -289.866 157.352C-290.778 156.808 -291.474 156.056 -291.954 155.096C-292.418 154.12 -292.65 152.992 -292.65 151.712C-292.65 150.432 -292.41 149.304 -291.93 148.328C-291.434 147.336 -290.73 146.56 -289.818 146C-288.89 145.44 -287.778 145.16 -286.482 145.16C-285.522 145.16 -284.682 145.336 -283.962 145.688C-283.242 146.024 -282.642 146.488 -282.162 147.08C-281.666 147.672 -281.298 148.344 -281.058 149.096C-280.818 149.848 -280.706 150.64 -280.722 151.472C-280.738 151.664 -280.754 151.856 -280.77 152.048C-280.786 152.224 -280.81 152.416 -280.842 152.624H-289.722C-289.674 153.184 -289.53 153.696 -289.29 154.16C-289.034 154.624 -288.682 154.992 -288.234 155.264C-287.77 155.536 -287.194 155.672 -286.506 155.672C-286.106 155.672 -285.722 155.624 -285.354 155.528C-284.986 155.416 -284.666 155.256 -284.394 155.048C-284.106 154.84 -283.914 154.576 -283.818 154.256H-280.89C-281.098 155.168 -281.482 155.912 -282.042 156.488C-282.602 157.064 -283.274 157.488 -284.058 157.76C-284.826 158.032 -285.642 158.168 -286.506 158.168ZM-289.674 150.44H-283.578C-283.578 149.912 -283.698 149.432 -283.938 149C-284.178 148.568 -284.522 148.232 -284.97 147.992C-285.402 147.736 -285.93 147.608 -286.554 147.608C-287.226 147.608 -287.786 147.744 -288.234 148.016C-288.682 148.288 -289.026 148.64 -289.266 149.072C-289.506 149.504 -289.642 149.96 -289.674 150.44ZM-278.389 158V145.352H-275.725L-275.557 147.008C-275.237 146.528 -274.877 146.16 -274.477 145.904C-274.061 145.632 -273.621 145.44 -273.157 145.328C-272.677 145.216 -272.197 145.16 -271.717 145.16C-271.541 145.16 -271.381 145.16 -271.237 145.16C-271.077 145.16 -270.949 145.168 -270.853 145.184V147.968H-271.621C-272.453 147.968 -273.157 148.128 -273.733 148.448C-274.309 148.768 -274.741 149.224 -275.029 149.816C-275.317 150.408 -275.461 151.136 -275.461 152V158H-278.389ZM-265.915 158L-270.499 145.352H-267.259L-263.923 155.504L-260.611 145.352H-257.395L-261.979 158H-265.915ZM-255.936 158V145.352H-253.008V158H-255.936ZM-254.472 143.888C-255.032 143.888 -255.48 143.72 -255.816 143.384C-256.152 143.048 -256.32 142.608 -256.32 142.064C-256.32 141.536 -256.144 141.104 -255.792 140.768C-255.44 140.416 -255 140.24 -254.472 140.24C-253.96 140.24 -253.52 140.408 -253.152 140.744C-252.784 141.08 -252.6 141.52 -252.6 142.064C-252.6 142.608 -252.776 143.048 -253.128 143.384C-253.48 143.72 -253.928 143.888 -254.472 143.888ZM-244.602 158.168C-245.914 158.168 -247.018 157.904 -247.914 157.376C-248.81 156.832 -249.49 156.072 -249.954 155.096C-250.418 154.12 -250.65 152.992 -250.65 151.712C-250.65 150.432 -250.41 149.304 -249.93 148.328C-249.45 147.336 -248.746 146.56 -247.818 146C-246.89 145.44 -245.762 145.16 -244.434 145.16C-243.458 145.16 -242.594 145.328 -241.842 145.664C-241.074 146 -240.458 146.496 -239.994 147.152C-239.514 147.792 -239.21 148.592 -239.082 149.552H-241.962C-242.154 148.944 -242.474 148.504 -242.922 148.232C-243.354 147.944 -243.874 147.8 -244.482 147.8C-245.298 147.8 -245.946 148 -246.426 148.4C-246.89 148.784 -247.226 149.272 -247.434 149.864C-247.642 150.456 -247.746 151.072 -247.746 151.712C-247.746 152.384 -247.634 153.016 -247.41 153.608C-247.186 154.184 -246.842 154.648 -246.378 155C-245.898 155.352 -245.282 155.528 -244.53 155.528C-243.922 155.528 -243.378 155.392 -242.898 155.12C-242.402 154.848 -242.082 154.408 -241.938 153.8H-238.962C-239.074 154.776 -239.402 155.592 -239.946 156.248C-240.474 156.888 -241.146 157.368 -241.962 157.688C-242.778 158.008 -243.658 158.168 -244.602 158.168ZM-231.1 158.168C-232.412 158.168 -233.532 157.896 -234.46 157.352C-235.372 156.808 -236.068 156.056 -236.548 155.096C-237.012 154.12 -237.244 152.992 -237.244 151.712C-237.244 150.432 -237.004 149.304 -236.524 148.328C-236.028 147.336 -235.324 146.56 -234.412 146C-233.484 145.44 -232.372 145.16 -231.076 145.16C-230.116 145.16 -229.276 145.336 -228.556 145.688C-227.836 146.024 -227.236 146.488 -226.756 147.08C-226.26 147.672 -225.892 148.344 -225.652 149.096C-225.412 149.848 -225.3 150.64 -225.316 151.472C-225.332 151.664 -225.348 151.856 -225.364 152.048C-225.38 152.224 -225.404 152.416 -225.436 152.624H-234.316C-234.268 153.184 -234.124 153.696 -233.884 154.16C-233.628 154.624 -233.276 154.992 -232.828 155.264C-232.364 155.536 -231.788 155.672 -231.1 155.672C-230.7 155.672 -230.316 155.624 -229.948 155.528C-229.58 155.416 -229.26 155.256 -228.988 155.048C-228.7 154.84 -228.508 154.576 -228.412 154.256H-225.484C-225.692 155.168 -226.076 155.912 -226.636 156.488C-227.196 157.064 -227.868 157.488 -228.652 157.76C-229.42 158.032 -230.236 158.168 -231.1 158.168ZM-234.268 150.44H-228.172C-228.172 149.912 -228.292 149.432 -228.532 149C-228.772 148.568 -229.116 148.232 -229.564 147.992C-229.996 147.736 -230.524 147.608 -231.148 147.608C-231.82 147.608 -232.38 147.744 -232.828 148.016C-233.276 148.288 -233.62 148.64 -233.86 149.072C-234.1 149.504 -234.236 149.96 -234.268 150.44ZM-218.134 158.168C-218.742 158.168 -219.35 158.104 -219.958 157.976C-220.55 157.848 -221.11 157.64 -221.638 157.352C-222.166 157.048 -222.606 156.64 -222.958 156.128C-223.31 155.616 -223.542 154.976 -223.654 154.208H-220.702C-220.574 154.56 -220.374 154.848 -220.102 155.072C-219.814 155.28 -219.486 155.44 -219.118 155.552C-218.734 155.648 -218.358 155.696 -217.99 155.696C-217.766 155.696 -217.526 155.68 -217.27 155.648C-216.998 155.616 -216.75 155.552 -216.526 155.456C-216.286 155.36 -216.094 155.224 -215.95 155.048C-215.806 154.856 -215.734 154.608 -215.734 154.304C-215.734 154.016 -215.814 153.792 -215.974 153.632C-216.134 153.456 -216.35 153.32 -216.622 153.224C-216.894 153.112 -217.222 153.024 -217.606 152.96C-218.294 152.816 -219.03 152.664 -219.814 152.504C-220.598 152.328 -221.278 152.056 -221.854 151.688C-222.094 151.544 -222.302 151.376 -222.478 151.184C-222.654 150.992 -222.806 150.784 -222.934 150.56C-223.046 150.32 -223.134 150.064 -223.198 149.792C-223.246 149.52 -223.27 149.224 -223.27 148.904C-223.27 148.232 -223.134 147.664 -222.862 147.2C-222.574 146.72 -222.198 146.336 -221.734 146.048C-221.254 145.744 -220.71 145.52 -220.102 145.376C-219.494 145.232 -218.87 145.16 -218.23 145.16C-217.366 145.16 -216.582 145.296 -215.878 145.568C-215.174 145.84 -214.59 146.256 -214.126 146.816C-213.646 147.376 -213.358 148.088 -213.262 148.952H-216.046C-216.126 148.552 -216.374 148.232 -216.79 147.992C-217.19 147.752 -217.702 147.632 -218.326 147.632C-218.55 147.632 -218.782 147.656 -219.022 147.704C-219.262 147.736 -219.494 147.8 -219.718 147.896C-219.926 147.976 -220.102 148.104 -220.246 148.28C-220.374 148.456 -220.438 148.672 -220.438 148.928C-220.438 149.168 -220.382 149.376 -220.27 149.552C-220.142 149.728 -219.958 149.88 -219.718 150.008C-219.462 150.12 -219.166 150.216 -218.83 150.296C-218.286 150.408 -217.718 150.52 -217.126 150.632C-216.534 150.744 -216.022 150.856 -215.59 150.968C-215.078 151.112 -214.614 151.32 -214.198 151.592C-213.782 151.848 -213.462 152.192 -213.238 152.624C-212.998 153.04 -212.878 153.576 -212.878 154.232C-212.878 155 -213.038 155.64 -213.358 156.152C-213.662 156.664 -214.07 157.064 -214.582 157.352C-215.094 157.64 -215.662 157.848 -216.286 157.976C-216.91 158.104 -217.526 158.168 -218.134 158.168ZM-204.045 158V145.352H-201.117V158H-204.045ZM-202.581 143.888C-203.141 143.888 -203.589 143.72 -203.925 143.384C-204.261 143.048 -204.429 142.608 -204.429 142.064C-204.429 141.536 -204.253 141.104 -203.901 140.768C-203.549 140.416 -203.109 140.24 -202.581 140.24C-202.069 140.24 -201.629 140.408 -201.261 140.744C-200.893 141.08 -200.709 141.52 -200.709 142.064C-200.709 142.608 -200.885 143.048 -201.237 143.384C-201.589 143.72 -202.037 143.888 -202.581 143.888ZM-193.431 158.168C-194.039 158.168 -194.647 158.104 -195.255 157.976C-195.847 157.848 -196.407 157.64 -196.935 157.352C-197.463 157.048 -197.903 156.64 -198.255 156.128C-198.607 155.616 -198.839 154.976 -198.951 154.208H-195.999C-195.871 154.56 -195.671 154.848 -195.399 155.072C-195.111 155.28 -194.783 155.44 -194.415 155.552C-194.031 155.648 -193.655 155.696 -193.287 155.696C-193.063 155.696 -192.823 155.68 -192.567 155.648C-192.295 155.616 -192.047 155.552 -191.823 155.456C-191.583 155.36 -191.391 155.224 -191.247 155.048C-191.103 154.856 -191.031 154.608 -191.031 154.304C-191.031 154.016 -191.111 153.792 -191.271 153.632C-191.431 153.456 -191.647 153.32 -191.919 153.224C-192.191 153.112 -192.519 153.024 -192.903 152.96C-193.591 152.816 -194.327 152.664 -195.111 152.504C-195.895 152.328 -196.575 152.056 -197.151 151.688C-197.391 151.544 -197.599 151.376 -197.775 151.184C-197.951 150.992 -198.103 150.784 -198.231 150.56C-198.343 150.32 -198.431 150.064 -198.495 149.792C-198.543 149.52 -198.567 149.224 -198.567 148.904C-198.567 148.232 -198.431 147.664 -198.159 147.2C-197.871 146.72 -197.495 146.336 -197.031 146.048C-196.551 145.744 -196.007 145.52 -195.399 145.376C-194.791 145.232 -194.167 145.16 -193.527 145.16C-192.663 145.16 -191.879 145.296 -191.175 145.568C-190.471 145.84 -189.887 146.256 -189.423 146.816C-188.943 147.376 -188.655 148.088 -188.559 148.952H-191.343C-191.423 148.552 -191.671 148.232 -192.087 147.992C-192.487 147.752 -192.999 147.632 -193.623 147.632C-193.847 147.632 -194.079 147.656 -194.319 147.704C-194.559 147.736 -194.791 147.8 -195.015 147.896C-195.223 147.976 -195.399 148.104 -195.543 148.28C-195.671 148.456 -195.735 148.672 -195.735 148.928C-195.735 149.168 -195.679 149.376 -195.567 149.552C-195.439 149.728 -195.255 149.88 -195.015 150.008C-194.759 150.12 -194.463 150.216 -194.127 150.296C-193.583 150.408 -193.015 150.52 -192.423 150.632C-191.831 150.744 -191.319 150.856 -190.887 150.968C-190.375 151.112 -189.911 151.32 -189.495 151.592C-189.079 151.848 -188.759 152.192 -188.535 152.624C-188.295 153.04 -188.175 153.576 -188.175 154.232C-188.175 155 -188.335 155.64 -188.655 156.152C-188.959 156.664 -189.367 157.064 -189.879 157.352C-190.391 157.64 -190.959 157.848 -191.583 157.976C-192.207 158.104 -192.823 158.168 -193.431 158.168ZM-175.31 158.168C-175.902 158.168 -176.462 158.088 -176.99 157.928C-177.518 157.768 -177.99 157.536 -178.406 157.232C-178.822 156.912 -179.158 156.52 -179.414 156.056C-179.654 155.576 -179.774 155.016 -179.774 154.376C-179.774 153.56 -179.614 152.896 -179.294 152.384C-178.974 151.856 -178.542 151.456 -177.998 151.184C-177.438 150.912 -176.806 150.728 -176.102 150.632C-175.398 150.52 -174.662 150.464 -173.894 150.464H-171.422C-171.422 149.904 -171.51 149.424 -171.686 149.024C-171.862 148.608 -172.142 148.28 -172.526 148.04C-172.894 147.8 -173.374 147.68 -173.966 147.68C-174.35 147.68 -174.71 147.728 -175.046 147.824C-175.366 147.904 -175.646 148.04 -175.886 148.232C-176.11 148.408 -176.27 148.64 -176.366 148.928H-179.366C-179.254 148.272 -179.03 147.712 -178.694 147.248C-178.342 146.768 -177.918 146.376 -177.422 146.072C-176.91 145.768 -176.35 145.544 -175.742 145.4C-175.134 145.24 -174.518 145.16 -173.894 145.16C-172.054 145.16 -170.718 145.688 -169.886 146.744C-169.038 147.8 -168.614 149.28 -168.614 151.184V158H-171.206L-171.278 156.368C-171.646 156.912 -172.086 157.312 -172.598 157.568C-173.11 157.824 -173.606 157.984 -174.086 158.048C-174.566 158.128 -174.974 158.168 -175.31 158.168ZM-174.734 155.792C-174.094 155.792 -173.526 155.672 -173.03 155.432C-172.534 155.192 -172.142 154.856 -171.854 154.424C-171.55 153.992 -171.398 153.496 -171.398 152.936V152.528H-173.702C-174.086 152.528 -174.47 152.544 -174.854 152.576C-175.222 152.592 -175.558 152.656 -175.862 152.768C-176.166 152.864 -176.414 153.016 -176.606 153.224C-176.782 153.432 -176.87 153.728 -176.87 154.112C-176.87 154.496 -176.774 154.808 -176.582 155.048C-176.374 155.288 -176.11 155.472 -175.79 155.6C-175.454 155.728 -175.102 155.792 -174.734 155.792ZM-163.154 158L-167.114 145.352H-163.874L-161.33 154.784L-158.618 145.352H-155.162L-152.45 154.784L-149.93 145.352H-146.738L-150.698 158H-154.202L-156.938 148.88L-159.65 158H-163.154ZM-139.529 158.168C-140.841 158.168 -141.961 157.896 -142.889 157.352C-143.801 156.808 -144.497 156.056 -144.977 155.096C-145.441 154.12 -145.673 152.992 -145.673 151.712C-145.673 150.432 -145.433 149.304 -144.953 148.328C-144.457 147.336 -143.753 146.56 -142.841 146C-141.913 145.44 -140.801 145.16 -139.505 145.16C-138.545 145.16 -137.705 145.336 -136.985 145.688C-136.265 146.024 -135.665 146.488 -135.185 147.08C-134.689 147.672 -134.321 148.344 -134.081 149.096C-133.841 149.848 -133.729 150.64 -133.745 151.472C-133.761 151.664 -133.777 151.856 -133.793 152.048C-133.809 152.224 -133.833 152.416 -133.865 152.624H-142.745C-142.697 153.184 -142.553 153.696 -142.313 154.16C-142.057 154.624 -141.705 154.992 -141.257 155.264C-140.793 155.536 -140.217 155.672 -139.529 155.672C-139.129 155.672 -138.745 155.624 -138.377 155.528C-138.009 155.416 -137.689 155.256 -137.417 155.048C-137.129 154.84 -136.937 154.576 -136.841 154.256H-133.913C-134.121 155.168 -134.505 155.912 -135.065 156.488C-135.625 157.064 -136.297 157.488 -137.081 157.76C-137.849 158.032 -138.665 158.168 -139.529 158.168ZM-142.697 150.44H-136.601C-136.601 149.912 -136.721 149.432 -136.961 149C-137.201 148.568 -137.545 148.232 -137.993 147.992C-138.425 147.736 -138.953 147.608 -139.577 147.608C-140.249 147.608 -140.809 147.744 -141.257 148.016C-141.705 148.288 -142.049 148.64 -142.289 149.072C-142.529 149.504 -142.665 149.96 -142.697 150.44ZM-126.564 158.168C-127.172 158.168 -127.78 158.104 -128.388 157.976C-128.98 157.848 -129.54 157.64 -130.068 157.352C-130.596 157.048 -131.036 156.64 -131.388 156.128C-131.74 155.616 -131.972 154.976 -132.084 154.208H-129.132C-129.004 154.56 -128.804 154.848 -128.532 155.072C-128.244 155.28 -127.916 155.44 -127.548 155.552C-127.164 155.648 -126.788 155.696 -126.42 155.696C-126.196 155.696 -125.956 155.68 -125.7 155.648C-125.428 155.616 -125.18 155.552 -124.956 155.456C-124.716 155.36 -124.524 155.224 -124.38 155.048C-124.236 154.856 -124.164 154.608 -124.164 154.304C-124.164 154.016 -124.244 153.792 -124.404 153.632C-124.564 153.456 -124.78 153.32 -125.052 153.224C-125.324 153.112 -125.652 153.024 -126.036 152.96C-126.724 152.816 -127.46 152.664 -128.244 152.504C-129.028 152.328 -129.708 152.056 -130.284 151.688C-130.524 151.544 -130.732 151.376 -130.908 151.184C-131.084 150.992 -131.236 150.784 -131.364 150.56C-131.476 150.32 -131.564 150.064 -131.628 149.792C-131.676 149.52 -131.7 149.224 -131.7 148.904C-131.7 148.232 -131.564 147.664 -131.292 147.2C-131.004 146.72 -130.628 146.336 -130.164 146.048C-129.684 145.744 -129.14 145.52 -128.532 145.376C-127.924 145.232 -127.3 145.16 -126.66 145.16C-125.796 145.16 -125.012 145.296 -124.308 145.568C-123.604 145.84 -123.02 146.256 -122.556 146.816C-122.076 147.376 -121.788 148.088 -121.692 148.952H-124.476C-124.556 148.552 -124.804 148.232 -125.22 147.992C-125.62 147.752 -126.132 147.632 -126.756 147.632C-126.98 147.632 -127.212 147.656 -127.452 147.704C-127.692 147.736 -127.924 147.8 -128.148 147.896C-128.356 147.976 -128.532 148.104 -128.676 148.28C-128.804 148.456 -128.868 148.672 -128.868 148.928C-128.868 149.168 -128.812 149.376 -128.7 149.552C-128.572 149.728 -128.388 149.88 -128.148 150.008C-127.892 150.12 -127.596 150.216 -127.26 150.296C-126.716 150.408 -126.148 150.52 -125.556 150.632C-124.964 150.744 -124.452 150.856 -124.02 150.968C-123.508 151.112 -123.044 151.32 -122.628 151.592C-122.212 151.848 -121.892 152.192 -121.668 152.624C-121.428 153.04 -121.308 153.576 -121.308 154.232C-121.308 155 -121.468 155.64 -121.788 156.152C-122.092 156.664 -122.5 157.064 -123.012 157.352C-123.524 157.64 -124.092 157.848 -124.716 157.976C-125.34 158.104 -125.956 158.168 -126.564 158.168ZM-113.37 158.168C-114.666 158.168 -115.786 157.904 -116.73 157.376C-117.658 156.848 -118.378 156.096 -118.89 155.12C-119.386 154.144 -119.634 153 -119.634 151.688C-119.634 150.36 -119.378 149.216 -118.866 148.256C-118.354 147.28 -117.634 146.52 -116.706 145.976C-115.778 145.432 -114.666 145.16 -113.37 145.16C-112.09 145.16 -110.986 145.432 -110.058 145.976C-109.13 146.52 -108.418 147.288 -107.922 148.28C-107.426 149.256 -107.178 150.408 -107.178 151.736C-107.178 153.032 -107.426 154.168 -107.922 155.144C-108.402 156.104 -109.106 156.848 -110.034 157.376C-110.962 157.904 -112.074 158.168 -113.37 158.168ZM-113.394 155.504C-112.594 155.504 -111.954 155.328 -111.474 154.976C-110.978 154.624 -110.618 154.16 -110.394 153.584C-110.17 153.008 -110.058 152.384 -110.058 151.712C-110.058 151.04 -110.17 150.408 -110.394 149.816C-110.618 149.224 -110.978 148.752 -111.474 148.4C-111.954 148.032 -112.594 147.848 -113.394 147.848C-114.194 147.848 -114.842 148.032 -115.338 148.4C-115.834 148.752 -116.194 149.224 -116.418 149.816C-116.642 150.392 -116.754 151.024 -116.754 151.712C-116.754 152.384 -116.642 153.016 -116.418 153.608C-116.178 154.184 -115.818 154.648 -115.338 155C-114.842 155.336 -114.194 155.504 -113.394 155.504ZM-104.834 158V145.352H-102.146L-101.954 146.792C-101.634 146.36 -101.29 146.032 -100.922 145.808C-100.538 145.568 -100.146 145.4 -99.746 145.304C-99.33 145.208 -98.938 145.16 -98.57 145.16C-97.77 145.16 -97.09 145.32 -96.53 145.64C-95.954 145.96 -95.506 146.44 -95.186 147.08C-94.866 146.632 -94.506 146.272 -94.106 146C-93.706 145.712 -93.282 145.504 -92.834 145.376C-92.386 145.232 -91.914 145.16 -91.418 145.16C-90.442 145.16 -89.658 145.368 -89.066 145.784C-88.474 146.184 -88.042 146.744 -87.77 147.464C-87.498 148.168 -87.362 148.976 -87.362 149.888V158H-90.29V150.824C-90.29 150.504 -90.306 150.168 -90.338 149.816C-90.37 149.464 -90.458 149.136 -90.602 148.832C-90.73 148.528 -90.922 148.28 -91.178 148.088C-91.434 147.896 -91.794 147.8 -92.258 147.8C-92.722 147.8 -93.106 147.904 -93.41 148.112C-93.698 148.304 -93.938 148.568 -94.13 148.904C-94.306 149.224 -94.434 149.584 -94.514 149.984C-94.578 150.368 -94.61 150.752 -94.61 151.136V158H-97.538V150.8C-97.538 150.496 -97.562 150.176 -97.61 149.84C-97.642 149.488 -97.722 149.16 -97.85 148.856C-97.962 148.536 -98.154 148.28 -98.426 148.088C-98.682 147.896 -99.042 147.8 -99.506 147.8C-100.178 147.8 -100.69 147.984 -101.042 148.352C-101.378 148.72 -101.61 149.168 -101.738 149.696C-101.85 150.224 -101.906 150.728 -101.906 151.208V158H-104.834ZM-78.9903 158.168C-80.3023 158.168 -81.4223 157.896 -82.3503 157.352C-83.2623 156.808 -83.9583 156.056 -84.4383 155.096C-84.9023 154.12 -85.1343 152.992 -85.1343 151.712C-85.1343 150.432 -84.8943 149.304 -84.4143 148.328C-83.9183 147.336 -83.2143 146.56 -82.3023 146C-81.3743 145.44 -80.2623 145.16 -78.9663 145.16C-78.0063 145.16 -77.1663 145.336 -76.4463 145.688C-75.7263 146.024 -75.1263 146.488 -74.6463 147.08C-74.1503 147.672 -73.7823 148.344 -73.5423 149.096C-73.3023 149.848 -73.1903 150.64 -73.2063 151.472C-73.2223 151.664 -73.2383 151.856 -73.2543 152.048C-73.2703 152.224 -73.2943 152.416 -73.3263 152.624H-82.2063C-82.1583 153.184 -82.0143 153.696 -81.7743 154.16C-81.5183 154.624 -81.1663 154.992 -80.7183 155.264C-80.2543 155.536 -79.6783 155.672 -78.9903 155.672C-78.5903 155.672 -78.2063 155.624 -77.8383 155.528C-77.4703 155.416 -77.1503 155.256 -76.8783 155.048C-76.5903 154.84 -76.3983 154.576 -76.3023 154.256H-73.3743C-73.5823 155.168 -73.9663 155.912 -74.5263 156.488C-75.0863 157.064 -75.7583 157.488 -76.5423 157.76C-77.3103 158.032 -78.1263 158.168 -78.9903 158.168ZM-82.1583 150.44H-76.0623C-76.0623 149.912 -76.1823 149.432 -76.4223 149C-76.6623 148.568 -77.0063 148.232 -77.4543 147.992C-77.8863 147.736 -78.4143 147.608 -79.0383 147.608C-79.7103 147.608 -80.2703 147.744 -80.7183 148.016C-81.1663 148.288 -81.5103 148.64 -81.7503 149.072C-81.9903 149.504 -82.1263 149.96 -82.1583 150.44ZM-64.1934 158V145.352H-61.2654V158H-64.1934ZM-62.7294 143.888C-63.2894 143.888 -63.7374 143.72 -64.0734 143.384C-64.4094 143.048 -64.5774 142.608 -64.5774 142.064C-64.5774 141.536 -64.4014 141.104 -64.0494 140.768C-63.6974 140.416 -63.2574 140.24 -62.7294 140.24C-62.2174 140.24 -61.7774 140.408 -61.4094 140.744C-61.0414 141.08 -60.8574 141.52 -60.8574 142.064C-60.8574 142.608 -61.0334 143.048 -61.3854 143.384C-61.7374 143.72 -62.1854 143.888 -62.7294 143.888ZM-49.0841 158L-53.0441 145.352H-49.8041L-47.2601 154.784L-44.5481 145.352H-41.0921L-38.3801 154.784L-35.8601 145.352H-32.6681L-36.6281 158H-40.1321L-42.8681 148.88L-45.5801 158H-49.0841ZM-31.1231 158V145.352H-28.1951V158H-31.1231ZM-29.6591 143.888C-30.2191 143.888 -30.6671 143.72 -31.0031 143.384C-31.3391 143.048 -31.5071 142.608 -31.5071 142.064C-31.5071 141.536 -31.3311 141.104 -30.9791 140.768C-30.6271 140.416 -30.1871 140.24 -29.6591 140.24C-29.1471 140.24 -28.7071 140.408 -28.3391 140.744C-27.9711 141.08 -27.7871 141.52 -27.7871 142.064C-27.7871 142.608 -27.9631 143.048 -28.3151 143.384C-28.6671 143.72 -29.1151 143.888 -29.6591 143.888ZM-20.5094 158.168C-21.1174 158.168 -21.7254 158.104 -22.3334 157.976C-22.9254 157.848 -23.4854 157.64 -24.0134 157.352C-24.5414 157.048 -24.9814 156.64 -25.3334 156.128C-25.6854 155.616 -25.9174 154.976 -26.0294 154.208H-23.0774C-22.9494 154.56 -22.7494 154.848 -22.4774 155.072C-22.1894 155.28 -21.8614 155.44 -21.4934 155.552C-21.1094 155.648 -20.7334 155.696 -20.3654 155.696C-20.1414 155.696 -19.9014 155.68 -19.6454 155.648C-19.3734 155.616 -19.1254 155.552 -18.9014 155.456C-18.6614 155.36 -18.4694 155.224 -18.3254 155.048C-18.1814 154.856 -18.1094 154.608 -18.1094 154.304C-18.1094 154.016 -18.1894 153.792 -18.3494 153.632C-18.5094 153.456 -18.7254 153.32 -18.9974 153.224C-19.2694 153.112 -19.5974 153.024 -19.9814 152.96C-20.6694 152.816 -21.4054 152.664 -22.1894 152.504C-22.9734 152.328 -23.6534 152.056 -24.2294 151.688C-24.4694 151.544 -24.6774 151.376 -24.8534 151.184C-25.0294 150.992 -25.1814 150.784 -25.3094 150.56C-25.4214 150.32 -25.5094 150.064 -25.5734 149.792C-25.6214 149.52 -25.6454 149.224 -25.6454 148.904C-25.6454 148.232 -25.5094 147.664 -25.2374 147.2C-24.9494 146.72 -24.5734 146.336 -24.1094 146.048C-23.6294 145.744 -23.0854 145.52 -22.4774 145.376C-21.8694 145.232 -21.2454 145.16 -20.6054 145.16C-19.7414 145.16 -18.9574 145.296 -18.2534 145.568C-17.5494 145.84 -16.9654 146.256 -16.5014 146.816C-16.0214 147.376 -15.7334 148.088 -15.6374 148.952H-18.4214C-18.5014 148.552 -18.7494 148.232 -19.1654 147.992C-19.5654 147.752 -20.0774 147.632 -20.7014 147.632C-20.9254 147.632 -21.1574 147.656 -21.3974 147.704C-21.6374 147.736 -21.8694 147.8 -22.0934 147.896C-22.3014 147.976 -22.4774 148.104 -22.6214 148.28C-22.7494 148.456 -22.8134 148.672 -22.8134 148.928C-22.8134 149.168 -22.7574 149.376 -22.6454 149.552C-22.5174 149.728 -22.3334 149.88 -22.0934 150.008C-21.8374 150.12 -21.5414 150.216 -21.2054 150.296C-20.6614 150.408 -20.0934 150.52 -19.5014 150.632C-18.9094 150.744 -18.3974 150.856 -17.9654 150.968C-17.4534 151.112 -16.9894 151.32 -16.5734 151.592C-16.1574 151.848 -15.8374 152.192 -15.6134 152.624C-15.3734 153.04 -15.2534 153.576 -15.2534 154.232C-15.2534 155 -15.4134 155.64 -15.7334 156.152C-16.0374 156.664 -16.4454 157.064 -16.9574 157.352C-17.4694 157.64 -18.0374 157.848 -18.6614 157.976C-19.2854 158.104 -19.9014 158.168 -20.5094 158.168ZM-13.0996 158V141.032H-10.1716V146.984C-9.83562 146.552 -9.44362 146.2 -8.99562 145.928C-8.54762 145.656 -8.07562 145.464 -7.57962 145.352C-7.08362 145.224 -6.61162 145.16 -6.16362 145.16C-4.96362 145.16 -4.01962 145.424 -3.33162 145.952C-2.64362 146.48 -2.16362 147.184 -1.89162 148.064C-1.60362 148.944 -1.45962 149.936 -1.45962 151.04V158H-4.38762V151.544C-4.38762 151.112 -4.41962 150.672 -4.48362 150.224C-4.54762 149.776 -4.67562 149.376 -4.86762 149.024C-5.04362 148.656 -5.31562 148.36 -5.68362 148.136C-6.03562 147.912 -6.50762 147.8 -7.09962 147.8C-7.65962 147.8 -8.13962 147.92 -8.53962 148.16C-8.93962 148.384 -9.25962 148.696 -9.49962 149.096C-9.72362 149.496 -9.89162 149.936 -10.0036 150.416C-10.1156 150.896 -10.1716 151.376 -10.1716 151.856V158H-13.0996ZM7.97069 158V145.352H10.8987V158H7.97069ZM9.43469 143.888C8.87469 143.888 8.42669 143.72 8.09069 143.384C7.75469 143.048 7.58669 142.608 7.58669 142.064C7.58669 141.536 7.76269 141.104 8.11469 140.768C8.46669 140.416 8.90669 140.24 9.43469 140.24C9.94669 140.24 10.3867 140.408 10.7547 140.744C11.1227 141.08 11.3067 141.52 11.3067 142.064C11.3067 142.608 11.1307 143.048 10.7787 143.384C10.4267 143.72 9.97869 143.888 9.43469 143.888ZM-357.584 194V177.032H-354.656V186.416H-352.832L-349.496 181.352H-346.208L-350.312 187.376L-345.872 194H-349.28L-352.664 188.984H-354.656V194H-357.584ZM-344.482 194V181.352H-341.746L-341.578 182.96C-341.242 182.512 -340.85 182.16 -340.402 181.904C-339.954 181.648 -339.482 181.464 -338.986 181.352C-338.49 181.224 -338.026 181.16 -337.594 181.16C-336.394 181.16 -335.45 181.424 -334.762 181.952C-334.058 182.48 -333.562 183.184 -333.274 184.064C-332.986 184.944 -332.842 185.928 -332.842 187.016V194H-335.77V187.496C-335.77 187.032 -335.802 186.584 -335.866 186.152C-335.93 185.704 -336.058 185.304 -336.25 184.952C-336.426 184.6 -336.682 184.32 -337.018 184.112C-337.354 183.904 -337.802 183.8 -338.362 183.8C-339.05 183.8 -339.634 183.984 -340.114 184.352C-340.594 184.72 -340.954 185.216 -341.194 185.84C-341.434 186.448 -341.554 187.144 -341.554 187.928V194H-344.482ZM-324.428 194.168C-325.74 194.168 -326.86 193.896 -327.788 193.352C-328.7 192.808 -329.396 192.056 -329.876 191.096C-330.34 190.12 -330.572 188.992 -330.572 187.712C-330.572 186.432 -330.332 185.304 -329.852 184.328C-329.356 183.336 -328.652 182.56 -327.74 182C-326.812 181.44 -325.7 181.16 -324.404 181.16C-323.444 181.16 -322.604 181.336 -321.884 181.688C-321.164 182.024 -320.564 182.488 -320.084 183.08C-319.588 183.672 -319.22 184.344 -318.98 185.096C-318.74 185.848 -318.628 186.64 -318.644 187.472C-318.66 187.664 -318.676 187.856 -318.692 188.048C-318.708 188.224 -318.732 188.416 -318.764 188.624H-327.644C-327.596 189.184 -327.452 189.696 -327.212 190.16C-326.956 190.624 -326.604 190.992 -326.156 191.264C-325.692 191.536 -325.116 191.672 -324.428 191.672C-324.028 191.672 -323.644 191.624 -323.276 191.528C-322.908 191.416 -322.588 191.256 -322.316 191.048C-322.028 190.84 -321.836 190.576 -321.74 190.256H-318.812C-319.02 191.168 -319.404 191.912 -319.964 192.488C-320.524 193.064 -321.196 193.488 -321.98 193.76C-322.748 194.032 -323.564 194.168 -324.428 194.168ZM-327.596 186.44H-321.5C-321.5 185.912 -321.62 185.432 -321.86 185C-322.1 184.568 -322.444 184.232 -322.892 183.992C-323.324 183.736 -323.852 183.608 -324.476 183.608C-325.148 183.608 -325.708 183.744 -326.156 184.016C-326.604 184.288 -326.948 184.64 -327.188 185.072C-327.428 185.504 -327.564 185.96 -327.596 186.44ZM-313.647 194L-317.607 181.352H-314.367L-311.823 190.784L-309.111 181.352H-305.655L-302.943 190.784L-300.423 181.352H-297.231L-301.191 194H-304.695L-307.431 184.88L-310.143 194H-313.647ZM-287.878 194V183.944H-289.846V181.352H-287.878V180.152C-287.878 179.192 -287.734 178.408 -287.446 177.8C-287.158 177.176 -286.702 176.72 -286.078 176.432C-285.438 176.144 -284.622 176 -283.63 176H-281.758V178.592H-283.294C-283.726 178.592 -284.062 178.664 -284.302 178.808C-284.542 178.952 -284.718 179.168 -284.83 179.456C-284.926 179.728 -284.974 180.064 -284.974 180.464V181.352H-281.758V183.944H-284.974V194H-287.878ZM-274.386 194.168C-275.682 194.168 -276.802 193.904 -277.746 193.376C-278.674 192.848 -279.394 192.096 -279.906 191.12C-280.402 190.144 -280.65 189 -280.65 187.688C-280.65 186.36 -280.394 185.216 -279.882 184.256C-279.37 183.28 -278.65 182.52 -277.722 181.976C-276.794 181.432 -275.682 181.16 -274.386 181.16C-273.106 181.16 -272.002 181.432 -271.074 181.976C-270.146 182.52 -269.434 183.288 -268.938 184.28C-268.442 185.256 -268.194 186.408 -268.194 187.736C-268.194 189.032 -268.442 190.168 -268.938 191.144C-269.418 192.104 -270.122 192.848 -271.05 193.376C-271.978 193.904 -273.09 194.168 -274.386 194.168ZM-274.41 191.504C-273.61 191.504 -272.97 191.328 -272.49 190.976C-271.994 190.624 -271.634 190.16 -271.41 189.584C-271.186 189.008 -271.074 188.384 -271.074 187.712C-271.074 187.04 -271.186 186.408 -271.41 185.816C-271.634 185.224 -271.994 184.752 -272.49 184.4C-272.97 184.032 -273.61 183.848 -274.41 183.848C-275.21 183.848 -275.858 184.032 -276.354 184.4C-276.85 184.752 -277.21 185.224 -277.434 185.816C-277.658 186.392 -277.77 187.024 -277.77 187.712C-277.77 188.384 -277.658 189.016 -277.434 189.608C-277.194 190.184 -276.834 190.648 -276.354 191C-275.858 191.336 -275.21 191.504 -274.41 191.504ZM-265.85 194V181.352H-263.186L-263.018 183.008C-262.698 182.528 -262.338 182.16 -261.938 181.904C-261.522 181.632 -261.082 181.44 -260.618 181.328C-260.138 181.216 -259.658 181.16 -259.178 181.16C-259.002 181.16 -258.842 181.16 -258.698 181.16C-258.538 181.16 -258.41 181.168 -258.314 181.184V183.968H-259.082C-259.914 183.968 -260.618 184.128 -261.194 184.448C-261.77 184.768 -262.202 185.224 -262.49 185.816C-262.778 186.408 -262.922 187.136 -262.922 188V194H-265.85ZM-244.392 194C-245.416 194 -246.264 193.864 -246.936 193.592C-247.592 193.32 -248.088 192.88 -248.424 192.272C-248.744 191.664 -248.904 190.848 -248.904 189.824V183.944H-250.848V181.352H-248.904V177.824H-245.976V181.352H-243.024V183.944H-245.976V189.44C-245.976 190.08 -245.864 190.568 -245.64 190.904C-245.416 191.24 -244.912 191.408 -244.128 191.408H-243.12V194H-244.392ZM-241.076 194V177.032H-238.148V182.984C-237.812 182.552 -237.42 182.2 -236.972 181.928C-236.524 181.656 -236.052 181.464 -235.556 181.352C-235.06 181.224 -234.588 181.16 -234.14 181.16C-232.94 181.16 -231.996 181.424 -231.308 181.952C-230.62 182.48 -230.14 183.184 -229.868 184.064C-229.58 184.944 -229.436 185.936 -229.436 187.04V194H-232.364V187.544C-232.364 187.112 -232.396 186.672 -232.46 186.224C-232.524 185.776 -232.652 185.376 -232.844 185.024C-233.02 184.656 -233.292 184.36 -233.66 184.136C-234.012 183.912 -234.484 183.8 -235.076 183.8C-235.636 183.8 -236.116 183.92 -236.516 184.16C-236.916 184.384 -237.236 184.696 -237.476 185.096C-237.7 185.496 -237.868 185.936 -237.98 186.416C-238.092 186.896 -238.148 187.376 -238.148 187.856V194H-241.076ZM-226.686 194V181.352H-223.758V194H-226.686ZM-225.222 179.888C-225.782 179.888 -226.23 179.72 -226.566 179.384C-226.902 179.048 -227.07 178.608 -227.07 178.064C-227.07 177.536 -226.894 177.104 -226.542 176.768C-226.19 176.416 -225.75 176.24 -225.222 176.24C-224.71 176.24 -224.27 176.408 -223.902 176.744C-223.534 177.08 -223.35 177.52 -223.35 178.064C-223.35 178.608 -223.526 179.048 -223.878 179.384C-224.23 179.72 -224.678 179.888 -225.222 179.888ZM-216.072 194.168C-216.68 194.168 -217.288 194.104 -217.896 193.976C-218.488 193.848 -219.048 193.64 -219.576 193.352C-220.104 193.048 -220.544 192.64 -220.896 192.128C-221.248 191.616 -221.48 190.976 -221.592 190.208H-218.64C-218.512 190.56 -218.312 190.848 -218.04 191.072C-217.752 191.28 -217.424 191.44 -217.056 191.552C-216.672 191.648 -216.296 191.696 -215.928 191.696C-215.704 191.696 -215.464 191.68 -215.208 191.648C-214.936 191.616 -214.688 191.552 -214.464 191.456C-214.224 191.36 -214.032 191.224 -213.888 191.048C-213.744 190.856 -213.672 190.608 -213.672 190.304C-213.672 190.016 -213.752 189.792 -213.912 189.632C-214.072 189.456 -214.288 189.32 -214.56 189.224C-214.832 189.112 -215.16 189.024 -215.544 188.96C-216.232 188.816 -216.968 188.664 -217.752 188.504C-218.536 188.328 -219.216 188.056 -219.792 187.688C-220.032 187.544 -220.24 187.376 -220.416 187.184C-220.592 186.992 -220.744 186.784 -220.872 186.56C-220.984 186.32 -221.072 186.064 -221.136 185.792C-221.184 185.52 -221.208 185.224 -221.208 184.904C-221.208 184.232 -221.072 183.664 -220.8 183.2C-220.512 182.72 -220.136 182.336 -219.672 182.048C-219.192 181.744 -218.648 181.52 -218.04 181.376C-217.432 181.232 -216.808 181.16 -216.168 181.16C-215.304 181.16 -214.52 181.296 -213.816 181.568C-213.112 181.84 -212.528 182.256 -212.064 182.816C-211.584 183.376 -211.296 184.088 -211.2 184.952H-213.984C-214.064 184.552 -214.312 184.232 -214.728 183.992C-215.128 183.752 -215.64 183.632 -216.264 183.632C-216.488 183.632 -216.72 183.656 -216.96 183.704C-217.2 183.736 -217.432 183.8 -217.656 183.896C-217.864 183.976 -218.04 184.104 -218.184 184.28C-218.312 184.456 -218.376 184.672 -218.376 184.928C-218.376 185.168 -218.32 185.376 -218.208 185.552C-218.08 185.728 -217.896 185.88 -217.656 186.008C-217.4 186.12 -217.104 186.216 -216.768 186.296C-216.224 186.408 -215.656 186.52 -215.064 186.632C-214.472 186.744 -213.96 186.856 -213.528 186.968C-213.016 187.112 -212.552 187.32 -212.136 187.592C-211.72 187.848 -211.4 188.192 -211.176 188.624C-210.936 189.04 -210.816 189.576 -210.816 190.232C-210.816 191 -210.976 191.64 -211.296 192.152C-211.6 192.664 -212.008 193.064 -212.52 193.352C-213.032 193.64 -213.6 193.848 -214.224 193.976C-214.848 194.104 -215.464 194.168 -216.072 194.168ZM-196.318 194.168C-197.63 194.168 -198.75 193.896 -199.678 193.352C-200.59 192.808 -201.286 192.056 -201.766 191.096C-202.23 190.12 -202.462 188.992 -202.462 187.712C-202.462 186.432 -202.222 185.304 -201.742 184.328C-201.246 183.336 -200.542 182.56 -199.63 182C-198.702 181.44 -197.59 181.16 -196.294 181.16C-195.334 181.16 -194.494 181.336 -193.774 181.688C-193.054 182.024 -192.454 182.488 -191.974 183.08C-191.478 183.672 -191.11 184.344 -190.87 185.096C-190.63 185.848 -190.518 186.64 -190.534 187.472C-190.55 187.664 -190.566 187.856 -190.582 188.048C-190.598 188.224 -190.622 188.416 -190.654 188.624H-199.534C-199.486 189.184 -199.342 189.696 -199.102 190.16C-198.846 190.624 -198.494 190.992 -198.046 191.264C-197.582 191.536 -197.006 191.672 -196.318 191.672C-195.918 191.672 -195.534 191.624 -195.166 191.528C-194.798 191.416 -194.478 191.256 -194.206 191.048C-193.918 190.84 -193.726 190.576 -193.63 190.256H-190.702C-190.91 191.168 -191.294 191.912 -191.854 192.488C-192.414 193.064 -193.086 193.488 -193.87 193.76C-194.638 194.032 -195.454 194.168 -196.318 194.168ZM-199.486 186.44H-193.39C-193.39 185.912 -193.51 185.432 -193.75 185C-193.99 184.568 -194.334 184.232 -194.782 183.992C-195.214 183.736 -195.742 183.608 -196.366 183.608C-197.038 183.608 -197.598 183.744 -198.046 184.016C-198.494 184.288 -198.838 184.64 -199.078 185.072C-199.318 185.504 -199.454 185.96 -199.486 186.44ZM-184.169 194.168C-184.761 194.168 -185.321 194.088 -185.849 193.928C-186.377 193.768 -186.849 193.536 -187.265 193.232C-187.681 192.912 -188.017 192.52 -188.273 192.056C-188.513 191.576 -188.633 191.016 -188.633 190.376C-188.633 189.56 -188.473 188.896 -188.153 188.384C-187.833 187.856 -187.401 187.456 -186.857 187.184C-186.297 186.912 -185.665 186.728 -184.961 186.632C-184.257 186.52 -183.521 186.464 -182.753 186.464H-180.281C-180.281 185.904 -180.369 185.424 -180.545 185.024C-180.721 184.608 -181.001 184.28 -181.385 184.04C-181.753 183.8 -182.233 183.68 -182.825 183.68C-183.209 183.68 -183.569 183.728 -183.905 183.824C-184.225 183.904 -184.505 184.04 -184.745 184.232C-184.969 184.408 -185.129 184.64 -185.225 184.928H-188.225C-188.113 184.272 -187.889 183.712 -187.553 183.248C-187.201 182.768 -186.777 182.376 -186.281 182.072C-185.769 181.768 -185.209 181.544 -184.601 181.4C-183.993 181.24 -183.377 181.16 -182.753 181.16C-180.913 181.16 -179.577 181.688 -178.745 182.744C-177.897 183.8 -177.473 185.28 -177.473 187.184V194H-180.065L-180.137 192.368C-180.505 192.912 -180.945 193.312 -181.457 193.568C-181.969 193.824 -182.465 193.984 -182.945 194.048C-183.425 194.128 -183.833 194.168 -184.169 194.168ZM-183.593 191.792C-182.953 191.792 -182.385 191.672 -181.889 191.432C-181.393 191.192 -181.001 190.856 -180.713 190.424C-180.409 189.992 -180.257 189.496 -180.257 188.936V188.528H-182.561C-182.945 188.528 -183.329 188.544 -183.713 188.576C-184.081 188.592 -184.417 188.656 -184.721 188.768C-185.025 188.864 -185.273 189.016 -185.465 189.224C-185.641 189.432 -185.729 189.728 -185.729 190.112C-185.729 190.496 -185.633 190.808 -185.441 191.048C-185.233 191.288 -184.969 191.472 -184.649 191.6C-184.313 191.728 -183.961 191.792 -183.593 191.792ZM-174.678 194V181.352H-172.014L-171.846 183.008C-171.526 182.528 -171.166 182.16 -170.766 181.904C-170.35 181.632 -169.91 181.44 -169.446 181.328C-168.966 181.216 -168.486 181.16 -168.006 181.16C-167.83 181.16 -167.67 181.16 -167.526 181.16C-167.366 181.16 -167.238 181.168 -167.142 181.184V183.968H-167.91C-168.742 183.968 -169.446 184.128 -170.022 184.448C-170.598 184.768 -171.03 185.224 -171.318 185.816C-171.606 186.408 -171.75 187.136 -171.75 188V194H-174.678ZM-165.42 194V177.032H-162.492V194H-165.42ZM-159.654 194V181.352H-156.726V194H-159.654ZM-158.19 179.888C-158.75 179.888 -159.198 179.72 -159.534 179.384C-159.87 179.048 -160.038 178.608 -160.038 178.064C-160.038 177.536 -159.862 177.104 -159.51 176.768C-159.158 176.416 -158.718 176.24 -158.19 176.24C-157.678 176.24 -157.238 176.408 -156.87 176.744C-156.502 177.08 -156.318 177.52 -156.318 178.064C-156.318 178.608 -156.494 179.048 -156.846 179.384C-157.198 179.72 -157.646 179.888 -158.19 179.888ZM-148.225 194.168C-149.537 194.168 -150.657 193.896 -151.585 193.352C-152.497 192.808 -153.193 192.056 -153.673 191.096C-154.137 190.12 -154.369 188.992 -154.369 187.712C-154.369 186.432 -154.129 185.304 -153.649 184.328C-153.153 183.336 -152.449 182.56 -151.537 182C-150.609 181.44 -149.497 181.16 -148.201 181.16C-147.241 181.16 -146.401 181.336 -145.681 181.688C-144.961 182.024 -144.361 182.488 -143.881 183.08C-143.385 183.672 -143.017 184.344 -142.777 185.096C-142.537 185.848 -142.425 186.64 -142.441 187.472C-142.457 187.664 -142.473 187.856 -142.489 188.048C-142.505 188.224 -142.529 188.416 -142.561 188.624H-151.441C-151.393 189.184 -151.249 189.696 -151.009 190.16C-150.753 190.624 -150.401 190.992 -149.953 191.264C-149.489 191.536 -148.913 191.672 -148.225 191.672C-147.825 191.672 -147.441 191.624 -147.073 191.528C-146.705 191.416 -146.385 191.256 -146.113 191.048C-145.825 190.84 -145.633 190.576 -145.537 190.256H-142.609C-142.817 191.168 -143.201 191.912 -143.761 192.488C-144.321 193.064 -144.993 193.488 -145.777 193.76C-146.545 194.032 -147.361 194.168 -148.225 194.168ZM-151.393 186.44H-145.297C-145.297 185.912 -145.417 185.432 -145.657 185C-145.897 184.568 -146.241 184.232 -146.689 183.992C-147.121 183.736 -147.649 183.608 -148.273 183.608C-148.945 183.608 -149.505 183.744 -149.953 184.016C-150.401 184.288 -150.745 184.64 -150.985 185.072C-151.225 185.504 -151.361 185.96 -151.393 186.44ZM-140.107 194V181.352H-137.443L-137.275 183.008C-136.955 182.528 -136.595 182.16 -136.195 181.904C-135.779 181.632 -135.339 181.44 -134.875 181.328C-134.395 181.216 -133.915 181.16 -133.435 181.16C-133.259 181.16 -133.099 181.16 -132.955 181.16C-132.795 181.16 -132.667 181.168 -132.571 181.184V183.968H-133.339C-134.171 183.968 -134.875 184.128 -135.451 184.448C-136.027 184.768 -136.459 185.224 -136.747 185.816C-137.035 186.408 -137.179 187.136 -137.179 188V194H-140.107ZM-130.082 188.384L-130.37 177.032H-127.13L-127.418 188.384H-130.082ZM-128.738 194.192C-129.058 194.192 -129.362 194.128 -129.65 194C-129.938 193.856 -130.17 193.648 -130.346 193.376C-130.522 193.088 -130.61 192.744 -130.61 192.344C-130.61 191.944 -130.522 191.608 -130.346 191.336C-130.17 191.064 -129.938 190.856 -129.65 190.712C-129.362 190.568 -129.058 190.496 -128.738 190.496C-128.242 190.496 -127.81 190.656 -127.442 190.976C-127.058 191.296 -126.866 191.752 -126.866 192.344C-126.866 192.744 -126.962 193.088 -127.154 193.376C-127.33 193.648 -127.562 193.856 -127.85 194C-128.122 194.128 -128.418 194.192 -128.738 194.192ZM-357.104 230V213.032H-350.408C-349.544 213.032 -348.728 213.12 -347.96 213.296C-347.192 213.456 -346.512 213.744 -345.92 214.16C-345.328 214.56 -344.864 215.112 -344.528 215.816C-344.192 216.52 -344.024 217.392 -344.024 218.432C-344.024 219.296 -344.176 220.056 -344.48 220.712C-344.784 221.368 -345.208 221.92 -345.752 222.368C-346.28 222.816 -346.912 223.16 -347.648 223.4L-343.928 230H-347.288L-350.624 223.88H-354.104V230H-357.104ZM-354.104 221.216H-350.816C-350.272 221.216 -349.776 221.176 -349.328 221.096C-348.864 221 -348.464 220.848 -348.128 220.64C-347.776 220.432 -347.512 220.152 -347.336 219.8C-347.144 219.432 -347.04 218.968 -347.024 218.408C-347.024 217.736 -347.168 217.208 -347.456 216.824C-347.728 216.44 -348.128 216.168 -348.656 216.008C-349.168 215.848 -349.784 215.768 -350.504 215.768H-354.104V221.216ZM-335.865 230.168C-337.177 230.168 -338.297 229.896 -339.225 229.352C-340.137 228.808 -340.833 228.056 -341.313 227.096C-341.777 226.12 -342.009 224.992 -342.009 223.712C-342.009 222.432 -341.769 221.304 -341.289 220.328C-340.793 219.336 -340.089 218.56 -339.177 218C-338.249 217.44 -337.137 217.16 -335.841 217.16C-334.881 217.16 -334.041 217.336 -333.321 217.688C-332.601 218.024 -332.001 218.488 -331.521 219.08C-331.025 219.672 -330.657 220.344 -330.417 221.096C-330.177 221.848 -330.065 222.64 -330.081 223.472C-330.097 223.664 -330.113 223.856 -330.129 224.048C-330.145 224.224 -330.169 224.416 -330.201 224.624H-339.081C-339.033 225.184 -338.889 225.696 -338.649 226.16C-338.393 226.624 -338.041 226.992 -337.593 227.264C-337.129 227.536 -336.553 227.672 -335.865 227.672C-335.465 227.672 -335.081 227.624 -334.713 227.528C-334.345 227.416 -334.025 227.256 -333.753 227.048C-333.465 226.84 -333.273 226.576 -333.177 226.256H-330.249C-330.457 227.168 -330.841 227.912 -331.401 228.488C-331.961 229.064 -332.633 229.488 -333.417 229.76C-334.185 230.032 -335.001 230.168 -335.865 230.168ZM-339.033 222.44H-332.937C-332.937 221.912 -333.057 221.432 -333.297 221C-333.537 220.568 -333.881 220.232 -334.329 219.992C-334.761 219.736 -335.289 219.608 -335.913 219.608C-336.585 219.608 -337.145 219.744 -337.593 220.016C-338.041 220.288 -338.385 220.64 -338.625 221.072C-338.865 221.504 -339.001 221.96 -339.033 222.44ZM-321.946 230.168C-323.258 230.168 -324.362 229.904 -325.258 229.376C-326.154 228.832 -326.834 228.072 -327.298 227.096C-327.762 226.12 -327.994 224.992 -327.994 223.712C-327.994 222.432 -327.754 221.304 -327.274 220.328C-326.794 219.336 -326.09 218.56 -325.162 218C-324.234 217.44 -323.106 217.16 -321.778 217.16C-320.802 217.16 -319.938 217.328 -319.186 217.664C-318.418 218 -317.802 218.496 -317.338 219.152C-316.858 219.792 -316.554 220.592 -316.426 221.552H-319.306C-319.498 220.944 -319.818 220.504 -320.266 220.232C-320.698 219.944 -321.218 219.8 -321.826 219.8C-322.642 219.8 -323.29 220 -323.77 220.4C-324.234 220.784 -324.57 221.272 -324.778 221.864C-324.986 222.456 -325.09 223.072 -325.09 223.712C-325.09 224.384 -324.978 225.016 -324.754 225.608C-324.53 226.184 -324.186 226.648 -323.722 227C-323.242 227.352 -322.626 227.528 -321.874 227.528C-321.266 227.528 -320.722 227.392 -320.242 227.12C-319.746 226.848 -319.426 226.408 -319.282 225.8H-316.306C-316.418 226.776 -316.746 227.592 -317.29 228.248C-317.818 228.888 -318.49 229.368 -319.306 229.688C-320.122 230.008 -321.002 230.168 -321.946 230.168ZM-308.323 230.168C-309.619 230.168 -310.739 229.904 -311.683 229.376C-312.611 228.848 -313.331 228.096 -313.843 227.12C-314.339 226.144 -314.587 225 -314.587 223.688C-314.587 222.36 -314.331 221.216 -313.819 220.256C-313.307 219.28 -312.587 218.52 -311.659 217.976C-310.731 217.432 -309.619 217.16 -308.323 217.16C-307.043 217.16 -305.939 217.432 -305.011 217.976C-304.083 218.52 -303.371 219.288 -302.875 220.28C-302.379 221.256 -302.131 222.408 -302.131 223.736C-302.131 225.032 -302.379 226.168 -302.875 227.144C-303.355 228.104 -304.059 228.848 -304.987 229.376C-305.915 229.904 -307.027 230.168 -308.323 230.168ZM-308.347 227.504C-307.547 227.504 -306.907 227.328 -306.427 226.976C-305.931 226.624 -305.571 226.16 -305.347 225.584C-305.123 225.008 -305.011 224.384 -305.011 223.712C-305.011 223.04 -305.123 222.408 -305.347 221.816C-305.571 221.224 -305.931 220.752 -306.427 220.4C-306.907 220.032 -307.547 219.848 -308.347 219.848C-309.147 219.848 -309.795 220.032 -310.291 220.4C-310.787 220.752 -311.147 221.224 -311.371 221.816C-311.595 222.392 -311.707 223.024 -311.707 223.712C-311.707 224.384 -311.595 225.016 -311.371 225.608C-311.131 226.184 -310.771 226.648 -310.291 227C-309.795 227.336 -309.147 227.504 -308.347 227.504ZM-299.787 230V217.352H-297.099L-296.907 218.792C-296.587 218.36 -296.243 218.032 -295.875 217.808C-295.491 217.568 -295.099 217.4 -294.699 217.304C-294.283 217.208 -293.891 217.16 -293.523 217.16C-292.723 217.16 -292.043 217.32 -291.483 217.64C-290.907 217.96 -290.459 218.44 -290.139 219.08C-289.819 218.632 -289.459 218.272 -289.059 218C-288.659 217.712 -288.235 217.504 -287.787 217.376C-287.339 217.232 -286.867 217.16 -286.371 217.16C-285.395 217.16 -284.611 217.368 -284.019 217.784C-283.427 218.184 -282.995 218.744 -282.723 219.464C-282.451 220.168 -282.315 220.976 -282.315 221.888V230H-285.243V222.824C-285.243 222.504 -285.259 222.168 -285.291 221.816C-285.323 221.464 -285.411 221.136 -285.555 220.832C-285.683 220.528 -285.875 220.28 -286.131 220.088C-286.387 219.896 -286.747 219.8 -287.211 219.8C-287.675 219.8 -288.059 219.904 -288.363 220.112C-288.651 220.304 -288.891 220.568 -289.083 220.904C-289.259 221.224 -289.387 221.584 -289.467 221.984C-289.531 222.368 -289.563 222.752 -289.563 223.136V230H-292.491V222.8C-292.491 222.496 -292.515 222.176 -292.563 221.84C-292.595 221.488 -292.675 221.16 -292.803 220.856C-292.915 220.536 -293.107 220.28 -293.379 220.088C-293.635 219.896 -293.995 219.8 -294.459 219.8C-295.131 219.8 -295.643 219.984 -295.995 220.352C-296.331 220.72 -296.563 221.168 -296.691 221.696C-296.803 222.224 -296.859 222.728 -296.859 223.208V230H-299.787ZM-279.607 230V217.352H-276.919L-276.727 218.792C-276.407 218.36 -276.063 218.032 -275.695 217.808C-275.311 217.568 -274.919 217.4 -274.519 217.304C-274.103 217.208 -273.711 217.16 -273.343 217.16C-272.543 217.16 -271.863 217.32 -271.303 217.64C-270.727 217.96 -270.279 218.44 -269.959 219.08C-269.639 218.632 -269.279 218.272 -268.879 218C-268.479 217.712 -268.055 217.504 -267.607 217.376C-267.159 217.232 -266.687 217.16 -266.191 217.16C-265.215 217.16 -264.431 217.368 -263.839 217.784C-263.247 218.184 -262.815 218.744 -262.543 219.464C-262.271 220.168 -262.135 220.976 -262.135 221.888V230H-265.063V222.824C-265.063 222.504 -265.079 222.168 -265.111 221.816C-265.143 221.464 -265.231 221.136 -265.375 220.832C-265.503 220.528 -265.695 220.28 -265.951 220.088C-266.207 219.896 -266.567 219.8 -267.031 219.8C-267.495 219.8 -267.879 219.904 -268.183 220.112C-268.471 220.304 -268.711 220.568 -268.903 220.904C-269.079 221.224 -269.207 221.584 -269.287 221.984C-269.351 222.368 -269.383 222.752 -269.383 223.136V230H-272.311V222.8C-272.311 222.496 -272.335 222.176 -272.383 221.84C-272.415 221.488 -272.495 221.16 -272.623 220.856C-272.735 220.536 -272.927 220.28 -273.199 220.088C-273.455 219.896 -273.815 219.8 -274.279 219.8C-274.951 219.8 -275.463 219.984 -275.815 220.352C-276.151 220.72 -276.383 221.168 -276.511 221.696C-276.623 222.224 -276.679 222.728 -276.679 223.208V230H-279.607ZM-253.764 230.168C-255.076 230.168 -256.196 229.896 -257.124 229.352C-258.036 228.808 -258.732 228.056 -259.212 227.096C-259.676 226.12 -259.908 224.992 -259.908 223.712C-259.908 222.432 -259.668 221.304 -259.188 220.328C-258.692 219.336 -257.988 218.56 -257.076 218C-256.148 217.44 -255.036 217.16 -253.74 217.16C-252.78 217.16 -251.94 217.336 -251.22 217.688C-250.5 218.024 -249.9 218.488 -249.42 219.08C-248.924 219.672 -248.556 220.344 -248.316 221.096C-248.076 221.848 -247.964 222.64 -247.98 223.472C-247.996 223.664 -248.012 223.856 -248.028 224.048C-248.044 224.224 -248.068 224.416 -248.1 224.624H-256.98C-256.932 225.184 -256.788 225.696 -256.548 226.16C-256.292 226.624 -255.94 226.992 -255.492 227.264C-255.028 227.536 -254.452 227.672 -253.764 227.672C-253.364 227.672 -252.98 227.624 -252.612 227.528C-252.244 227.416 -251.924 227.256 -251.652 227.048C-251.364 226.84 -251.172 226.576 -251.076 226.256H-248.148C-248.356 227.168 -248.74 227.912 -249.3 228.488C-249.86 229.064 -250.532 229.488 -251.316 229.76C-252.084 230.032 -252.9 230.168 -253.764 230.168ZM-256.932 222.44H-250.836C-250.836 221.912 -250.956 221.432 -251.196 221C-251.436 220.568 -251.78 220.232 -252.228 219.992C-252.66 219.736 -253.188 219.608 -253.812 219.608C-254.484 219.608 -255.044 219.744 -255.492 220.016C-255.94 220.288 -256.284 220.64 -256.524 221.072C-256.764 221.504 -256.9 221.96 -256.932 222.44ZM-245.646 230V217.352H-242.91L-242.742 218.96C-242.406 218.512 -242.014 218.16 -241.566 217.904C-241.118 217.648 -240.646 217.464 -240.15 217.352C-239.654 217.224 -239.19 217.16 -238.758 217.16C-237.558 217.16 -236.614 217.424 -235.926 217.952C-235.222 218.48 -234.726 219.184 -234.438 220.064C-234.15 220.944 -234.006 221.928 -234.006 223.016V230H-236.934V223.496C-236.934 223.032 -236.966 222.584 -237.03 222.152C-237.094 221.704 -237.222 221.304 -237.414 220.952C-237.59 220.6 -237.846 220.32 -238.182 220.112C-238.518 219.904 -238.966 219.8 -239.526 219.8C-240.214 219.8 -240.798 219.984 -241.278 220.352C-241.758 220.72 -242.118 221.216 -242.358 221.84C-242.598 222.448 -242.718 223.144 -242.718 223.928V230H-245.646ZM-226.096 230.168C-227.376 230.168 -228.432 229.88 -229.264 229.304C-230.096 228.712 -230.72 227.928 -231.136 226.952C-231.536 225.976 -231.736 224.888 -231.736 223.688C-231.736 222.44 -231.52 221.328 -231.088 220.352C-230.656 219.36 -230.008 218.584 -229.144 218.024C-228.28 217.448 -227.2 217.16 -225.904 217.16C-225.424 217.16 -224.96 217.216 -224.512 217.328C-224.048 217.424 -223.616 217.584 -223.216 217.808C-222.8 218.016 -222.456 218.296 -222.184 218.648V213.032H-219.256V230H-222.088L-222.136 228.416C-222.44 228.816 -222.8 229.144 -223.216 229.4C-223.616 229.656 -224.064 229.848 -224.56 229.976C-225.056 230.104 -225.568 230.168 -226.096 230.168ZM-225.544 227.528C-224.776 227.528 -224.144 227.352 -223.648 227C-223.152 226.632 -222.784 226.152 -222.544 225.56C-222.288 224.952 -222.16 224.312 -222.16 223.64C-222.16 222.936 -222.288 222.296 -222.544 221.72C-222.784 221.144 -223.152 220.68 -223.648 220.328C-224.144 219.976 -224.776 219.8 -225.544 219.8C-226.36 219.8 -227.008 219.984 -227.488 220.352C-227.952 220.72 -228.296 221.208 -228.52 221.816C-228.728 222.408 -228.832 223.048 -228.832 223.736C-228.832 224.248 -228.776 224.736 -228.664 225.2C-228.536 225.648 -228.344 226.048 -228.088 226.4C-227.832 226.752 -227.496 227.032 -227.08 227.24C-226.664 227.432 -226.152 227.528 -225.544 227.528ZM-210.756 230.168C-212.068 230.168 -213.188 229.896 -214.116 229.352C-215.028 228.808 -215.724 228.056 -216.204 227.096C-216.668 226.12 -216.9 224.992 -216.9 223.712C-216.9 222.432 -216.66 221.304 -216.18 220.328C-215.684 219.336 -214.98 218.56 -214.068 218C-213.14 217.44 -212.028 217.16 -210.732 217.16C-209.772 217.16 -208.932 217.336 -208.212 217.688C-207.492 218.024 -206.892 218.488 -206.412 219.08C-205.916 219.672 -205.548 220.344 -205.308 221.096C-205.068 221.848 -204.956 222.64 -204.972 223.472C-204.988 223.664 -205.004 223.856 -205.02 224.048C-205.036 224.224 -205.06 224.416 -205.092 224.624H-213.972C-213.924 225.184 -213.78 225.696 -213.54 226.16C-213.284 226.624 -212.932 226.992 -212.484 227.264C-212.02 227.536 -211.444 227.672 -210.756 227.672C-210.356 227.672 -209.972 227.624 -209.604 227.528C-209.236 227.416 -208.916 227.256 -208.644 227.048C-208.356 226.84 -208.164 226.576 -208.068 226.256H-205.14C-205.348 227.168 -205.732 227.912 -206.292 228.488C-206.852 229.064 -207.524 229.488 -208.308 229.76C-209.076 230.032 -209.892 230.168 -210.756 230.168ZM-213.924 222.44H-207.828C-207.828 221.912 -207.948 221.432 -208.188 221C-208.428 220.568 -208.772 220.232 -209.22 219.992C-209.652 219.736 -210.18 219.608 -210.804 219.608C-211.476 219.608 -212.036 219.744 -212.484 220.016C-212.932 220.288 -213.276 220.64 -213.516 221.072C-213.756 221.504 -213.892 221.96 -213.924 222.44ZM-197.479 230.168C-198.759 230.168 -199.815 229.88 -200.647 229.304C-201.479 228.712 -202.103 227.928 -202.519 226.952C-202.919 225.976 -203.119 224.888 -203.119 223.688C-203.119 222.44 -202.903 221.328 -202.471 220.352C-202.039 219.36 -201.391 218.584 -200.527 218.024C-199.663 217.448 -198.583 217.16 -197.287 217.16C-196.807 217.16 -196.343 217.216 -195.895 217.328C-195.431 217.424 -194.999 217.584 -194.599 217.808C-194.183 218.016 -193.839 218.296 -193.567 218.648V213.032H-190.639V230H-193.471L-193.519 228.416C-193.823 228.816 -194.183 229.144 -194.599 229.4C-194.999 229.656 -195.447 229.848 -195.943 229.976C-196.439 230.104 -196.951 230.168 -197.479 230.168ZM-196.927 227.528C-196.159 227.528 -195.527 227.352 -195.031 227C-194.535 226.632 -194.167 226.152 -193.927 225.56C-193.671 224.952 -193.543 224.312 -193.543 223.64C-193.543 222.936 -193.671 222.296 -193.927 221.72C-194.167 221.144 -194.535 220.68 -195.031 220.328C-195.527 219.976 -196.159 219.8 -196.927 219.8C-197.743 219.8 -198.391 219.984 -198.871 220.352C-199.335 220.72 -199.679 221.208 -199.903 221.816C-200.111 222.408 -200.215 223.048 -200.215 223.736C-200.215 224.248 -200.159 224.736 -200.047 225.2C-199.919 225.648 -199.727 226.048 -199.471 226.4C-199.215 226.752 -198.879 227.032 -198.463 227.24C-198.047 227.432 -197.535 227.528 -196.927 227.528ZM-179.995 230V219.944H-181.963V217.352H-179.995V216.152C-179.995 215.192 -179.851 214.408 -179.563 213.8C-179.275 213.176 -178.819 212.72 -178.195 212.432C-177.555 212.144 -176.739 212 -175.747 212H-173.875V214.592H-175.411C-175.843 214.592 -176.179 214.664 -176.419 214.808C-176.659 214.952 -176.835 215.168 -176.947 215.456C-177.043 215.728 -177.091 216.064 -177.091 216.464V217.352H-173.875V219.944H-177.091V230H-179.995ZM-166.503 230.168C-167.799 230.168 -168.919 229.904 -169.863 229.376C-170.791 228.848 -171.511 228.096 -172.023 227.12C-172.519 226.144 -172.767 225 -172.767 223.688C-172.767 222.36 -172.511 221.216 -171.999 220.256C-171.487 219.28 -170.767 218.52 -169.839 217.976C-168.911 217.432 -167.799 217.16 -166.503 217.16C-165.223 217.16 -164.119 217.432 -163.191 217.976C-162.263 218.52 -161.551 219.288 -161.055 220.28C-160.559 221.256 -160.311 222.408 -160.311 223.736C-160.311 225.032 -160.559 226.168 -161.055 227.144C-161.535 228.104 -162.239 228.848 -163.167 229.376C-164.095 229.904 -165.207 230.168 -166.503 230.168ZM-166.527 227.504C-165.727 227.504 -165.087 227.328 -164.607 226.976C-164.111 226.624 -163.751 226.16 -163.527 225.584C-163.303 225.008 -163.191 224.384 -163.191 223.712C-163.191 223.04 -163.303 222.408 -163.527 221.816C-163.751 221.224 -164.111 220.752 -164.607 220.4C-165.087 220.032 -165.727 219.848 -166.527 219.848C-167.327 219.848 -167.975 220.032 -168.471 220.4C-168.967 220.752 -169.327 221.224 -169.551 221.816C-169.775 222.392 -169.887 223.024 -169.887 223.712C-169.887 224.384 -169.775 225.016 -169.551 225.608C-169.311 226.184 -168.951 226.648 -168.471 227C-167.975 227.336 -167.327 227.504 -166.527 227.504ZM-157.967 230V217.352H-155.303L-155.135 219.008C-154.815 218.528 -154.455 218.16 -154.055 217.904C-153.639 217.632 -153.199 217.44 -152.735 217.328C-152.255 217.216 -151.775 217.16 -151.295 217.16C-151.119 217.16 -150.959 217.16 -150.815 217.16C-150.655 217.16 -150.527 217.168 -150.431 217.184V219.968H-151.199C-152.031 219.968 -152.735 220.128 -153.311 220.448C-153.887 220.768 -154.319 221.224 -154.607 221.816C-154.895 222.408 -155.039 223.136 -155.039 224V230H-157.967ZM-137.997 230.168C-138.589 230.168 -139.149 230.088 -139.677 229.928C-140.205 229.768 -140.677 229.536 -141.093 229.232C-141.509 228.912 -141.845 228.52 -142.101 228.056C-142.341 227.576 -142.461 227.016 -142.461 226.376C-142.461 225.56 -142.301 224.896 -141.981 224.384C-141.661 223.856 -141.229 223.456 -140.685 223.184C-140.125 222.912 -139.493 222.728 -138.789 222.632C-138.085 222.52 -137.349 222.464 -136.581 222.464H-134.109C-134.109 221.904 -134.197 221.424 -134.373 221.024C-134.549 220.608 -134.829 220.28 -135.213 220.04C-135.581 219.8 -136.061 219.68 -136.653 219.68C-137.037 219.68 -137.397 219.728 -137.733 219.824C-138.053 219.904 -138.333 220.04 -138.573 220.232C-138.797 220.408 -138.957 220.64 -139.053 220.928H-142.053C-141.941 220.272 -141.717 219.712 -141.381 219.248C-141.029 218.768 -140.605 218.376 -140.109 218.072C-139.597 217.768 -139.037 217.544 -138.429 217.4C-137.821 217.24 -137.205 217.16 -136.581 217.16C-134.741 217.16 -133.405 217.688 -132.573 218.744C-131.725 219.8 -131.301 221.28 -131.301 223.184V230H-133.893L-133.965 228.368C-134.333 228.912 -134.773 229.312 -135.285 229.568C-135.797 229.824 -136.293 229.984 -136.773 230.048C-137.253 230.128 -137.661 230.168 -137.997 230.168ZM-137.421 227.792C-136.781 227.792 -136.213 227.672 -135.717 227.432C-135.221 227.192 -134.829 226.856 -134.541 226.424C-134.237 225.992 -134.085 225.496 -134.085 224.936V224.528H-136.389C-136.773 224.528 -137.157 224.544 -137.541 224.576C-137.909 224.592 -138.245 224.656 -138.549 224.768C-138.853 224.864 -139.101 225.016 -139.293 225.224C-139.469 225.432 -139.557 225.728 -139.557 226.112C-139.557 226.496 -139.461 226.808 -139.269 227.048C-139.061 227.288 -138.797 227.472 -138.477 227.6C-138.141 227.728 -137.789 227.792 -137.421 227.792ZM-128.506 230V217.352H-125.77L-125.602 218.96C-125.266 218.512 -124.874 218.16 -124.426 217.904C-123.978 217.648 -123.506 217.464 -123.01 217.352C-122.514 217.224 -122.05 217.16 -121.618 217.16C-120.418 217.16 -119.474 217.424 -118.786 217.952C-118.082 218.48 -117.586 219.184 -117.298 220.064C-117.01 220.944 -116.866 221.928 -116.866 223.016V230H-119.794V223.496C-119.794 223.032 -119.826 222.584 -119.89 222.152C-119.954 221.704 -120.082 221.304 -120.274 220.952C-120.45 220.6 -120.706 220.32 -121.042 220.112C-121.378 219.904 -121.826 219.8 -122.386 219.8C-123.074 219.8 -123.658 219.984 -124.138 220.352C-124.618 220.72 -124.978 221.216 -125.218 221.84C-125.458 222.448 -125.578 223.144 -125.578 223.928V230H-128.506ZM-108.523 235.784C-109.499 235.784 -110.451 235.648 -111.379 235.376C-112.291 235.12 -113.139 234.68 -113.923 234.056L-112.867 231.704C-112.323 232.136 -111.715 232.472 -111.043 232.712C-110.371 232.968 -109.635 233.096 -108.835 233.096C-107.571 233.096 -106.651 232.776 -106.075 232.136C-105.483 231.496 -105.187 230.624 -105.187 229.52V228.584C-105.475 228.952 -105.827 229.256 -106.243 229.496C-106.659 229.736 -107.107 229.912 -107.587 230.024C-108.067 230.136 -108.555 230.192 -109.051 230.192C-110.283 230.192 -111.267 229.944 -112.003 229.448C-112.723 228.936 -113.243 228.24 -113.563 227.36C-113.883 226.464 -114.043 225.448 -114.043 224.312V217.352H-111.139V223.664C-111.139 224.112 -111.107 224.568 -111.043 225.032C-110.979 225.496 -110.851 225.92 -110.659 226.304C-110.467 226.688 -110.187 227 -109.819 227.24C-109.435 227.464 -108.931 227.576 -108.307 227.576C-107.491 227.576 -106.859 227.376 -106.411 226.976C-105.963 226.576 -105.659 226.056 -105.499 225.416C-105.323 224.776 -105.235 224.096 -105.235 223.376V217.352H-102.307V228.8C-102.307 229.872 -102.419 230.832 -102.643 231.68C-102.867 232.544 -103.227 233.28 -103.723 233.888C-104.219 234.496 -104.859 234.96 -105.643 235.28C-106.427 235.616 -107.387 235.784 -108.523 235.784ZM-93.6828 230.168C-94.9788 230.168 -96.0988 229.904 -97.0428 229.376C-97.9708 228.848 -98.6908 228.096 -99.2028 227.12C-99.6988 226.144 -99.9468 225 -99.9468 223.688C-99.9468 222.36 -99.6908 221.216 -99.1788 220.256C-98.6668 219.28 -97.9468 218.52 -97.0188 217.976C-96.0908 217.432 -94.9788 217.16 -93.6828 217.16C-92.4028 217.16 -91.2988 217.432 -90.3708 217.976C-89.4428 218.52 -88.7308 219.288 -88.2348 220.28C-87.7388 221.256 -87.4908 222.408 -87.4908 223.736C-87.4908 225.032 -87.7388 226.168 -88.2348 227.144C-88.7148 228.104 -89.4188 228.848 -90.3468 229.376C-91.2748 229.904 -92.3868 230.168 -93.6828 230.168ZM-93.7068 227.504C-92.9068 227.504 -92.2668 227.328 -91.7868 226.976C-91.2908 226.624 -90.9308 226.16 -90.7068 225.584C-90.4828 225.008 -90.3708 224.384 -90.3708 223.712C-90.3708 223.04 -90.4828 222.408 -90.7068 221.816C-90.9308 221.224 -91.2908 220.752 -91.7868 220.4C-92.2668 220.032 -92.9068 219.848 -93.7068 219.848C-94.5068 219.848 -95.1548 220.032 -95.6508 220.4C-96.1468 220.752 -96.5068 221.224 -96.7308 221.816C-96.9548 222.392 -97.0668 223.024 -97.0668 223.712C-97.0668 224.384 -96.9548 225.016 -96.7308 225.608C-96.4908 226.184 -96.1308 226.648 -95.6508 227C-95.1548 227.336 -94.5068 227.504 -93.7068 227.504ZM-85.1465 230V217.352H-82.4105L-82.2425 218.96C-81.9065 218.512 -81.5145 218.16 -81.0665 217.904C-80.6185 217.648 -80.1465 217.464 -79.6505 217.352C-79.1545 217.224 -78.6905 217.16 -78.2585 217.16C-77.0585 217.16 -76.1145 217.424 -75.4265 217.952C-74.7225 218.48 -74.2265 219.184 -73.9385 220.064C-73.6505 220.944 -73.5065 221.928 -73.5065 223.016V230H-76.4345V223.496C-76.4345 223.032 -76.4665 222.584 -76.5305 222.152C-76.5945 221.704 -76.7225 221.304 -76.9145 220.952C-77.0905 220.6 -77.3465 220.32 -77.6825 220.112C-78.0185 219.904 -78.4665 219.8 -79.0265 219.8C-79.7145 219.8 -80.2985 219.984 -80.7785 220.352C-81.2585 220.72 -81.6185 221.216 -81.8585 221.84C-82.0985 222.448 -82.2185 223.144 -82.2185 223.928V230H-85.1465ZM-65.0919 230.168C-66.4039 230.168 -67.5239 229.896 -68.4519 229.352C-69.3639 228.808 -70.0599 228.056 -70.5399 227.096C-71.0039 226.12 -71.2359 224.992 -71.2359 223.712C-71.2359 222.432 -70.9959 221.304 -70.5159 220.328C-70.0199 219.336 -69.3159 218.56 -68.4039 218C-67.4759 217.44 -66.3639 217.16 -65.0679 217.16C-64.1079 217.16 -63.2679 217.336 -62.5479 217.688C-61.8279 218.024 -61.2279 218.488 -60.7479 219.08C-60.2519 219.672 -59.8839 220.344 -59.6439 221.096C-59.4039 221.848 -59.2919 222.64 -59.3079 223.472C-59.3239 223.664 -59.3399 223.856 -59.3559 224.048C-59.3719 224.224 -59.3959 224.416 -59.4279 224.624H-68.3079C-68.2599 225.184 -68.1159 225.696 -67.8759 226.16C-67.6199 226.624 -67.2679 226.992 -66.8199 227.264C-66.3559 227.536 -65.7799 227.672 -65.0919 227.672C-64.6919 227.672 -64.3079 227.624 -63.9399 227.528C-63.5719 227.416 -63.2519 227.256 -62.9799 227.048C-62.6919 226.84 -62.4999 226.576 -62.4039 226.256H-59.4759C-59.6839 227.168 -60.0679 227.912 -60.6279 228.488C-61.1879 229.064 -61.8599 229.488 -62.6439 229.76C-63.4119 230.032 -64.2279 230.168 -65.0919 230.168ZM-68.2599 222.44H-62.1639C-62.1639 221.912 -62.2839 221.432 -62.5239 221C-62.7639 220.568 -63.1079 220.232 -63.5559 219.992C-63.9879 219.736 -64.5159 219.608 -65.1399 219.608C-65.8119 219.608 -66.3719 219.744 -66.8199 220.016C-67.2679 220.288 -67.6119 220.64 -67.8519 221.072C-68.0919 221.504 -68.2279 221.96 -68.2599 222.44Z" fill="white"/>
<line x1="-359" y1="88.5" x2="21" y2="88.5" stroke="white" stroke-opacity="0.1"/>
<path d="M-58.5938 43.0688H-48.0217V45.0945H-52.1787V56.4814H-54.4645V45.0945H-58.603L-58.5938 43.0688ZM-48.4734 46.7698H-46.5194V48.644H-46.4825C-46.418 48.379 -46.2981 48.1234 -46.123 47.8773C-45.9479 47.6312 -45.7359 47.3946 -45.487 47.1958C-45.2382 46.9876 -44.9617 46.8266 -44.6575 46.6941C-44.3533 46.5711 -44.0399 46.5048 -43.7266 46.5048C-43.4869 46.5048 -43.3118 46.5143 -43.2196 46.5237C-43.1274 46.5332 -43.0353 46.5521 -42.9339 46.5616V48.6251C-43.0814 48.5967 -43.2288 48.5778 -43.3855 48.5588C-43.5422 48.5399 -43.6897 48.5304 -43.8372 48.5304C-44.1874 48.5304 -44.5192 48.6062 -44.8326 48.7481C-45.146 48.8901 -45.4133 49.1078 -45.6437 49.3823C-45.8742 49.6663 -46.0585 50.007 -46.1968 50.4235C-46.335 50.84 -46.3995 51.3133 -46.3995 51.8528V56.472H-48.4826L-48.4734 46.7698ZM-33.3573 56.4814H-35.4035V55.1279H-35.4403C-35.6984 55.6201 -36.0763 56.0082 -36.5833 56.3016C-37.0902 56.595 -37.6064 56.7465 -38.1318 56.7465C-39.3761 56.7465 -40.2794 56.4341 -40.8324 55.7999C-41.3854 55.1657 -41.6619 54.2097 -41.6619 52.9319V46.7698H-39.5788V52.7236C-39.5788 53.5755 -39.4222 54.1813 -39.0996 54.5315C-38.7862 54.8818 -38.3345 55.0616 -37.7631 55.0616C-37.3206 55.0616 -36.9612 54.9954 -36.6662 54.8534C-36.3713 54.7114 -36.1316 54.5315 -35.9565 54.2949C-35.7722 54.0677 -35.6431 53.7838 -35.5602 53.4619C-35.4772 53.1401 -35.4403 52.7899 -35.4403 52.4113V46.7793H-33.3573V56.4814ZM-29.8087 53.3673C-29.7442 53.992 -29.5137 54.4274 -29.1174 54.683C-28.7118 54.9291 -28.2325 55.0616 -27.6703 55.0616C-27.4767 55.0616 -27.2555 55.0427 -27.0067 55.0143C-26.7578 54.9859 -26.5182 54.9196 -26.3062 54.8344C-26.085 54.7492 -25.9098 54.6167 -25.7624 54.4464C-25.6241 54.276 -25.5596 54.0583 -25.5688 53.7838C-25.578 53.5093 -25.6794 53.2821 -25.8637 53.1117C-26.0481 52.9319 -26.2785 52.7994 -26.5642 52.6858C-26.85 52.5817 -27.1726 52.487 -27.5413 52.4113C-27.9099 52.3356 -28.2786 52.2504 -28.6565 52.1652C-29.0437 52.08 -29.4216 51.9664 -29.781 51.8433C-30.1405 51.7203 -30.4631 51.5499 -30.7488 51.3322C-31.0346 51.124 -31.265 50.8495 -31.4309 50.5182C-31.606 50.1869 -31.689 49.7799 -31.689 49.2877C-31.689 48.7576 -31.5599 48.3222 -31.3111 47.9625C-31.0622 47.6028 -30.7396 47.3188 -30.3617 47.1011C-29.9746 46.8834 -29.5506 46.732 -29.0805 46.6373C-28.6104 46.5521 -28.1588 46.5048 -27.7348 46.5048C-27.2463 46.5048 -26.7762 46.5616 -26.3338 46.6657C-25.8914 46.7699 -25.4858 46.9402 -25.1264 47.1863C-24.7669 47.423 -24.472 47.7353 -24.2323 48.1139C-23.9927 48.4926 -23.8452 48.9564 -23.7807 49.4959H-25.9559C-26.0573 48.9848 -26.2785 48.6345 -26.638 48.4642C-26.9974 48.2843 -27.4122 48.1991 -27.8731 48.1991C-28.0206 48.1991 -28.1957 48.2086 -28.3985 48.237C-28.6012 48.2654 -28.7856 48.3127 -28.9699 48.379C-29.145 48.4452 -29.2925 48.5494 -29.4216 48.6819C-29.5414 48.8144 -29.6059 48.9848 -29.6059 49.2025C-29.6059 49.4675 -29.5137 49.6758 -29.3386 49.8367C-29.1635 49.9976 -28.9331 50.1301 -28.6473 50.2437C-28.3616 50.3478 -28.039 50.4425 -27.6703 50.5182C-27.3016 50.5939 -26.9237 50.6791 -26.5366 50.7643C-26.1587 50.8495 -25.79 50.9631 -25.4213 51.0861C-25.0526 51.2092 -24.73 51.3795 -24.4443 51.5972C-24.1586 51.8149 -23.9281 52.08 -23.753 52.4018C-23.5779 52.7236 -23.4857 53.1307 -23.4857 53.6039C-23.4857 54.1813 -23.6148 54.6641 -23.8728 55.0711C-24.1309 55.4686 -24.4627 55.7999 -24.8683 56.046C-25.2738 56.2921 -25.7347 56.4814 -26.2324 56.595C-26.7302 56.7086 -27.2279 56.7654 -27.7164 56.7654C-28.3155 56.7654 -28.8685 56.6991 -29.3755 56.5572C-29.8824 56.4152 -30.3248 56.2069 -30.6935 55.9324C-31.0622 55.6485 -31.3572 55.2982 -31.5691 54.8818C-31.7811 54.4653 -31.8918 53.9636 -31.9102 53.3862H-29.8087V53.3673ZM-22.9327 46.7698H-21.3566V43.8545H-19.2735V46.7698H-17.3932V48.3695H-19.2735V53.5566C-19.2735 53.7838 -19.2643 53.9731 -19.2458 54.1435C-19.2274 54.3044 -19.1813 54.4464 -19.1168 54.5599C-19.0523 54.6735 -18.9509 54.7587 -18.8126 54.8155C-18.6744 54.8723 -18.4992 54.9007 -18.2596 54.9007C-18.1121 54.9007 -17.9647 54.9007 -17.8172 54.8912C-17.6697 54.8818 -17.5222 54.8628 -17.3748 54.825V56.4814C-17.6052 56.5098 -17.8356 56.5288 -18.0476 56.5572C-18.2688 56.5856 -18.49 56.595 -18.7205 56.595C-19.2735 56.595 -19.7159 56.5382 -20.0477 56.4341C-20.3795 56.33 -20.6468 56.1691 -20.8312 55.9608C-21.0247 55.7526 -21.1446 55.497 -21.2183 55.1847C-21.2828 54.8723 -21.3289 54.5126 -21.3381 54.1151V48.3884H-22.9143V46.7698H-22.9327ZM-15.9184 46.7698H-13.946V48.0856H-13.9091C-13.6142 47.5176 -13.2086 47.1201 -12.6832 46.874C-12.1579 46.6279 -11.5956 46.5048 -10.9781 46.5048C-10.2315 46.5048 -9.58627 46.6373 -9.03323 46.9118C-8.48021 47.1769 -8.01935 47.546 -7.65067 48.0193C-7.28198 48.4926 -7.01469 49.0416 -6.83035 49.6663C-6.646 50.291 -6.55383 50.9631 -6.55383 51.673C-6.55383 52.3261 -6.63678 52.9603 -6.80269 53.5661C-6.9686 54.1813 -7.21746 54.7209 -7.54928 55.1941C-7.8811 55.6674 -8.30509 56.0366 -8.82125 56.3205C-9.33741 56.6045 -9.93652 56.7465 -10.637 56.7465C-10.9412 56.7465 -11.2454 56.7181 -11.5495 56.6613C-11.8537 56.6045 -12.1486 56.5098 -12.4252 56.3868C-12.7017 56.2637 -12.969 56.1028 -13.1994 55.904C-13.439 55.7053 -13.6326 55.4781 -13.7985 55.2225H-13.8354V60.0688H-15.9184V46.7698ZM-8.63691 51.6351C-8.63691 51.1997 -8.6922 50.7737 -8.80281 50.3573C-8.91341 49.9408 -9.07932 49.5811 -9.30053 49.2593C-9.52175 48.9374 -9.79826 48.6819 -10.1209 48.4926C-10.4527 48.3033 -10.8306 48.1991 -11.2546 48.1991C-12.1302 48.1991 -12.7938 48.5115 -13.2363 49.1362C-13.6787 49.7609 -13.8999 50.5939 -13.8999 51.6351C-13.8999 52.1273 -13.8446 52.5817 -13.7248 52.9981C-13.6049 53.4146 -13.439 53.7743 -13.1994 54.0772C-12.969 54.3801 -12.6924 54.6167 -12.3698 54.7871C-12.0472 54.967 -11.6693 55.0521 -11.2453 55.0521C-10.7661 55.0521 -10.3697 54.948 -10.0379 54.7492C-9.70609 54.5505 -9.4388 54.2854 -9.2268 53.9731C-9.01481 53.6513 -8.85812 53.2916 -8.76595 52.8845C-8.68299 52.4775 -8.63691 52.0611 -8.63691 51.6351ZM-4.95926 43.0688H-2.87619V45.0945H-4.95926V43.0688ZM-4.95926 46.7698H-2.87619V56.4814H-4.95926V46.7698ZM-1.01432 43.0688H1.06875V56.4814H-1.01432V43.0688ZM7.45622 56.7465C6.70042 56.7465 6.02757 56.6139 5.43768 56.3584C4.84778 56.1028 4.35005 55.7431 3.93528 55.2982C3.52972 54.8439 3.21634 54.3044 3.00435 53.6796C2.79235 53.0549 2.68175 52.3639 2.68175 51.6162C2.68175 50.8779 2.79235 50.1964 3.00435 49.5716C3.21634 48.9469 3.52972 48.4074 3.93528 47.953C4.34083 47.4987 4.84778 47.1485 5.43768 46.8929C6.02757 46.6373 6.70042 46.5048 7.45622 46.5048C8.21203 46.5048 8.88488 46.6373 9.47478 46.8929C10.0647 47.1485 10.5624 47.5082 10.9772 47.953C11.3827 48.4074 11.6961 48.9469 11.9081 49.5716C12.1201 50.1964 12.2307 50.8779 12.2307 51.6162C12.2307 52.3639 12.1201 53.0549 11.9081 53.6796C11.6961 54.3044 11.3827 54.8439 10.9772 55.2982C10.5716 55.7526 10.0647 56.1028 9.47478 56.3584C8.88488 56.6139 8.21203 56.7465 7.45622 56.7465ZM7.45622 55.0521C7.91708 55.0521 8.32264 54.948 8.66367 54.7492C9.00471 54.5505 9.28122 54.2854 9.50243 53.9636C9.72365 53.6418 9.88034 53.2726 9.99094 52.8656C10.0923 52.4586 10.1476 52.0421 10.1476 51.6162C10.1476 51.1997 10.0923 50.7927 9.99094 50.3762C9.88956 49.9597 9.72365 49.6 9.50243 49.2782C9.28122 48.9564 9.00471 48.7008 8.66367 48.502C8.32264 48.3033 7.91708 48.1991 7.45622 48.1991C6.99536 48.1991 6.58981 48.3033 6.24878 48.502C5.90775 48.7008 5.63123 48.9658 5.41002 49.2782C5.18881 49.6 5.03211 49.9597 4.92151 50.3762C4.82012 50.7927 4.76482 51.1997 4.76482 51.6162C4.76482 52.0421 4.82012 52.4586 4.92151 52.8656C5.0229 53.2726 5.18881 53.6418 5.41002 53.9636C5.63123 54.2854 5.90775 54.5505 6.24878 54.7492C6.58981 54.9575 6.99536 55.0521 7.45622 55.0521ZM12.839 46.7698H14.4152V43.8545H16.4982V46.7698H18.3785V48.3695H16.4982V53.5566C16.4982 53.7838 16.5075 53.9731 16.5259 54.1435C16.5443 54.3044 16.5904 54.4464 16.6549 54.5599C16.7195 54.6735 16.8208 54.7587 16.9591 54.8155C17.0974 54.8723 17.2725 54.9007 17.5121 54.9007C17.6596 54.9007 17.8071 54.9007 17.9546 54.8912C18.102 54.8818 18.2495 54.8628 18.397 54.825V56.4814C18.1665 56.5098 17.9361 56.5288 17.7241 56.5572C17.5029 56.5856 17.2817 56.595 17.0513 56.595C16.4982 56.595 16.0558 56.5382 15.724 56.4341C15.3922 56.33 15.1249 56.1691 14.9405 55.9608C14.747 55.7526 14.6272 55.497 14.5534 55.1847C14.4889 54.8723 14.4428 54.5126 14.4336 54.1151V48.3884H12.8575V46.7698H12.839Z" fill="white"/>
</svg>
