<svg width="622" height="50" viewBox="0 0 622 50" fill="none" xmlns="http://www.w3.org/2000/svg">
<rect width="622" height="50" rx="25" fill="url(#paint0_linear_1001_2307)" fill-opacity="0.5"/>
<path d="M203.105 18.0417C203.335 17.3194 204.335 17.3194 204.565 18.0417L205.73 21.7056C205.833 22.0286 206.127 22.2473 206.46 22.2473H210.231C210.975 22.2473 211.284 23.2191 210.682 23.6654L207.631 25.9299C207.362 26.1295 207.25 26.4833 207.352 26.8063L208.518 30.4703C208.748 31.1925 207.938 31.7931 207.337 31.3467L204.286 29.0823C204.017 28.8827 203.653 28.8827 203.384 29.0823L200.333 31.3467C199.731 31.7931 198.922 31.1925 199.152 30.4703L200.317 26.8063C200.42 26.4833 200.308 26.1295 200.039 25.9299L196.988 23.6654C196.386 23.2191 196.695 22.2473 197.439 22.2473H201.21C201.542 22.2473 201.837 22.0286 201.94 21.7056L203.105 18.0417Z" fill="url(#paint1_linear_1001_2307)"/>
<path d="M184.688 18.0417C184.917 17.3194 185.918 17.3194 186.147 18.0417L187.313 21.7056C187.415 22.0286 187.71 22.2473 188.042 22.2473H191.814C192.557 22.2473 192.866 23.2191 192.265 23.6654L189.214 25.9299C188.945 26.1295 188.832 26.4833 188.935 26.8063L190.1 30.4703C190.33 31.1925 189.521 31.7931 188.919 31.3467L185.869 29.0823C185.6 28.8827 185.235 28.8827 184.966 29.0823L181.915 31.3467C181.314 31.7931 180.505 31.1925 180.735 30.4703L181.9 26.8063C182.003 26.4833 181.89 26.1295 181.621 25.9299L178.57 23.6654C177.969 23.2191 178.278 22.2473 179.021 22.2473H182.792C183.125 22.2473 183.42 22.0286 183.522 21.7056L184.688 18.0417Z" fill="url(#paint2_linear_1001_2307)"/>
<path d="M166.27 18.0417C166.5 17.3194 167.5 17.3194 167.73 18.0417L168.895 21.7056C168.998 22.0286 169.293 22.2473 169.625 22.2473H173.396C174.14 22.2473 174.449 23.2191 173.847 23.6654L170.796 25.9299C170.527 26.1295 170.415 26.4833 170.518 26.8063L171.683 30.4703C171.913 31.1925 171.103 31.7931 170.502 31.3467L167.451 29.0823C167.182 28.8827 166.818 28.8827 166.549 29.0823L163.498 31.3467C162.897 31.7931 162.087 31.1925 162.317 30.4703L163.482 26.8063C163.585 26.4833 163.473 26.1295 163.204 25.9299L160.153 23.6654C159.551 23.2191 159.86 22.2473 160.604 22.2473H164.375C164.707 22.2473 165.002 22.0286 165.105 21.7056L166.27 18.0417Z" fill="url(#paint3_linear_1001_2307)"/>
<path d="M147.853 18.0417C148.082 17.3194 149.083 17.3194 149.312 18.0417L150.478 21.7056C150.58 22.0286 150.875 22.2473 151.208 22.2473H154.979C155.722 22.2473 156.031 23.2191 155.43 23.6654L152.379 25.9299C152.11 26.1295 151.997 26.4833 152.1 26.8063L153.265 30.4703C153.495 31.1925 152.686 31.7931 152.085 31.3467L149.034 29.0823C148.765 28.8827 148.4 28.8827 148.131 29.0823L145.081 31.3467C144.479 31.7931 143.67 31.1925 143.9 30.4703L145.065 26.8063C145.168 26.4833 145.055 26.1295 144.786 25.9299L141.735 23.6654C141.134 23.2191 141.443 22.2473 142.186 22.2473H145.958C146.29 22.2473 146.585 22.0286 146.687 21.7056L147.853 18.0417Z" fill="url(#paint4_linear_1001_2307)"/>
<path d="M129.435 18.0417C129.665 17.3194 130.665 17.3194 130.895 18.0417L132.06 21.7056C132.163 22.0286 132.458 22.2473 132.79 22.2473H136.561C137.305 22.2473 137.614 23.2191 137.012 23.6654L133.961 25.9299C133.692 26.1295 133.58 26.4833 133.683 26.8063L134.848 30.4703C135.078 31.1925 134.269 31.7931 133.667 31.3467L130.616 29.0823C130.347 28.8827 129.983 28.8827 129.714 29.0823L126.663 31.3467C126.062 31.7931 125.252 31.1925 125.482 30.4703L126.648 26.8063C126.75 26.4833 126.638 26.1295 126.369 25.9299L123.318 23.6654C122.716 23.2191 123.025 22.2473 123.769 22.2473H127.54C127.873 22.2473 128.167 22.0286 128.27 21.7056L129.435 18.0417Z" fill="url(#paint5_linear_1001_2307)"/>
<path d="M225.312 29.626C224.901 29.626 224.505 29.5793 224.122 29.486C223.749 29.3927 223.408 29.2527 223.1 29.066C222.792 28.87 222.531 28.6227 222.316 28.324C222.101 28.0253 221.952 27.6707 221.868 27.26H223.1C223.203 27.5213 223.366 27.7453 223.59 27.932C223.814 28.1187 224.066 28.2633 224.346 28.366C224.635 28.4593 224.92 28.506 225.2 28.506C225.657 28.506 226.063 28.4313 226.418 28.282C226.782 28.1327 227.071 27.904 227.286 27.596C227.501 27.2787 227.608 26.8727 227.608 26.378C227.608 25.6967 227.403 25.174 226.992 24.81C226.581 24.446 226.049 24.264 225.396 24.264C225.004 24.264 224.64 24.334 224.304 24.474C223.977 24.614 223.679 24.8053 223.408 25.048H222.148L222.596 19.602H228.518V20.722H223.688L223.408 23.83C223.66 23.6247 223.968 23.4613 224.332 23.34C224.696 23.2093 225.144 23.144 225.676 23.144C226.311 23.144 226.866 23.2747 227.342 23.536C227.827 23.7973 228.201 24.166 228.462 24.642C228.733 25.1087 228.868 25.664 228.868 26.308C228.868 26.9987 228.709 27.5913 228.392 28.086C228.084 28.5807 227.659 28.9633 227.118 29.234C226.586 29.4953 225.984 29.626 225.312 29.626ZM231.405 29.612C231.162 29.612 230.962 29.5327 230.803 29.374C230.644 29.2153 230.565 29.0147 230.565 28.772C230.565 28.5293 230.644 28.3287 230.803 28.17C230.962 28.0113 231.162 27.932 231.405 27.932C231.648 27.932 231.848 28.0113 232.007 28.17C232.166 28.3287 232.245 28.5293 232.245 28.772C232.245 29.0147 232.166 29.2153 232.007 29.374C231.848 29.5327 231.648 29.612 231.405 29.612ZM237.57 29.612C236.88 29.612 236.287 29.486 235.792 29.234C235.307 28.9727 234.91 28.6133 234.602 28.156C234.294 27.6893 234.066 27.1527 233.916 26.546C233.776 25.93 233.706 25.2673 233.706 24.558C233.706 23.8487 233.776 23.1907 233.916 22.584C234.056 21.968 234.28 21.4313 234.588 20.974C234.896 20.5073 235.293 20.1433 235.778 19.882C236.273 19.6207 236.87 19.49 237.57 19.49C238.308 19.49 238.924 19.6347 239.418 19.924C239.922 20.204 240.319 20.5867 240.608 21.072C240.907 21.5573 241.117 22.1033 241.238 22.71C241.369 23.3073 241.434 23.9233 241.434 24.558C241.434 25.1927 241.369 25.8133 241.238 26.42C241.117 27.0173 240.907 27.5587 240.608 28.044C240.319 28.52 239.922 28.9027 239.418 29.192C238.924 29.472 238.308 29.612 237.57 29.612ZM237.57 28.506C238.121 28.506 238.564 28.3893 238.9 28.156C239.246 27.9133 239.512 27.596 239.698 27.204C239.885 26.812 240.011 26.3873 240.076 25.93C240.142 25.4633 240.174 25.006 240.174 24.558C240.174 24.1193 240.142 23.6713 240.076 23.214C240.011 22.7473 239.885 22.318 239.698 21.926C239.512 21.5247 239.246 21.2027 238.9 20.96C238.564 20.7173 238.121 20.596 237.57 20.596C237.01 20.596 236.558 20.7173 236.212 20.96C235.867 21.2027 235.601 21.5247 235.414 21.926C235.237 22.318 235.116 22.7473 235.05 23.214C234.985 23.6713 234.952 24.1193 234.952 24.558C234.952 25.006 234.985 25.4633 235.05 25.93C235.116 26.3873 235.237 26.812 235.414 27.204C235.601 27.596 235.867 27.9133 236.212 28.156C236.558 28.3893 237.01 28.506 237.57 28.506ZM247.196 29.5V19.602H250.668C251.163 19.602 251.611 19.644 252.012 19.728C252.414 19.8027 252.759 19.9333 253.048 20.12C253.347 20.3067 253.576 20.5587 253.734 20.876C253.893 21.1933 253.972 21.5947 253.972 22.08C253.972 22.584 253.856 23.032 253.622 23.424C253.398 23.816 253.048 24.1053 252.572 24.292C253.207 24.404 253.683 24.6653 254 25.076C254.318 25.4773 254.476 26.014 254.476 26.686C254.476 27.2367 254.374 27.694 254.168 28.058C253.963 28.422 253.678 28.7113 253.314 28.926C252.96 29.1313 252.549 29.2807 252.082 29.374C251.616 29.458 251.121 29.5 250.598 29.5H247.196ZM248.414 28.394H250.556C250.846 28.394 251.144 28.38 251.452 28.352C251.77 28.3147 252.064 28.2447 252.334 28.142C252.605 28.03 252.824 27.8573 252.992 27.624C253.16 27.3907 253.244 27.078 253.244 26.686C253.244 26.35 253.179 26.0747 253.048 25.86C252.927 25.6453 252.759 25.4773 252.544 25.356C252.339 25.2347 252.101 25.1507 251.83 25.104C251.56 25.0573 251.284 25.034 251.004 25.034H248.414V28.394ZM248.414 23.942H250.318C250.664 23.942 250.986 23.914 251.284 23.858C251.583 23.7927 251.844 23.69 252.068 23.55C252.292 23.41 252.465 23.228 252.586 23.004C252.717 22.78 252.782 22.5 252.782 22.164C252.792 21.7347 252.698 21.4173 252.502 21.212C252.306 21.0067 252.045 20.8713 251.718 20.806C251.401 20.7407 251.056 20.708 250.682 20.708H248.414V23.942ZM258.47 29.584C258.134 29.584 257.807 29.542 257.49 29.458C257.182 29.3647 256.902 29.2293 256.65 29.052C256.407 28.8653 256.211 28.6367 256.062 28.366C255.922 28.086 255.852 27.764 255.852 27.4C255.852 26.98 255.927 26.6253 256.076 26.336C256.235 26.0467 256.445 25.818 256.706 25.65C256.967 25.482 257.271 25.3607 257.616 25.286C257.961 25.2113 258.321 25.174 258.694 25.174H260.864C260.864 24.754 260.803 24.39 260.682 24.082C260.57 23.774 260.383 23.536 260.122 23.368C259.861 23.1907 259.515 23.102 259.086 23.102C258.825 23.102 258.582 23.13 258.358 23.186C258.134 23.242 257.943 23.3307 257.784 23.452C257.625 23.5733 257.509 23.7367 257.434 23.942H256.16C256.225 23.606 256.351 23.3213 256.538 23.088C256.734 22.8453 256.967 22.6493 257.238 22.5C257.518 22.3413 257.817 22.2247 258.134 22.15C258.451 22.0753 258.769 22.038 259.086 22.038C260.15 22.038 260.906 22.3507 261.354 22.976C261.802 23.6013 262.026 24.446 262.026 25.51V29.5H261.032L260.962 28.562C260.757 28.842 260.509 29.0567 260.22 29.206C259.931 29.3553 259.632 29.4533 259.324 29.5C259.025 29.556 258.741 29.584 258.47 29.584ZM258.582 28.534C259.049 28.534 259.45 28.4593 259.786 28.31C260.131 28.1513 260.397 27.9227 260.584 27.624C260.771 27.3253 260.864 26.9613 260.864 26.532V26.168H259.562C259.254 26.168 258.951 26.1727 258.652 26.182C258.353 26.1913 258.083 26.2287 257.84 26.294C257.597 26.3593 257.401 26.4713 257.252 26.63C257.112 26.7887 257.042 27.0173 257.042 27.316C257.042 27.596 257.112 27.8247 257.252 28.002C257.401 28.1793 257.593 28.3147 257.826 28.408C258.069 28.492 258.321 28.534 258.582 28.534ZM266.558 29.584C266.222 29.584 265.881 29.5513 265.536 29.486C265.2 29.4207 264.882 29.3087 264.584 29.15C264.294 28.9913 264.052 28.7767 263.856 28.506C263.66 28.2353 263.534 27.8993 263.478 27.498H264.682C264.775 27.75 264.924 27.9553 265.13 28.114C265.344 28.2633 265.582 28.3707 265.844 28.436C266.114 28.5013 266.371 28.534 266.614 28.534C266.763 28.534 266.936 28.5247 267.132 28.506C267.328 28.4873 267.514 28.4453 267.692 28.38C267.878 28.3053 268.028 28.198 268.14 28.058C268.261 27.918 268.322 27.722 268.322 27.47C268.322 27.2833 268.28 27.1293 268.196 27.008C268.112 26.8867 267.995 26.7887 267.846 26.714C267.696 26.63 267.514 26.5693 267.3 26.532C266.861 26.4387 266.39 26.35 265.886 26.266C265.391 26.182 264.952 26.0233 264.57 25.79C264.439 25.706 264.318 25.6127 264.206 25.51C264.103 25.398 264.014 25.2767 263.94 25.146C263.865 25.006 263.804 24.8567 263.758 24.698C263.72 24.53 263.702 24.348 263.702 24.152C263.702 23.788 263.772 23.4753 263.912 23.214C264.061 22.9433 264.266 22.724 264.528 22.556C264.789 22.3787 265.088 22.248 265.424 22.164C265.769 22.08 266.138 22.038 266.53 22.038C267.015 22.038 267.449 22.1173 267.832 22.276C268.224 22.4253 268.546 22.6493 268.798 22.948C269.05 23.2373 269.199 23.5967 269.246 24.026H268.14C268.074 23.7553 267.897 23.536 267.608 23.368C267.318 23.1907 266.95 23.102 266.502 23.102C266.352 23.102 266.184 23.116 265.998 23.144C265.811 23.1627 265.634 23.2093 265.466 23.284C265.298 23.3493 265.158 23.452 265.046 23.592C264.934 23.7227 264.878 23.9 264.878 24.124C264.878 24.3293 264.929 24.502 265.032 24.642C265.144 24.782 265.298 24.894 265.494 24.978C265.69 25.062 265.914 25.132 266.166 25.188C266.492 25.2533 266.852 25.3233 267.244 25.398C267.636 25.4633 267.944 25.5333 268.168 25.608C268.466 25.7013 268.714 25.832 268.91 26C269.115 26.168 269.264 26.3687 269.358 26.602C269.46 26.8353 269.512 27.106 269.512 27.414C269.512 27.8527 269.423 28.212 269.246 28.492C269.078 28.772 268.849 28.9913 268.56 29.15C268.27 29.3087 267.948 29.4207 267.594 29.486C267.248 29.5513 266.903 29.584 266.558 29.584ZM274.185 29.584C273.401 29.584 272.752 29.4253 272.239 29.108C271.725 28.7813 271.343 28.3333 271.091 27.764C270.839 27.1947 270.713 26.546 270.713 25.818C270.713 25.0807 270.843 24.432 271.105 23.872C271.375 23.3027 271.767 22.8547 272.281 22.528C272.794 22.2013 273.424 22.038 274.171 22.038C274.749 22.038 275.244 22.15 275.655 22.374C276.075 22.5887 276.42 22.878 276.691 23.242C276.961 23.606 277.157 24.0073 277.279 24.446C277.4 24.8753 277.451 25.3093 277.433 25.748C277.423 25.832 277.414 25.916 277.405 26C277.405 26.084 277.4 26.168 277.391 26.252H271.917C271.954 26.6813 272.061 27.0687 272.239 27.414C272.416 27.7593 272.668 28.0347 272.995 28.24C273.321 28.436 273.727 28.534 274.213 28.534C274.455 28.534 274.698 28.506 274.941 28.45C275.193 28.3847 275.417 28.2773 275.613 28.128C275.818 27.9787 275.963 27.778 276.047 27.526H277.265C277.153 28.002 276.943 28.394 276.635 28.702C276.327 29.0007 275.958 29.2247 275.529 29.374C275.099 29.514 274.651 29.584 274.185 29.584ZM271.945 25.216H276.215C276.205 24.796 276.112 24.4273 275.935 24.11C275.757 23.7927 275.515 23.5453 275.207 23.368C274.908 23.1907 274.549 23.102 274.129 23.102C273.671 23.102 273.284 23.2 272.967 23.396C272.659 23.592 272.421 23.8487 272.253 24.166C272.085 24.4833 271.982 24.8333 271.945 25.216ZM281.972 29.584C281.235 29.584 280.628 29.4207 280.152 29.094C279.676 28.758 279.321 28.31 279.088 27.75C278.855 27.1807 278.738 26.5413 278.738 25.832C278.738 25.1227 278.855 24.4833 279.088 23.914C279.321 23.3353 279.681 22.878 280.166 22.542C280.651 22.206 281.272 22.038 282.028 22.038C282.317 22.038 282.607 22.0753 282.896 22.15C283.195 22.2153 283.475 22.3227 283.736 22.472C283.997 22.612 284.221 22.8033 284.408 23.046V19.602H285.598V29.5H284.464L284.408 28.394C284.24 28.674 284.025 28.9027 283.764 29.08C283.512 29.248 283.232 29.374 282.924 29.458C282.616 29.542 282.299 29.584 281.972 29.584ZM282.14 28.534C282.635 28.534 283.05 28.408 283.386 28.156C283.722 27.904 283.979 27.568 284.156 27.148C284.333 26.728 284.422 26.2707 284.422 25.776C284.422 25.2627 284.333 24.8053 284.156 24.404C283.988 24.0027 283.736 23.6853 283.4 23.452C283.064 23.2187 282.639 23.102 282.126 23.102C281.594 23.102 281.165 23.2233 280.838 23.466C280.521 23.7087 280.287 24.04 280.138 24.46C279.998 24.8707 279.928 25.3327 279.928 25.846C279.928 26.2193 279.965 26.5693 280.04 26.896C280.124 27.2133 280.25 27.498 280.418 27.75C280.595 27.9927 280.824 28.184 281.104 28.324C281.384 28.464 281.729 28.534 282.14 28.534ZM294.461 29.584C293.686 29.584 293.037 29.4253 292.515 29.108C291.992 28.7813 291.6 28.3333 291.339 27.764C291.087 27.1947 290.961 26.546 290.961 25.818C290.961 25.0807 291.091 24.432 291.353 23.872C291.614 23.3027 292.006 22.8547 292.529 22.528C293.051 22.2013 293.705 22.038 294.489 22.038C295.263 22.038 295.907 22.2013 296.421 22.528C296.943 22.8547 297.331 23.3027 297.583 23.872C297.844 24.432 297.975 25.0807 297.975 25.818C297.975 26.546 297.844 27.1947 297.583 27.764C297.321 28.3333 296.929 28.7813 296.407 29.108C295.893 29.4253 295.245 29.584 294.461 29.584ZM294.461 28.534C295.002 28.534 295.441 28.4127 295.777 28.17C296.122 27.9273 296.374 27.6007 296.533 27.19C296.701 26.7793 296.785 26.322 296.785 25.818C296.785 25.314 296.701 24.8567 296.533 24.446C296.374 24.0353 296.122 23.7087 295.777 23.466C295.441 23.2233 295.002 23.102 294.461 23.102C293.929 23.102 293.49 23.2233 293.145 23.466C292.809 23.7087 292.557 24.0353 292.389 24.446C292.23 24.8567 292.151 25.314 292.151 25.818C292.151 26.322 292.23 26.7793 292.389 27.19C292.557 27.6007 292.809 27.9273 293.145 28.17C293.49 28.4127 293.929 28.534 294.461 28.534ZM299.567 29.5V22.122H300.715L300.771 23.242C300.939 22.9713 301.154 22.7473 301.415 22.57C301.676 22.3927 301.961 22.262 302.269 22.178C302.586 22.0847 302.894 22.038 303.193 22.038C303.912 22.038 304.472 22.1873 304.873 22.486C305.284 22.7847 305.573 23.1907 305.741 23.704C305.918 24.208 306.007 24.782 306.007 25.426V29.5H304.817V25.748C304.817 25.4027 304.794 25.0713 304.747 24.754C304.71 24.4367 304.626 24.152 304.495 23.9C304.374 23.648 304.196 23.452 303.963 23.312C303.73 23.1627 303.417 23.088 303.025 23.088C302.54 23.088 302.124 23.2233 301.779 23.494C301.443 23.7647 301.186 24.1287 301.009 24.586C300.841 25.0433 300.757 25.5567 300.757 26.126V29.5H299.567ZM315.546 29.626C315.136 29.626 314.739 29.5793 314.356 29.486C313.983 29.3927 313.642 29.2527 313.334 29.066C313.026 28.87 312.765 28.6227 312.55 28.324C312.336 28.0253 312.186 27.6707 312.102 27.26H313.334C313.437 27.5213 313.6 27.7453 313.824 27.932C314.048 28.1187 314.3 28.2633 314.58 28.366C314.87 28.4593 315.154 28.506 315.434 28.506C315.892 28.506 316.298 28.4313 316.652 28.282C317.016 28.1327 317.306 27.904 317.52 27.596C317.735 27.2787 317.842 26.8727 317.842 26.378C317.842 25.6967 317.637 25.174 317.226 24.81C316.816 24.446 316.284 24.264 315.63 24.264C315.238 24.264 314.874 24.334 314.538 24.474C314.212 24.614 313.913 24.8053 313.642 25.048H312.382L312.83 19.602H318.752V20.722H313.922L313.642 23.83C313.894 23.6247 314.202 23.4613 314.566 23.34C314.93 23.2093 315.378 23.144 315.91 23.144C316.545 23.144 317.1 23.2747 317.576 23.536C318.062 23.7973 318.435 24.166 318.696 24.642C318.967 25.1087 319.102 25.664 319.102 26.308C319.102 26.9987 318.944 27.5913 318.626 28.086C318.318 28.5807 317.894 28.9633 317.352 29.234C316.82 29.4953 316.218 29.626 315.546 29.626ZM324.215 29.612C323.767 29.612 323.329 29.5653 322.899 29.472C322.479 29.3693 322.101 29.206 321.765 28.982C321.429 28.758 321.159 28.464 320.953 28.1C320.757 27.7267 320.659 27.274 320.659 26.742C320.659 26.3687 320.725 26.028 320.855 25.72C320.986 25.412 321.173 25.146 321.415 24.922C321.667 24.698 321.961 24.5207 322.297 24.39C321.924 24.2127 321.639 23.9933 321.443 23.732C321.247 23.4613 321.117 23.1813 321.051 22.892C320.986 22.6027 320.953 22.3413 320.953 22.108C320.953 21.6413 321.042 21.2447 321.219 20.918C321.406 20.5913 321.653 20.3207 321.961 20.106C322.279 19.8913 322.629 19.7373 323.011 19.644C323.403 19.5413 323.805 19.49 324.215 19.49C324.626 19.49 325.023 19.5413 325.405 19.644C325.797 19.7373 326.147 19.8913 326.455 20.106C326.773 20.3207 327.02 20.5913 327.197 20.918C327.384 21.2447 327.477 21.6413 327.477 22.108C327.477 22.3507 327.44 22.612 327.365 22.892C327.3 23.172 327.169 23.4427 326.973 23.704C326.777 23.956 326.493 24.1707 326.119 24.348C326.474 24.4787 326.773 24.6607 327.015 24.894C327.267 25.1273 327.454 25.4027 327.575 25.72C327.706 26.028 327.771 26.3687 327.771 26.742C327.771 27.274 327.669 27.7267 327.463 28.1C327.267 28.464 326.997 28.758 326.651 28.982C326.315 29.206 325.937 29.3693 325.517 29.472C325.097 29.5653 324.663 29.612 324.215 29.612ZM324.215 28.506C324.439 28.506 324.682 28.4827 324.943 28.436C325.205 28.3893 325.452 28.3053 325.685 28.184C325.928 28.0533 326.124 27.876 326.273 27.652C326.432 27.4187 326.511 27.12 326.511 26.756C326.511 26.3267 326.399 25.986 326.175 25.734C325.961 25.482 325.676 25.3 325.321 25.188C324.976 25.076 324.607 25.02 324.215 25.02C323.833 25.02 323.464 25.076 323.109 25.188C322.755 25.3 322.465 25.482 322.241 25.734C322.017 25.986 321.905 26.3267 321.905 26.756C321.905 27.12 321.98 27.4187 322.129 27.652C322.288 27.876 322.489 28.0533 322.731 28.184C322.974 28.3053 323.226 28.3893 323.487 28.436C323.749 28.4827 323.991 28.506 324.215 28.506ZM324.215 23.942C324.57 23.942 324.897 23.886 325.195 23.774C325.494 23.6527 325.737 23.4753 325.923 23.242C326.119 22.9993 326.217 22.696 326.217 22.332C326.227 21.9027 326.138 21.562 325.951 21.31C325.765 21.058 325.517 20.876 325.209 20.764C324.911 20.652 324.579 20.596 324.215 20.596C323.842 20.596 323.501 20.6567 323.193 20.778C322.895 20.89 322.657 21.072 322.479 21.324C322.302 21.5667 322.213 21.884 322.213 22.276C322.213 22.668 322.307 22.99 322.493 23.242C322.689 23.4847 322.937 23.662 323.235 23.774C323.543 23.886 323.87 23.942 324.215 23.942ZM329.97 29.5L333.974 20.722H328.738V19.602H335.318V20.61L331.314 29.5H329.97ZM340.35 29.5V22.122H341.498L341.554 23.27C341.741 22.9807 341.955 22.7473 342.198 22.57C342.45 22.3927 342.725 22.262 343.024 22.178C343.332 22.0847 343.663 22.038 344.018 22.038C344.083 22.038 344.144 22.038 344.2 22.038C344.265 22.038 344.331 22.038 344.396 22.038V23.158H343.962C343.383 23.158 342.912 23.284 342.548 23.536C342.193 23.7787 341.937 24.11 341.778 24.53C341.619 24.9407 341.54 25.398 341.54 25.902V29.5H340.35ZM348.628 29.584C347.844 29.584 347.195 29.4253 346.682 29.108C346.169 28.7813 345.786 28.3333 345.534 27.764C345.282 27.1947 345.156 26.546 345.156 25.818C345.156 25.0807 345.287 24.432 345.548 23.872C345.819 23.3027 346.211 22.8547 346.724 22.528C347.237 22.2013 347.867 22.038 348.614 22.038C349.193 22.038 349.687 22.15 350.098 22.374C350.518 22.5887 350.863 22.878 351.134 23.242C351.405 23.606 351.601 24.0073 351.722 24.446C351.843 24.8753 351.895 25.3093 351.876 25.748C351.867 25.832 351.857 25.916 351.848 26C351.848 26.084 351.843 26.168 351.834 26.252H346.36C346.397 26.6813 346.505 27.0687 346.682 27.414C346.859 27.7593 347.111 28.0347 347.438 28.24C347.765 28.436 348.171 28.534 348.656 28.534C348.899 28.534 349.141 28.506 349.384 28.45C349.636 28.3847 349.86 28.2773 350.056 28.128C350.261 27.9787 350.406 27.778 350.49 27.526H351.708C351.596 28.002 351.386 28.394 351.078 28.702C350.77 29.0007 350.401 29.2247 349.972 29.374C349.543 29.514 349.095 29.584 348.628 29.584ZM346.388 25.216H350.658C350.649 24.796 350.555 24.4273 350.378 24.11C350.201 23.7927 349.958 23.5453 349.65 23.368C349.351 23.1907 348.992 23.102 348.572 23.102C348.115 23.102 347.727 23.2 347.41 23.396C347.102 23.592 346.864 23.8487 346.696 24.166C346.528 24.4833 346.425 24.8333 346.388 25.216ZM355.463 29.5L352.621 22.122H353.965L356.289 28.352L358.571 22.122H359.929L357.087 29.5H355.463ZM360.967 29.5V22.122H362.157V29.5H360.967ZM361.555 21.03C361.313 21.03 361.117 20.9553 360.967 20.806C360.827 20.6567 360.757 20.4653 360.757 20.232C360.757 19.9987 360.832 19.812 360.981 19.672C361.131 19.5227 361.322 19.448 361.555 19.448C361.77 19.448 361.957 19.5227 362.115 19.672C362.283 19.8213 362.367 20.008 362.367 20.232C362.367 20.4653 362.288 20.6567 362.129 20.806C361.971 20.9553 361.779 21.03 361.555 21.03ZM367.222 29.584C366.438 29.584 365.789 29.4253 365.276 29.108C364.762 28.7813 364.38 28.3333 364.128 27.764C363.876 27.1947 363.75 26.546 363.75 25.818C363.75 25.0807 363.88 24.432 364.142 23.872C364.412 23.3027 364.804 22.8547 365.318 22.528C365.831 22.2013 366.461 22.038 367.208 22.038C367.786 22.038 368.281 22.15 368.692 22.374C369.112 22.5887 369.457 22.878 369.728 23.242C369.998 23.606 370.194 24.0073 370.316 24.446C370.437 24.8753 370.488 25.3093 370.47 25.748C370.46 25.832 370.451 25.916 370.442 26C370.442 26.084 370.437 26.168 370.428 26.252H364.954C364.991 26.6813 365.098 27.0687 365.276 27.414C365.453 27.7593 365.705 28.0347 366.032 28.24C366.358 28.436 366.764 28.534 367.25 28.534C367.492 28.534 367.735 28.506 367.978 28.45C368.23 28.3847 368.454 28.2773 368.65 28.128C368.855 27.9787 369 27.778 369.084 27.526H370.302C370.19 28.002 369.98 28.394 369.672 28.702C369.364 29.0007 368.995 29.2247 368.566 29.374C368.136 29.514 367.688 29.584 367.222 29.584ZM364.982 25.216H369.252C369.242 24.796 369.149 24.4273 368.972 24.11C368.794 23.7927 368.552 23.5453 368.244 23.368C367.945 23.1907 367.586 23.102 367.166 23.102C366.708 23.102 366.321 23.2 366.004 23.396C365.696 23.592 365.458 23.8487 365.29 24.166C365.122 24.4833 365.019 24.8333 364.982 25.216ZM373.581 29.5L371.285 22.122H372.629L374.393 28.352L376.213 22.122H377.823L379.657 28.352L381.393 22.122H382.751L380.455 29.5H378.831L377.011 23.522L375.191 29.5H373.581ZM386.542 29.584C386.206 29.584 385.865 29.5513 385.52 29.486C385.184 29.4207 384.867 29.3087 384.568 29.15C384.279 28.9913 384.036 28.7767 383.84 28.506C383.644 28.2353 383.518 27.8993 383.462 27.498H384.666C384.759 27.75 384.909 27.9553 385.114 28.114C385.329 28.2633 385.567 28.3707 385.828 28.436C386.099 28.5013 386.355 28.534 386.598 28.534C386.747 28.534 386.92 28.5247 387.116 28.506C387.312 28.4873 387.499 28.4453 387.676 28.38C387.863 28.3053 388.012 28.198 388.124 28.058C388.245 27.918 388.306 27.722 388.306 27.47C388.306 27.2833 388.264 27.1293 388.18 27.008C388.096 26.8867 387.979 26.7887 387.83 26.714C387.681 26.63 387.499 26.5693 387.284 26.532C386.845 26.4387 386.374 26.35 385.87 26.266C385.375 26.182 384.937 26.0233 384.554 25.79C384.423 25.706 384.302 25.6127 384.19 25.51C384.087 25.398 383.999 25.2767 383.924 25.146C383.849 25.006 383.789 24.8567 383.742 24.698C383.705 24.53 383.686 24.348 383.686 24.152C383.686 23.788 383.756 23.4753 383.896 23.214C384.045 22.9433 384.251 22.724 384.512 22.556C384.773 22.3787 385.072 22.248 385.408 22.164C385.753 22.08 386.122 22.038 386.514 22.038C386.999 22.038 387.433 22.1173 387.816 22.276C388.208 22.4253 388.53 22.6493 388.782 22.948C389.034 23.2373 389.183 23.5967 389.23 24.026H388.124C388.059 23.7553 387.881 23.536 387.592 23.368C387.303 23.1907 386.934 23.102 386.486 23.102C386.337 23.102 386.169 23.116 385.982 23.144C385.795 23.1627 385.618 23.2093 385.45 23.284C385.282 23.3493 385.142 23.452 385.03 23.592C384.918 23.7227 384.862 23.9 384.862 24.124C384.862 24.3293 384.913 24.502 385.016 24.642C385.128 24.782 385.282 24.894 385.478 24.978C385.674 25.062 385.898 25.132 386.15 25.188C386.477 25.2533 386.836 25.3233 387.228 25.398C387.62 25.4633 387.928 25.5333 388.152 25.608C388.451 25.7013 388.698 25.832 388.894 26C389.099 26.168 389.249 26.3687 389.342 26.602C389.445 26.8353 389.496 27.106 389.496 27.414C389.496 27.8527 389.407 28.212 389.23 28.492C389.062 28.772 388.833 28.9913 388.544 29.15C388.255 29.3087 387.933 29.4207 387.578 29.486C387.233 29.5513 386.887 29.584 386.542 29.584Z" fill="white"/>
<line x1="400.5" y1="40" x2="400.5" y2="9" stroke="#2B2A42"/>
<path d="M428.476 21.3305H421.803L419.741 15.0396L417.674 21.3305L411 21.3241L416.405 25.2161L414.337 31.5007L419.741 27.6151L425.14 31.5007L423.078 25.2161L428.476 21.3305Z" fill="#00B67A"/>
<path d="M423.542 26.6391L423.079 25.2163L419.742 27.6153L423.542 26.6391Z" fill="#005128"/>
<path d="M432.632 18.6436H442.157V20.4686H438.412V30.7282H436.352V20.4686H432.624L432.632 18.6436ZM441.75 21.9781H443.511V23.6667H443.544C443.602 23.4279 443.71 23.1977 443.868 22.9759C444.026 22.7542 444.217 22.541 444.441 22.3619C444.665 22.1743 444.914 22.0293 445.188 21.9099C445.462 21.799 445.745 21.7393 446.027 21.7393C446.243 21.7393 446.401 21.7479 446.484 21.7564C446.567 21.7649 446.65 21.782 446.741 21.7905V23.6497C446.608 23.6241 446.476 23.607 446.334 23.59C446.193 23.5729 446.06 23.5644 445.927 23.5644C445.612 23.5644 445.313 23.6326 445.031 23.7605C444.748 23.8885 444.507 24.0846 444.3 24.3319C444.092 24.5878 443.926 24.8948 443.801 25.27C443.677 25.6453 443.619 26.0717 443.619 26.5578V30.7196H441.742L441.75 21.9781ZM455.37 30.7282H453.526V29.5086H453.493C453.26 29.9521 452.92 30.3017 452.463 30.5661C452.006 30.8305 451.541 30.967 451.068 30.967C449.947 30.967 449.133 30.6855 448.635 30.1141C448.136 29.5427 447.887 28.6814 447.887 27.53V21.9781H449.764V27.3424C449.764 28.11 449.905 28.6558 450.196 28.9713C450.478 29.2869 450.885 29.4489 451.4 29.4489C451.799 29.4489 452.123 29.3892 452.388 29.2613C452.654 29.1334 452.87 28.9713 453.028 28.7581C453.194 28.5534 453.31 28.2976 453.385 28.0076C453.46 27.7177 453.493 27.4021 453.493 27.061V21.9866H455.37V30.7282ZM458.567 27.9223C458.625 28.4852 458.833 28.8775 459.19 29.1078C459.555 29.3295 459.987 29.4489 460.494 29.4489C460.668 29.4489 460.867 29.4319 461.092 29.4063C461.316 29.3807 461.532 29.321 461.723 29.2442C461.922 29.1675 462.08 29.0481 462.213 28.8946C462.337 28.7411 462.395 28.5449 462.387 28.2976C462.379 28.0503 462.287 27.8456 462.121 27.6921C461.955 27.53 461.748 27.4106 461.49 27.3083C461.233 27.2145 460.942 27.1292 460.61 27.061C460.278 26.9928 459.946 26.916 459.605 26.8393C459.256 26.7625 458.916 26.6602 458.592 26.5493C458.268 26.4384 457.977 26.2849 457.72 26.0888C457.462 25.9011 457.255 25.6538 457.105 25.3553C456.948 25.0568 456.873 24.6901 456.873 24.2466C456.873 23.7691 456.989 23.3768 457.213 23.0527C457.438 22.7286 457.728 22.4728 458.069 22.2766C458.417 22.0805 458.799 21.944 459.223 21.8587C459.647 21.782 460.053 21.7393 460.435 21.7393C460.876 21.7393 461.299 21.7905 461.698 21.8843C462.096 21.9781 462.462 22.1316 462.786 22.3534C463.11 22.5666 463.375 22.848 463.591 23.1891C463.807 23.5303 463.94 23.9482 463.998 24.4343H462.038C461.947 23.9737 461.748 23.6582 461.424 23.5047C461.1 23.3426 460.726 23.2659 460.311 23.2659C460.178 23.2659 460.02 23.2744 459.838 23.3C459.655 23.3256 459.489 23.3682 459.323 23.4279C459.165 23.4876 459.032 23.5814 458.916 23.7008C458.808 23.8202 458.75 23.9737 458.75 24.1699C458.75 24.4087 458.833 24.5963 458.99 24.7413C459.148 24.8863 459.356 25.0057 459.613 25.108C459.871 25.2018 460.161 25.2871 460.494 25.3553C460.826 25.4236 461.166 25.5003 461.515 25.5771C461.856 25.6538 462.188 25.7562 462.52 25.867C462.852 25.9779 463.143 26.1314 463.4 26.3276C463.658 26.5237 463.865 26.7625 464.023 27.0525C464.181 27.3424 464.264 27.7091 464.264 28.1356C464.264 28.6558 464.148 29.0907 463.915 29.4574C463.683 29.8156 463.384 30.1141 463.018 30.3359C462.653 30.5576 462.238 30.7282 461.789 30.8305C461.341 30.9328 460.892 30.984 460.452 30.984C459.912 30.984 459.414 30.9243 458.957 30.7964C458.501 30.6685 458.102 30.4808 457.77 30.2335C457.438 29.9777 457.172 29.6621 456.981 29.2869C456.79 28.9116 456.69 28.4596 456.674 27.9394H458.567V27.9223ZM464.762 21.9781H466.182V19.3514H468.059V21.9781H469.753V23.4194H468.059V28.0929C468.059 28.2976 468.067 28.4682 468.084 28.6217C468.101 28.7667 468.142 28.8946 468.2 28.9969C468.258 29.0993 468.35 29.176 468.474 29.2272C468.599 29.2783 468.757 29.3039 468.973 29.3039C469.105 29.3039 469.238 29.3039 469.371 29.2954C469.504 29.2869 469.637 29.2698 469.77 29.2357V30.7282C469.562 30.7537 469.355 30.7708 469.164 30.7964C468.964 30.822 468.765 30.8305 468.557 30.8305C468.059 30.8305 467.66 30.7793 467.361 30.6855C467.063 30.5917 466.822 30.4467 466.656 30.2591C466.481 30.0715 466.373 29.8412 466.307 29.5598C466.249 29.2783 466.207 28.9543 466.199 28.5961V23.4365H464.779V21.9781H464.762ZM471.082 21.9781H472.859V23.1636H472.892C473.158 22.6519 473.523 22.2937 473.997 22.0719C474.47 21.8502 474.977 21.7393 475.533 21.7393C476.206 21.7393 476.787 21.8587 477.285 22.106C477.784 22.3448 478.199 22.6774 478.531 23.1039C478.863 23.5303 479.104 24.0249 479.27 24.5878C479.436 25.1507 479.519 25.7562 479.519 26.3958C479.519 26.9842 479.445 27.5556 479.295 28.1014C479.146 28.6558 478.921 29.1419 478.622 29.5683C478.323 29.9947 477.941 30.3273 477.476 30.5832C477.011 30.839 476.472 30.967 475.84 30.967C475.566 30.967 475.292 30.9414 475.018 30.8902C474.744 30.839 474.478 30.7537 474.229 30.6429C473.98 30.532 473.739 30.387 473.532 30.2079C473.316 30.0288 473.141 29.8242 472.992 29.5939H472.959V33.9604H471.082V21.9781ZM477.643 26.3617C477.643 25.9694 477.593 25.5856 477.493 25.2103C477.393 24.8351 477.244 24.511 477.045 24.2211C476.845 23.9311 476.596 23.7008 476.305 23.5303C476.007 23.3597 475.666 23.2659 475.284 23.2659C474.495 23.2659 473.897 23.5473 473.499 24.1102C473.1 24.6731 472.901 25.4236 472.901 26.3617C472.901 26.8051 472.95 27.2145 473.058 27.5897C473.166 27.965 473.316 28.2891 473.532 28.562C473.739 28.8349 473.989 29.0481 474.279 29.2016C474.57 29.3636 474.91 29.4404 475.292 29.4404C475.724 29.4404 476.081 29.3466 476.38 29.1675C476.679 28.9884 476.92 28.7496 477.111 28.4682C477.302 28.1782 477.443 27.8541 477.526 27.4874C477.601 27.1207 477.643 26.7454 477.643 26.3617ZM480.956 18.6436H482.833V20.4686H480.956V18.6436ZM480.956 21.9781H482.833V30.7282H480.956V21.9781ZM484.51 18.6436H486.387V30.7282H484.51V18.6436ZM492.142 30.967C491.461 30.967 490.855 30.8476 490.324 30.6173C489.792 30.387 489.344 30.063 488.97 29.6621C488.605 29.2528 488.322 28.7667 488.131 28.2038C487.94 27.6409 487.841 27.0183 487.841 26.3446C487.841 25.6794 487.94 25.0654 488.131 24.5025C488.322 23.9396 488.605 23.4535 488.97 23.0442C489.335 22.6348 489.792 22.3193 490.324 22.089C490.855 21.8587 491.461 21.7393 492.142 21.7393C492.823 21.7393 493.429 21.8587 493.961 22.089C494.492 22.3193 494.941 22.6433 495.315 23.0442C495.68 23.4535 495.962 23.9396 496.153 24.5025C496.344 25.0654 496.444 25.6794 496.444 26.3446C496.444 27.0183 496.344 27.6409 496.153 28.2038C495.962 28.7667 495.68 29.2528 495.315 29.6621C494.949 30.0715 494.492 30.387 493.961 30.6173C493.429 30.8476 492.823 30.967 492.142 30.967ZM492.142 29.4404C492.557 29.4404 492.923 29.3466 493.23 29.1675C493.537 28.9884 493.787 28.7496 493.986 28.4596C494.185 28.1697 494.326 27.8371 494.426 27.4703C494.517 27.1036 494.567 26.7284 494.567 26.3446C494.567 25.9694 494.517 25.6027 494.426 25.2274C494.335 24.8522 494.185 24.5281 493.986 24.2381C493.787 23.9482 493.537 23.7179 493.23 23.5388C492.923 23.3597 492.557 23.2659 492.142 23.2659C491.727 23.2659 491.362 23.3597 491.054 23.5388C490.747 23.7179 490.498 23.9567 490.299 24.2381C490.099 24.5281 489.958 24.8522 489.859 25.2274C489.767 25.6027 489.717 25.9694 489.717 26.3446C489.717 26.7284 489.767 27.1036 489.859 27.4703C489.95 27.8371 490.099 28.1697 490.299 28.4596C490.498 28.7496 490.747 28.9884 491.054 29.1675C491.362 29.3551 491.727 29.4404 492.142 29.4404ZM496.992 21.9781H498.412V19.3514H500.289V21.9781H501.983V23.4194H500.289V28.0929C500.289 28.2976 500.297 28.4682 500.314 28.6217C500.331 28.7667 500.372 28.8946 500.43 28.9969C500.488 29.0993 500.58 29.176 500.704 29.2272C500.829 29.2783 500.987 29.3039 501.203 29.3039C501.335 29.3039 501.468 29.3039 501.601 29.2954C501.734 29.2869 501.867 29.2698 502 29.2357V30.7282C501.792 30.7537 501.585 30.7708 501.394 30.7964C501.194 30.822 500.995 30.8305 500.787 30.8305C500.289 30.8305 499.89 30.7793 499.591 30.6855C499.292 30.5917 499.052 30.4467 498.886 30.2591C498.711 30.0715 498.603 29.8412 498.537 29.5598C498.479 29.2783 498.437 28.9543 498.429 28.5961V23.4365H497.009V21.9781H496.992Z" fill="white"/>
<defs>
<linearGradient id="paint0_linear_1001_2307" x1="0" y1="25" x2="622" y2="25" gradientUnits="userSpaceOnUse">
<stop stop-color="#0D0C1D" stop-opacity="0"/>
<stop offset="0.5" stop-color="#0D0C1D"/>
<stop offset="1" stop-color="#0D0C1D" stop-opacity="0"/>
</linearGradient>
<linearGradient id="paint1_linear_1001_2307" x1="167" y1="17.5" x2="167" y2="31.5" gradientUnits="userSpaceOnUse">
<stop stop-color="#FFAE00"/>
<stop offset="1" stop-color="#FF8800"/>
</linearGradient>
<linearGradient id="paint2_linear_1001_2307" x1="167" y1="17.5" x2="167" y2="31.5" gradientUnits="userSpaceOnUse">
<stop stop-color="#FFAE00"/>
<stop offset="1" stop-color="#FF8800"/>
</linearGradient>
<linearGradient id="paint3_linear_1001_2307" x1="167" y1="17.5" x2="167" y2="31.5" gradientUnits="userSpaceOnUse">
<stop stop-color="#FFAE00"/>
<stop offset="1" stop-color="#FF8800"/>
</linearGradient>
<linearGradient id="paint4_linear_1001_2307" x1="167" y1="17.5" x2="167" y2="31.5" gradientUnits="userSpaceOnUse">
<stop stop-color="#FFAE00"/>
<stop offset="1" stop-color="#FF8800"/>
</linearGradient>
<linearGradient id="paint5_linear_1001_2307" x1="167" y1="17.5" x2="167" y2="31.5" gradientUnits="userSpaceOnUse">
<stop stop-color="#FFAE00"/>
<stop offset="1" stop-color="#FF8800"/>
</linearGradient>
</defs>
</svg>
