<svg width="1440" height="60" viewBox="0 0 1440 60" fill="none" xmlns="http://www.w3.org/2000/svg">
<rect width="1440" height="60" fill="#0D0C1D" fill-opacity="0.5"/>
<path d="M100.771 37.6946L92.7881 21.9032H97.7779L102.269 30.7858L106.759 21.9032H111.749L103.766 37.6946H100.772H100.771Z" fill="white"/>
<path d="M114.522 37.6946V21.9032H118.514V37.6946H114.522Z" fill="white"/>
<path d="M120.292 37.6946V21.9032H132.267L134.263 23.877V29.7983L132.267 31.7721H131.269L134.263 37.6935H130.272L126.28 29.7983V27.8245H130.272V25.8508H124.285V37.6946H120.293H120.292Z" fill="white"/>
<path d="M141.03 37.6946V25.8508H136.041V21.9032H152.007L148.016 25.8508H145.022V37.6946H141.03Z" fill="white"/>
<path d="M155.781 37.6946L153.785 35.7208V23.877L155.781 21.9032H167.756L165.761 25.8508H157.778V33.7459H163.765V29.7983L161.769 27.8245H167.756V37.6946H155.781Z" fill="white"/>
<path d="M171.528 37.6946L169.533 35.7208V23.877L171.528 21.9032H181.508L183.504 23.877V35.7208L181.508 37.6946H171.528ZM179.512 33.7459V25.8508H173.525V33.7459H179.512Z" fill="white"/>
<path d="M185.282 37.6946V21.9032H189.273V33.7471H199.253L197.257 37.6946H185.282Z" fill="white"/>
<path d="M201.029 37.6946V21.9032H213.004L215 23.877V35.7208L213.004 37.6946H201.029ZM211.009 33.7459V25.8508H205.021V33.7459H211.009Z" fill="white"/>
<path d="M86.26 25.1956L84.306 28.402L81.8027 32.5086L80.4909 34.6603L78.525 37.8879L76.5579 34.6603L75.619 33.1214L73.6519 29.8938L67.8244 20.3325L65.793 17H85.4462L83.4148 20.3325L81.3285 23.7545H77.3943L79.4805 20.3325H71.7574L75.619 26.6674L77.5861 29.895L78.525 31.4339L79.8368 29.2822L80.3729 28.402H79.2994L78.8979 27.7421L77.3454 25.1956H86.26Z" fill="#FF9D00"/>
<path d="M91.2553 17L89.2239 20.3325L87.1376 23.7545H83.2046L85.2908 20.3325L87.3223 17H91.2553Z" fill="#FF9D00"/>
<path d="M77.5956 39.4116L75.6285 42.6391L73.6613 39.4116L72.7237 37.8726L70.7566 34.6462V34.645L60 17H63.9342L72.7237 31.4186L74.6908 34.645V34.6462L75.6285 36.1852L77.5956 39.4116Z" fill="#FF9D00"/>
<g filter="url(#filter0_d_1001_2894)">
<rect x="1268" y="14" width="32" height="32" rx="6" fill="#191829"/>
</g>
<g filter="url(#filter1_d_1001_2894)">
<rect x="1228" y="14" width="32" height="32" rx="6" fill="#191829"/>
</g>
<g filter="url(#filter2_d_1001_2894)">
<rect x="1188" y="14" width="32" height="32" rx="6" fill="#191829"/>
</g>
<rect x="1100" y="14" width="80" height="32" rx="6" fill="url(#paint0_linear_1001_2894)"/>
<g filter="url(#filter3_d_1001_2894)">
<rect x="554" y="12" width="333" height="36" rx="8" fill="#19182D" fill-opacity="0.5" shape-rendering="crispEdges"/>
<rect x="554.5" y="12.5" width="332" height="35" rx="7.5" stroke="#2B2A42" shape-rendering="crispEdges"/>
</g>
<path d="M571.104 34.096C570.568 34.096 570.06 34.024 569.58 33.88C569.108 33.728 568.704 33.484 568.368 33.148C568.032 32.804 567.804 32.348 567.684 31.78H568.776C568.888 32.14 569.068 32.42 569.316 32.62C569.572 32.82 569.864 32.96 570.192 33.04C570.52 33.112 570.848 33.148 571.176 33.148C571.504 33.148 571.808 33.104 572.088 33.016C572.376 32.92 572.608 32.768 572.784 32.56C572.968 32.352 573.06 32.084 573.06 31.756C573.06 31.5 573.012 31.292 572.916 31.132C572.828 30.972 572.7 30.844 572.532 30.748C572.372 30.644 572.18 30.56 571.956 30.496C571.66 30.4 571.344 30.32 571.008 30.256C570.672 30.192 570.34 30.116 570.012 30.028C569.692 29.94 569.392 29.828 569.112 29.692C568.96 29.612 568.812 29.516 568.668 29.404C568.532 29.284 568.412 29.148 568.308 28.996C568.212 28.836 568.132 28.656 568.068 28.456C568.012 28.256 567.984 28.036 567.984 27.796C567.984 27.436 568.04 27.124 568.152 26.86C568.264 26.596 568.416 26.372 568.608 26.188C568.8 26.004 569.024 25.856 569.28 25.744C569.536 25.632 569.808 25.552 570.096 25.504C570.392 25.448 570.688 25.42 570.984 25.42C571.472 25.42 571.928 25.496 572.352 25.648C572.784 25.792 573.14 26.028 573.42 26.356C573.708 26.684 573.864 27.128 573.888 27.688H572.868C572.828 27.352 572.716 27.088 572.532 26.896C572.348 26.704 572.12 26.568 571.848 26.488C571.576 26.408 571.288 26.368 570.984 26.368C570.76 26.368 570.532 26.388 570.3 26.428C570.076 26.468 569.868 26.54 569.676 26.644C569.492 26.74 569.344 26.876 569.232 27.052C569.12 27.22 569.064 27.436 569.064 27.7C569.064 27.908 569.1 28.092 569.172 28.252C569.252 28.412 569.356 28.548 569.484 28.66C569.62 28.764 569.768 28.852 569.928 28.924C570.312 29.084 570.736 29.204 571.2 29.284C571.672 29.356 572.112 29.464 572.52 29.608C572.76 29.688 572.98 29.788 573.18 29.908C573.38 30.028 573.548 30.168 573.684 30.328C573.828 30.488 573.936 30.672 574.008 30.88C574.088 31.08 574.128 31.308 574.128 31.564C574.128 32.028 574.048 32.424 573.888 32.752C573.728 33.072 573.508 33.332 573.228 33.532C572.948 33.732 572.624 33.876 572.256 33.964C571.896 34.052 571.512 34.096 571.104 34.096ZM578.368 34.072C577.696 34.072 577.14 33.936 576.7 33.664C576.26 33.384 575.932 33 575.716 32.512C575.5 32.024 575.392 31.468 575.392 30.844C575.392 30.212 575.504 29.656 575.728 29.176C575.96 28.688 576.296 28.304 576.736 28.024C577.176 27.744 577.716 27.604 578.356 27.604C578.852 27.604 579.276 27.7 579.628 27.892C579.988 28.076 580.284 28.324 580.516 28.636C580.748 28.948 580.916 29.292 581.02 29.668C581.124 30.036 581.168 30.408 581.152 30.784C581.144 30.856 581.136 30.928 581.128 31C581.128 31.072 581.124 31.144 581.116 31.216H576.424C576.456 31.584 576.548 31.916 576.7 32.212C576.852 32.508 577.068 32.744 577.348 32.92C577.628 33.088 577.976 33.172 578.392 33.172C578.6 33.172 578.808 33.148 579.016 33.1C579.232 33.044 579.424 32.952 579.592 32.824C579.768 32.696 579.892 32.524 579.964 32.308H581.008C580.912 32.716 580.732 33.052 580.468 33.316C580.204 33.572 579.888 33.764 579.52 33.892C579.152 34.012 578.768 34.072 578.368 34.072ZM576.448 30.328H580.108C580.1 29.968 580.02 29.652 579.868 29.38C579.716 29.108 579.508 28.896 579.244 28.744C578.988 28.592 578.68 28.516 578.32 28.516C577.928 28.516 577.596 28.6 577.324 28.768C577.06 28.936 576.856 29.156 576.712 29.428C576.568 29.7 576.48 30 576.448 30.328ZM584.539 34.072C584.251 34.072 583.971 34.036 583.699 33.964C583.435 33.884 583.195 33.768 582.979 33.616C582.771 33.456 582.603 33.26 582.475 33.028C582.355 32.788 582.295 32.512 582.295 32.2C582.295 31.84 582.359 31.536 582.487 31.288C582.623 31.04 582.803 30.844 583.027 30.7C583.251 30.556 583.511 30.452 583.807 30.388C584.103 30.324 584.411 30.292 584.731 30.292H586.591C586.591 29.932 586.539 29.62 586.435 29.356C586.339 29.092 586.179 28.888 585.955 28.744C585.731 28.592 585.435 28.516 585.067 28.516C584.843 28.516 584.635 28.54 584.443 28.588C584.251 28.636 584.087 28.712 583.951 28.816C583.815 28.92 583.715 29.06 583.651 29.236H582.559C582.615 28.948 582.723 28.704 582.883 28.504C583.051 28.296 583.251 28.128 583.483 28C583.723 27.864 583.979 27.764 584.251 27.7C584.523 27.636 584.795 27.604 585.067 27.604C585.979 27.604 586.627 27.872 587.011 28.408C587.395 28.944 587.587 29.668 587.587 30.58V34H586.735L586.675 33.196C586.499 33.436 586.287 33.62 586.039 33.748C585.791 33.876 585.535 33.96 585.271 34C585.015 34.048 584.771 34.072 584.539 34.072ZM584.635 33.172C585.035 33.172 585.379 33.108 585.667 32.98C585.963 32.844 586.191 32.648 586.351 32.392C586.511 32.136 586.591 31.824 586.591 31.456V31.144H585.475C585.211 31.144 584.951 31.148 584.695 31.156C584.439 31.164 584.207 31.196 583.999 31.252C583.791 31.308 583.623 31.404 583.495 31.54C583.375 31.676 583.315 31.872 583.315 32.128C583.315 32.368 583.375 32.564 583.495 32.716C583.623 32.868 583.787 32.984 583.987 33.064C584.195 33.136 584.411 33.172 584.635 33.172ZM589.167 34V27.676H590.151L590.199 28.66C590.359 28.412 590.543 28.212 590.751 28.06C590.967 27.908 591.203 27.796 591.459 27.724C591.723 27.644 592.007 27.604 592.311 27.604C592.367 27.604 592.419 27.604 592.467 27.604C592.523 27.604 592.579 27.604 592.635 27.604V28.564H592.263C591.767 28.564 591.363 28.672 591.051 28.888C590.747 29.096 590.527 29.38 590.391 29.74C590.255 30.092 590.187 30.484 590.187 30.916V34H589.167ZM596.227 34.072C595.563 34.072 595.011 33.936 594.571 33.664C594.139 33.384 593.815 33 593.599 32.512C593.391 32.024 593.287 31.472 593.287 30.856C593.287 30.256 593.395 29.712 593.611 29.224C593.835 28.728 594.171 28.336 594.619 28.048C595.075 27.752 595.651 27.604 596.347 27.604C596.779 27.604 597.163 27.676 597.499 27.82C597.843 27.964 598.127 28.176 598.351 28.456C598.575 28.728 598.731 29.072 598.819 29.488H597.775C597.655 29.136 597.463 28.888 597.199 28.744C596.943 28.592 596.639 28.516 596.287 28.516C595.807 28.516 595.423 28.628 595.135 28.852C594.847 29.076 594.635 29.368 594.499 29.728C594.371 30.08 594.307 30.456 594.307 30.856C594.307 31.272 594.375 31.656 594.511 32.008C594.647 32.36 594.859 32.644 595.147 32.86C595.435 33.068 595.807 33.172 596.263 33.172C596.599 33.172 596.915 33.1 597.211 32.956C597.515 32.812 597.715 32.556 597.811 32.188H598.867C598.787 32.62 598.615 32.976 598.351 33.256C598.095 33.536 597.779 33.744 597.403 33.88C597.035 34.008 596.643 34.072 596.227 34.072ZM600.159 34V25.516H601.179V28.648C601.331 28.424 601.515 28.236 601.731 28.084C601.955 27.924 602.199 27.804 602.463 27.724C602.727 27.644 602.999 27.604 603.279 27.604C603.895 27.604 604.375 27.732 604.719 27.988C605.071 28.244 605.319 28.592 605.463 29.032C605.607 29.464 605.679 29.96 605.679 30.52V34H604.659V30.832C604.659 30.552 604.639 30.276 604.599 30.004C604.567 29.724 604.499 29.472 604.395 29.248C604.291 29.024 604.131 28.844 603.915 28.708C603.707 28.572 603.423 28.504 603.063 28.504C602.719 28.504 602.423 28.58 602.175 28.732C601.935 28.884 601.743 29.088 601.599 29.344C601.455 29.592 601.347 29.868 601.275 30.172C601.211 30.468 601.179 30.76 601.179 31.048V34H600.159ZM607.969 34.096C607.761 34.096 607.589 34.028 607.453 33.892C607.317 33.756 607.249 33.584 607.249 33.376C607.249 33.168 607.317 32.996 607.453 32.86C607.589 32.724 607.761 32.656 607.969 32.656C608.177 32.656 608.349 32.724 608.485 32.86C608.621 32.996 608.689 33.168 608.689 33.376C608.689 33.584 608.621 33.756 608.485 33.892C608.349 34.028 608.177 34.096 607.969 34.096ZM611.016 34.096C610.808 34.096 610.636 34.028 610.5 33.892C610.364 33.756 610.296 33.584 610.296 33.376C610.296 33.168 610.364 32.996 610.5 32.86C610.636 32.724 610.808 32.656 611.016 32.656C611.224 32.656 611.396 32.724 611.532 32.86C611.668 32.996 611.736 33.168 611.736 33.376C611.736 33.584 611.668 33.756 611.532 33.892C611.396 34.028 611.224 34.096 611.016 34.096ZM614.063 34.096C613.855 34.096 613.683 34.028 613.547 33.892C613.411 33.756 613.343 33.584 613.343 33.376C613.343 33.168 613.411 32.996 613.547 32.86C613.683 32.724 613.855 32.656 614.063 32.656C614.271 32.656 614.443 32.724 614.579 32.86C614.715 32.996 614.783 33.168 614.783 33.376C614.783 33.584 614.715 33.756 614.579 33.892C614.443 34.028 614.271 34.096 614.063 34.096Z" fill="#BDBADF"/>
<path d="M876.984 36.4624L874.227 33.7224C875.276 32.3496 875.851 30.6845 875.851 28.9274C875.851 26.81 875.027 24.8191 873.529 23.3219C872.032 21.8247 870.041 21 867.924 21C865.806 21 863.815 21.8247 862.318 23.3219C859.227 26.413 859.227 31.4423 862.318 34.5329C863.815 36.0304 865.806 36.8551 867.924 36.8551C869.681 36.8549 871.346 36.2797 872.719 35.2311L875.475 37.9711C875.684 38.1794 875.957 38.2836 876.23 38.2836C876.503 38.2836 876.776 38.1794 876.984 37.9711C877.401 37.5545 877.401 36.8789 876.984 36.4624ZM863.827 33.0242C861.568 30.7654 861.568 27.0897 863.827 24.8306C864.921 23.7366 866.376 23.1338 867.924 23.1338C869.471 23.1338 870.926 23.7366 872.02 24.8306C873.115 25.9249 873.717 27.3799 873.717 28.9274C873.717 30.4752 873.115 31.93 872.02 33.0242C870.926 34.1185 869.471 34.7212 867.924 34.7212C866.376 34.7212 864.921 34.1185 863.827 33.0242Z" fill="#FF9D00"/>
<path d="M1242.81 35.9758C1240.69 34.3935 1236.5 30.7761 1236.5 27.5208C1236.5 25.3692 1238.08 23.625 1240.25 23.625C1241.38 23.625 1242.5 24 1244 25.5C1245.5 24 1246.62 23.625 1247.75 23.625C1249.92 23.625 1251.5 25.3692 1251.5 27.5208C1251.5 30.7761 1247.31 34.3935 1245.19 35.9758C1244.48 36.5082 1243.52 36.5082 1242.81 35.9758Z" stroke="white" stroke-width="1.5" stroke-linecap="round" stroke-linejoin="round"/>
<path d="M1277.49 30.7585C1277.76 28.5068 1278.14 26.8184 1278.5 25.6189C1278.79 24.6353 1278.93 24.1436 1279.53 23.6968C1280.13 23.25 1280.74 23.25 1281.97 23.25H1286.03C1287.26 23.25 1287.87 23.25 1288.47 23.6968C1289.07 24.1436 1289.21 24.6353 1289.5 25.6189C1289.86 26.8184 1290.24 28.5068 1290.51 30.7585C1290.82 33.4123 1290.97 34.7392 1290.08 35.7446C1289.18 36.75 1287.73 36.75 1284.83 36.75H1283.17C1280.27 36.75 1278.82 36.75 1277.92 35.7446C1277.03 34.7392 1277.18 33.4123 1277.49 30.7585Z" stroke="white" stroke-width="1.5" stroke-linecap="round" stroke-linejoin="round"/>
<path d="M1281.75 26.25C1281.75 27.4926 1282.76 28.5 1284 28.5C1285.24 28.5 1286.25 27.4926 1286.25 26.25" stroke="white" stroke-width="1.5" stroke-linecap="round" stroke-linejoin="round"/>
<g filter="url(#filter4_d_1001_2894)">
<rect x="1308" y="14" width="72" height="32" rx="6" fill="#191829"/>
</g>
<path d="M1319.95 34V25.516H1325.94V26.884H1321.45V29.116H1325.35V30.46H1321.45V32.632H1325.94V34H1319.95ZM1330.82 34.096C1330.01 34.096 1329.35 33.94 1328.83 33.628C1328.31 33.308 1327.93 32.86 1327.68 32.284C1327.43 31.708 1327.31 31.028 1327.31 30.244V25.516H1328.81V30.28C1328.81 30.712 1328.87 31.116 1328.99 31.492C1329.11 31.86 1329.33 32.156 1329.62 32.38C1329.93 32.604 1330.33 32.716 1330.85 32.716C1331.37 32.716 1331.77 32.604 1332.05 32.38C1332.33 32.148 1332.53 31.848 1332.65 31.48C1332.77 31.112 1332.83 30.712 1332.83 30.28V25.516H1334.34V30.244C1334.34 31.02 1334.21 31.696 1333.97 32.272C1333.72 32.848 1333.34 33.296 1332.83 33.616C1332.31 33.936 1331.65 34.096 1330.82 34.096ZM1336.18 34V25.516H1339.53C1339.96 25.516 1340.37 25.56 1340.75 25.648C1341.13 25.728 1341.47 25.872 1341.77 26.08C1342.07 26.28 1342.3 26.556 1342.47 26.908C1342.63 27.26 1342.72 27.696 1342.72 28.216C1342.72 28.648 1342.64 29.028 1342.49 29.356C1342.34 29.684 1342.13 29.96 1341.85 30.184C1341.59 30.408 1341.27 30.58 1340.91 30.7L1342.77 34H1341.09L1339.42 30.94H1337.68V34H1336.18ZM1337.68 29.608H1339.32C1339.59 29.608 1339.84 29.588 1340.07 29.548C1340.3 29.5 1340.5 29.424 1340.67 29.32C1340.84 29.216 1340.97 29.076 1341.06 28.9C1341.16 28.716 1341.21 28.484 1341.22 28.204C1341.22 27.868 1341.15 27.604 1341 27.412C1340.87 27.22 1340.67 27.084 1340.4 27.004C1340.15 26.924 1339.84 26.884 1339.48 26.884H1337.68V29.608Z" fill="white"/>
<rect x="1366" y="28.7072" width="1" height="4" rx="0.5" transform="rotate(-45 1366 28.7072)" fill="white"/>
<rect x="1370.95" y="28" width="1" height="4" rx="0.5" transform="rotate(45 1370.95 28)" fill="white"/>
<path d="M271.488 34.096C270.608 34.096 269.876 33.912 269.292 33.544C268.716 33.168 268.284 32.656 267.996 32.008C267.716 31.36 267.576 30.62 267.576 29.788C267.576 29.164 267.652 28.588 267.804 28.06C267.964 27.532 268.204 27.072 268.524 26.68C268.844 26.28 269.244 25.972 269.724 25.756C270.212 25.532 270.784 25.42 271.44 25.42C272.064 25.42 272.608 25.516 273.072 25.708C273.536 25.9 273.916 26.168 274.212 26.512C274.516 26.856 274.728 27.264 274.848 27.736H273.708C273.628 27.456 273.484 27.216 273.276 27.016C273.068 26.808 272.808 26.648 272.496 26.536C272.184 26.424 271.828 26.368 271.428 26.368C270.932 26.368 270.508 26.456 270.156 26.632C269.804 26.808 269.516 27.052 269.292 27.364C269.068 27.668 268.904 28.028 268.8 28.444C268.696 28.852 268.644 29.292 268.644 29.764C268.644 30.388 268.744 30.956 268.944 31.468C269.144 31.98 269.452 32.388 269.868 32.692C270.284 32.996 270.82 33.148 271.476 33.148C272.02 33.148 272.484 33.052 272.868 32.86C273.252 32.66 273.548 32.376 273.756 32.008C273.964 31.632 274.068 31.184 274.068 30.664H271.284V29.716H275.064V30.424C275.064 31.16 274.92 31.804 274.632 32.356C274.344 32.908 273.932 33.336 273.396 33.64C272.868 33.944 272.232 34.096 271.488 34.096ZM278.469 34.072C278.181 34.072 277.901 34.036 277.629 33.964C277.365 33.884 277.125 33.768 276.909 33.616C276.701 33.456 276.533 33.26 276.405 33.028C276.285 32.788 276.225 32.512 276.225 32.2C276.225 31.84 276.289 31.536 276.417 31.288C276.553 31.04 276.733 30.844 276.957 30.7C277.181 30.556 277.441 30.452 277.737 30.388C278.033 30.324 278.341 30.292 278.661 30.292H280.521C280.521 29.932 280.469 29.62 280.365 29.356C280.269 29.092 280.109 28.888 279.885 28.744C279.661 28.592 279.365 28.516 278.997 28.516C278.773 28.516 278.565 28.54 278.373 28.588C278.181 28.636 278.017 28.712 277.881 28.816C277.745 28.92 277.645 29.06 277.581 29.236H276.489C276.545 28.948 276.653 28.704 276.813 28.504C276.981 28.296 277.181 28.128 277.413 28C277.653 27.864 277.909 27.764 278.181 27.7C278.453 27.636 278.725 27.604 278.997 27.604C279.909 27.604 280.557 27.872 280.941 28.408C281.325 28.944 281.517 29.668 281.517 30.58V34H280.665L280.605 33.196C280.429 33.436 280.217 33.62 279.969 33.748C279.721 33.876 279.465 33.96 279.201 34C278.945 34.048 278.701 34.072 278.469 34.072ZM278.565 33.172C278.965 33.172 279.309 33.108 279.597 32.98C279.893 32.844 280.121 32.648 280.281 32.392C280.441 32.136 280.521 31.824 280.521 31.456V31.144H279.405C279.141 31.144 278.881 31.148 278.625 31.156C278.369 31.164 278.137 31.196 277.929 31.252C277.721 31.308 277.553 31.404 277.425 31.54C277.305 31.676 277.245 31.872 277.245 32.128C277.245 32.368 277.305 32.564 277.425 32.716C277.553 32.868 277.717 32.984 277.917 33.064C278.125 33.136 278.341 33.172 278.565 33.172ZM283.097 34V27.676H284.081L284.129 28.432C284.265 28.24 284.417 28.084 284.585 27.964C284.761 27.844 284.953 27.756 285.161 27.7C285.377 27.636 285.605 27.604 285.845 27.604C286.285 27.604 286.641 27.7 286.913 27.892C287.185 28.076 287.389 28.32 287.525 28.624C287.669 28.408 287.833 28.224 288.017 28.072C288.209 27.92 288.421 27.804 288.653 27.724C288.893 27.644 289.157 27.604 289.445 27.604C289.909 27.604 290.281 27.704 290.561 27.904C290.849 28.104 291.057 28.376 291.185 28.72C291.313 29.056 291.377 29.436 291.377 29.86V34H290.357V30.376C290.357 30.168 290.345 29.956 290.321 29.74C290.305 29.524 290.257 29.324 290.177 29.14C290.097 28.948 289.977 28.796 289.817 28.684C289.665 28.564 289.449 28.504 289.169 28.504C288.905 28.504 288.681 28.568 288.497 28.696C288.321 28.816 288.177 28.98 288.065 29.188C287.953 29.396 287.873 29.62 287.825 29.86C287.777 30.092 287.753 30.324 287.753 30.556V34H286.733V30.364C286.733 30.164 286.721 29.956 286.697 29.74C286.681 29.524 286.637 29.324 286.565 29.14C286.501 28.948 286.389 28.796 286.229 28.684C286.077 28.564 285.865 28.504 285.593 28.504C285.209 28.504 284.909 28.616 284.693 28.84C284.477 29.056 284.325 29.324 284.237 29.644C284.157 29.956 284.117 30.264 284.117 30.568V34H283.097ZM295.665 34.072C294.993 34.072 294.437 33.936 293.997 33.664C293.557 33.384 293.229 33 293.013 32.512C292.797 32.024 292.689 31.468 292.689 30.844C292.689 30.212 292.801 29.656 293.025 29.176C293.257 28.688 293.593 28.304 294.033 28.024C294.473 27.744 295.013 27.604 295.653 27.604C296.149 27.604 296.573 27.7 296.925 27.892C297.285 28.076 297.581 28.324 297.813 28.636C298.045 28.948 298.213 29.292 298.317 29.668C298.421 30.036 298.465 30.408 298.449 30.784C298.441 30.856 298.433 30.928 298.425 31C298.425 31.072 298.421 31.144 298.413 31.216H293.721C293.753 31.584 293.845 31.916 293.997 32.212C294.149 32.508 294.365 32.744 294.645 32.92C294.925 33.088 295.273 33.172 295.689 33.172C295.897 33.172 296.105 33.148 296.313 33.1C296.529 33.044 296.721 32.952 296.889 32.824C297.065 32.696 297.189 32.524 297.261 32.308H298.305C298.209 32.716 298.029 33.052 297.765 33.316C297.501 33.572 297.185 33.764 296.817 33.892C296.449 34.012 296.065 34.072 295.665 34.072ZM293.745 30.328H297.405C297.397 29.968 297.317 29.652 297.165 29.38C297.013 29.108 296.805 28.896 296.541 28.744C296.285 28.592 295.977 28.516 295.617 28.516C295.225 28.516 294.893 28.6 294.621 28.768C294.357 28.936 294.153 29.156 294.009 29.428C293.865 29.7 293.777 30 293.745 30.328ZM302.112 34.072C301.824 34.072 301.532 34.044 301.236 33.988C300.948 33.932 300.676 33.836 300.42 33.7C300.172 33.564 299.964 33.38 299.796 33.148C299.628 32.916 299.52 32.628 299.472 32.284H300.504C300.584 32.5 300.712 32.676 300.888 32.812C301.072 32.94 301.276 33.032 301.5 33.088C301.732 33.144 301.952 33.172 302.16 33.172C302.288 33.172 302.436 33.164 302.604 33.148C302.772 33.132 302.932 33.096 303.084 33.04C303.244 32.976 303.372 32.884 303.468 32.764C303.572 32.644 303.624 32.476 303.624 32.26C303.624 32.1 303.588 31.968 303.516 31.864C303.444 31.76 303.344 31.676 303.216 31.612C303.088 31.54 302.932 31.488 302.748 31.456C302.372 31.376 301.968 31.3 301.536 31.228C301.112 31.156 300.736 31.02 300.408 30.82C300.296 30.748 300.192 30.668 300.096 30.58C300.008 30.484 299.932 30.38 299.868 30.268C299.804 30.148 299.752 30.02 299.712 29.884C299.68 29.74 299.664 29.584 299.664 29.416C299.664 29.104 299.724 28.836 299.844 28.612C299.972 28.38 300.148 28.192 300.372 28.048C300.596 27.896 300.852 27.784 301.14 27.712C301.436 27.64 301.752 27.604 302.088 27.604C302.504 27.604 302.876 27.672 303.204 27.808C303.54 27.936 303.816 28.128 304.032 28.384C304.248 28.632 304.376 28.94 304.416 29.308H303.468C303.412 29.076 303.26 28.888 303.012 28.744C302.764 28.592 302.448 28.516 302.064 28.516C301.936 28.516 301.792 28.528 301.632 28.552C301.472 28.568 301.32 28.608 301.176 28.672C301.032 28.728 300.912 28.816 300.816 28.936C300.72 29.048 300.672 29.2 300.672 29.392C300.672 29.568 300.716 29.716 300.804 29.836C300.9 29.956 301.032 30.052 301.2 30.124C301.368 30.196 301.56 30.256 301.776 30.304C302.056 30.36 302.364 30.42 302.7 30.484C303.036 30.54 303.3 30.6 303.492 30.664C303.748 30.744 303.96 30.856 304.128 31C304.304 31.144 304.432 31.316 304.512 31.516C304.6 31.716 304.644 31.948 304.644 32.212C304.644 32.588 304.568 32.896 304.416 33.136C304.272 33.376 304.076 33.564 303.828 33.7C303.58 33.836 303.304 33.932 303 33.988C302.704 34.044 302.408 34.072 302.112 34.072Z" fill="#BDBADF"/>
<rect x="255" y="28.7072" width="1" height="4" rx="0.5" transform="rotate(-45 255 28.7072)" fill="white"/>
<rect x="259.949" y="28" width="1" height="4" rx="0.5" transform="rotate(45 259.949 28)" fill="white"/>
<path d="M1208 26C1208 23.7909 1206.21 22 1204 22C1201.79 22 1200 23.7909 1200 26C1200 28.2091 1201.79 30 1204 30C1206.21 30 1208 28.2091 1208 26Z" stroke="white" stroke-width="1.5" stroke-linecap="round" stroke-linejoin="round"/>
<path d="M1197 38V37C1197 34.7909 1198.79 33 1201 33H1207C1209.21 33 1211 34.7909 1211 37V38" stroke="white" stroke-width="1.5" stroke-linecap="round"/>
<path d="M1118.1 34.096C1117.54 34.096 1117 34.012 1116.5 33.844C1116 33.668 1115.58 33.392 1115.25 33.016C1114.91 32.632 1114.69 32.132 1114.59 31.516H1116.11C1116.21 31.828 1116.36 32.072 1116.57 32.248C1116.78 32.424 1117.04 32.548 1117.32 32.62C1117.61 32.684 1117.9 32.716 1118.2 32.716C1118.46 32.716 1118.71 32.684 1118.94 32.62C1119.18 32.548 1119.38 32.432 1119.53 32.272C1119.69 32.112 1119.77 31.9 1119.77 31.636C1119.77 31.436 1119.73 31.276 1119.64 31.156C1119.56 31.028 1119.44 30.924 1119.29 30.844C1119.15 30.756 1118.97 30.688 1118.76 30.64C1118.56 30.576 1118.35 30.52 1118.12 30.472C1117.88 30.424 1117.66 30.372 1117.43 30.316C1117.21 30.26 1117 30.188 1116.8 30.1C1116.54 30.012 1116.29 29.912 1116.05 29.8C1115.82 29.68 1115.62 29.536 1115.44 29.368C1115.27 29.2 1115.14 28.992 1115.03 28.744C1114.93 28.496 1114.88 28.2 1114.88 27.856C1114.88 27.464 1114.94 27.128 1115.07 26.848C1115.2 26.56 1115.38 26.324 1115.6 26.14C1115.82 25.956 1116.07 25.812 1116.34 25.708C1116.62 25.604 1116.91 25.528 1117.2 25.48C1117.51 25.432 1117.8 25.408 1118.07 25.408C1118.6 25.408 1119.08 25.496 1119.51 25.672C1119.95 25.848 1120.31 26.12 1120.59 26.488C1120.87 26.856 1121.03 27.328 1121.07 27.904H1119.62C1119.58 27.632 1119.49 27.416 1119.33 27.256C1119.17 27.088 1118.97 26.968 1118.73 26.896C1118.49 26.816 1118.23 26.776 1117.95 26.776C1117.76 26.776 1117.56 26.792 1117.37 26.824C1117.19 26.856 1117.02 26.912 1116.87 26.992C1116.72 27.072 1116.6 27.18 1116.51 27.316C1116.42 27.444 1116.38 27.608 1116.38 27.808C1116.38 27.984 1116.42 28.14 1116.51 28.276C1116.6 28.404 1116.72 28.512 1116.87 28.6C1117.03 28.688 1117.22 28.768 1117.43 28.84C1117.71 28.952 1118.02 29.036 1118.34 29.092C1118.68 29.148 1119 29.224 1119.29 29.32C1119.58 29.4 1119.84 29.5 1120.08 29.62C1120.33 29.732 1120.54 29.872 1120.72 30.04C1120.9 30.2 1121.03 30.4 1121.13 30.64C1121.23 30.872 1121.28 31.152 1121.28 31.48C1121.28 31.96 1121.2 32.368 1121.02 32.704C1120.85 33.032 1120.62 33.3 1120.31 33.508C1120.02 33.716 1119.68 33.868 1119.29 33.964C1118.92 34.052 1118.52 34.096 1118.1 34.096ZM1125.43 34.084C1124.77 34.084 1124.21 33.948 1123.75 33.676C1123.29 33.404 1122.94 33.028 1122.7 32.548C1122.47 32.06 1122.35 31.496 1122.35 30.856C1122.35 30.216 1122.47 29.652 1122.71 29.164C1122.96 28.668 1123.31 28.28 1123.77 28C1124.23 27.72 1124.79 27.58 1125.44 27.58C1125.92 27.58 1126.34 27.668 1126.7 27.844C1127.06 28.012 1127.36 28.244 1127.6 28.54C1127.85 28.836 1128.03 29.172 1128.15 29.548C1128.27 29.924 1128.33 30.32 1128.32 30.736C1128.31 30.832 1128.3 30.928 1128.29 31.024C1128.29 31.112 1128.27 31.208 1128.26 31.312H1123.82C1123.84 31.592 1123.91 31.848 1124.03 32.08C1124.16 32.312 1124.34 32.496 1124.56 32.632C1124.79 32.768 1125.08 32.836 1125.43 32.836C1125.63 32.836 1125.82 32.812 1126 32.764C1126.19 32.708 1126.35 32.628 1126.48 32.524C1126.63 32.42 1126.72 32.288 1126.77 32.128H1128.23C1128.13 32.584 1127.94 32.956 1127.66 33.244C1127.38 33.532 1127.04 33.744 1126.65 33.88C1126.27 34.016 1125.86 34.084 1125.43 34.084ZM1123.84 30.22H1126.89C1126.89 29.956 1126.83 29.716 1126.71 29.5C1126.59 29.284 1126.42 29.116 1126.19 28.996C1125.98 28.868 1125.71 28.804 1125.4 28.804C1125.07 28.804 1124.79 28.872 1124.56 29.008C1124.34 29.144 1124.17 29.32 1124.05 29.536C1123.93 29.752 1123.86 29.98 1123.84 30.22ZM1129.49 34V25.516H1130.95V34H1129.49ZM1132.37 34V25.516H1133.83V34H1132.37ZM1141.11 34.072C1140.41 34.072 1139.91 33.88 1139.59 33.496C1139.27 33.112 1139.11 32.58 1139.11 31.9V28.972H1138.13V27.676H1139.11V25.9H1140.57V27.676H1142.49V28.972H1140.57V31.624C1140.57 31.832 1140.59 32.02 1140.64 32.188C1140.69 32.356 1140.78 32.488 1140.91 32.584C1141.03 32.68 1141.21 32.732 1141.43 32.74C1141.63 32.74 1141.79 32.708 1141.93 32.644C1142.06 32.58 1142.17 32.508 1142.26 32.428L1142.75 33.544C1142.6 33.672 1142.43 33.776 1142.24 33.856C1142.05 33.936 1141.87 33.992 1141.67 34.024C1141.48 34.056 1141.29 34.072 1141.11 34.072ZM1146.44 34.084C1145.79 34.084 1145.23 33.952 1144.76 33.688C1144.3 33.424 1143.94 33.048 1143.68 32.56C1143.43 32.072 1143.31 31.5 1143.31 30.844C1143.31 30.18 1143.44 29.608 1143.69 29.128C1143.95 28.64 1144.31 28.26 1144.77 27.988C1145.24 27.716 1145.79 27.58 1146.44 27.58C1147.08 27.58 1147.63 27.716 1148.1 27.988C1148.56 28.26 1148.92 28.644 1149.16 29.14C1149.41 29.628 1149.54 30.204 1149.54 30.868C1149.54 31.516 1149.41 32.084 1149.16 32.572C1148.92 33.052 1148.57 33.424 1148.11 33.688C1147.64 33.952 1147.09 34.084 1146.44 34.084ZM1146.43 32.752C1146.83 32.752 1147.15 32.664 1147.39 32.488C1147.64 32.312 1147.82 32.08 1147.93 31.792C1148.04 31.504 1148.1 31.192 1148.1 30.856C1148.1 30.52 1148.04 30.204 1147.93 29.908C1147.82 29.612 1147.64 29.376 1147.39 29.2C1147.15 29.016 1146.83 28.924 1146.43 28.924C1146.03 28.924 1145.7 29.016 1145.46 29.2C1145.21 29.376 1145.03 29.612 1144.92 29.908C1144.8 30.196 1144.75 30.512 1144.75 30.856C1144.75 31.192 1144.8 31.508 1144.92 31.804C1145.04 32.092 1145.22 32.324 1145.46 32.5C1145.7 32.668 1146.03 32.752 1146.43 32.752ZM1156.84 34.084C1155.93 34.084 1155.23 33.848 1154.74 33.376C1154.26 32.904 1154.02 32.184 1154.02 31.216V27.676H1155.49V31.12C1155.49 31.456 1155.53 31.748 1155.62 31.996C1155.72 32.244 1155.86 32.436 1156.06 32.572C1156.27 32.7 1156.53 32.764 1156.84 32.764C1157.18 32.764 1157.44 32.696 1157.64 32.56C1157.84 32.416 1157.98 32.22 1158.06 31.972C1158.14 31.724 1158.18 31.44 1158.18 31.12V27.676H1159.64V31.216C1159.64 32.208 1159.39 32.936 1158.9 33.4C1158.41 33.856 1157.72 34.084 1156.84 34.084ZM1163.46 34.084C1163.15 34.084 1162.85 34.052 1162.54 33.988C1162.25 33.924 1161.97 33.82 1161.7 33.676C1161.44 33.524 1161.22 33.32 1161.04 33.064C1160.87 32.808 1160.75 32.488 1160.7 32.104H1162.17C1162.24 32.28 1162.34 32.424 1162.47 32.536C1162.62 32.64 1162.78 32.72 1162.96 32.776C1163.16 32.824 1163.34 32.848 1163.53 32.848C1163.64 32.848 1163.76 32.84 1163.89 32.824C1164.02 32.808 1164.15 32.776 1164.26 32.728C1164.38 32.68 1164.48 32.612 1164.55 32.524C1164.62 32.428 1164.66 32.304 1164.66 32.152C1164.66 32.008 1164.62 31.896 1164.54 31.816C1164.46 31.728 1164.35 31.66 1164.21 31.612C1164.08 31.556 1163.91 31.512 1163.72 31.48C1163.38 31.408 1163.01 31.332 1162.62 31.252C1162.22 31.164 1161.88 31.028 1161.6 30.844C1161.48 30.772 1161.37 30.688 1161.28 30.592C1161.2 30.496 1161.12 30.392 1161.06 30.28C1161 30.16 1160.96 30.032 1160.92 29.896C1160.9 29.76 1160.89 29.612 1160.89 29.452C1160.89 29.116 1160.96 28.832 1161.09 28.6C1161.24 28.36 1161.42 28.168 1161.66 28.024C1161.9 27.872 1162.17 27.76 1162.47 27.688C1162.78 27.616 1163.09 27.58 1163.41 27.58C1163.84 27.58 1164.23 27.648 1164.58 27.784C1164.94 27.92 1165.23 28.128 1165.46 28.408C1165.7 28.688 1165.84 29.044 1165.89 29.476H1164.5C1164.46 29.276 1164.34 29.116 1164.13 28.996C1163.93 28.876 1163.67 28.816 1163.36 28.816C1163.25 28.816 1163.13 28.828 1163.01 28.852C1162.89 28.868 1162.78 28.9 1162.66 28.948C1162.56 28.988 1162.47 29.052 1162.4 29.14C1162.34 29.228 1162.3 29.336 1162.3 29.464C1162.3 29.584 1162.33 29.688 1162.39 29.776C1162.45 29.864 1162.54 29.94 1162.66 30.004C1162.79 30.06 1162.94 30.108 1163.11 30.148C1163.38 30.204 1163.66 30.26 1163.96 30.316C1164.26 30.372 1164.51 30.428 1164.73 30.484C1164.98 30.556 1165.22 30.66 1165.42 30.796C1165.63 30.924 1165.79 31.096 1165.9 31.312C1166.02 31.52 1166.08 31.788 1166.08 32.116C1166.08 32.5 1166 32.82 1165.84 33.076C1165.69 33.332 1165.49 33.532 1165.23 33.676C1164.98 33.82 1164.69 33.924 1164.38 33.988C1164.07 34.052 1163.76 34.084 1163.46 34.084Z" fill="#101020"/>
<line x1="239.5" y1="12" x2="239.5" y2="48" stroke="#2B2A42"/>
<defs>
<filter id="filter0_d_1001_2894" x="1264" y="14" width="40" height="40" filterUnits="userSpaceOnUse" color-interpolation-filters="sRGB">
<feFlood flood-opacity="0" result="BackgroundImageFix"/>
<feColorMatrix in="SourceAlpha" type="matrix" values="0 0 0 0 0 0 0 0 0 0 0 0 0 0 0 0 0 0 127 0" result="hardAlpha"/>
<feOffset dy="4"/>
<feGaussianBlur stdDeviation="2"/>
<feComposite in2="hardAlpha" operator="out"/>
<feColorMatrix type="matrix" values="0 0 0 0 0 0 0 0 0 0 0 0 0 0 0 0 0 0 0.25 0"/>
<feBlend mode="normal" in2="BackgroundImageFix" result="effect1_dropShadow_1001_2894"/>
<feBlend mode="normal" in="SourceGraphic" in2="effect1_dropShadow_1001_2894" result="shape"/>
</filter>
<filter id="filter1_d_1001_2894" x="1224" y="14" width="40" height="40" filterUnits="userSpaceOnUse" color-interpolation-filters="sRGB">
<feFlood flood-opacity="0" result="BackgroundImageFix"/>
<feColorMatrix in="SourceAlpha" type="matrix" values="0 0 0 0 0 0 0 0 0 0 0 0 0 0 0 0 0 0 127 0" result="hardAlpha"/>
<feOffset dy="4"/>
<feGaussianBlur stdDeviation="2"/>
<feComposite in2="hardAlpha" operator="out"/>
<feColorMatrix type="matrix" values="0 0 0 0 0 0 0 0 0 0 0 0 0 0 0 0 0 0 0.25 0"/>
<feBlend mode="normal" in2="BackgroundImageFix" result="effect1_dropShadow_1001_2894"/>
<feBlend mode="normal" in="SourceGraphic" in2="effect1_dropShadow_1001_2894" result="shape"/>
</filter>
<filter id="filter2_d_1001_2894" x="1184" y="14" width="40" height="40" filterUnits="userSpaceOnUse" color-interpolation-filters="sRGB">
<feFlood flood-opacity="0" result="BackgroundImageFix"/>
<feColorMatrix in="SourceAlpha" type="matrix" values="0 0 0 0 0 0 0 0 0 0 0 0 0 0 0 0 0 0 127 0" result="hardAlpha"/>
<feOffset dy="4"/>
<feGaussianBlur stdDeviation="2"/>
<feComposite in2="hardAlpha" operator="out"/>
<feColorMatrix type="matrix" values="0 0 0 0 0 0 0 0 0 0 0 0 0 0 0 0 0 0 0.25 0"/>
<feBlend mode="normal" in2="BackgroundImageFix" result="effect1_dropShadow_1001_2894"/>
<feBlend mode="normal" in="SourceGraphic" in2="effect1_dropShadow_1001_2894" result="shape"/>
</filter>
<filter id="filter3_d_1001_2894" x="550" y="12" width="341" height="44" filterUnits="userSpaceOnUse" color-interpolation-filters="sRGB">
<feFlood flood-opacity="0" result="BackgroundImageFix"/>
<feColorMatrix in="SourceAlpha" type="matrix" values="0 0 0 0 0 0 0 0 0 0 0 0 0 0 0 0 0 0 127 0" result="hardAlpha"/>
<feOffset dy="4"/>
<feGaussianBlur stdDeviation="2"/>
<feComposite in2="hardAlpha" operator="out"/>
<feColorMatrix type="matrix" values="0 0 0 0 0 0 0 0 0 0 0 0 0 0 0 0 0 0 0.25 0"/>
<feBlend mode="normal" in2="BackgroundImageFix" result="effect1_dropShadow_1001_2894"/>
<feBlend mode="normal" in="SourceGraphic" in2="effect1_dropShadow_1001_2894" result="shape"/>
</filter>
<filter id="filter4_d_1001_2894" x="1304" y="14" width="80" height="40" filterUnits="userSpaceOnUse" color-interpolation-filters="sRGB">
<feFlood flood-opacity="0" result="BackgroundImageFix"/>
<feColorMatrix in="SourceAlpha" type="matrix" values="0 0 0 0 0 0 0 0 0 0 0 0 0 0 0 0 0 0 127 0" result="hardAlpha"/>
<feOffset dy="4"/>
<feGaussianBlur stdDeviation="2"/>
<feComposite in2="hardAlpha" operator="out"/>
<feColorMatrix type="matrix" values="0 0 0 0 0 0 0 0 0 0 0 0 0 0 0 0 0 0 0.25 0"/>
<feBlend mode="normal" in2="BackgroundImageFix" result="effect1_dropShadow_1001_2894"/>
<feBlend mode="normal" in="SourceGraphic" in2="effect1_dropShadow_1001_2894" result="shape"/>
</filter>
<linearGradient id="paint0_linear_1001_2894" x1="1140" y1="14" x2="1140" y2="46" gradientUnits="userSpaceOnUse">
<stop stop-color="#DBFFA2"/>
<stop offset="1" stop-color="#00FF4D"/>
</linearGradient>
</defs>
</svg>
