<svg width="588" height="31" viewBox="0 0 588 31" fill="none" xmlns="http://www.w3.org/2000/svg">
<path d="M477.42 21V19.978L480.22 17.556C480.472 17.3413 480.747 17.108 481.046 16.856C481.354 16.5947 481.643 16.3147 481.914 16.016C482.194 15.7173 482.423 15.4 482.6 15.064C482.787 14.7187 482.88 14.3547 482.88 13.972C482.88 13.3747 482.703 12.9173 482.348 12.6C481.993 12.2733 481.517 12.11 480.92 12.11C480.444 12.11 480.029 12.208 479.674 12.404C479.319 12.6 479.086 12.8847 478.974 13.258H477.672C477.765 12.7447 477.975 12.3247 478.302 11.998C478.638 11.662 479.039 11.41 479.506 11.242C479.982 11.074 480.472 10.99 480.976 10.99C481.592 10.99 482.133 11.102 482.6 11.326C483.076 11.55 483.445 11.8767 483.706 12.306C483.977 12.726 484.112 13.244 484.112 13.86C484.112 14.4667 483.995 14.9987 483.762 15.456C483.538 15.9133 483.239 16.3287 482.866 16.702C482.502 17.066 482.11 17.4253 481.69 17.78L479.184 19.894H484.224V21H477.42ZM490.62 21V19.026H485.244V18.116L490.088 11.102H491.838V17.92H493V19.026H491.838V21H490.62ZM486.714 17.92H490.62V12.208L486.714 17.92ZM494.062 23.352L498.388 9.786H499.648L495.322 23.352H494.062ZM501.588 21L505.592 12.222H500.356V11.102H506.936V12.11L502.932 21H501.588ZM511.967 21V11.102H513.157V21H511.967ZM515.03 21V13.622H516.22V21H515.03ZM515.618 12.53C515.375 12.53 515.179 12.4553 515.03 12.306C514.89 12.1567 514.82 11.9653 514.82 11.732C514.82 11.4987 514.894 11.312 515.044 11.172C515.193 11.0227 515.384 10.948 515.618 10.948C515.832 10.948 516.019 11.0227 516.178 11.172C516.346 11.3213 516.43 11.508 516.43 11.732C516.43 11.9653 516.35 12.1567 516.192 12.306C516.033 12.4553 515.842 12.53 515.618 12.53ZM520.094 21L517.252 13.622H518.596L520.92 19.852L523.202 13.622H524.56L521.718 21H520.094ZM528.79 21.084C528.006 21.084 527.357 20.9253 526.844 20.608C526.331 20.2813 525.948 19.8333 525.696 19.264C525.444 18.6947 525.318 18.046 525.318 17.318C525.318 16.5807 525.449 15.932 525.71 15.372C525.981 14.8027 526.373 14.3547 526.886 14.028C527.399 13.7013 528.029 13.538 528.776 13.538C529.355 13.538 529.849 13.65 530.26 13.874C530.68 14.0887 531.025 14.378 531.296 14.742C531.567 15.106 531.763 15.5073 531.884 15.946C532.005 16.3753 532.057 16.8093 532.038 17.248C532.029 17.332 532.019 17.416 532.01 17.5C532.01 17.584 532.005 17.668 531.996 17.752H526.522C526.559 18.1813 526.667 18.5687 526.844 18.914C527.021 19.2593 527.273 19.5347 527.6 19.74C527.927 19.936 528.333 20.034 528.818 20.034C529.061 20.034 529.303 20.006 529.546 19.95C529.798 19.8847 530.022 19.7773 530.218 19.628C530.423 19.4787 530.568 19.278 530.652 19.026H531.87C531.758 19.502 531.548 19.894 531.24 20.202C530.932 20.5007 530.563 20.7247 530.134 20.874C529.705 21.014 529.257 21.084 528.79 21.084ZM526.55 16.716H530.82C530.811 16.296 530.717 15.9273 530.54 15.61C530.363 15.2927 530.12 15.0453 529.812 14.868C529.513 14.6907 529.154 14.602 528.734 14.602C528.277 14.602 527.889 14.7 527.572 14.896C527.264 15.092 527.026 15.3487 526.858 15.666C526.69 15.9833 526.587 16.3333 526.55 16.716ZM540.085 21.084C539.749 21.084 539.408 21.0513 539.063 20.986C538.727 20.9207 538.41 20.8087 538.111 20.65C537.822 20.4913 537.579 20.2767 537.383 20.006C537.187 19.7353 537.061 19.3993 537.005 18.998H538.209C538.302 19.25 538.452 19.4553 538.657 19.614C538.872 19.7633 539.11 19.8707 539.371 19.936C539.642 20.0013 539.898 20.034 540.141 20.034C540.29 20.034 540.463 20.0247 540.659 20.006C540.855 19.9873 541.042 19.9453 541.219 19.88C541.406 19.8053 541.555 19.698 541.667 19.558C541.788 19.418 541.849 19.222 541.849 18.97C541.849 18.7833 541.807 18.6293 541.723 18.508C541.639 18.3867 541.522 18.2887 541.373 18.214C541.224 18.13 541.042 18.0693 540.827 18.032C540.388 17.9387 539.917 17.85 539.413 17.766C538.918 17.682 538.48 17.5233 538.097 17.29C537.966 17.206 537.845 17.1127 537.733 17.01C537.63 16.898 537.542 16.7767 537.467 16.646C537.392 16.506 537.332 16.3567 537.285 16.198C537.248 16.03 537.229 15.848 537.229 15.652C537.229 15.288 537.299 14.9753 537.439 14.714C537.588 14.4433 537.794 14.224 538.055 14.056C538.316 13.8787 538.615 13.748 538.951 13.664C539.296 13.58 539.665 13.538 540.057 13.538C540.542 13.538 540.976 13.6173 541.359 13.776C541.751 13.9253 542.073 14.1493 542.325 14.448C542.577 14.7373 542.726 15.0967 542.773 15.526H541.667C541.602 15.2553 541.424 15.036 541.135 14.868C540.846 14.6907 540.477 14.602 540.029 14.602C539.88 14.602 539.712 14.616 539.525 14.644C539.338 14.6627 539.161 14.7093 538.993 14.784C538.825 14.8493 538.685 14.952 538.573 15.092C538.461 15.2227 538.405 15.4 538.405 15.624C538.405 15.8293 538.456 16.002 538.559 16.142C538.671 16.282 538.825 16.394 539.021 16.478C539.217 16.562 539.441 16.632 539.693 16.688C540.02 16.7533 540.379 16.8233 540.771 16.898C541.163 16.9633 541.471 17.0333 541.695 17.108C541.994 17.2013 542.241 17.332 542.437 17.5C542.642 17.668 542.792 17.8687 542.885 18.102C542.988 18.3353 543.039 18.606 543.039 18.914C543.039 19.3527 542.95 19.712 542.773 19.992C542.605 20.272 542.376 20.4913 542.087 20.65C541.798 20.8087 541.476 20.9207 541.121 20.986C540.776 21.0513 540.43 21.084 540.085 21.084ZM547.6 21.084C546.583 21.084 545.808 20.8133 545.276 20.272C544.753 19.7307 544.492 18.9 544.492 17.78V13.622H545.682V17.724C545.682 18.2093 545.752 18.6247 545.892 18.97C546.032 19.3153 546.242 19.5813 546.522 19.768C546.811 19.9453 547.171 20.034 547.6 20.034C548.048 20.034 548.417 19.9453 548.706 19.768C548.995 19.5813 549.205 19.3153 549.336 18.97C549.476 18.6247 549.546 18.2093 549.546 17.724V13.622H550.736V17.78C550.736 18.9 550.465 19.7307 549.924 20.272C549.392 20.8133 548.617 21.084 547.6 21.084ZM552.586 23.66V13.622H553.72L553.776 14.728C554.028 14.3453 554.369 14.0513 554.798 13.846C555.237 13.6407 555.708 13.538 556.212 13.538C556.959 13.538 557.57 13.706 558.046 14.042C558.522 14.3687 558.872 14.8167 559.096 15.386C559.33 15.9553 559.446 16.5993 559.446 17.318C559.446 18.0367 559.33 18.6807 559.096 19.25C558.863 19.8193 558.504 20.2673 558.018 20.594C557.533 20.9207 556.912 21.084 556.156 21.084C555.783 21.084 555.447 21.0467 555.148 20.972C554.85 20.888 554.588 20.7713 554.364 20.622C554.14 20.4633 553.944 20.2813 553.776 20.076V23.66H552.586ZM556.058 20.034C556.6 20.034 557.029 19.9127 557.346 19.67C557.664 19.418 557.892 19.0867 558.032 18.676C558.182 18.2653 558.256 17.8127 558.256 17.318C558.256 16.814 558.182 16.3567 558.032 15.946C557.892 15.5353 557.659 15.2087 557.332 14.966C557.006 14.7233 556.572 14.602 556.03 14.602C555.545 14.602 555.13 14.728 554.784 14.98C554.448 15.2227 554.192 15.554 554.014 15.974C553.837 16.3847 553.748 16.8373 553.748 17.332C553.748 17.8453 553.832 18.3073 554 18.718C554.168 19.1287 554.425 19.4507 554.77 19.684C555.116 19.9173 555.545 20.034 556.058 20.034ZM561.036 23.66V13.622H562.17L562.226 14.728C562.478 14.3453 562.818 14.0513 563.248 13.846C563.686 13.6407 564.158 13.538 564.662 13.538C565.408 13.538 566.02 13.706 566.496 14.042C566.972 14.3687 567.322 14.8167 567.546 15.386C567.779 15.9553 567.896 16.5993 567.896 17.318C567.896 18.0367 567.779 18.6807 567.546 19.25C567.312 19.8193 566.953 20.2673 566.468 20.594C565.982 20.9207 565.362 21.084 564.606 21.084C564.232 21.084 563.896 21.0467 563.598 20.972C563.299 20.888 563.038 20.7713 562.814 20.622C562.59 20.4633 562.394 20.2813 562.226 20.076V23.66H561.036ZM564.508 20.034C565.049 20.034 565.478 19.9127 565.796 19.67C566.113 19.418 566.342 19.0867 566.482 18.676C566.631 18.2653 566.706 17.8127 566.706 17.318C566.706 16.814 566.631 16.3567 566.482 15.946C566.342 15.5353 566.108 15.2087 565.782 14.966C565.455 14.7233 565.021 14.602 564.48 14.602C563.994 14.602 563.579 14.728 563.234 14.98C562.898 15.2227 562.641 15.554 562.464 15.974C562.286 16.3847 562.198 16.8373 562.198 17.332C562.198 17.8453 562.282 18.3073 562.45 18.718C562.618 19.1287 562.874 19.4507 563.22 19.684C563.565 19.9173 563.994 20.034 564.508 20.034ZM572.705 21.084C571.93 21.084 571.282 20.9253 570.759 20.608C570.236 20.2813 569.844 19.8333 569.583 19.264C569.331 18.6947 569.205 18.046 569.205 17.318C569.205 16.5807 569.336 15.932 569.597 15.372C569.858 14.8027 570.25 14.3547 570.773 14.028C571.296 13.7013 571.949 13.538 572.733 13.538C573.508 13.538 574.152 13.7013 574.665 14.028C575.188 14.3547 575.575 14.8027 575.827 15.372C576.088 15.932 576.219 16.5807 576.219 17.318C576.219 18.046 576.088 18.6947 575.827 19.264C575.566 19.8333 575.174 20.2813 574.651 20.608C574.138 20.9253 573.489 21.084 572.705 21.084ZM572.705 20.034C573.246 20.034 573.685 19.9127 574.021 19.67C574.366 19.4273 574.618 19.1007 574.777 18.69C574.945 18.2793 575.029 17.822 575.029 17.318C575.029 16.814 574.945 16.3567 574.777 15.946C574.618 15.5353 574.366 15.2087 574.021 14.966C573.685 14.7233 573.246 14.602 572.705 14.602C572.173 14.602 571.734 14.7233 571.389 14.966C571.053 15.2087 570.801 15.5353 570.633 15.946C570.474 16.3567 570.395 16.814 570.395 17.318C570.395 17.822 570.474 18.2793 570.633 18.69C570.801 19.1007 571.053 19.4273 571.389 19.67C571.734 19.9127 572.173 20.034 572.705 20.034ZM577.811 21V13.622H578.959L579.015 14.77C579.202 14.4807 579.416 14.2473 579.659 14.07C579.911 13.8927 580.186 13.762 580.485 13.678C580.793 13.5847 581.124 13.538 581.479 13.538C581.544 13.538 581.605 13.538 581.661 13.538C581.726 13.538 581.792 13.538 581.857 13.538V14.658H581.423C580.844 14.658 580.373 14.784 580.009 15.036C579.654 15.2787 579.398 15.61 579.239 16.03C579.08 16.4407 579.001 16.898 579.001 17.402V21H577.811ZM586.454 21C585.894 21 585.441 20.916 585.096 20.748C584.76 20.58 584.512 20.3187 584.354 19.964C584.204 19.6093 584.13 19.1613 584.13 18.62V14.672H582.926V13.622H584.13V11.424H585.32V13.622H587.294V14.672H585.32V18.494C585.32 18.998 585.408 19.3713 585.586 19.614C585.772 19.8473 586.146 19.964 586.706 19.964H587.252V21H586.454Z" fill="white"/>
<circle cx="468" cy="16" r="3" fill="#00FF4D"/>
<g filter="url(#filter0_f_1001_2998)">
<circle cx="468" cy="16" r="3" fill="#00FF4D"/>
</g>
<path d="M237.21 21V13.062H235.194V12.236C235.567 12.208 235.898 12.166 236.188 12.11C236.477 12.0447 236.734 11.9373 236.958 11.788C237.191 11.6293 237.396 11.4007 237.574 11.102H238.428V21H237.21ZM244.592 21.112C243.901 21.112 243.308 20.986 242.814 20.734C242.328 20.4727 241.932 20.1133 241.624 19.656C241.316 19.1893 241.087 18.6527 240.938 18.046C240.798 17.43 240.728 16.7673 240.728 16.058C240.728 15.3487 240.798 14.6907 240.938 14.084C241.078 13.468 241.302 12.9313 241.61 12.474C241.918 12.0073 242.314 11.6433 242.8 11.382C243.294 11.1207 243.892 10.99 244.592 10.99C245.329 10.99 245.945 11.1347 246.44 11.424C246.944 11.704 247.34 12.0867 247.63 12.572C247.928 13.0573 248.138 13.6033 248.26 14.21C248.39 14.8073 248.456 15.4233 248.456 16.058C248.456 16.6927 248.39 17.3133 248.26 17.92C248.138 18.5173 247.928 19.0587 247.63 19.544C247.34 20.02 246.944 20.4027 246.44 20.692C245.945 20.972 245.329 21.112 244.592 21.112ZM244.592 20.006C245.142 20.006 245.586 19.8893 245.922 19.656C246.267 19.4133 246.533 19.096 246.72 18.704C246.906 18.312 247.032 17.8873 247.098 17.43C247.163 16.9633 247.196 16.506 247.196 16.058C247.196 15.6193 247.163 15.1713 247.098 14.714C247.032 14.2473 246.906 13.818 246.72 13.426C246.533 13.0247 246.267 12.7027 245.922 12.46C245.586 12.2173 245.142 12.096 244.592 12.096C244.032 12.096 243.579 12.2173 243.234 12.46C242.888 12.7027 242.622 13.0247 242.436 13.426C242.258 13.818 242.137 14.2473 242.072 14.714C242.006 15.1713 241.974 15.6193 241.974 16.058C241.974 16.506 242.006 16.9633 242.072 17.43C242.137 17.8873 242.258 18.312 242.436 18.704C242.622 19.096 242.888 19.4133 243.234 19.656C243.579 19.8893 244.032 20.006 244.592 20.006ZM253.902 21.112C253.212 21.112 252.619 20.986 252.124 20.734C251.639 20.4727 251.242 20.1133 250.934 19.656C250.626 19.1893 250.398 18.6527 250.248 18.046C250.108 17.43 250.038 16.7673 250.038 16.058C250.038 15.3487 250.108 14.6907 250.248 14.084C250.388 13.468 250.612 12.9313 250.92 12.474C251.228 12.0073 251.625 11.6433 252.11 11.382C252.605 11.1207 253.202 10.99 253.902 10.99C254.64 10.99 255.256 11.1347 255.75 11.424C256.254 11.704 256.651 12.0867 256.94 12.572C257.239 13.0573 257.449 13.6033 257.57 14.21C257.701 14.8073 257.766 15.4233 257.766 16.058C257.766 16.6927 257.701 17.3133 257.57 17.92C257.449 18.5173 257.239 19.0587 256.94 19.544C256.651 20.02 256.254 20.4027 255.75 20.692C255.256 20.972 254.64 21.112 253.902 21.112ZM253.902 20.006C254.453 20.006 254.896 19.8893 255.232 19.656C255.578 19.4133 255.844 19.096 256.03 18.704C256.217 18.312 256.343 17.8873 256.408 17.43C256.474 16.9633 256.506 16.506 256.506 16.058C256.506 15.6193 256.474 15.1713 256.408 14.714C256.343 14.2473 256.217 13.818 256.03 13.426C255.844 13.0247 255.578 12.7027 255.232 12.46C254.896 12.2173 254.453 12.096 253.902 12.096C253.342 12.096 252.89 12.2173 252.544 12.46C252.199 12.7027 251.933 13.0247 251.746 13.426C251.569 13.818 251.448 14.2473 251.382 14.714C251.317 15.1713 251.284 15.6193 251.284 16.058C251.284 16.506 251.317 16.9633 251.382 17.43C251.448 17.8873 251.569 18.312 251.746 18.704C251.933 19.096 252.199 19.4133 252.544 19.656C252.89 19.8893 253.342 20.006 253.902 20.006ZM260.497 21L266.587 11.102H267.819L261.743 21H260.497ZM266.965 21.084C266.517 21.084 266.139 20.986 265.831 20.79C265.532 20.594 265.303 20.3327 265.145 20.006C264.986 19.67 264.907 19.2967 264.907 18.886C264.907 18.4567 264.986 18.0787 265.145 17.752C265.303 17.4253 265.537 17.1687 265.845 16.982C266.153 16.7953 266.526 16.702 266.965 16.702C267.394 16.702 267.758 16.7953 268.057 16.982C268.355 17.1687 268.584 17.4253 268.743 17.752C268.901 18.0787 268.981 18.4567 268.981 18.886C268.981 19.2967 268.901 19.67 268.743 20.006C268.584 20.3327 268.355 20.594 268.057 20.79C267.758 20.986 267.394 21.084 266.965 21.084ZM266.951 20.09C267.193 20.09 267.385 20.034 267.525 19.922C267.674 19.81 267.777 19.6607 267.833 19.474C267.898 19.2873 267.931 19.0913 267.931 18.886C267.931 18.6807 267.898 18.4893 267.833 18.312C267.777 18.1253 267.674 17.976 267.525 17.864C267.385 17.752 267.193 17.696 266.951 17.696C266.577 17.696 266.311 17.8173 266.153 18.06C266.003 18.3027 265.929 18.578 265.929 18.886C265.929 19.2127 266.008 19.4973 266.167 19.74C266.325 19.9733 266.587 20.09 266.951 20.09ZM261.421 15.372C260.973 15.372 260.595 15.274 260.287 15.078C259.988 14.882 259.759 14.6207 259.601 14.294C259.451 13.958 259.377 13.5847 259.377 13.174C259.377 12.7447 259.451 12.3667 259.601 12.04C259.759 11.7133 259.993 11.4567 260.301 11.27C260.609 11.0833 260.982 10.99 261.421 10.99C261.859 10.99 262.228 11.0833 262.527 11.27C262.825 11.4567 263.049 11.7133 263.199 12.04C263.357 12.3667 263.437 12.7447 263.437 13.174C263.437 13.5847 263.357 13.958 263.199 14.294C263.049 14.6207 262.825 14.882 262.527 15.078C262.228 15.274 261.859 15.372 261.421 15.372ZM261.421 14.378C261.663 14.378 261.855 14.322 261.995 14.21C262.135 14.098 262.237 13.9487 262.303 13.762C262.368 13.5753 262.401 13.3793 262.401 13.174C262.401 12.9687 262.368 12.7773 262.303 12.6C262.237 12.4133 262.135 12.264 261.995 12.152C261.855 12.04 261.663 11.984 261.421 11.984C261.047 11.984 260.781 12.1053 260.623 12.348C260.464 12.5907 260.385 12.866 260.385 13.174C260.385 13.5007 260.464 13.7853 260.623 14.028C260.781 14.2613 261.047 14.378 261.421 14.378ZM277.202 21.084C276.866 21.084 276.526 21.0513 276.18 20.986C275.844 20.9207 275.527 20.8087 275.228 20.65C274.939 20.4913 274.696 20.2767 274.5 20.006C274.304 19.7353 274.178 19.3993 274.122 18.998H275.326C275.42 19.25 275.569 19.4553 275.774 19.614C275.989 19.7633 276.227 19.8707 276.488 19.936C276.759 20.0013 277.016 20.034 277.258 20.034C277.408 20.034 277.58 20.0247 277.776 20.006C277.972 19.9873 278.159 19.9453 278.336 19.88C278.523 19.8053 278.672 19.698 278.784 19.558C278.906 19.418 278.966 19.222 278.966 18.97C278.966 18.7833 278.924 18.6293 278.84 18.508C278.756 18.3867 278.64 18.2887 278.49 18.214C278.341 18.13 278.159 18.0693 277.944 18.032C277.506 17.9387 277.034 17.85 276.53 17.766C276.036 17.682 275.597 17.5233 275.214 17.29C275.084 17.206 274.962 17.1127 274.85 17.01C274.748 16.898 274.659 16.7767 274.584 16.646C274.51 16.506 274.449 16.3567 274.402 16.198C274.365 16.03 274.346 15.848 274.346 15.652C274.346 15.288 274.416 14.9753 274.556 14.714C274.706 14.4433 274.911 14.224 275.172 14.056C275.434 13.8787 275.732 13.748 276.068 13.664C276.414 13.58 276.782 13.538 277.174 13.538C277.66 13.538 278.094 13.6173 278.476 13.776C278.868 13.9253 279.19 14.1493 279.442 14.448C279.694 14.7373 279.844 15.0967 279.89 15.526H278.784C278.719 15.2553 278.542 15.036 278.252 14.868C277.963 14.6907 277.594 14.602 277.146 14.602C276.997 14.602 276.829 14.616 276.642 14.644C276.456 14.6627 276.278 14.7093 276.11 14.784C275.942 14.8493 275.802 14.952 275.69 15.092C275.578 15.2227 275.522 15.4 275.522 15.624C275.522 15.8293 275.574 16.002 275.676 16.142C275.788 16.282 275.942 16.394 276.138 16.478C276.334 16.562 276.558 16.632 276.81 16.688C277.137 16.7533 277.496 16.8233 277.888 16.898C278.28 16.9633 278.588 17.0333 278.812 17.108C279.111 17.2013 279.358 17.332 279.554 17.5C279.76 17.668 279.909 17.8687 280.002 18.102C280.105 18.3353 280.156 18.606 280.156 18.914C280.156 19.3527 280.068 19.712 279.89 19.992C279.722 20.272 279.494 20.4913 279.204 20.65C278.915 20.8087 278.593 20.9207 278.238 20.986C277.893 21.0513 277.548 21.084 277.202 21.084ZM284.003 21.084C283.667 21.084 283.341 21.042 283.023 20.958C282.715 20.8647 282.435 20.7293 282.183 20.552C281.941 20.3653 281.745 20.1367 281.595 19.866C281.455 19.586 281.385 19.264 281.385 18.9C281.385 18.48 281.46 18.1253 281.609 17.836C281.768 17.5467 281.978 17.318 282.239 17.15C282.501 16.982 282.804 16.8607 283.149 16.786C283.495 16.7113 283.854 16.674 284.227 16.674H286.397C286.397 16.254 286.337 15.89 286.215 15.582C286.103 15.274 285.917 15.036 285.655 14.868C285.394 14.6907 285.049 14.602 284.619 14.602C284.358 14.602 284.115 14.63 283.891 14.686C283.667 14.742 283.476 14.8307 283.317 14.952C283.159 15.0733 283.042 15.2367 282.967 15.442H281.693C281.759 15.106 281.885 14.8213 282.071 14.588C282.267 14.3453 282.501 14.1493 282.771 14C283.051 13.8413 283.35 13.7247 283.667 13.65C283.985 13.5753 284.302 13.538 284.619 13.538C285.683 13.538 286.439 13.8507 286.887 14.476C287.335 15.1013 287.559 15.946 287.559 17.01V21H286.565L286.495 20.062C286.29 20.342 286.043 20.5567 285.753 20.706C285.464 20.8553 285.165 20.9533 284.857 21C284.559 21.056 284.274 21.084 284.003 21.084ZM284.115 20.034C284.582 20.034 284.983 19.9593 285.319 19.81C285.665 19.6513 285.931 19.4227 286.117 19.124C286.304 18.8253 286.397 18.4613 286.397 18.032V17.668H285.095C284.787 17.668 284.484 17.6727 284.185 17.682C283.887 17.6913 283.616 17.7287 283.373 17.794C283.131 17.8593 282.935 17.9713 282.785 18.13C282.645 18.2887 282.575 18.5173 282.575 18.816C282.575 19.096 282.645 19.3247 282.785 19.502C282.935 19.6793 283.126 19.8147 283.359 19.908C283.602 19.992 283.854 20.034 284.115 20.034ZM290.117 21V14.672H288.913V13.622H290.117V12.838C290.117 12.2873 290.192 11.8393 290.341 11.494C290.5 11.1393 290.747 10.878 291.083 10.71C291.428 10.542 291.881 10.458 292.441 10.458H293.281V11.508H292.567C292.231 11.508 291.97 11.564 291.783 11.676C291.606 11.788 291.48 11.956 291.405 12.18C291.34 12.3947 291.307 12.6607 291.307 12.978V13.622H293.281V14.672H291.307V21H290.117ZM297.585 21.084C296.801 21.084 296.152 20.9253 295.639 20.608C295.126 20.2813 294.743 19.8333 294.491 19.264C294.239 18.6947 294.113 18.046 294.113 17.318C294.113 16.5807 294.244 15.932 294.505 15.372C294.776 14.8027 295.168 14.3547 295.681 14.028C296.194 13.7013 296.824 13.538 297.571 13.538C298.15 13.538 298.644 13.65 299.055 13.874C299.475 14.0887 299.82 14.378 300.091 14.742C300.362 15.106 300.558 15.5073 300.679 15.946C300.8 16.3753 300.852 16.8093 300.833 17.248C300.824 17.332 300.814 17.416 300.805 17.5C300.805 17.584 300.8 17.668 300.791 17.752H295.317C295.354 18.1813 295.462 18.5687 295.639 18.914C295.816 19.2593 296.068 19.5347 296.395 19.74C296.722 19.936 297.128 20.034 297.613 20.034C297.856 20.034 298.098 20.006 298.341 19.95C298.593 19.8847 298.817 19.7773 299.013 19.628C299.218 19.4787 299.363 19.278 299.447 19.026H300.665C300.553 19.502 300.343 19.894 300.035 20.202C299.727 20.5007 299.358 20.7247 298.929 20.874C298.5 21.014 298.052 21.084 297.585 21.084ZM295.345 16.716H299.615C299.606 16.296 299.512 15.9273 299.335 15.61C299.158 15.2927 298.915 15.0453 298.607 14.868C298.308 14.6907 297.949 14.602 297.529 14.602C297.072 14.602 296.684 14.7 296.367 14.896C296.059 15.092 295.821 15.3487 295.653 15.666C295.485 15.9833 295.382 16.3333 295.345 16.716ZM306.192 23.66V13.622H307.326L307.382 14.728C307.634 14.3453 307.975 14.0513 308.404 13.846C308.843 13.6407 309.314 13.538 309.818 13.538C310.565 13.538 311.176 13.706 311.652 14.042C312.128 14.3687 312.478 14.8167 312.702 15.386C312.935 15.9553 313.052 16.5993 313.052 17.318C313.052 18.0367 312.935 18.6807 312.702 19.25C312.469 19.8193 312.109 20.2673 311.624 20.594C311.139 20.9207 310.518 21.084 309.762 21.084C309.389 21.084 309.053 21.0467 308.754 20.972C308.455 20.888 308.194 20.7713 307.97 20.622C307.746 20.4633 307.55 20.2813 307.382 20.076V23.66H306.192ZM309.664 20.034C310.205 20.034 310.635 19.9127 310.952 19.67C311.269 19.418 311.498 19.0867 311.638 18.676C311.787 18.2653 311.862 17.8127 311.862 17.318C311.862 16.814 311.787 16.3567 311.638 15.946C311.498 15.5353 311.265 15.2087 310.938 14.966C310.611 14.7233 310.177 14.602 309.636 14.602C309.151 14.602 308.735 14.728 308.39 14.98C308.054 15.2227 307.797 15.554 307.62 15.974C307.443 16.3847 307.354 16.8373 307.354 17.332C307.354 17.8453 307.438 18.3073 307.606 18.718C307.774 19.1287 308.031 19.4507 308.376 19.684C308.721 19.9173 309.151 20.034 309.664 20.034ZM317.007 21.084C316.671 21.084 316.344 21.042 316.027 20.958C315.719 20.8647 315.439 20.7293 315.187 20.552C314.944 20.3653 314.748 20.1367 314.599 19.866C314.459 19.586 314.389 19.264 314.389 18.9C314.389 18.48 314.464 18.1253 314.613 17.836C314.772 17.5467 314.982 17.318 315.243 17.15C315.504 16.982 315.808 16.8607 316.153 16.786C316.498 16.7113 316.858 16.674 317.231 16.674H319.401C319.401 16.254 319.34 15.89 319.219 15.582C319.107 15.274 318.92 15.036 318.659 14.868C318.398 14.6907 318.052 14.602 317.623 14.602C317.362 14.602 317.119 14.63 316.895 14.686C316.671 14.742 316.48 14.8307 316.321 14.952C316.162 15.0733 316.046 15.2367 315.971 15.442H314.697C314.762 15.106 314.888 14.8213 315.075 14.588C315.271 14.3453 315.504 14.1493 315.775 14C316.055 13.8413 316.354 13.7247 316.671 13.65C316.988 13.5753 317.306 13.538 317.623 13.538C318.687 13.538 319.443 13.8507 319.891 14.476C320.339 15.1013 320.563 15.946 320.563 17.01V21H319.569L319.499 20.062C319.294 20.342 319.046 20.5567 318.757 20.706C318.468 20.8553 318.169 20.9533 317.861 21C317.562 21.056 317.278 21.084 317.007 21.084ZM317.119 20.034C317.586 20.034 317.987 19.9593 318.323 19.81C318.668 19.6513 318.934 19.4227 319.121 19.124C319.308 18.8253 319.401 18.4613 319.401 18.032V17.668H318.099C317.791 17.668 317.488 17.6727 317.189 17.682C316.89 17.6913 316.62 17.7287 316.377 17.794C316.134 17.8593 315.938 17.9713 315.789 18.13C315.649 18.2887 315.579 18.5173 315.579 18.816C315.579 19.096 315.649 19.3247 315.789 19.502C315.938 19.6793 316.13 19.8147 316.363 19.908C316.606 19.992 316.858 20.034 317.119 20.034ZM325.655 24.304C325.085 24.304 324.535 24.2247 324.003 24.066C323.48 23.9073 323.009 23.632 322.589 23.24L323.107 22.302C323.471 22.5913 323.858 22.82 324.269 22.988C324.689 23.156 325.127 23.24 325.585 23.24C326.35 23.24 326.896 23.016 327.223 22.568C327.559 22.1293 327.727 21.5693 327.727 20.888V20.006C327.559 20.258 327.344 20.468 327.083 20.636C326.831 20.7947 326.551 20.916 326.243 21C325.935 21.0747 325.617 21.112 325.291 21.112C324.563 21.112 323.989 20.9673 323.569 20.678C323.149 20.3887 322.85 19.9873 322.673 19.474C322.495 18.9607 322.407 18.368 322.407 17.696V13.622H323.597V17.36C323.597 17.696 323.615 18.0273 323.653 18.354C323.699 18.6713 323.788 18.9607 323.919 19.222C324.049 19.474 324.241 19.6793 324.493 19.838C324.745 19.9873 325.081 20.062 325.501 20.062C326.033 20.062 326.457 19.9313 326.775 19.67C327.101 19.4087 327.335 19.0587 327.475 18.62C327.624 18.1813 327.699 17.696 327.699 17.164V13.622H328.889V21C328.889 21.532 328.819 22.0033 328.679 22.414C328.539 22.8247 328.329 23.17 328.049 23.45C327.769 23.73 327.428 23.94 327.027 24.08C326.635 24.2293 326.177 24.304 325.655 24.304ZM330.76 21V13.622H331.908L331.964 14.504C332.123 14.28 332.3 14.098 332.496 13.958C332.702 13.818 332.926 13.7153 333.168 13.65C333.42 13.5753 333.686 13.538 333.966 13.538C334.48 13.538 334.895 13.65 335.212 13.874C335.53 14.0887 335.768 14.3733 335.926 14.728C336.094 14.476 336.286 14.2613 336.5 14.084C336.724 13.9067 336.972 13.7713 337.242 13.678C337.522 13.5847 337.83 13.538 338.166 13.538C338.708 13.538 339.142 13.6547 339.468 13.888C339.804 14.1213 340.047 14.4387 340.196 14.84C340.346 15.232 340.42 15.6753 340.42 16.17V21H339.23V16.772C339.23 16.5293 339.216 16.282 339.188 16.03C339.17 15.778 339.114 15.5447 339.02 15.33C338.927 15.106 338.787 14.9287 338.6 14.798C338.423 14.658 338.171 14.588 337.844 14.588C337.536 14.588 337.275 14.6627 337.06 14.812C336.855 14.952 336.687 15.1433 336.556 15.386C336.426 15.6287 336.332 15.89 336.276 16.17C336.22 16.4407 336.192 16.7113 336.192 16.982V21H335.002V16.758C335.002 16.5247 334.988 16.282 334.96 16.03C334.942 15.778 334.89 15.5447 334.806 15.33C334.732 15.106 334.601 14.9287 334.414 14.798C334.237 14.658 333.99 14.588 333.672 14.588C333.224 14.588 332.874 14.7187 332.622 14.98C332.37 15.232 332.193 15.5447 332.09 15.918C331.997 16.282 331.95 16.6413 331.95 16.996V21H330.76ZM345.423 21.084C344.639 21.084 343.99 20.9253 343.477 20.608C342.964 20.2813 342.581 19.8333 342.329 19.264C342.077 18.6947 341.951 18.046 341.951 17.318C341.951 16.5807 342.082 15.932 342.343 15.372C342.614 14.8027 343.006 14.3547 343.519 14.028C344.032 13.7013 344.662 13.538 345.409 13.538C345.988 13.538 346.482 13.65 346.893 13.874C347.313 14.0887 347.658 14.378 347.929 14.742C348.2 15.106 348.396 15.5073 348.517 15.946C348.638 16.3753 348.69 16.8093 348.671 17.248C348.662 17.332 348.652 17.416 348.643 17.5C348.643 17.584 348.638 17.668 348.629 17.752H343.155C343.192 18.1813 343.3 18.5687 343.477 18.914C343.654 19.2593 343.906 19.5347 344.233 19.74C344.56 19.936 344.966 20.034 345.451 20.034C345.694 20.034 345.936 20.006 346.179 19.95C346.431 19.8847 346.655 19.7773 346.851 19.628C347.056 19.4787 347.201 19.278 347.285 19.026H348.503C348.391 19.502 348.181 19.894 347.873 20.202C347.565 20.5007 347.196 20.7247 346.767 20.874C346.338 21.014 345.89 21.084 345.423 21.084ZM343.183 16.716H347.453C347.444 16.296 347.35 15.9273 347.173 15.61C346.996 15.2927 346.753 15.0453 346.445 14.868C346.146 14.6907 345.787 14.602 345.367 14.602C344.91 14.602 344.522 14.7 344.205 14.896C343.897 15.092 343.659 15.3487 343.491 15.666C343.323 15.9833 343.22 16.3333 343.183 16.716ZM350.256 21V13.622H351.404L351.46 14.742C351.628 14.4713 351.843 14.2473 352.104 14.07C352.366 13.8927 352.65 13.762 352.958 13.678C353.276 13.5847 353.584 13.538 353.882 13.538C354.601 13.538 355.161 13.6873 355.562 13.986C355.973 14.2847 356.262 14.6907 356.43 15.204C356.608 15.708 356.696 16.282 356.696 16.926V21H355.506V17.248C355.506 16.9027 355.483 16.5713 355.436 16.254C355.399 15.9367 355.315 15.652 355.184 15.4C355.063 15.148 354.886 14.952 354.652 14.812C354.419 14.6627 354.106 14.588 353.714 14.588C353.229 14.588 352.814 14.7233 352.468 14.994C352.132 15.2647 351.876 15.6287 351.698 16.086C351.53 16.5433 351.446 17.0567 351.446 17.626V21H350.256ZM361.3 21.084C360.525 21.084 359.979 20.874 359.662 20.454C359.354 20.034 359.2 19.4367 359.2 18.662V14.672H357.996V13.622H359.2V11.41H360.39V13.622H362.658V14.672H360.39V18.508C360.39 18.788 360.413 19.0447 360.46 19.278C360.507 19.502 360.605 19.684 360.754 19.824C360.903 19.9547 361.127 20.0247 361.426 20.034C361.641 20.034 361.827 19.9967 361.986 19.922C362.154 19.8473 362.294 19.7587 362.406 19.656L362.924 20.524C362.765 20.6547 362.597 20.762 362.42 20.846C362.252 20.93 362.075 20.9907 361.888 21.028C361.711 21.0653 361.515 21.084 361.3 21.084ZM366.767 21.084C366.431 21.084 366.09 21.0513 365.745 20.986C365.409 20.9207 365.091 20.8087 364.793 20.65C364.503 20.4913 364.261 20.2767 364.065 20.006C363.869 19.7353 363.743 19.3993 363.687 18.998H364.891C364.984 19.25 365.133 19.4553 365.339 19.614C365.553 19.7633 365.791 19.8707 366.053 19.936C366.323 20.0013 366.58 20.034 366.823 20.034C366.972 20.034 367.145 20.0247 367.341 20.006C367.537 19.9873 367.723 19.9453 367.901 19.88C368.087 19.8053 368.237 19.698 368.349 19.558C368.47 19.418 368.531 19.222 368.531 18.97C368.531 18.7833 368.489 18.6293 368.405 18.508C368.321 18.3867 368.204 18.2887 368.055 18.214C367.905 18.13 367.723 18.0693 367.509 18.032C367.07 17.9387 366.599 17.85 366.095 17.766C365.6 17.682 365.161 17.5233 364.779 17.29C364.648 17.206 364.527 17.1127 364.415 17.01C364.312 16.898 364.223 16.7767 364.149 16.646C364.074 16.506 364.013 16.3567 363.967 16.198C363.929 16.03 363.911 15.848 363.911 15.652C363.911 15.288 363.981 14.9753 364.121 14.714C364.27 14.4433 364.475 14.224 364.737 14.056C364.998 13.8787 365.297 13.748 365.633 13.664C365.978 13.58 366.347 13.538 366.739 13.538C367.224 13.538 367.658 13.6173 368.041 13.776C368.433 13.9253 368.755 14.1493 369.007 14.448C369.259 14.7373 369.408 15.0967 369.455 15.526H368.349C368.283 15.2553 368.106 15.036 367.817 14.868C367.527 14.6907 367.159 14.602 366.711 14.602C366.561 14.602 366.393 14.616 366.207 14.644C366.02 14.6627 365.843 14.7093 365.675 14.784C365.507 14.8493 365.367 14.952 365.255 15.092C365.143 15.2227 365.087 15.4 365.087 15.624C365.087 15.8293 365.138 16.002 365.241 16.142C365.353 16.282 365.507 16.394 365.703 16.478C365.899 16.562 366.123 16.632 366.375 16.688C366.701 16.7533 367.061 16.8233 367.453 16.898C367.845 16.9633 368.153 17.0333 368.377 17.108C368.675 17.2013 368.923 17.332 369.119 17.5C369.324 17.668 369.473 17.8687 369.567 18.102C369.669 18.3353 369.721 18.606 369.721 18.914C369.721 19.3527 369.632 19.712 369.455 19.992C369.287 20.272 369.058 20.4913 368.769 20.65C368.479 20.8087 368.157 20.9207 367.803 20.986C367.457 21.0513 367.112 21.084 366.767 21.084Z" fill="white"/>
<path d="M228.575 10.5293L223.53 9.0159C223.459 8.9947 223.384 8.9947 223.313 9.0159L218.269 10.5293C218.109 10.5771 218 10.7238 218 10.8902V16.4395C218 17.1613 218.292 17.9002 218.868 18.6356C219.309 19.1973 219.918 19.7613 220.678 20.312C221.956 21.2371 223.215 21.8046 223.268 21.8282C223.317 21.8502 223.369 21.8611 223.422 21.8611C223.474 21.8611 223.527 21.8502 223.576 21.8282C223.629 21.8046 224.887 21.2371 226.165 20.312C226.926 19.7613 227.535 19.1973 227.975 18.6356C228.551 17.9002 228.843 17.1613 228.843 16.4395V10.8902C228.843 10.7238 228.734 10.5771 228.575 10.5293Z" fill="#3374FF"/>
<g filter="url(#filter1_f_1001_2998)">
<path d="M228.575 10.5293L223.53 9.0159C223.459 8.9947 223.384 8.9947 223.313 9.0159L218.269 10.5293C218.109 10.5771 218 10.7238 218 10.8902V16.4395C218 17.1613 218.292 17.9002 218.868 18.6356C219.309 19.1973 219.918 19.7613 220.678 20.312C221.956 21.2371 223.215 21.8046 223.268 21.8282C223.317 21.8502 223.369 21.8611 223.422 21.8611C223.474 21.8611 223.527 21.8502 223.576 21.8282C223.629 21.8046 224.887 21.2371 226.165 20.312C226.926 19.7613 227.535 19.1973 227.975 18.6356C228.551 17.9002 228.843 17.1613 228.843 16.4395V10.8902C228.843 10.7238 228.734 10.5771 228.575 10.5293Z" fill="#3374FF"/>
</g>
<path d="M22.218 19V9.102H28.868V10.208H23.436V13.54H28.322V14.66H23.436V17.894H28.868V19H22.218ZM29.7409 19L32.3729 15.234L29.8669 11.622H31.2949L33.1709 14.422L34.9909 11.622H36.3769L33.8849 15.276L36.5589 19H35.1449L33.1009 16.186L31.0849 19H29.7409ZM37.688 21.66V11.622H38.822L38.878 12.728C39.13 12.3453 39.4707 12.0513 39.9 11.846C40.3387 11.6407 40.81 11.538 41.314 11.538C42.0607 11.538 42.672 11.706 43.148 12.042C43.624 12.3687 43.974 12.8167 44.198 13.386C44.4313 13.9553 44.548 14.5993 44.548 15.318C44.548 16.0367 44.4313 16.6807 44.198 17.25C43.9647 17.8193 43.6053 18.2673 43.12 18.594C42.6347 18.9207 42.014 19.084 41.258 19.084C40.8847 19.084 40.5487 19.0467 40.25 18.972C39.9513 18.888 39.69 18.7713 39.466 18.622C39.242 18.4633 39.046 18.2813 38.878 18.076V21.66H37.688ZM41.16 18.034C41.7013 18.034 42.1307 17.9127 42.448 17.67C42.7653 17.418 42.994 17.0867 43.134 16.676C43.2833 16.2653 43.358 15.8127 43.358 15.318C43.358 14.814 43.2833 14.3567 43.134 13.946C42.994 13.5353 42.7607 13.2087 42.434 12.966C42.1073 12.7233 41.6733 12.602 41.132 12.602C40.6467 12.602 40.2313 12.728 39.886 12.98C39.55 13.2227 39.2933 13.554 39.116 13.974C38.9387 14.3847 38.85 14.8373 38.85 15.332C38.85 15.8453 38.934 16.3073 39.102 16.718C39.27 17.1287 39.5267 17.4507 39.872 17.684C40.2173 17.9173 40.6467 18.034 41.16 18.034ZM46.1372 19V11.622H47.2852L47.3412 12.77C47.5279 12.4807 47.7426 12.2473 47.9852 12.07C48.2372 11.8927 48.5126 11.762 48.8112 11.678C49.1192 11.5847 49.4506 11.538 49.8052 11.538C49.8706 11.538 49.9312 11.538 49.9872 11.538C50.0526 11.538 50.1179 11.538 50.1832 11.538V12.658H49.7492C49.1706 12.658 48.6992 12.784 48.3352 13.036C47.9806 13.2787 47.7239 13.61 47.5652 14.03C47.4066 14.4407 47.3272 14.898 47.3272 15.402V19H46.1372ZM54.4152 19.084C53.6312 19.084 52.9825 18.9253 52.4692 18.608C51.9558 18.2813 51.5732 17.8333 51.3212 17.264C51.0692 16.6947 50.9432 16.046 50.9432 15.318C50.9432 14.5807 51.0738 13.932 51.3352 13.372C51.6058 12.8027 51.9978 12.3547 52.5112 12.028C53.0245 11.7013 53.6545 11.538 54.4012 11.538C54.9798 11.538 55.4745 11.65 55.8852 11.874C56.3052 12.0887 56.6505 12.378 56.9212 12.742C57.1918 13.106 57.3878 13.5073 57.5092 13.946C57.6305 14.3753 57.6818 14.8093 57.6632 15.248C57.6538 15.332 57.6445 15.416 57.6352 15.5C57.6352 15.584 57.6305 15.668 57.6212 15.752H52.1472C52.1845 16.1813 52.2918 16.5687 52.4692 16.914C52.6465 17.2593 52.8985 17.5347 53.2252 17.74C53.5518 17.936 53.9578 18.034 54.4432 18.034C54.6858 18.034 54.9285 18.006 55.1712 17.95C55.4232 17.8847 55.6472 17.7773 55.8432 17.628C56.0485 17.4787 56.1932 17.278 56.2772 17.026H57.4952C57.3832 17.502 57.1732 17.894 56.8652 18.202C56.5572 18.5007 56.1885 18.7247 55.7592 18.874C55.3298 19.014 54.8818 19.084 54.4152 19.084ZM52.1752 14.716H56.4452C56.4358 14.296 56.3425 13.9273 56.1652 13.61C55.9878 13.2927 55.7452 13.0453 55.4372 12.868C55.1385 12.6907 54.7792 12.602 54.3592 12.602C53.9018 12.602 53.5145 12.7 53.1972 12.896C52.8892 13.092 52.6512 13.3487 52.4832 13.666C52.3152 13.9833 52.2125 14.3333 52.1752 14.716ZM61.9365 19.084C61.6005 19.084 61.2599 19.0513 60.9145 18.986C60.5785 18.9207 60.2612 18.8087 59.9625 18.65C59.6732 18.4913 59.4305 18.2767 59.2345 18.006C59.0385 17.7353 58.9125 17.3993 58.8565 16.998H60.0605C60.1539 17.25 60.3032 17.4553 60.5085 17.614C60.7232 17.7633 60.9612 17.8707 61.2225 17.936C61.4932 18.0013 61.7499 18.034 61.9925 18.034C62.1419 18.034 62.3145 18.0247 62.5105 18.006C62.7065 17.9873 62.8932 17.9453 63.0705 17.88C63.2572 17.8053 63.4065 17.698 63.5185 17.558C63.6399 17.418 63.7005 17.222 63.7005 16.97C63.7005 16.7833 63.6585 16.6293 63.5745 16.508C63.4905 16.3867 63.3739 16.2887 63.2245 16.214C63.0752 16.13 62.8932 16.0693 62.6785 16.032C62.2399 15.9387 61.7685 15.85 61.2645 15.766C60.7699 15.682 60.3312 15.5233 59.9485 15.29C59.8179 15.206 59.6965 15.1127 59.5845 15.01C59.4819 14.898 59.3932 14.7767 59.3185 14.646C59.2439 14.506 59.1832 14.3567 59.1365 14.198C59.0992 14.03 59.0805 13.848 59.0805 13.652C59.0805 13.288 59.1505 12.9753 59.2905 12.714C59.4399 12.4433 59.6452 12.224 59.9065 12.056C60.1679 11.8787 60.4665 11.748 60.8025 11.664C61.1479 11.58 61.5165 11.538 61.9085 11.538C62.3939 11.538 62.8279 11.6173 63.2105 11.776C63.6025 11.9253 63.9245 12.1493 64.1765 12.448C64.4285 12.7373 64.5779 13.0967 64.6245 13.526H63.5185C63.4532 13.2553 63.2759 13.036 62.9865 12.868C62.6972 12.6907 62.3285 12.602 61.8805 12.602C61.7312 12.602 61.5632 12.616 61.3765 12.644C61.1899 12.6627 61.0125 12.7093 60.8445 12.784C60.6765 12.8493 60.5365 12.952 60.4245 13.092C60.3125 13.2227 60.2565 13.4 60.2565 13.624C60.2565 13.8293 60.3079 14.002 60.4105 14.142C60.5225 14.282 60.6765 14.394 60.8725 14.478C61.0685 14.562 61.2925 14.632 61.5445 14.688C61.8712 14.7533 62.2305 14.8233 62.6225 14.898C63.0145 14.9633 63.3225 15.0333 63.5465 15.108C63.8452 15.2013 64.0925 15.332 64.2885 15.5C64.4939 15.668 64.6432 15.8687 64.7365 16.102C64.8392 16.3353 64.8905 16.606 64.8905 16.914C64.8905 17.3527 64.8019 17.712 64.6245 17.992C64.4565 18.272 64.2279 18.4913 63.9385 18.65C63.6492 18.8087 63.3272 18.9207 62.9725 18.986C62.6272 19.0513 62.2819 19.084 61.9365 19.084ZM69.0596 19.084C68.7236 19.084 68.3829 19.0513 68.0376 18.986C67.7016 18.9207 67.3843 18.8087 67.0856 18.65C66.7963 18.4913 66.5536 18.2767 66.3576 18.006C66.1616 17.7353 66.0356 17.3993 65.9796 16.998H67.1836C67.2769 17.25 67.4263 17.4553 67.6316 17.614C67.8463 17.7633 68.0843 17.8707 68.3456 17.936C68.6163 18.0013 68.8729 18.034 69.1156 18.034C69.2649 18.034 69.4376 18.0247 69.6336 18.006C69.8296 17.9873 70.0163 17.9453 70.1936 17.88C70.3803 17.8053 70.5296 17.698 70.6416 17.558C70.7629 17.418 70.8236 17.222 70.8236 16.97C70.8236 16.7833 70.7816 16.6293 70.6976 16.508C70.6136 16.3867 70.4969 16.2887 70.3476 16.214C70.1983 16.13 70.0163 16.0693 69.8016 16.032C69.3629 15.9387 68.8916 15.85 68.3876 15.766C67.8929 15.682 67.4543 15.5233 67.0716 15.29C66.9409 15.206 66.8196 15.1127 66.7076 15.01C66.6049 14.898 66.5163 14.7767 66.4416 14.646C66.3669 14.506 66.3063 14.3567 66.2596 14.198C66.2223 14.03 66.2036 13.848 66.2036 13.652C66.2036 13.288 66.2736 12.9753 66.4136 12.714C66.5629 12.4433 66.7683 12.224 67.0296 12.056C67.2909 11.8787 67.5896 11.748 67.9256 11.664C68.2709 11.58 68.6396 11.538 69.0316 11.538C69.5169 11.538 69.9509 11.6173 70.3336 11.776C70.7256 11.9253 71.0476 12.1493 71.2996 12.448C71.5516 12.7373 71.7009 13.0967 71.7476 13.526H70.6416C70.5763 13.2553 70.3989 13.036 70.1096 12.868C69.8203 12.6907 69.4516 12.602 69.0036 12.602C68.8543 12.602 68.6863 12.616 68.4996 12.644C68.3129 12.6627 68.1356 12.7093 67.9676 12.784C67.7996 12.8493 67.6596 12.952 67.5476 13.092C67.4356 13.2227 67.3796 13.4 67.3796 13.624C67.3796 13.8293 67.4309 14.002 67.5336 14.142C67.6456 14.282 67.7996 14.394 67.9956 14.478C68.1916 14.562 68.4156 14.632 68.6676 14.688C68.9943 14.7533 69.3536 14.8233 69.7456 14.898C70.1376 14.9633 70.4456 15.0333 70.6696 15.108C70.9683 15.2013 71.2156 15.332 71.4116 15.5C71.6169 15.668 71.7663 15.8687 71.8596 16.102C71.9623 16.3353 72.0136 16.606 72.0136 16.914C72.0136 17.3527 71.9249 17.712 71.7476 17.992C71.5796 18.272 71.3509 18.4913 71.0616 18.65C70.7723 18.8087 70.4503 18.9207 70.0956 18.986C69.7503 19.0513 69.4049 19.084 69.0596 19.084ZM77.5481 19V9.102H81.0621C82.0887 9.102 82.9474 9.312 83.6381 9.732C84.3287 10.1427 84.8467 10.7213 85.1921 11.468C85.5467 12.2053 85.7241 13.0687 85.7241 14.058C85.7241 15.038 85.5514 15.9013 85.2061 16.648C84.8607 17.3853 84.3427 17.964 83.6521 18.384C82.9614 18.7947 82.0981 19 81.0621 19H77.5481ZM78.7661 17.894H80.9781C81.7807 17.894 82.4387 17.7307 82.9521 17.404C83.4654 17.0773 83.8481 16.6293 84.1001 16.06C84.3521 15.4813 84.4781 14.814 84.4781 14.058C84.4781 13.3207 84.3521 12.6627 84.1001 12.084C83.8574 11.5053 83.4841 11.048 82.9801 10.712C82.4761 10.376 81.8321 10.208 81.0481 10.208H78.7661V17.894ZM90.5363 19.084C89.7523 19.084 89.1036 18.9253 88.5903 18.608C88.0769 18.2813 87.6943 17.8333 87.4423 17.264C87.1903 16.6947 87.0643 16.046 87.0643 15.318C87.0643 14.5807 87.1949 13.932 87.4563 13.372C87.7269 12.8027 88.1189 12.3547 88.6323 12.028C89.1456 11.7013 89.7756 11.538 90.5222 11.538C91.1009 11.538 91.5956 11.65 92.0063 11.874C92.4263 12.0887 92.7716 12.378 93.0423 12.742C93.3129 13.106 93.5089 13.5073 93.6303 13.946C93.7516 14.3753 93.8029 14.8093 93.7843 15.248C93.7749 15.332 93.7656 15.416 93.7563 15.5C93.7563 15.584 93.7516 15.668 93.7423 15.752H88.2683C88.3056 16.1813 88.4129 16.5687 88.5903 16.914C88.7676 17.2593 89.0196 17.5347 89.3463 17.74C89.6729 17.936 90.0789 18.034 90.5643 18.034C90.8069 18.034 91.0496 18.006 91.2923 17.95C91.5443 17.8847 91.7683 17.7773 91.9643 17.628C92.1696 17.4787 92.3143 17.278 92.3983 17.026H93.6163C93.5043 17.502 93.2943 17.894 92.9863 18.202C92.6783 18.5007 92.3096 18.7247 91.8803 18.874C91.4509 19.014 91.0029 19.084 90.5363 19.084ZM88.2963 14.716H92.5663C92.5569 14.296 92.4636 13.9273 92.2863 13.61C92.1089 13.2927 91.8663 13.0453 91.5583 12.868C91.2596 12.6907 90.9003 12.602 90.4803 12.602C90.0229 12.602 89.6356 12.7 89.3183 12.896C89.0103 13.092 88.7723 13.3487 88.6043 13.666C88.4363 13.9833 88.3336 14.3333 88.2963 14.716ZM95.3696 19V9.102H96.5596V19H95.3696ZM98.4321 19V11.622H99.6221V19H98.4321ZM99.0201 10.53C98.7775 10.53 98.5815 10.4553 98.4321 10.306C98.2921 10.1567 98.2221 9.96533 98.2221 9.732C98.2221 9.49867 98.2968 9.312 98.4461 9.172C98.5955 9.02267 98.7868 8.948 99.0201 8.948C99.2348 8.948 99.4215 9.02267 99.5801 9.172C99.7481 9.32133 99.8321 9.508 99.8321 9.732C99.8321 9.96533 99.7528 10.1567 99.5941 10.306C99.4355 10.4553 99.2441 10.53 99.0201 10.53ZM103.497 19L100.655 11.622H101.999L104.323 17.852L106.605 11.622H107.963L105.121 19H103.497ZM112.193 19.084C111.409 19.084 110.76 18.9253 110.247 18.608C109.733 18.2813 109.351 17.8333 109.099 17.264C108.847 16.6947 108.721 16.046 108.721 15.318C108.721 14.5807 108.851 13.932 109.113 13.372C109.383 12.8027 109.775 12.3547 110.289 12.028C110.802 11.7013 111.432 11.538 112.178 11.538C112.757 11.538 113.252 11.65 113.663 11.874C114.083 12.0887 114.428 12.378 114.699 12.742C114.969 13.106 115.165 13.5073 115.287 13.946C115.408 14.3753 115.459 14.8093 115.441 15.248C115.431 15.332 115.422 15.416 115.413 15.5C115.413 15.584 115.408 15.668 115.399 15.752H109.925C109.962 16.1813 110.069 16.5687 110.247 16.914C110.424 17.2593 110.676 17.5347 111.003 17.74C111.329 17.936 111.735 18.034 112.221 18.034C112.463 18.034 112.706 18.006 112.949 17.95C113.201 17.8847 113.425 17.7773 113.621 17.628C113.826 17.4787 113.971 17.278 114.055 17.026H115.273C115.161 17.502 114.951 17.894 114.643 18.202C114.335 18.5007 113.966 18.7247 113.537 18.874C113.107 19.014 112.659 19.084 112.193 19.084ZM109.953 14.716H114.223C114.213 14.296 114.12 13.9273 113.943 13.61C113.765 13.2927 113.523 13.0453 113.215 12.868C112.916 12.6907 112.557 12.602 112.137 12.602C111.679 12.602 111.292 12.7 110.975 12.896C110.667 13.092 110.429 13.3487 110.261 13.666C110.093 13.9833 109.99 14.3333 109.953 14.716ZM117.026 19V11.622H118.174L118.23 12.77C118.417 12.4807 118.631 12.2473 118.874 12.07C119.126 11.8927 119.401 11.762 119.7 11.678C120.008 11.5847 120.339 11.538 120.694 11.538C120.759 11.538 120.82 11.538 120.876 11.538C120.941 11.538 121.007 11.538 121.072 11.538V12.658H120.638C120.059 12.658 119.588 12.784 119.224 13.036C118.869 13.2787 118.613 13.61 118.454 14.03C118.295 14.4407 118.216 14.898 118.216 15.402V19H117.026ZM125.497 22.304C124.927 22.304 124.377 22.2247 123.845 22.066C123.322 21.9073 122.851 21.632 122.431 21.24L122.949 20.302C123.313 20.5913 123.7 20.82 124.111 20.988C124.531 21.156 124.969 21.24 125.427 21.24C126.192 21.24 126.738 21.016 127.065 20.568C127.401 20.1293 127.569 19.5693 127.569 18.888V18.006C127.401 18.258 127.186 18.468 126.925 18.636C126.673 18.7947 126.393 18.916 126.085 19C125.777 19.0747 125.459 19.112 125.133 19.112C124.405 19.112 123.831 18.9673 123.411 18.678C122.991 18.3887 122.692 17.9873 122.515 17.474C122.337 16.9607 122.249 16.368 122.249 15.696V11.622H123.439V15.36C123.439 15.696 123.457 16.0273 123.495 16.354C123.541 16.6713 123.63 16.9607 123.761 17.222C123.891 17.474 124.083 17.6793 124.335 17.838C124.587 17.9873 124.923 18.062 125.343 18.062C125.875 18.062 126.299 17.9313 126.617 17.67C126.943 17.4087 127.177 17.0587 127.317 16.62C127.466 16.1813 127.541 15.696 127.541 15.164V11.622H128.731V19C128.731 19.532 128.661 20.0033 128.521 20.414C128.381 20.8247 128.171 21.17 127.891 21.45C127.611 21.73 127.27 21.94 126.869 22.08C126.477 22.2293 126.019 22.304 125.497 22.304Z" fill="white"/>
<path d="M14.8126 6H8.00044C7.92382 6 7.85488 6.04678 7.82663 6.11804L4.01339 15.7217C3.96462 15.8445 4.05511 15.9778 4.18727 15.9778H8.29949C8.4195 15.9778 8.50846 16.0893 8.4819 16.2063L6.75509 23.8171C6.71005 24.0156 6.96962 24.1331 7.08905 23.9683L14.9217 13.1566C15.0113 13.0329 14.9229 12.8597 14.7702 12.8597H11.4991C11.355 12.8597 11.265 12.7038 11.3371 12.5791L14.9746 6.28064C15.0467 6.15593 14.9567 6 14.8126 6Z" fill="#FFAA21"/>
<g filter="url(#filter2_f_1001_2998)">
<path d="M14.8126 6H8.00044C7.92382 6 7.85488 6.04678 7.82663 6.11804L4.01339 15.7217C3.96462 15.8445 4.05511 15.9778 4.18727 15.9778H8.29949C8.4195 15.9778 8.50846 16.0893 8.4819 16.2063L6.75509 23.8171C6.71005 24.0156 6.96962 24.1331 7.08905 23.9683L14.9217 13.1566C15.0113 13.0329 14.9229 12.8597 14.7702 12.8597H11.4991C11.355 12.8597 11.265 12.7038 11.3371 12.5791L14.9746 6.28064C15.0467 6.15593 14.9567 6 14.8126 6Z" fill="#FFAA21"/>
</g>
<line x1="180.5" y1="31" x2="180.5" y2="2.18557e-08" stroke="#2B2A42"/>
<line x1="417.5" y1="31" x2="417.5" y2="2.18557e-08" stroke="#2B2A42"/>
<defs>
<filter id="filter0_f_1001_2998" x="461" y="9" width="14" height="14" filterUnits="userSpaceOnUse" color-interpolation-filters="sRGB">
<feFlood flood-opacity="0" result="BackgroundImageFix"/>
<feBlend mode="normal" in="SourceGraphic" in2="BackgroundImageFix" result="shape"/>
<feGaussianBlur stdDeviation="2" result="effect1_foregroundBlur_1001_2998"/>
</filter>
<filter id="filter1_f_1001_2998" x="214" y="5" width="18.8433" height="20.8611" filterUnits="userSpaceOnUse" color-interpolation-filters="sRGB">
<feFlood flood-opacity="0" result="BackgroundImageFix"/>
<feBlend mode="normal" in="SourceGraphic" in2="BackgroundImageFix" result="shape"/>
<feGaussianBlur stdDeviation="2" result="effect1_foregroundBlur_1001_2998"/>
</filter>
<filter id="filter2_f_1001_2998" x="0" y="2" width="19" height="26.0464" filterUnits="userSpaceOnUse" color-interpolation-filters="sRGB">
<feFlood flood-opacity="0" result="BackgroundImageFix"/>
<feBlend mode="normal" in="SourceGraphic" in2="BackgroundImageFix" result="shape"/>
<feGaussianBlur stdDeviation="2" result="effect1_foregroundBlur_1001_2998"/>
</filter>
</defs>
</svg>
