<svg width="379" height="31" viewBox="0 0 379 31" fill="none" xmlns="http://www.w3.org/2000/svg">
<path d="M80.1051 9.04169C80.3348 8.31944 81.335 8.31944 81.5647 9.04168L82.7301 12.7056C82.8328 13.0286 83.1275 13.2473 83.4599 13.2473H87.2311C87.9745 13.2473 88.2836 14.2191 87.6822 14.6654L84.6312 16.9299C84.3623 17.1295 84.2497 17.4833 84.3525 17.8063L85.5178 21.4703C85.7476 22.1925 84.9384 22.7931 84.3369 22.3467L81.286 20.0823C81.017 19.8827 80.6528 19.8827 80.3839 20.0823L77.3329 22.3467C76.7315 22.7931 75.9223 22.1925 76.152 21.4703L77.3174 17.8063C77.4201 17.4833 77.3075 17.1295 77.0386 16.9299L73.9876 14.6654C73.3862 14.2191 73.6953 13.2473 74.4387 13.2473H78.2099C78.5423 13.2473 78.837 13.0286 78.9397 12.7056L80.1051 9.04169Z" fill="url(#paint0_linear_1001_2191)"/>
<path d="M61.6876 9.04169C61.9173 8.31944 62.9176 8.31944 63.1473 9.04168L64.3127 12.7056C64.4154 13.0286 64.71 13.2473 65.0425 13.2473H68.8137C69.5571 13.2473 69.8662 14.2191 69.2647 14.6654L66.2138 16.9299C65.9448 17.1295 65.8323 17.4833 65.935 17.8063L67.1004 21.4703C67.3301 22.1925 66.5209 22.7931 65.9195 22.3467L62.8685 20.0823C62.5996 19.8827 62.2354 19.8827 61.9664 20.0823L58.9154 22.3467C58.314 22.7931 57.5048 22.1925 57.7345 21.4703L58.8999 17.8063C59.0026 17.4833 58.8901 17.1295 58.6211 16.9299L55.5702 14.6654C54.9688 14.2191 55.2778 13.2473 56.0212 13.2473H59.7924C60.1249 13.2473 60.4195 13.0286 60.5223 12.7056L61.6876 9.04169Z" fill="url(#paint1_linear_1001_2191)"/>
<path d="M43.2702 9.04169C43.4999 8.31944 44.5001 8.31944 44.7298 9.04168L45.8952 12.7056C45.9979 13.0286 46.2926 13.2473 46.625 13.2473H50.3962C51.1396 13.2473 51.4487 14.2191 50.8473 14.6654L47.7963 16.9299C47.5274 17.1295 47.4148 17.4833 47.5176 17.8063L48.6829 21.4703C48.9126 22.1925 48.1034 22.7931 47.502 22.3467L44.4511 20.0823C44.1821 19.8827 43.8179 19.8827 43.5489 20.0823L40.498 22.3467C39.8966 22.7931 39.0874 22.1925 39.3171 21.4703L40.4824 17.8063C40.5852 17.4833 40.4726 17.1295 40.2037 16.9299L37.1527 14.6654C36.5513 14.2191 36.8604 13.2473 37.6038 13.2473H41.375C41.7074 13.2473 42.0021 13.0286 42.1048 12.7056L43.2702 9.04169Z" fill="url(#paint2_linear_1001_2191)"/>
<path d="M24.8527 9.04169C25.0824 8.31944 26.0827 8.31944 26.3124 9.04168L27.4777 12.7056C27.5805 13.0286 27.8751 13.2473 28.2076 13.2473H31.9788C32.7222 13.2473 33.0312 14.2191 32.4298 14.6654L29.3789 16.9299C29.1099 17.1295 28.9974 17.4833 29.1001 17.8063L30.2655 21.4703C30.4952 22.1925 29.686 22.7931 29.0846 22.3467L26.0336 20.0823C25.7646 19.8827 25.4004 19.8827 25.1315 20.0823L22.0805 22.3467C21.4791 22.7931 20.6699 22.1925 20.8996 21.4703L22.065 17.8063C22.1677 17.4833 22.0552 17.1295 21.7862 16.9299L18.7353 14.6654C18.1338 14.2191 18.4429 13.2473 19.1863 13.2473H22.9575C23.29 13.2473 23.5846 13.0286 23.6873 12.7056L24.8527 9.04169Z" fill="url(#paint3_linear_1001_2191)"/>
<path d="M6.43525 9.04169C6.66497 8.31944 7.6652 8.31944 7.89492 9.04168L9.06029 12.7056C9.16302 13.0286 9.45767 13.2473 9.79012 13.2473H13.5613C14.3047 13.2473 14.6138 14.2191 14.0124 14.6654L10.9614 16.9299C10.6925 17.1295 10.5799 17.4833 10.6826 17.8063L11.848 21.4703C12.0777 22.1925 11.2685 22.7931 10.6671 22.3467L7.61615 20.0823C7.34719 19.8827 6.98299 19.8827 6.71403 20.0823L3.66307 22.3467C3.06165 22.7931 2.25245 22.1925 2.48217 21.4703L3.64753 17.8063C3.75027 17.4833 3.63772 17.1295 3.36876 16.9299L0.317802 14.6654C-0.283615 14.2191 0.0254722 13.2473 0.768865 13.2473H4.54006C4.87251 13.2473 5.16716 13.0286 5.26989 12.7056L6.43525 9.04169Z" fill="url(#paint4_linear_1001_2191)"/>
<path d="M102.312 20.626C101.901 20.626 101.505 20.5793 101.122 20.486C100.749 20.3927 100.408 20.2527 100.1 20.066C99.792 19.87 99.5307 19.6227 99.316 19.324C99.1013 19.0253 98.952 18.6707 98.868 18.26H100.1C100.203 18.5213 100.366 18.7453 100.59 18.932C100.814 19.1187 101.066 19.2633 101.346 19.366C101.635 19.4593 101.92 19.506 102.2 19.506C102.657 19.506 103.063 19.4313 103.418 19.282C103.782 19.1327 104.071 18.904 104.286 18.596C104.501 18.2787 104.608 17.8727 104.608 17.378C104.608 16.6967 104.403 16.174 103.992 15.81C103.581 15.446 103.049 15.264 102.396 15.264C102.004 15.264 101.64 15.334 101.304 15.474C100.977 15.614 100.679 15.8053 100.408 16.048H99.148L99.596 10.602H105.518V11.722H100.688L100.408 14.83C100.66 14.6247 100.968 14.4613 101.332 14.34C101.696 14.2093 102.144 14.144 102.676 14.144C103.311 14.144 103.866 14.2747 104.342 14.536C104.827 14.7973 105.201 15.166 105.462 15.642C105.733 16.1087 105.868 16.664 105.868 17.308C105.868 17.9987 105.709 18.5913 105.392 19.086C105.084 19.5807 104.659 19.9633 104.118 20.234C103.586 20.4953 102.984 20.626 102.312 20.626ZM108.405 20.612C108.162 20.612 107.962 20.5327 107.803 20.374C107.644 20.2153 107.565 20.0147 107.565 19.772C107.565 19.5293 107.644 19.3287 107.803 19.17C107.962 19.0113 108.162 18.932 108.405 18.932C108.648 18.932 108.848 19.0113 109.007 19.17C109.166 19.3287 109.245 19.5293 109.245 19.772C109.245 20.0147 109.166 20.2153 109.007 20.374C108.848 20.5327 108.648 20.612 108.405 20.612ZM114.57 20.612C113.88 20.612 113.287 20.486 112.792 20.234C112.307 19.9727 111.91 19.6133 111.602 19.156C111.294 18.6893 111.066 18.1527 110.916 17.546C110.776 16.93 110.706 16.2673 110.706 15.558C110.706 14.8487 110.776 14.1907 110.916 13.584C111.056 12.968 111.28 12.4313 111.588 11.974C111.896 11.5073 112.293 11.1433 112.778 10.882C113.273 10.6207 113.87 10.49 114.57 10.49C115.308 10.49 115.924 10.6347 116.418 10.924C116.922 11.204 117.319 11.5867 117.608 12.072C117.907 12.5573 118.117 13.1033 118.238 13.71C118.369 14.3073 118.434 14.9233 118.434 15.558C118.434 16.1927 118.369 16.8133 118.238 17.42C118.117 18.0173 117.907 18.5587 117.608 19.044C117.319 19.52 116.922 19.9027 116.418 20.192C115.924 20.472 115.308 20.612 114.57 20.612ZM114.57 19.506C115.121 19.506 115.564 19.3893 115.9 19.156C116.246 18.9133 116.512 18.596 116.698 18.204C116.885 17.812 117.011 17.3873 117.076 16.93C117.142 16.4633 117.174 16.006 117.174 15.558C117.174 15.1193 117.142 14.6713 117.076 14.214C117.011 13.7473 116.885 13.318 116.698 12.926C116.512 12.5247 116.246 12.2027 115.9 11.96C115.564 11.7173 115.121 11.596 114.57 11.596C114.01 11.596 113.558 11.7173 113.212 11.96C112.867 12.2027 112.601 12.5247 112.414 12.926C112.237 13.318 112.116 13.7473 112.05 14.214C111.985 14.6713 111.952 15.1193 111.952 15.558C111.952 16.006 111.985 16.4633 112.05 16.93C112.116 17.3873 112.237 17.812 112.414 18.204C112.601 18.596 112.867 18.9133 113.212 19.156C113.558 19.3893 114.01 19.506 114.57 19.506ZM124.196 20.5V10.602H127.668C128.163 10.602 128.611 10.644 129.012 10.728C129.414 10.8027 129.759 10.9333 130.048 11.12C130.347 11.3067 130.576 11.5587 130.734 11.876C130.893 12.1933 130.972 12.5947 130.972 13.08C130.972 13.584 130.856 14.032 130.622 14.424C130.398 14.816 130.048 15.1053 129.572 15.292C130.207 15.404 130.683 15.6653 131 16.076C131.318 16.4773 131.476 17.014 131.476 17.686C131.476 18.2367 131.374 18.694 131.168 19.058C130.963 19.422 130.678 19.7113 130.314 19.926C129.96 20.1313 129.549 20.2807 129.082 20.374C128.616 20.458 128.121 20.5 127.598 20.5H124.196ZM125.414 19.394H127.556C127.846 19.394 128.144 19.38 128.452 19.352C128.77 19.3147 129.064 19.2447 129.334 19.142C129.605 19.03 129.824 18.8573 129.992 18.624C130.16 18.3907 130.244 18.078 130.244 17.686C130.244 17.35 130.179 17.0747 130.048 16.86C129.927 16.6453 129.759 16.4773 129.544 16.356C129.339 16.2347 129.101 16.1507 128.83 16.104C128.56 16.0573 128.284 16.034 128.004 16.034H125.414V19.394ZM125.414 14.942H127.318C127.664 14.942 127.986 14.914 128.284 14.858C128.583 14.7927 128.844 14.69 129.068 14.55C129.292 14.41 129.465 14.228 129.586 14.004C129.717 13.78 129.782 13.5 129.782 13.164C129.792 12.7347 129.698 12.4173 129.502 12.212C129.306 12.0067 129.045 11.8713 128.718 11.806C128.401 11.7407 128.056 11.708 127.682 11.708H125.414V14.942ZM135.47 20.584C135.134 20.584 134.807 20.542 134.49 20.458C134.182 20.3647 133.902 20.2293 133.65 20.052C133.407 19.8653 133.211 19.6367 133.062 19.366C132.922 19.086 132.852 18.764 132.852 18.4C132.852 17.98 132.927 17.6253 133.076 17.336C133.235 17.0467 133.445 16.818 133.706 16.65C133.967 16.482 134.271 16.3607 134.616 16.286C134.961 16.2113 135.321 16.174 135.694 16.174H137.864C137.864 15.754 137.803 15.39 137.682 15.082C137.57 14.774 137.383 14.536 137.122 14.368C136.861 14.1907 136.515 14.102 136.086 14.102C135.825 14.102 135.582 14.13 135.358 14.186C135.134 14.242 134.943 14.3307 134.784 14.452C134.625 14.5733 134.509 14.7367 134.434 14.942H133.16C133.225 14.606 133.351 14.3213 133.538 14.088C133.734 13.8453 133.967 13.6493 134.238 13.5C134.518 13.3413 134.817 13.2247 135.134 13.15C135.451 13.0753 135.769 13.038 136.086 13.038C137.15 13.038 137.906 13.3507 138.354 13.976C138.802 14.6013 139.026 15.446 139.026 16.51V20.5H138.032L137.962 19.562C137.757 19.842 137.509 20.0567 137.22 20.206C136.931 20.3553 136.632 20.4533 136.324 20.5C136.025 20.556 135.741 20.584 135.47 20.584ZM135.582 19.534C136.049 19.534 136.45 19.4593 136.786 19.31C137.131 19.1513 137.397 18.9227 137.584 18.624C137.771 18.3253 137.864 17.9613 137.864 17.532V17.168H136.562C136.254 17.168 135.951 17.1727 135.652 17.182C135.353 17.1913 135.083 17.2287 134.84 17.294C134.597 17.3593 134.401 17.4713 134.252 17.63C134.112 17.7887 134.042 18.0173 134.042 18.316C134.042 18.596 134.112 18.8247 134.252 19.002C134.401 19.1793 134.593 19.3147 134.826 19.408C135.069 19.492 135.321 19.534 135.582 19.534ZM143.558 20.584C143.222 20.584 142.881 20.5513 142.536 20.486C142.2 20.4207 141.882 20.3087 141.584 20.15C141.294 19.9913 141.052 19.7767 140.856 19.506C140.66 19.2353 140.534 18.8993 140.478 18.498H141.682C141.775 18.75 141.924 18.9553 142.13 19.114C142.344 19.2633 142.582 19.3707 142.844 19.436C143.114 19.5013 143.371 19.534 143.614 19.534C143.763 19.534 143.936 19.5247 144.132 19.506C144.328 19.4873 144.514 19.4453 144.692 19.38C144.878 19.3053 145.028 19.198 145.14 19.058C145.261 18.918 145.322 18.722 145.322 18.47C145.322 18.2833 145.28 18.1293 145.196 18.008C145.112 17.8867 144.995 17.7887 144.846 17.714C144.696 17.63 144.514 17.5693 144.3 17.532C143.861 17.4387 143.39 17.35 142.886 17.266C142.391 17.182 141.952 17.0233 141.57 16.79C141.439 16.706 141.318 16.6127 141.206 16.51C141.103 16.398 141.014 16.2767 140.94 16.146C140.865 16.006 140.804 15.8567 140.758 15.698C140.72 15.53 140.702 15.348 140.702 15.152C140.702 14.788 140.772 14.4753 140.912 14.214C141.061 13.9433 141.266 13.724 141.528 13.556C141.789 13.3787 142.088 13.248 142.424 13.164C142.769 13.08 143.138 13.038 143.53 13.038C144.015 13.038 144.449 13.1173 144.832 13.276C145.224 13.4253 145.546 13.6493 145.798 13.948C146.05 14.2373 146.199 14.5967 146.246 15.026H145.14C145.074 14.7553 144.897 14.536 144.608 14.368C144.318 14.1907 143.95 14.102 143.502 14.102C143.352 14.102 143.184 14.116 142.998 14.144C142.811 14.1627 142.634 14.2093 142.466 14.284C142.298 14.3493 142.158 14.452 142.046 14.592C141.934 14.7227 141.878 14.9 141.878 15.124C141.878 15.3293 141.929 15.502 142.032 15.642C142.144 15.782 142.298 15.894 142.494 15.978C142.69 16.062 142.914 16.132 143.166 16.188C143.492 16.2533 143.852 16.3233 144.244 16.398C144.636 16.4633 144.944 16.5333 145.168 16.608C145.466 16.7013 145.714 16.832 145.91 17C146.115 17.168 146.264 17.3687 146.358 17.602C146.46 17.8353 146.512 18.106 146.512 18.414C146.512 18.8527 146.423 19.212 146.246 19.492C146.078 19.772 145.849 19.9913 145.56 20.15C145.27 20.3087 144.948 20.4207 144.594 20.486C144.248 20.5513 143.903 20.584 143.558 20.584ZM151.185 20.584C150.401 20.584 149.752 20.4253 149.239 20.108C148.725 19.7813 148.343 19.3333 148.091 18.764C147.839 18.1947 147.713 17.546 147.713 16.818C147.713 16.0807 147.843 15.432 148.105 14.872C148.375 14.3027 148.767 13.8547 149.281 13.528C149.794 13.2013 150.424 13.038 151.171 13.038C151.749 13.038 152.244 13.15 152.655 13.374C153.075 13.5887 153.42 13.878 153.691 14.242C153.961 14.606 154.157 15.0073 154.279 15.446C154.4 15.8753 154.451 16.3093 154.433 16.748C154.423 16.832 154.414 16.916 154.405 17C154.405 17.084 154.4 17.168 154.391 17.252H148.917C148.954 17.6813 149.061 18.0687 149.239 18.414C149.416 18.7593 149.668 19.0347 149.995 19.24C150.321 19.436 150.727 19.534 151.213 19.534C151.455 19.534 151.698 19.506 151.941 19.45C152.193 19.3847 152.417 19.2773 152.613 19.128C152.818 18.9787 152.963 18.778 153.047 18.526H154.265C154.153 19.002 153.943 19.394 153.635 19.702C153.327 20.0007 152.958 20.2247 152.529 20.374C152.099 20.514 151.651 20.584 151.185 20.584ZM148.945 16.216H153.215C153.205 15.796 153.112 15.4273 152.935 15.11C152.757 14.7927 152.515 14.5453 152.207 14.368C151.908 14.1907 151.549 14.102 151.129 14.102C150.671 14.102 150.284 14.2 149.967 14.396C149.659 14.592 149.421 14.8487 149.253 15.166C149.085 15.4833 148.982 15.8333 148.945 16.216ZM158.972 20.584C158.235 20.584 157.628 20.4207 157.152 20.094C156.676 19.758 156.321 19.31 156.088 18.75C155.855 18.1807 155.738 17.5413 155.738 16.832C155.738 16.1227 155.855 15.4833 156.088 14.914C156.321 14.3353 156.681 13.878 157.166 13.542C157.651 13.206 158.272 13.038 159.028 13.038C159.317 13.038 159.607 13.0753 159.896 13.15C160.195 13.2153 160.475 13.3227 160.736 13.472C160.997 13.612 161.221 13.8033 161.408 14.046V10.602H162.598V20.5H161.464L161.408 19.394C161.24 19.674 161.025 19.9027 160.764 20.08C160.512 20.248 160.232 20.374 159.924 20.458C159.616 20.542 159.299 20.584 158.972 20.584ZM159.14 19.534C159.635 19.534 160.05 19.408 160.386 19.156C160.722 18.904 160.979 18.568 161.156 18.148C161.333 17.728 161.422 17.2707 161.422 16.776C161.422 16.2627 161.333 15.8053 161.156 15.404C160.988 15.0027 160.736 14.6853 160.4 14.452C160.064 14.2187 159.639 14.102 159.126 14.102C158.594 14.102 158.165 14.2233 157.838 14.466C157.521 14.7087 157.287 15.04 157.138 15.46C156.998 15.8707 156.928 16.3327 156.928 16.846C156.928 17.2193 156.965 17.5693 157.04 17.896C157.124 18.2133 157.25 18.498 157.418 18.75C157.595 18.9927 157.824 19.184 158.104 19.324C158.384 19.464 158.729 19.534 159.14 19.534ZM171.461 20.584C170.686 20.584 170.037 20.4253 169.515 20.108C168.992 19.7813 168.6 19.3333 168.339 18.764C168.087 18.1947 167.961 17.546 167.961 16.818C167.961 16.0807 168.091 15.432 168.353 14.872C168.614 14.3027 169.006 13.8547 169.529 13.528C170.051 13.2013 170.705 13.038 171.489 13.038C172.263 13.038 172.907 13.2013 173.421 13.528C173.943 13.8547 174.331 14.3027 174.583 14.872C174.844 15.432 174.975 16.0807 174.975 16.818C174.975 17.546 174.844 18.1947 174.583 18.764C174.321 19.3333 173.929 19.7813 173.407 20.108C172.893 20.4253 172.245 20.584 171.461 20.584ZM171.461 19.534C172.002 19.534 172.441 19.4127 172.777 19.17C173.122 18.9273 173.374 18.6007 173.533 18.19C173.701 17.7793 173.785 17.322 173.785 16.818C173.785 16.314 173.701 15.8567 173.533 15.446C173.374 15.0353 173.122 14.7087 172.777 14.466C172.441 14.2233 172.002 14.102 171.461 14.102C170.929 14.102 170.49 14.2233 170.145 14.466C169.809 14.7087 169.557 15.0353 169.389 15.446C169.23 15.8567 169.151 16.314 169.151 16.818C169.151 17.322 169.23 17.7793 169.389 18.19C169.557 18.6007 169.809 18.9273 170.145 19.17C170.49 19.4127 170.929 19.534 171.461 19.534ZM176.567 20.5V13.122H177.715L177.771 14.242C177.939 13.9713 178.154 13.7473 178.415 13.57C178.676 13.3927 178.961 13.262 179.269 13.178C179.586 13.0847 179.894 13.038 180.193 13.038C180.912 13.038 181.472 13.1873 181.873 13.486C182.284 13.7847 182.573 14.1907 182.741 14.704C182.918 15.208 183.007 15.782 183.007 16.426V20.5H181.817V16.748C181.817 16.4027 181.794 16.0713 181.747 15.754C181.71 15.4367 181.626 15.152 181.495 14.9C181.374 14.648 181.196 14.452 180.963 14.312C180.73 14.1627 180.417 14.088 180.025 14.088C179.54 14.088 179.124 14.2233 178.779 14.494C178.443 14.7647 178.186 15.1287 178.009 15.586C177.841 16.0433 177.757 16.5567 177.757 17.126V20.5H176.567ZM192.546 20.626C192.136 20.626 191.739 20.5793 191.356 20.486C190.983 20.3927 190.642 20.2527 190.334 20.066C190.026 19.87 189.765 19.6227 189.55 19.324C189.336 19.0253 189.186 18.6707 189.102 18.26H190.334C190.437 18.5213 190.6 18.7453 190.824 18.932C191.048 19.1187 191.3 19.2633 191.58 19.366C191.87 19.4593 192.154 19.506 192.434 19.506C192.892 19.506 193.298 19.4313 193.652 19.282C194.016 19.1327 194.306 18.904 194.52 18.596C194.735 18.2787 194.842 17.8727 194.842 17.378C194.842 16.6967 194.637 16.174 194.226 15.81C193.816 15.446 193.284 15.264 192.63 15.264C192.238 15.264 191.874 15.334 191.538 15.474C191.212 15.614 190.913 15.8053 190.642 16.048H189.382L189.83 10.602H195.752V11.722H190.922L190.642 14.83C190.894 14.6247 191.202 14.4613 191.566 14.34C191.93 14.2093 192.378 14.144 192.91 14.144C193.545 14.144 194.1 14.2747 194.576 14.536C195.062 14.7973 195.435 15.166 195.696 15.642C195.967 16.1087 196.102 16.664 196.102 17.308C196.102 17.9987 195.944 18.5913 195.626 19.086C195.318 19.5807 194.894 19.9633 194.352 20.234C193.82 20.4953 193.218 20.626 192.546 20.626ZM201.215 20.612C200.767 20.612 200.329 20.5653 199.899 20.472C199.479 20.3693 199.101 20.206 198.765 19.982C198.429 19.758 198.159 19.464 197.953 19.1C197.757 18.7267 197.659 18.274 197.659 17.742C197.659 17.3687 197.725 17.028 197.855 16.72C197.986 16.412 198.173 16.146 198.415 15.922C198.667 15.698 198.961 15.5207 199.297 15.39C198.924 15.2127 198.639 14.9933 198.443 14.732C198.247 14.4613 198.117 14.1813 198.051 13.892C197.986 13.6027 197.953 13.3413 197.953 13.108C197.953 12.6413 198.042 12.2447 198.219 11.918C198.406 11.5913 198.653 11.3207 198.961 11.106C199.279 10.8913 199.629 10.7373 200.011 10.644C200.403 10.5413 200.805 10.49 201.215 10.49C201.626 10.49 202.023 10.5413 202.405 10.644C202.797 10.7373 203.147 10.8913 203.455 11.106C203.773 11.3207 204.02 11.5913 204.197 11.918C204.384 12.2447 204.477 12.6413 204.477 13.108C204.477 13.3507 204.44 13.612 204.365 13.892C204.3 14.172 204.169 14.4427 203.973 14.704C203.777 14.956 203.493 15.1707 203.119 15.348C203.474 15.4787 203.773 15.6607 204.015 15.894C204.267 16.1273 204.454 16.4027 204.575 16.72C204.706 17.028 204.771 17.3687 204.771 17.742C204.771 18.274 204.669 18.7267 204.463 19.1C204.267 19.464 203.997 19.758 203.651 19.982C203.315 20.206 202.937 20.3693 202.517 20.472C202.097 20.5653 201.663 20.612 201.215 20.612ZM201.215 19.506C201.439 19.506 201.682 19.4827 201.943 19.436C202.205 19.3893 202.452 19.3053 202.685 19.184C202.928 19.0533 203.124 18.876 203.273 18.652C203.432 18.4187 203.511 18.12 203.511 17.756C203.511 17.3267 203.399 16.986 203.175 16.734C202.961 16.482 202.676 16.3 202.321 16.188C201.976 16.076 201.607 16.02 201.215 16.02C200.833 16.02 200.464 16.076 200.109 16.188C199.755 16.3 199.465 16.482 199.241 16.734C199.017 16.986 198.905 17.3267 198.905 17.756C198.905 18.12 198.98 18.4187 199.129 18.652C199.288 18.876 199.489 19.0533 199.731 19.184C199.974 19.3053 200.226 19.3893 200.487 19.436C200.749 19.4827 200.991 19.506 201.215 19.506ZM201.215 14.942C201.57 14.942 201.897 14.886 202.195 14.774C202.494 14.6527 202.737 14.4753 202.923 14.242C203.119 13.9993 203.217 13.696 203.217 13.332C203.227 12.9027 203.138 12.562 202.951 12.31C202.765 12.058 202.517 11.876 202.209 11.764C201.911 11.652 201.579 11.596 201.215 11.596C200.842 11.596 200.501 11.6567 200.193 11.778C199.895 11.89 199.657 12.072 199.479 12.324C199.302 12.5667 199.213 12.884 199.213 13.276C199.213 13.668 199.307 13.99 199.493 14.242C199.689 14.4847 199.937 14.662 200.235 14.774C200.543 14.886 200.87 14.942 201.215 14.942ZM206.97 20.5L210.974 11.722H205.738V10.602H212.318V11.61L208.314 20.5H206.97ZM217.35 20.5V13.122H218.498L218.554 14.27C218.741 13.9807 218.955 13.7473 219.198 13.57C219.45 13.3927 219.725 13.262 220.024 13.178C220.332 13.0847 220.663 13.038 221.018 13.038C221.083 13.038 221.144 13.038 221.2 13.038C221.265 13.038 221.331 13.038 221.396 13.038V14.158H220.962C220.383 14.158 219.912 14.284 219.548 14.536C219.193 14.7787 218.937 15.11 218.778 15.53C218.619 15.9407 218.54 16.398 218.54 16.902V20.5H217.35ZM225.628 20.584C224.844 20.584 224.195 20.4253 223.682 20.108C223.169 19.7813 222.786 19.3333 222.534 18.764C222.282 18.1947 222.156 17.546 222.156 16.818C222.156 16.0807 222.287 15.432 222.548 14.872C222.819 14.3027 223.211 13.8547 223.724 13.528C224.237 13.2013 224.867 13.038 225.614 13.038C226.193 13.038 226.687 13.15 227.098 13.374C227.518 13.5887 227.863 13.878 228.134 14.242C228.405 14.606 228.601 15.0073 228.722 15.446C228.843 15.8753 228.895 16.3093 228.876 16.748C228.867 16.832 228.857 16.916 228.848 17C228.848 17.084 228.843 17.168 228.834 17.252H223.36C223.397 17.6813 223.505 18.0687 223.682 18.414C223.859 18.7593 224.111 19.0347 224.438 19.24C224.765 19.436 225.171 19.534 225.656 19.534C225.899 19.534 226.141 19.506 226.384 19.45C226.636 19.3847 226.86 19.2773 227.056 19.128C227.261 18.9787 227.406 18.778 227.49 18.526H228.708C228.596 19.002 228.386 19.394 228.078 19.702C227.77 20.0007 227.401 20.2247 226.972 20.374C226.543 20.514 226.095 20.584 225.628 20.584ZM223.388 16.216H227.658C227.649 15.796 227.555 15.4273 227.378 15.11C227.201 14.7927 226.958 14.5453 226.65 14.368C226.351 14.1907 225.992 14.102 225.572 14.102C225.115 14.102 224.727 14.2 224.41 14.396C224.102 14.592 223.864 14.8487 223.696 15.166C223.528 15.4833 223.425 15.8333 223.388 16.216ZM232.463 20.5L229.621 13.122H230.965L233.289 19.352L235.571 13.122H236.929L234.087 20.5H232.463ZM237.967 20.5V13.122H239.157V20.5H237.967ZM238.555 12.03C238.313 12.03 238.117 11.9553 237.967 11.806C237.827 11.6567 237.757 11.4653 237.757 11.232C237.757 10.9987 237.832 10.812 237.981 10.672C238.131 10.5227 238.322 10.448 238.555 10.448C238.77 10.448 238.957 10.5227 239.115 10.672C239.283 10.8213 239.367 11.008 239.367 11.232C239.367 11.4653 239.288 11.6567 239.129 11.806C238.971 11.9553 238.779 12.03 238.555 12.03ZM244.222 20.584C243.438 20.584 242.789 20.4253 242.276 20.108C241.762 19.7813 241.38 19.3333 241.128 18.764C240.876 18.1947 240.75 17.546 240.75 16.818C240.75 16.0807 240.88 15.432 241.142 14.872C241.412 14.3027 241.804 13.8547 242.318 13.528C242.831 13.2013 243.461 13.038 244.208 13.038C244.786 13.038 245.281 13.15 245.692 13.374C246.112 13.5887 246.457 13.878 246.728 14.242C246.998 14.606 247.194 15.0073 247.316 15.446C247.437 15.8753 247.488 16.3093 247.47 16.748C247.46 16.832 247.451 16.916 247.442 17C247.442 17.084 247.437 17.168 247.428 17.252H241.954C241.991 17.6813 242.098 18.0687 242.276 18.414C242.453 18.7593 242.705 19.0347 243.032 19.24C243.358 19.436 243.764 19.534 244.25 19.534C244.492 19.534 244.735 19.506 244.978 19.45C245.23 19.3847 245.454 19.2773 245.65 19.128C245.855 18.9787 246 18.778 246.084 18.526H247.302C247.19 19.002 246.98 19.394 246.672 19.702C246.364 20.0007 245.995 20.2247 245.566 20.374C245.136 20.514 244.688 20.584 244.222 20.584ZM241.982 16.216H246.252C246.242 15.796 246.149 15.4273 245.972 15.11C245.794 14.7927 245.552 14.5453 245.244 14.368C244.945 14.1907 244.586 14.102 244.166 14.102C243.708 14.102 243.321 14.2 243.004 14.396C242.696 14.592 242.458 14.8487 242.29 15.166C242.122 15.4833 242.019 15.8333 241.982 16.216ZM250.581 20.5L248.285 13.122H249.629L251.393 19.352L253.213 13.122H254.823L256.657 19.352L258.393 13.122H259.751L257.455 20.5H255.831L254.011 14.522L252.191 20.5H250.581ZM263.542 20.584C263.206 20.584 262.865 20.5513 262.52 20.486C262.184 20.4207 261.867 20.3087 261.568 20.15C261.279 19.9913 261.036 19.7767 260.84 19.506C260.644 19.2353 260.518 18.8993 260.462 18.498H261.666C261.759 18.75 261.909 18.9553 262.114 19.114C262.329 19.2633 262.567 19.3707 262.828 19.436C263.099 19.5013 263.355 19.534 263.598 19.534C263.747 19.534 263.92 19.5247 264.116 19.506C264.312 19.4873 264.499 19.4453 264.676 19.38C264.863 19.3053 265.012 19.198 265.124 19.058C265.245 18.918 265.306 18.722 265.306 18.47C265.306 18.2833 265.264 18.1293 265.18 18.008C265.096 17.8867 264.979 17.7887 264.83 17.714C264.681 17.63 264.499 17.5693 264.284 17.532C263.845 17.4387 263.374 17.35 262.87 17.266C262.375 17.182 261.937 17.0233 261.554 16.79C261.423 16.706 261.302 16.6127 261.19 16.51C261.087 16.398 260.999 16.2767 260.924 16.146C260.849 16.006 260.789 15.8567 260.742 15.698C260.705 15.53 260.686 15.348 260.686 15.152C260.686 14.788 260.756 14.4753 260.896 14.214C261.045 13.9433 261.251 13.724 261.512 13.556C261.773 13.3787 262.072 13.248 262.408 13.164C262.753 13.08 263.122 13.038 263.514 13.038C263.999 13.038 264.433 13.1173 264.816 13.276C265.208 13.4253 265.53 13.6493 265.782 13.948C266.034 14.2373 266.183 14.5967 266.23 15.026H265.124C265.059 14.7553 264.881 14.536 264.592 14.368C264.303 14.1907 263.934 14.102 263.486 14.102C263.337 14.102 263.169 14.116 262.982 14.144C262.795 14.1627 262.618 14.2093 262.45 14.284C262.282 14.3493 262.142 14.452 262.03 14.592C261.918 14.7227 261.862 14.9 261.862 15.124C261.862 15.3293 261.913 15.502 262.016 15.642C262.128 15.782 262.282 15.894 262.478 15.978C262.674 16.062 262.898 16.132 263.15 16.188C263.477 16.2533 263.836 16.3233 264.228 16.398C264.62 16.4633 264.928 16.5333 265.152 16.608C265.451 16.7013 265.698 16.832 265.894 17C266.099 17.168 266.249 17.3687 266.342 17.602C266.445 17.8353 266.496 18.106 266.496 18.414C266.496 18.8527 266.407 19.212 266.23 19.492C266.062 19.772 265.833 19.9913 265.544 20.15C265.255 20.3087 264.933 20.4207 264.578 20.486C264.233 20.5513 263.887 20.584 263.542 20.584Z" fill="white"/>
<line x1="277.5" y1="31" x2="277.5" y2="2.18557e-08" stroke="#2B2A42"/>
<path d="M305.476 12.3305H298.803L296.741 6.03955L294.674 12.3305L288 12.3241L293.405 16.2161L291.337 22.5007L296.741 18.6151L302.14 22.5007L300.078 16.2161L305.476 12.3305Z" fill="#00B67A"/>
<path d="M300.542 17.6389L300.079 16.2161L296.742 18.6151L300.542 17.6389Z" fill="#005128"/>
<path d="M309.632 9.64355H319.157V11.4686H315.412V21.7282H313.352V11.4686H309.624L309.632 9.64355ZM318.75 12.9781H320.511V14.6667H320.544C320.602 14.4279 320.71 14.1977 320.868 13.9759C321.026 13.7542 321.217 13.541 321.441 13.3619C321.665 13.1743 321.914 13.0293 322.188 12.9099C322.462 12.799 322.745 12.7393 323.027 12.7393C323.243 12.7393 323.401 12.7479 323.484 12.7564C323.567 12.7649 323.65 12.782 323.741 12.7905V14.6497C323.608 14.6241 323.476 14.607 323.334 14.59C323.193 14.5729 323.06 14.5644 322.927 14.5644C322.612 14.5644 322.313 14.6326 322.031 14.7605C321.748 14.8885 321.507 15.0846 321.3 15.3319C321.092 15.5878 320.926 15.8948 320.801 16.27C320.677 16.6453 320.619 17.0717 320.619 17.5578V21.7196H318.742L318.75 12.9781ZM332.37 21.7282H330.526V20.5086H330.493C330.26 20.9521 329.92 21.3017 329.463 21.5661C329.006 21.8305 328.541 21.967 328.068 21.967C326.947 21.967 326.133 21.6855 325.635 21.1141C325.136 20.5427 324.887 19.6814 324.887 18.53V12.9781H326.764V18.3424C326.764 19.11 326.905 19.6558 327.196 19.9713C327.478 20.2869 327.885 20.4489 328.4 20.4489C328.799 20.4489 329.123 20.3892 329.388 20.2613C329.654 20.1334 329.87 19.9713 330.028 19.7581C330.194 19.5534 330.31 19.2976 330.385 19.0076C330.46 18.7177 330.493 18.4021 330.493 18.061V12.9866H332.37V21.7282ZM335.567 18.9223C335.625 19.4852 335.833 19.8775 336.19 20.1078C336.555 20.3295 336.987 20.4489 337.494 20.4489C337.668 20.4489 337.867 20.4319 338.092 20.4063C338.316 20.3807 338.532 20.321 338.723 20.2442C338.922 20.1675 339.08 20.0481 339.213 19.8946C339.337 19.7411 339.395 19.5449 339.387 19.2976C339.379 19.0503 339.287 18.8456 339.121 18.6921C338.955 18.53 338.748 18.4106 338.49 18.3083C338.233 18.2145 337.942 18.1292 337.61 18.061C337.278 17.9928 336.946 17.916 336.605 17.8393C336.256 17.7625 335.916 17.6602 335.592 17.5493C335.268 17.4384 334.977 17.2849 334.72 17.0888C334.462 16.9011 334.255 16.6538 334.105 16.3553C333.948 16.0568 333.873 15.6901 333.873 15.2466C333.873 14.7691 333.989 14.3768 334.213 14.0527C334.438 13.7286 334.728 13.4728 335.069 13.2766C335.417 13.0805 335.799 12.944 336.223 12.8587C336.647 12.782 337.053 12.7393 337.435 12.7393C337.876 12.7393 338.299 12.7905 338.698 12.8843C339.096 12.9781 339.462 13.1316 339.786 13.3534C340.11 13.5666 340.375 13.848 340.591 14.1891C340.807 14.5303 340.94 14.9482 340.998 15.4343H339.038C338.947 14.9737 338.748 14.6582 338.424 14.5047C338.1 14.3426 337.726 14.2659 337.311 14.2659C337.178 14.2659 337.02 14.2744 336.838 14.3C336.655 14.3256 336.489 14.3682 336.323 14.4279C336.165 14.4876 336.032 14.5814 335.916 14.7008C335.808 14.8202 335.75 14.9737 335.75 15.1699C335.75 15.4087 335.833 15.5963 335.99 15.7413C336.148 15.8863 336.356 16.0057 336.613 16.108C336.871 16.2018 337.161 16.2871 337.494 16.3553C337.826 16.4236 338.166 16.5003 338.515 16.5771C338.856 16.6538 339.188 16.7562 339.52 16.867C339.852 16.9779 340.143 17.1314 340.4 17.3276C340.658 17.5237 340.865 17.7625 341.023 18.0525C341.181 18.3424 341.264 18.7091 341.264 19.1356C341.264 19.6558 341.148 20.0907 340.915 20.4574C340.683 20.8156 340.384 21.1141 340.018 21.3359C339.653 21.5576 339.238 21.7282 338.789 21.8305C338.341 21.9328 337.892 21.984 337.452 21.984C336.912 21.984 336.414 21.9243 335.957 21.7964C335.501 21.6685 335.102 21.4808 334.77 21.2335C334.438 20.9777 334.172 20.6621 333.981 20.2869C333.79 19.9116 333.69 19.4596 333.674 18.9394H335.567V18.9223ZM341.762 12.9781H343.182V10.3514H345.059V12.9781H346.753V14.4194H345.059V19.0929C345.059 19.2976 345.067 19.4682 345.084 19.6217C345.101 19.7667 345.142 19.8946 345.2 19.9969C345.258 20.0993 345.35 20.176 345.474 20.2272C345.599 20.2783 345.757 20.3039 345.973 20.3039C346.105 20.3039 346.238 20.3039 346.371 20.2954C346.504 20.2869 346.637 20.2698 346.77 20.2357V21.7282C346.562 21.7537 346.355 21.7708 346.164 21.7964C345.964 21.822 345.765 21.8305 345.557 21.8305C345.059 21.8305 344.66 21.7793 344.361 21.6855C344.063 21.5917 343.822 21.4467 343.656 21.2591C343.481 21.0715 343.373 20.8412 343.307 20.5598C343.249 20.2783 343.207 19.9543 343.199 19.5961V14.4365H341.779V12.9781H341.762ZM348.082 12.9781H349.859V14.1636H349.892C350.158 13.6519 350.523 13.2937 350.997 13.0719C351.47 12.8502 351.977 12.7393 352.533 12.7393C353.206 12.7393 353.787 12.8587 354.285 13.106C354.784 13.3448 355.199 13.6774 355.531 14.1039C355.863 14.5303 356.104 15.0249 356.27 15.5878C356.436 16.1507 356.519 16.7562 356.519 17.3958C356.519 17.9842 356.445 18.5556 356.295 19.1014C356.146 19.6558 355.921 20.1419 355.622 20.5683C355.323 20.9947 354.941 21.3273 354.476 21.5832C354.011 21.839 353.472 21.967 352.84 21.967C352.566 21.967 352.292 21.9414 352.018 21.8902C351.744 21.839 351.478 21.7537 351.229 21.6429C350.98 21.532 350.739 21.387 350.532 21.2079C350.316 21.0288 350.141 20.8242 349.992 20.5939H349.959V24.9604H348.082V12.9781ZM354.643 17.3617C354.643 16.9694 354.593 16.5856 354.493 16.2103C354.393 15.8351 354.244 15.511 354.045 15.2211C353.845 14.9311 353.596 14.7008 353.305 14.5303C353.007 14.3597 352.666 14.2659 352.284 14.2659C351.495 14.2659 350.897 14.5473 350.499 15.1102C350.1 15.6731 349.901 16.4236 349.901 17.3617C349.901 17.8051 349.95 18.2145 350.058 18.5897C350.166 18.965 350.316 19.2891 350.532 19.562C350.739 19.8349 350.989 20.0481 351.279 20.2016C351.57 20.3636 351.91 20.4404 352.292 20.4404C352.724 20.4404 353.081 20.3466 353.38 20.1675C353.679 19.9884 353.92 19.7496 354.111 19.4682C354.302 19.1782 354.443 18.8541 354.526 18.4874C354.601 18.1207 354.643 17.7454 354.643 17.3617ZM357.956 9.64355H359.833V11.4686H357.956V9.64355ZM357.956 12.9781H359.833V21.7282H357.956V12.9781ZM361.51 9.64355H363.387V21.7282H361.51V9.64355ZM369.142 21.967C368.461 21.967 367.855 21.8476 367.324 21.6173C366.792 21.387 366.344 21.063 365.97 20.6621C365.605 20.2528 365.322 19.7667 365.131 19.2038C364.94 18.6409 364.841 18.0183 364.841 17.3446C364.841 16.6794 364.94 16.0654 365.131 15.5025C365.322 14.9396 365.605 14.4535 365.97 14.0442C366.335 13.6348 366.792 13.3193 367.324 13.089C367.855 12.8587 368.461 12.7393 369.142 12.7393C369.823 12.7393 370.429 12.8587 370.961 13.089C371.492 13.3193 371.941 13.6433 372.315 14.0442C372.68 14.4535 372.962 14.9396 373.153 15.5025C373.344 16.0654 373.444 16.6794 373.444 17.3446C373.444 18.0183 373.344 18.6409 373.153 19.2038C372.962 19.7667 372.68 20.2528 372.315 20.6621C371.949 21.0715 371.492 21.387 370.961 21.6173C370.429 21.8476 369.823 21.967 369.142 21.967ZM369.142 20.4404C369.557 20.4404 369.923 20.3466 370.23 20.1675C370.537 19.9884 370.787 19.7496 370.986 19.4596C371.185 19.1697 371.326 18.8371 371.426 18.4703C371.517 18.1036 371.567 17.7284 371.567 17.3446C371.567 16.9694 371.517 16.6027 371.426 16.2274C371.335 15.8522 371.185 15.5281 370.986 15.2381C370.787 14.9482 370.537 14.7179 370.23 14.5388C369.923 14.3597 369.557 14.2659 369.142 14.2659C368.727 14.2659 368.362 14.3597 368.054 14.5388C367.747 14.7179 367.498 14.9567 367.299 15.2381C367.099 15.5281 366.958 15.8522 366.859 16.2274C366.767 16.6027 366.717 16.9694 366.717 17.3446C366.717 17.7284 366.767 18.1036 366.859 18.4703C366.95 18.8371 367.099 19.1697 367.299 19.4596C367.498 19.7496 367.747 19.9884 368.054 20.1675C368.362 20.3551 368.727 20.4404 369.142 20.4404ZM373.992 12.9781H375.412V10.3514H377.289V12.9781H378.983V14.4194H377.289V19.0929C377.289 19.2976 377.297 19.4682 377.314 19.6217C377.331 19.7667 377.372 19.8946 377.43 19.9969C377.488 20.0993 377.58 20.176 377.704 20.2272C377.829 20.2783 377.987 20.3039 378.203 20.3039C378.335 20.3039 378.468 20.3039 378.601 20.2954C378.734 20.2869 378.867 20.2698 379 20.2357V21.7282C378.792 21.7537 378.585 21.7708 378.394 21.7964C378.194 21.822 377.995 21.8305 377.787 21.8305C377.289 21.8305 376.89 21.7793 376.591 21.6855C376.292 21.5917 376.052 21.4467 375.886 21.2591C375.711 21.0715 375.603 20.8412 375.537 20.5598C375.479 20.2783 375.437 19.9543 375.429 19.5961V14.4365H374.009V12.9781H373.992Z" fill="white"/>
<defs>
<linearGradient id="paint0_linear_1001_2191" x1="44" y1="8.5" x2="44" y2="22.5" gradientUnits="userSpaceOnUse">
<stop stop-color="#FFAE00"/>
<stop offset="1" stop-color="#FF8800"/>
</linearGradient>
<linearGradient id="paint1_linear_1001_2191" x1="44" y1="8.5" x2="44" y2="22.5" gradientUnits="userSpaceOnUse">
<stop stop-color="#FFAE00"/>
<stop offset="1" stop-color="#FF8800"/>
</linearGradient>
<linearGradient id="paint2_linear_1001_2191" x1="44" y1="8.5" x2="44" y2="22.5" gradientUnits="userSpaceOnUse">
<stop stop-color="#FFAE00"/>
<stop offset="1" stop-color="#FF8800"/>
</linearGradient>
<linearGradient id="paint3_linear_1001_2191" x1="44" y1="8.5" x2="44" y2="22.5" gradientUnits="userSpaceOnUse">
<stop stop-color="#FFAE00"/>
<stop offset="1" stop-color="#FF8800"/>
</linearGradient>
<linearGradient id="paint4_linear_1001_2191" x1="44" y1="8.5" x2="44" y2="22.5" gradientUnits="userSpaceOnUse">
<stop stop-color="#FFAE00"/>
<stop offset="1" stop-color="#FF8800"/>
</linearGradient>
</defs>
</svg>
