<svg width="74" height="74" viewBox="0 0 74 74" fill="none" xmlns="http://www.w3.org/2000/svg">
<rect width="74" height="74" rx="18" fill="#19182D"/>
<path d="M48.5742 17H33.0919C32.9178 17 32.7611 17.1063 32.6969 17.2683L24.0304 39.0948C23.9196 39.374 24.1253 39.6769 24.4256 39.6769H33.7716C34.0443 39.6769 34.2465 39.9301 34.1861 40.1961L30.2616 57.4935C30.1592 57.9446 30.7491 58.2116 31.0206 57.837L48.822 33.265C49.0257 32.9839 48.8248 32.5903 48.4776 32.5903H41.0434C40.716 32.5903 40.5115 32.2359 40.6752 31.9525L48.9424 17.6378C49.1061 17.3544 48.9016 17 48.5742 17Z" fill="#FFAA21"/>
<g filter="url(#filter0_f_1001_2863)">
<path d="M49.5742 18.9219H34.0919C33.9178 18.9219 33.7611 19.0282 33.6969 19.1901L25.0304 41.0167C24.9196 41.2958 25.1253 41.5988 25.4256 41.5988H34.7716C35.0443 41.5988 35.2465 41.852 35.1861 42.1179L31.2616 59.4153C31.1592 59.8665 31.7491 60.1335 32.0206 59.7589L49.822 35.1868C50.0257 34.9057 49.8248 34.5122 49.4776 34.5122H42.0434C41.716 34.5122 41.5115 34.1578 41.6752 33.8744L49.9424 19.5597C50.1061 19.2763 49.9016 18.9219 49.5742 18.9219Z" fill="#FFAA21"/>
</g>
<defs>
<filter id="filter0_f_1001_2863" x="21" y="14.9219" width="33" height="49.0146" filterUnits="userSpaceOnUse" color-interpolation-filters="sRGB">
<feFlood flood-opacity="0" result="BackgroundImageFix"/>
<feBlend mode="normal" in="SourceGraphic" in2="BackgroundImageFix" result="shape"/>
<feGaussianBlur stdDeviation="2" result="effect1_foregroundBlur_1001_2863"/>
</filter>
</defs>
</svg>
