<svg width="1440" height="431" viewBox="0 0 1440 431" fill="none" xmlns="http://www.w3.org/2000/svg">
<g style="mix-blend-mode:overlay">
<path d="M265.5 41.5L265.5 110.5L305 110.5L305 111.5L265.5 111.5L265.5 180.5L305 180.5L305 181.5L265.5 181.5L265.5 250.5L305 250.5L305 251.5L265.5 251.5L265.5 320.5L305 320.5L305 321.5L265.5 321.5L265.5 390.5L305 390.5L305 391.5L265.5 391.5L265.5 431L264.5 431L264.5 391.5L195.5 391.5L195.5 431L194.5 431L194.5 391.5L125.5 391.5L125.5 431L124.5 431L124.5 391.5L55.5 391.5L55.5 431L54.5 431L54.5 391.5L-14.5 391.5L-14.5 431L-15.5 431L-15.5 391.5L-84.5 391.5L-84.5 431L-85.5 431L-85.5 391.5L-126 391.5L-126 390.5L-85.5 390.5L-85.5 321.5L-126 321.5L-126 320.5L-85.5 320.5L-85.5 251.5L-126 251.5L-126 250.5L-85.5 250.5L-85.5 181.5L-126 181.5L-126 180.5L-85.5 180.5L-85.5 111.5L-126 111.5L-126 110.5L-85.5 110.5L-85.5 41.5L-126 41.5L-126 40.5L-85.5 40.5L-85.5 -1.70693e-05L-84.5 -1.70256e-05L-84.5 40.5L-15.5 40.5L-15.5 -1.40095e-05L-14.5 -1.39658e-05L-14.5 40.5L54.5 40.5L54.5 -1.09497e-05L55.5 -1.0906e-05L55.5 40.5L124.5 40.5L124.5 -7.88991e-06L125.5 -7.84619e-06L125.5 40.5L194.5 40.5L194.5 -4.83011e-06L195.5 -4.7864e-06L195.5 40.5L264.5 40.5L264.5 -1.77031e-06L265.5 -1.7266e-06L265.5 40.5L305 40.5L305 41.5L265.5 41.5ZM-15.5 321.5L-84.5 321.5L-84.5 390.5L-15.5 390.5L-15.5 321.5ZM-84.5 41.5L-84.5 110.5L-15.5 110.5L-15.5 41.5L-84.5 41.5ZM-84.5 111.5L-84.5 180.5L-15.5 180.5L-15.5 111.5L-84.5 111.5ZM-84.5 181.5L-84.5 250.5L-15.5 250.5L-15.5 181.5L-84.5 181.5ZM-84.5 251.5L-84.5 320.5L-15.5 320.5L-15.5 251.5L-84.5 251.5ZM54.5 321.5L-14.5 321.5L-14.5 390.5L54.5 390.5L54.5 321.5ZM-14.5 41.5L-14.5 110.5L54.5 110.5L54.5 41.5L-14.5 41.5ZM-14.5 111.5L-14.5 180.5L54.5 180.5L54.5 111.5L-14.5 111.5ZM-14.5 181.5L-14.5 250.5L54.5 250.5L54.5 181.5L-14.5 181.5ZM-14.5 251.5L-14.5 320.5L54.5 320.5L54.5 251.5L-14.5 251.5ZM124.5 321.5L55.5 321.5L55.5 390.5L124.5 390.5L124.5 321.5ZM55.5 41.5L55.5 110.5L124.5 110.5L124.5 41.5L55.5 41.5ZM55.5 111.5L55.5 180.5L124.5 180.5L124.5 111.5L55.5 111.5ZM55.5 181.5L55.5 250.5L124.5 250.5L124.5 181.5L55.5 181.5ZM55.5 251.5L55.5 320.5L124.5 320.5L124.5 251.5L55.5 251.5ZM194.5 321.5L125.5 321.5L125.5 390.5L194.5 390.5L194.5 321.5ZM125.5 41.5L125.5 110.5L194.5 110.5L194.5 41.5L125.5 41.5ZM125.5 111.5L125.5 180.5L194.5 180.5L194.5 111.5L125.5 111.5ZM125.5 181.5L125.5 250.5L194.5 250.5L194.5 181.5L125.5 181.5ZM125.5 251.5L125.5 320.5L194.5 320.5L194.5 251.5L125.5 251.5ZM264.5 321.5L195.5 321.5L195.5 390.5L264.5 390.5L264.5 321.5ZM195.5 41.5L195.5 110.5L264.5 110.5L264.5 41.5L195.5 41.5ZM195.5 111.5L195.5 180.5L264.5 180.5L264.5 111.5L195.5 111.5ZM195.5 181.5L195.5 250.5L264.5 250.5L264.5 181.5L195.5 181.5ZM195.5 251.5L195.5 320.5L264.5 320.5L264.5 251.5L195.5 251.5Z" fill="url(#paint0_radial_1001_2117)"/>
</g>
<g style="mix-blend-mode:overlay">
<path d="M265.5 41.5L265.5 110.5L305 110.5L305 111.5L265.5 111.5L265.5 180.5L305 180.5L305 181.5L265.5 181.5L265.5 250.5L305 250.5L305 251.5L265.5 251.5L265.5 320.5L305 320.5L305 321.5L265.5 321.5L265.5 390.5L305 390.5L305 391.5L265.5 391.5L265.5 431L264.5 431L264.5 391.5L195.5 391.5L195.5 431L194.5 431L194.5 391.5L125.5 391.5L125.5 431L124.5 431L124.5 391.5L55.5 391.5L55.5 431L54.5 431L54.5 391.5L-14.5 391.5L-14.5 431L-15.5 431L-15.5 391.5L-84.5 391.5L-84.5 431L-85.5 431L-85.5 391.5L-126 391.5L-126 390.5L-85.5 390.5L-85.5 321.5L-126 321.5L-126 320.5L-85.5 320.5L-85.5 251.5L-126 251.5L-126 250.5L-85.5 250.5L-85.5 181.5L-126 181.5L-126 180.5L-85.5 180.5L-85.5 111.5L-126 111.5L-126 110.5L-85.5 110.5L-85.5 41.5L-126 41.5L-126 40.5L-85.5 40.5L-85.5 -1.70693e-05L-84.5 -1.70256e-05L-84.5 40.5L-15.5 40.5L-15.5 -1.40095e-05L-14.5 -1.39658e-05L-14.5 40.5L54.5 40.5L54.5 -1.09497e-05L55.5 -1.0906e-05L55.5 40.5L124.5 40.5L124.5 -7.88991e-06L125.5 -7.84619e-06L125.5 40.5L194.5 40.5L194.5 -4.83011e-06L195.5 -4.7864e-06L195.5 40.5L264.5 40.5L264.5 -1.77031e-06L265.5 -1.7266e-06L265.5 40.5L305 40.5L305 41.5L265.5 41.5ZM-15.5 321.5L-84.5 321.5L-84.5 390.5L-15.5 390.5L-15.5 321.5ZM-84.5 41.5L-84.5 110.5L-15.5 110.5L-15.5 41.5L-84.5 41.5ZM-84.5 111.5L-84.5 180.5L-15.5 180.5L-15.5 111.5L-84.5 111.5ZM-84.5 181.5L-84.5 250.5L-15.5 250.5L-15.5 181.5L-84.5 181.5ZM-84.5 251.5L-84.5 320.5L-15.5 320.5L-15.5 251.5L-84.5 251.5ZM54.5 321.5L-14.5 321.5L-14.5 390.5L54.5 390.5L54.5 321.5ZM-14.5 41.5L-14.5 110.5L54.5 110.5L54.5 41.5L-14.5 41.5ZM-14.5 111.5L-14.5 180.5L54.5 180.5L54.5 111.5L-14.5 111.5ZM-14.5 181.5L-14.5 250.5L54.5 250.5L54.5 181.5L-14.5 181.5ZM-14.5 251.5L-14.5 320.5L54.5 320.5L54.5 251.5L-14.5 251.5ZM124.5 321.5L55.5 321.5L55.5 390.5L124.5 390.5L124.5 321.5ZM55.5 41.5L55.5 110.5L124.5 110.5L124.5 41.5L55.5 41.5ZM55.5 111.5L55.5 180.5L124.5 180.5L124.5 111.5L55.5 111.5ZM55.5 181.5L55.5 250.5L124.5 250.5L124.5 181.5L55.5 181.5ZM55.5 251.5L55.5 320.5L124.5 320.5L124.5 251.5L55.5 251.5ZM194.5 321.5L125.5 321.5L125.5 390.5L194.5 390.5L194.5 321.5ZM125.5 41.5L125.5 110.5L194.5 110.5L194.5 41.5L125.5 41.5ZM125.5 111.5L125.5 180.5L194.5 180.5L194.5 111.5L125.5 111.5ZM125.5 181.5L125.5 250.5L194.5 250.5L194.5 181.5L125.5 181.5ZM125.5 251.5L125.5 320.5L194.5 320.5L194.5 251.5L125.5 251.5ZM264.5 321.5L195.5 321.5L195.5 390.5L264.5 390.5L264.5 321.5ZM195.5 41.5L195.5 110.5L264.5 110.5L264.5 41.5L195.5 41.5ZM195.5 111.5L195.5 180.5L264.5 180.5L264.5 111.5L195.5 111.5ZM195.5 181.5L195.5 250.5L264.5 250.5L264.5 181.5L195.5 181.5ZM195.5 251.5L195.5 320.5L264.5 320.5L264.5 251.5L195.5 251.5Z" fill="url(#paint1_radial_1001_2117)"/>
</g>
<g style="mix-blend-mode:overlay">
<path d="M1526.5 41.5L1526.5 110.5L1566 110.5L1566 111.5L1526.5 111.5L1526.5 180.5L1566 180.5L1566 181.5L1526.5 181.5L1526.5 250.5L1566 250.5L1566 251.5L1526.5 251.5L1526.5 320.5L1566 320.5L1566 321.5L1526.5 321.5L1526.5 390.5L1566 390.5L1566 391.5L1526.5 391.5L1526.5 431L1525.5 431L1525.5 391.5L1456.5 391.5L1456.5 431L1455.5 431L1455.5 391.5L1386.5 391.5L1386.5 431L1385.5 431L1385.5 391.5L1316.5 391.5L1316.5 431L1315.5 431L1315.5 391.5L1246.5 391.5L1246.5 431L1245.5 431L1245.5 391.5L1176.5 391.5L1176.5 431L1175.5 431L1175.5 391.5L1135 391.5L1135 390.5L1175.5 390.5L1175.5 321.5L1135 321.5L1135 320.5L1175.5 320.5L1175.5 251.5L1135 251.5L1135 250.5L1175.5 250.5L1175.5 181.5L1135 181.5L1135 180.5L1175.5 180.5L1175.5 111.5L1135 111.5L1135 110.5L1175.5 110.5L1175.5 41.5L1135 41.5L1135 40.5L1175.5 40.5L1175.5 -1.70693e-05L1176.5 -1.70256e-05L1176.5 40.5L1245.5 40.5L1245.5 -1.40095e-05L1246.5 -1.39658e-05L1246.5 40.5L1315.5 40.5L1315.5 -1.09497e-05L1316.5 -1.0906e-05L1316.5 40.5L1385.5 40.5L1385.5 -7.88991e-06L1386.5 -7.84619e-06L1386.5 40.5L1455.5 40.5L1455.5 -4.83011e-06L1456.5 -4.7864e-06L1456.5 40.5L1525.5 40.5L1525.5 -1.77031e-06L1526.5 -1.7266e-06L1526.5 40.5L1566 40.5L1566 41.5L1526.5 41.5ZM1245.5 321.5L1176.5 321.5L1176.5 390.5L1245.5 390.5L1245.5 321.5ZM1176.5 41.5L1176.5 110.5L1245.5 110.5L1245.5 41.5L1176.5 41.5ZM1176.5 111.5L1176.5 180.5L1245.5 180.5L1245.5 111.5L1176.5 111.5ZM1176.5 181.5L1176.5 250.5L1245.5 250.5L1245.5 181.5L1176.5 181.5ZM1176.5 251.5L1176.5 320.5L1245.5 320.5L1245.5 251.5L1176.5 251.5ZM1315.5 321.5L1246.5 321.5L1246.5 390.5L1315.5 390.5L1315.5 321.5ZM1246.5 41.5L1246.5 110.5L1315.5 110.5L1315.5 41.5L1246.5 41.5ZM1246.5 111.5L1246.5 180.5L1315.5 180.5L1315.5 111.5L1246.5 111.5ZM1246.5 181.5L1246.5 250.5L1315.5 250.5L1315.5 181.5L1246.5 181.5ZM1246.5 251.5L1246.5 320.5L1315.5 320.5L1315.5 251.5L1246.5 251.5ZM1385.5 321.5L1316.5 321.5L1316.5 390.5L1385.5 390.5L1385.5 321.5ZM1316.5 41.5L1316.5 110.5L1385.5 110.5L1385.5 41.5L1316.5 41.5ZM1316.5 111.5L1316.5 180.5L1385.5 180.5L1385.5 111.5L1316.5 111.5ZM1316.5 181.5L1316.5 250.5L1385.5 250.5L1385.5 181.5L1316.5 181.5ZM1316.5 251.5L1316.5 320.5L1385.5 320.5L1385.5 251.5L1316.5 251.5ZM1455.5 321.5L1386.5 321.5L1386.5 390.5L1455.5 390.5L1455.5 321.5ZM1386.5 41.5L1386.5 110.5L1455.5 110.5L1455.5 41.5L1386.5 41.5ZM1386.5 111.5L1386.5 180.5L1455.5 180.5L1455.5 111.5L1386.5 111.5ZM1386.5 181.5L1386.5 250.5L1455.5 250.5L1455.5 181.5L1386.5 181.5ZM1386.5 251.5L1386.5 320.5L1455.5 320.5L1455.5 251.5L1386.5 251.5ZM1525.5 321.5L1456.5 321.5L1456.5 390.5L1525.5 390.5L1525.5 321.5ZM1456.5 41.5L1456.5 110.5L1525.5 110.5L1525.5 41.5L1456.5 41.5ZM1456.5 111.5L1456.5 180.5L1525.5 180.5L1525.5 111.5L1456.5 111.5ZM1456.5 181.5L1456.5 250.5L1525.5 250.5L1525.5 181.5L1456.5 181.5ZM1456.5 251.5L1456.5 320.5L1525.5 320.5L1525.5 251.5L1456.5 251.5Z" fill="url(#paint2_radial_1001_2117)"/>
</g>
<g style="mix-blend-mode:overlay">
<path d="M1526.5 41.5L1526.5 110.5L1566 110.5L1566 111.5L1526.5 111.5L1526.5 180.5L1566 180.5L1566 181.5L1526.5 181.5L1526.5 250.5L1566 250.5L1566 251.5L1526.5 251.5L1526.5 320.5L1566 320.5L1566 321.5L1526.5 321.5L1526.5 390.5L1566 390.5L1566 391.5L1526.5 391.5L1526.5 431L1525.5 431L1525.5 391.5L1456.5 391.5L1456.5 431L1455.5 431L1455.5 391.5L1386.5 391.5L1386.5 431L1385.5 431L1385.5 391.5L1316.5 391.5L1316.5 431L1315.5 431L1315.5 391.5L1246.5 391.5L1246.5 431L1245.5 431L1245.5 391.5L1176.5 391.5L1176.5 431L1175.5 431L1175.5 391.5L1135 391.5L1135 390.5L1175.5 390.5L1175.5 321.5L1135 321.5L1135 320.5L1175.5 320.5L1175.5 251.5L1135 251.5L1135 250.5L1175.5 250.5L1175.5 181.5L1135 181.5L1135 180.5L1175.5 180.5L1175.5 111.5L1135 111.5L1135 110.5L1175.5 110.5L1175.5 41.5L1135 41.5L1135 40.5L1175.5 40.5L1175.5 -1.70693e-05L1176.5 -1.70256e-05L1176.5 40.5L1245.5 40.5L1245.5 -1.40095e-05L1246.5 -1.39658e-05L1246.5 40.5L1315.5 40.5L1315.5 -1.09497e-05L1316.5 -1.0906e-05L1316.5 40.5L1385.5 40.5L1385.5 -7.88991e-06L1386.5 -7.84619e-06L1386.5 40.5L1455.5 40.5L1455.5 -4.83011e-06L1456.5 -4.7864e-06L1456.5 40.5L1525.5 40.5L1525.5 -1.77031e-06L1526.5 -1.7266e-06L1526.5 40.5L1566 40.5L1566 41.5L1526.5 41.5ZM1245.5 321.5L1176.5 321.5L1176.5 390.5L1245.5 390.5L1245.5 321.5ZM1176.5 41.5L1176.5 110.5L1245.5 110.5L1245.5 41.5L1176.5 41.5ZM1176.5 111.5L1176.5 180.5L1245.5 180.5L1245.5 111.5L1176.5 111.5ZM1176.5 181.5L1176.5 250.5L1245.5 250.5L1245.5 181.5L1176.5 181.5ZM1176.5 251.5L1176.5 320.5L1245.5 320.5L1245.5 251.5L1176.5 251.5ZM1315.5 321.5L1246.5 321.5L1246.5 390.5L1315.5 390.5L1315.5 321.5ZM1246.5 41.5L1246.5 110.5L1315.5 110.5L1315.5 41.5L1246.5 41.5ZM1246.5 111.5L1246.5 180.5L1315.5 180.5L1315.5 111.5L1246.5 111.5ZM1246.5 181.5L1246.5 250.5L1315.5 250.5L1315.5 181.5L1246.5 181.5ZM1246.5 251.5L1246.5 320.5L1315.5 320.5L1315.5 251.5L1246.5 251.5ZM1385.5 321.5L1316.5 321.5L1316.5 390.5L1385.5 390.5L1385.5 321.5ZM1316.5 41.5L1316.5 110.5L1385.5 110.5L1385.5 41.5L1316.5 41.5ZM1316.5 111.5L1316.5 180.5L1385.5 180.5L1385.5 111.5L1316.5 111.5ZM1316.5 181.5L1316.5 250.5L1385.5 250.5L1385.5 181.5L1316.5 181.5ZM1316.5 251.5L1316.5 320.5L1385.5 320.5L1385.5 251.5L1316.5 251.5ZM1455.5 321.5L1386.5 321.5L1386.5 390.5L1455.5 390.5L1455.5 321.5ZM1386.5 41.5L1386.5 110.5L1455.5 110.5L1455.5 41.5L1386.5 41.5ZM1386.5 111.5L1386.5 180.5L1455.5 180.5L1455.5 111.5L1386.5 111.5ZM1386.5 181.5L1386.5 250.5L1455.5 250.5L1455.5 181.5L1386.5 181.5ZM1386.5 251.5L1386.5 320.5L1455.5 320.5L1455.5 251.5L1386.5 251.5ZM1525.5 321.5L1456.5 321.5L1456.5 390.5L1525.5 390.5L1525.5 321.5ZM1456.5 41.5L1456.5 110.5L1525.5 110.5L1525.5 41.5L1456.5 41.5ZM1456.5 111.5L1456.5 180.5L1525.5 180.5L1525.5 111.5L1456.5 111.5ZM1456.5 181.5L1456.5 250.5L1525.5 250.5L1525.5 181.5L1456.5 181.5ZM1456.5 251.5L1456.5 320.5L1525.5 320.5L1525.5 251.5L1456.5 251.5Z" fill="url(#paint3_radial_1001_2117)"/>
</g>
<defs>
<radialGradient id="paint0_radial_1001_2117" cx="0" cy="0" r="1" gradientUnits="userSpaceOnUse" gradientTransform="translate(89.5 215.5) rotate(90) scale(215.5)">
<stop stop-color="white"/>
<stop offset="1" stop-color="white" stop-opacity="0"/>
</radialGradient>
<radialGradient id="paint1_radial_1001_2117" cx="0" cy="0" r="1" gradientUnits="userSpaceOnUse" gradientTransform="translate(89.5 215.5) rotate(90) scale(215.5)">
<stop stop-color="white"/>
<stop offset="1" stop-color="white" stop-opacity="0"/>
</radialGradient>
<radialGradient id="paint2_radial_1001_2117" cx="0" cy="0" r="1" gradientUnits="userSpaceOnUse" gradientTransform="translate(1350.5 215.5) rotate(90) scale(215.5)">
<stop stop-color="white"/>
<stop offset="1" stop-color="white" stop-opacity="0"/>
</radialGradient>
<radialGradient id="paint3_radial_1001_2117" cx="0" cy="0" r="1" gradientUnits="userSpaceOnUse" gradientTransform="translate(1350.5 215.5) rotate(90) scale(215.5)">
<stop stop-color="white"/>
<stop offset="1" stop-color="white" stop-opacity="0"/>
</radialGradient>
</defs>
</svg>
