<svg width="48" height="40" viewBox="0 0 48 40" fill="none" xmlns="http://www.w3.org/2000/svg">
<path d="M40.3284 12.5863L37.3276 17.5105L33.4832 23.8172L31.4686 27.1217L28.4495 32.0784L25.4285 27.1217L23.9867 24.7582L20.9657 19.8015L12.0163 5.11777L8.89648 0H39.0787L35.9589 5.11777L32.755 10.3731H26.7131L29.917 5.11777H18.0564L23.9867 14.8466L27.0076 19.8033L28.4495 22.1668L30.4641 18.8623L31.2875 17.5105H29.6389L29.0222 16.497L26.638 12.5863H40.3284Z" fill="#FF9D00"/>
<path d="M48.0001 0L44.8803 5.11777L41.6763 10.3731H35.6362L38.8402 5.11777L41.96 0H48.0001Z" fill="#FF9D00"/>
<path d="M27.0222 34.4183L24.0012 39.375L20.9803 34.4183L19.5402 32.0548L16.5193 27.0999V27.0981L0 0H6.04193L19.5402 22.1432L22.5612 27.0981V27.0999L24.0012 29.4634L27.0222 34.4183Z" fill="#FF9D00"/>
</svg>
